/* XPM */
static char *bWVka2l0[] = {
/* columns rows colors chars-per-pixel */
"64 64 249 2 ",
"   c #020202",
".  c #0A0706",
"X  c #0C0C0B",
"o  c #120A04",
"O  c #170A05",
"+  c #120D0C",
"@  c #0F100D",
"#  c #13120E",
"$  c #1A140B",
"%  c #1B130D",
"&  c #090C15",
"*  c #130E12",
"=  c #0D1314",
"-  c #141413",
";  c #1A1513",
":  c #1C1916",
">  c #141619",
",  c #171818",
"<  c #1C1C1B",
"1  c #22150E",
"2  c #231514",
"3  c #2A1615",
"4  c #241B15",
"5  c #2A1C16",
"6  c #241618",
"7  c #2B1618",
"8  c #231D1A",
"9  c #2B1B19",
"0  c #311211",
"q  c #371917",
"w  c #341C1B",
"e  c #1D201C",
"r  c #3A200C",
"t  c #2C2516",
"y  c #23211D",
"u  c #2B221B",
"i  c #33251B",
"p  c #3B251B",
"a  c #0D1D25",
"s  c #181D24",
"d  c #2B1D21",
"f  c #381D25",
"g  c #1D2223",
"h  c #1D262D",
"j  c #192633",
"k  c #232424",
"l  c #2A2523",
"z  c #262827",
"x  c #2D2A25",
"c  c #252729",
"v  c #26292A",
"b  c #2B2C2C",
"n  c #342B25",
"m  c #3A2A26",
"M  c #3B2D24",
"N  c #322E2B",
"B  c #2E312E",
"V  c #353027",
"C  c #3D3126",
"Z  c #34312D",
"A  c #3A322B",
"S  c #252C33",
"D  c #262836",
"F  c #2C2E31",
"G  c #332E32",
"H  c #2E3133",
"J  c #2C3337",
"K  c #323334",
"L  c #3A3532",
"P  c #353A37",
"I  c #3C3935",
"U  c #333639",
"Y  c #35393B",
"T  c #393B3C",
"R  c #4A130D",
"E  c #421B1A",
"W  c #491C18",
"Q  c #531D15",
"!  c #591C19",
"~  c #671C19",
"^  c #781D1C",
"/  c #462217",
"(  c #4D241A",
")  c #53231A",
"_  c #5B221B",
"`  c #56281B",
"'  c #63211A",
"]  c #68241B",
"[  c #74251D",
"{  c #7C221F",
"}  c #75301A",
"|  c #4C1C26",
" . c #7B1D22",
".. c #452924",
"X. c #562524",
"o. c #5C2A21",
"O. c #423125",
"+. c #42332A",
"@. c #423A2F",
"#. c #423B34",
"$. c #493834",
"%. c #443D39",
"&. c #5A3636",
"*. c #652626",
"=. c #662C22",
"-. c #6C2C23",
";. c #7C2221",
":. c #742C25",
">. c #7B2B25",
",. c #7B2A2B",
"<. c #653122",
"1. c #6F2E32",
"2. c #7B3937",
"3. c #2F403A",
"4. c #655919",
"5. c #705A18",
"6. c #594B2D",
"7. c #44413D",
"8. c #4C443C",
"9. c #564933",
"0. c #705630",
"q. c #7F642C",
"w. c #2E2F41",
"e. c #3B3E41",
"r. c #533A41",
"t. c #703746",
"y. c #3C4246",
"u. c #324C54",
"i. c #235761",
"p. c #454542",
"a. c #4B4946",
"s. c #564A48",
"d. c #55524B",
"f. c #59564E",
"g. c #4D4F54",
"h. c #584D55",
"j. c #5A5856",
"k. c #654846",
"l. c #774949",
"z. c #764F57",
"x. c #655856",
"c. c #635A5B",
"v. c #536658",
"b. c #6B6656",
"n. c #525965",
"m. c #625760",
"M. c #45616E",
"N. c #6A6964",
"B. c #736B68",
"V. c #687A76",
"C. c #7A7976",
"Z. c #971C1A",
"A. c #85211D",
"S. c #8B231D",
"D. c #94241E",
"F. c #A32B1C",
"G. c #851C25",
"H. c #891826",
"J. c #8B1D25",
"K. c #921E24",
"L. c #852323",
"P. c #8C2425",
"I. c #852925",
"U. c #8C2825",
"Y. c #82262A",
"T. c #8D2229",
"R. c #8D2B2A",
"E. c #932525",
"W. c #992524",
"Q. c #922926",
"!. c #922529",
"~. c #9B262A",
"^. c #922A29",
"/. c #9A2929",
"(. c #88342B",
"). c #953727",
"_. c #823434",
"`. c #883837",
"'. c #913235",
"]. c #A72B25",
"[. c #B52B23",
"{. c #A73328",
"}. c #B23431",
"|. c #FF0405",
" X c #FF1D18",
".X c #FE350B",
"XX c #957B1B",
"oX c #9B4B27",
"OX c #994A38",
"+X c #A75A2A",
"@X c #AB4539",
"#X c #86692E",
"$X c #99772E",
"%X c #886A34",
"&X c #8D7032",
"*X c #957336",
"=X c #AB6929",
"-X c #B16B2A",
";X c #A17B2F",
":X c #BA762A",
">X c #FF5200",
",X c #F1571E",
"<X c #C27A26",
"1X c #8D3A46",
"2X c #A93B40",
"3X c #984649",
"4X c #935257",
"5X c #AB4A4A",
"6X c #A75A5A",
"7X c #BB5D59",
"8X c #8D6E4C",
"9X c #924F66",
"0X c #AE5D67",
"qX c #8B746F",
"wX c #AC6C6F",
"eX c #B5676A",
"rX c #C44844",
"tX c #AA8B16",
"yX c #B28731",
"uX c #D1B616",
"iX c #C78A2A",
"pX c #CA932C",
"aX c #D4992C",
"sX c #D9A42C",
"dX c #D9A72E",
"fX c #E3A829",
"gX c #E9B62B",
"hX c #F0B333",
"jX c #F4DA15",
"kX c #F6CC2F",
"lX c #FBEB24",
"zX c #BBAA5A",
"xX c #8D8879",
"cX c #FDF74C",
"vX c #D7E963",
"bX c #55478D",
"nX c #8E608E",
"mX c #A86E8E",
"MX c #7C8383",
"NX c #878886",
"BX c #969190",
"VX c #AD9A90",
"CX c #A4A09A",
"ZX c #B0B4B3",
"AX c #C8B8BA",
"SX c #C7BFC1",
"DX c #BCC9CA",
"FX c #C4CECF",
"GX c #C6D4D6",
/* pixels */
"L.L.L.L.R.L.T.>.P.P.P.I.P.T.U.P.J.U.A.U.P.L.L.W.L.R._.R.P.T.T.E.P.U.-.S.P.L.R.E.U.L.P.J.!.J.S.G.L.L.J.G.S.A.{ L.S.S.K.G.A.-.G.A.",
"L.L.P.P.P.I.R.L.iXP.).G.U.dXT.g.:X2.gXI.gXJ.,.fXJ.aXJ.iXP.G.v.^.aXJ.aXZ.T.P.P.P.U.).gX0.T.~.+XH.:X-X .=XyXH.oXS.L.L.L.P.L.L.A.;.",
"P.L.P.U.S.P.gXL.8XJ.+XL.H.^.!.U.:XL.hXL.aXyX!.%Xl.sXU.aXdX!.(.oXH.U.T.!.P.P.P.Q.T.G.G.G.T.R.=X*XoXK.+XhX .oXpXP.L.L.L.L.L.L.L.;.",
"P.P.P.P.Z.T.iX). .H.P.T.+X-X).L.iX-XU.U.gX_.dXqX(.hXR.iXH.dXU.:XJ.^.pXiXW.E.E.U.fX).).iXL.T.=X^ =X=XP.H.dX .fX>.P.Y.E.L.L.L.L.;.",
"P.P.U.U.E.K.J.-XT.iXP.P.J.U.dXE.:XQ.hXT.iXT.P.+XE.hX`.fXU.T.T.T.gXT.+XE.E.P.Q.P.P.T.G.L.P.T.+XH.T.U.H.T.).G.G.U.P.P.P.U.P.L.P.A.",
"P.P.P.P.E.U.!.U.U.T.P.T.i.U.R.!.T.E.E.E.W.!.^.!.T.P.E.Z.D.!.T.!.x.U.E.E.I.E.P.kXE.R.T.E.+XK.oX:X:XH.-XgXJ.=XfXT.E.P.P.L.E.P.P.A.",
"=.' =.' =.Q.T.J.T.J.>.P.J.!.J.!.!.!.K.J.H.P.E.U.T.T.G.D.!.T.U.J.Z.K.J.Q.^.U.E.G.H.H.H.H.H.J.E.iXiX<XiX-X:X:X:XL.A.-.=.o.o.o.;.L.",
"Z.Z.Z.Z.M.>.J.).).).yXT.iXoXE.=X^.+XH.W.P.K.H.E.).J.-XE.!.=X=XK.R./.!.Q.E.W.U.P.I.E.Q.!.E.T.U.Q.U.E.!.U.E.T.E.>.n.Z.~.W.Z.Z.u.L.",
"` ` ` ] ` P.P.J.!.J.E.J.E.T.E.T.!.T.E.T.E.E.P.P.T.E.E.Q.,.T.E.T.K.!.T.E.U.W.U.!.Q.D.U.E.!.!.Q.E.E.Q.E.E.E.E.E.I._ ` ] ` ` ] S.L.",
"S.D.E.D.W.E.E.E.W.E.D.W.W.W.W.W.W.E.W.W.W.^.W.W.'.W.W.W.W.W.W.W.W.W.W.W.W.S.L.D.E.W.Q.W.W.U.W.Q.W.D.W.W.W.W.Z.W.W.Q.E.R.!.E.E.S.",
"/ ~ / ) ) / Q / Q / *.W p / / r / / *.~ ~ ~ ~ ^ ^ ^ ] ) ( ` ( ( / [ / / ) _ ` ( _ ) _ ( ) _ ( ) ( _ ,.;.^ ( ' _ { *.' ( ( ( ) ( ",
"C C ;.I.W.:.I.:.k.k.2.:.-.:.>.-.L.:.,.>.:.} >.I.A.% +.C C Z C C C +.C Z A C b C O.b C C g k v g g x Z n V C C C C O.C +.A O.p <.",
"C C t.{ Y.;.A.A.^ z.L.!.^.'.1X2._._.2.2._._._._.l., C +.< O.i N p.p.b v A m C B b n x N x N x Z V C N Z Z Z Z C b Z C.8 B N C M ",
"S n n.h.h.m.c.c.m.c.x.c.c.c.g.c.c.c.c.x.j.c.j.n.v.C M N O.O.Z l B.i b b b b b b n b b b z N x x v b b b x b l b x V a.; V b z N.",
"K Z A Z N N N A L N N N N A N m N N N n K Z n n N N N N A O.b n v k b N N b b v b V K b b b b b k c k v K b x b c b b z z v v =.",
"b 4 I b b b c F N G N b K U N U x b b b b N N b b o Z b N O.c k u y y y < < 8 < < y e 8 8 8 y 8 y < 8 l < y y y < 8 y y 8 b z I.",
"H U . b b b F b b F b b b F H Y b b b b b b b b B b X n b O.z k ; : < : , , , , : , > h a f.z.h.a S > , - < : , < : - < < k k :.",
"b b J b b b b b b b b F B H H H b b b b H H B b b H v b N b b s ] [.[.{ ] ] ] *.~ ! wX4XW _ ] ! ! wXeXW _ _ ' ~ ' [ {.].< c v =.",
"Z v K K S b F b b H B K b b H H H U H H U U H B b H b b b v F g {.D.> , < , > a eXX.| 7 B.AXAX3 w d o.&.eXd l > , , ! F.< k k !.",
"B b H v b F b b H X 4 % z M n Z n C n x n x F v b F F b N M c k [.- - > - , e 6X*.f BXX , : - , < s.x.9 X.eX> < ; , ; {.e v k =.",
"H b F Z H B b B   , % 9 y 5 5 4 8 4 8 t t 5   H F B B F Z A v g = - > = > - h.| d @ : > f q 3 w - g - ; 7 *.eXs , - - ; e k k q ",
"H %.#.A %.a.%.%.I   ; 8 4 5 8 4 8 8 8 4 8 4 a.7.%.%.$.#.P +.H e 2 2 ; 4 ; DX3XSX; l 7 w 7 q w , < = - < L r.5XeX4 4 7 7 < k z # ",
"F # % 3 1 $ 6 n , , 8 8 : y 5 8 4 t 8 8 5 t #.$ : $ o x L M H g 6 2 6 2 DX@XqXG - &.1X7 , 6 : - k.2 X.X.%.e.z.,.qX8 4 6 e z k # ",
"N f.N m % . N N Q Q ! Q Q p Q Q Q Q Q ~ ! Q Z % ; % # $ : x c d 7 2 3 3 cXr. XD 1.wXmX|.& [.& vXu.R..X!.zX|.V.8XZX6 2 4 e z k < ",
"K %.- X - B   $ { { { A. . .{ { ^ G.L.^ { [ - % 7.N - : 4 n b k 3 6 7 ZXcXNXxXk ,X|.bX,X|.2X+X& + `.>X|.2.|. Xm 2.s.w 5 < k c , ",
"Z . a.L e b a.R P.P.U.P.U.U.E.P.U.U.T.P.T.L.I 7., # p.f.4 O.v < 3 3 7 DXcX*.kX,.t.VXt..Xf |.& 3.bX4X>X`.hX|.v.8X{.DX3 3 e b z ; ",
"m X d.k g a.x.Q E.Q.!.~.Q.W.W.I./.Q.W.W.~.W.  k 7.< a.N.8 O.v y 7 3 0 qXR w W 3X9X9XmXmXt.& d f 0Xz.3XOX_.Y.N W ).DXi 3 d c k # ",
"K I N d.c.b.C.0 /.R././././././.!././././.W.l z : s.p.N.8 x b k 3 3 E ].l.j.&.3X2X3X1X4XwXf 1X7 q '.5X3X_.^.6 E 2.k.3 7 e v b - ",
"Z B.< . X d.j.- R.Q.^.Q.Q.'.`.Q././.W.Q.R.W.B.b - k u B.@.C b s 2 3 R F.qX8.o.3X4X1XmXmXz.mX4Xk.l.6X6X,.:.;.o w 2.&.3 5 < v k ; ",
"H d.. z - 2 N f.<.` =.` o.t.:.<.P.=.=.=.=.U.8.x u x a.d.n n b y q 3 0 ~ 0.nX: E E * . m , wXwX* ; o : , 2 X.2 W (.x.q 3 e c v k ",
"H $   # u b k A l 5 8 4 8 t 4 8 < 8 t 5 u 5 < 5 4 , 4 4 N C z k 3 2 5 x.^.l.E p 5 , , w.; p 7X= > d - E w f s.X.].ZXw 3 e c v $ ",
"H o $ > , # - A l 8 8 4 8 5 4 5 8 9 4 < 5 4 U b b F v F H M b k 2 1 n DX{.k., E 8 ; - - > *.1X7Xn.; ; 1 q | B.Q ).GX3 6 < v k , ",
"H B O - - * + p.u 8 : < 8 4 8 5 8 8 , : 8 : F B H F b H N O.b k 2 q 6 ZX..r.l 7 | @.> , _.5X5XOX4 ; E a.| ; s.p q NX1 7 < c c 1 ",
"U Z O + < k X 7.8 ; 4 2 ; % 4 8 % 6 4 4 4 : K H H b b H b n F g % 6 2 % ..5Xk.8 w 3 i ; X.X.X._.rXp a.0 W h.9X^.B.1 6 7 x b c # ",
"P K + ; ; + X %.X c H J U K H H K K B H B b b H b H Z F F O.b g 2 6 2 3 eXk.r.$.- p 9 6X_./ I.'.f W 6 W 8 r.z.m wX9 8 2 e v c + ",
"Y K O = < X - %.H H H H K b q.0.8.&X#XH 6.F H H b F F F b M F g 2 * * 6 < l.*.| 9 - 5 }.*.:._ _ 2X@X7 < w w 1.6X< ; : < < c v X ",
"Y U O k = X X 8.J U J H H T q.J K 6.0.F A H H H H H b F F m J g @X5.lXtX4.6.XX) tXjXXXuXjX1.fX| jX4.& q.uXX.yXc q.zX5.! e v v k ",
"P L O , - # v I J H H H H K w.J S v F J j D B B H H F H B O.F k [.X.V & u 8 &.u &.k.k.r , p , + 3 m c.8Xk...e u > t z ].a c k < ",
"K U o - + k k %.U H H J B ;XH #X6.B *X0.F &XF F K H H F K M K k 7X[.P.q q w E d 6X= *.*.0 N s.5 q ~ &.- 7X$.k.k.k.s.{.[.< b v e ",
"U K . Z y , X %.T H U K K 0.B I H 0.J S S #XK H F K H H B M b s ; @ - - , 9 , < > C.FX. - % - - - # 7Xc.; < < ; ; - , ; e b k X ",
"T K . 4 ; - # I L T N F K j S j c F S h h F D K U H K J B O.F k ; > = - - : - > - ; ; X BXFXGXFXNX. # - , - y < - # ; , < F B # ",
"I Y . < < ; # #.U K H J K #XH S 6.9.S H 6.D 9.H H H F F F M H c 8 < 8 < e g < < e < e < s e < < e < y < < e < g < e y k < v b # ",
"Y U O < ; < , I K F F H F %XD #XS h h c v ;XJ B H K H H U m F H N b H J F v S F b v b b b v F b H b S b k H b b b z c v v c b @ ",
"Y Y O b z k < A N F U K J 9.b c 9.J I @.L U J K U H K H K O.F H F v S F H F b b F b H v F F F b b S b K K v S b b c k H v b v - ",
"p.U % , z : b Z N K K K K B b b H F H F U U U K T H J H H M F H F v F v H v b F H b Z b B v H K v b b F K b z b v H v z c v b X ",
"e.U 1 k y 8 b Z G B K K J 0.F K K F F H J q.U J H U H K H M F H S b F J u K N K A L K H A K L L L U B K K B K B b v v z b b v X ",
"e.T i b v P K +.Z K F T G H #XD b H F S &XH H K K K K K H C H b F F b F l P Z V N H K B H Z B N B Z b H v , B H v b v b B v z . ",
"p.P : : < T - C K K F F U N H *XS B S ;XF K H K H U U F H n F K H b H v k x +.; 1 % 5 p 1 % % : u 1 1 3 ; F b b b F v v F v v . ",
"e.y.k P V V k A K H K H T *XS F yXS $XH S *XK F U K B Y K e.F F H F F K k V O.K N.K U C K K F H V B N.b b b v N b b c b k v b + ",
"y.d l + - T - n x K U Y J H #Xh S yXb v $XS F F U U T U N Y H H F H U F x K V A Z A A C L L A A C K Z H K T K F v b c c c F v + ",
"Y g.b Z : # # x 7.Y U U U K J 0.S F S $XZ J J K U U K U B M H U K K U K k b N A Z A Z Z A @.#.L I A H J F F x b v v F v k v c X ",
"Y C $., - # ; u x.K K U K yXh H 0.S $XV F yXD K H H H U K A H H H F K b < v C Y P T P u T I Y Z b P U U z F b b b c v v k b k X ",
"e.f.8.x < y , y B Y U H H J &Xc S q.D F #XU H H K H K H Y M J F b H K H y K O.K a.K K l K k H L n N H B b b H b c b   X Y k b + ",
"y.j.8.: f.x.. i n U K K K B J *Xv b F &XF H H H H K U U U C T T K H F H y b N F F M C Z H C C L U +.M N N b b x b b > H z b c - ",
"Y f.7.u t 8.  Z f.H K H H H H F #Xj $Xb U H U H H U P K K N H H H F K H y K H n k k x Z n n i N C n l z l b b x v   F     c k g ",
"e.d.N.$ b 1 N.x.@ T U U H H H F F $Xv F F e.H H H H H H H Z H Y U K K H < Z n P g.K U M K Z K Z N b l b N b N b b c     < v v <.",
"Y a.p.u # o % x f.K H P J H H B F b F U H K T H H K Y K H n K K H T J H < H n U U K #.M Z MXZ I n b 7.B N F N z S b m c c c c >.",
"T c.+ < : - - - j.H B B H H B H F K H K K H U K H K Y K K M H b H H P H e v H C L Z Z Z H N b Z b V N K b b b l b c k c c c k :.",
"U x.# 5 ; - < = d.K U H H H H H H J H K U T U Y Y K H U K n F K H H H K < H Z 8 4 ; : Z , ; : ; b - - = ; b b l c c c v c v k -.",
"e.c.t - x % j.- x.K K H T U H H H H H K U U U U T Y b H K N H K H U H H y b C K %.K K M H NXB K n b NXN b F b z v v c v k v g 1.",
"y.B.$   n O ; o a.K U U K T U H H H J U Y T K K U T K U K M K J H F K F l K O.H P K K M B NXZ Z l b g.b b b N 9 c c c c c z g -.",
"y.B.k e - X k @ f.P U T Y U Y Z H F K Y Y H K K K H H e.P N K H F F U Y u k H b K Z N N n n b b b Z Z N x K k z c c c b v k k ` ",
"Y K xXCXCXC.xXxXf.J Y P U T U H U F F U H U U U U K K H K u T b s.d.U U ; % $ ; # 1 ; ; $ ; $ ; ; $ - % % $ % k c c 8.7.L v k -.",
"P T 3.Y Y U e.Y K U J y.T K H H U b U T J U K U U U T H k i k H d.b H H U b H U b H b F H v F c v v b b b v v k c c y a.N c * o."
};
