/* XPM */
static char *aGx0JTJC[] = {
/* columns rows colors chars-per-pixel */
"72 72 8 1 ",
"  c #3B0402",
". c #6C100C",
"X c #A10E0A",
"o c #FF0606",
"O c #C6223B",
"+ c #FF8181",
"@ c white",
"# c None",
/* pixels */
"########################################################################",
"########################################################################",
"########################################################################",
"########################################################################",
"########################################################################",
"########################################################################",
"########################################################################",
"########################################################################",
"########################################################################",
"########################################################################",
"########################################################################",
"########################################################################",
"########################################################################",
"########################################################################",
"########################################################################",
"########################################################################",
"########################################################################",
"########################################################################",
"########################################################################",
"########################################################################",
"########################################################################",
"########################################################################",
"############################....############    ########################",
"##########################..OOOO..########  XXXX  ######################",
"#########################.OOooooOO.###### XXXXXXXX #####################",
"########################.OOooooooOO  ##  XXXXXXXXXX ####################",
"#######################.OOoooooooooOO  XOOOOXXXXXXXX ###################",
"#######################.OooooooooooooOOOOOOOOOXXXXXX ###################",
"######################.Ooooo++oooooooooOOOOOOOOXXXXXX ##################",
"######################.Oooo++++oooooooooOOOOOOOOXXXXX ##################",
"#####################.Oooo++++++ooooooooOOOOOOOOXXXXXX #################",
"#####################.Oooo++++++ooooooooOOOOOOOOOXXXXX #################",
"#####################.ooooo++++oooooooooOOOOOOOOOXXXXX #################",
"#####################.oooooo++ooooooooooOOOOOOOOOXXXXX #################",
"#####################.ooooooooooooooooooOOOOOOOOOXXXXX #################",
"#####################.oooooooooooooooooOOOOOOOOOOXXXXX #################",
"#####################.OooooooooooooooooOOOOOOOOOOXXXXX #################",
"#####################.OOooooooooooooooOOOOOOOOOOOXXXXX #################",
"######################.OOooooooooooooOOOOOOOOOOOXXXXX ##################",
"######################.XOOooooooooooOOOOOOOOOOOOXXXXX ##################",
"##################        OooooooooOOOOOOOOOOOOXXXXX ###################",
"################## @@@@@@ OOOooooOOOOOOOOOOOOOOXXXXX ###################",
"################## @@@@@@ XOOOOOOOOOOOOOOOOOOOXXXXX ####################",
"################## @@@@@@ XXOOOOOOOOOOOOOOOOOXXXXX #####################",
"##############     @@@@@@     OOOOOOOOOOOOOOXXXXX ######################",
"############## @@@@@@@@@@@@@@ OOOOOOOOOOOOOXXXXX #######################",
"############## @@@@@@@@@@@@@@ XOOOOOOOOOOOXXXXX ########################",
"############## @@@@@@@@@@@@@@ XXOOOOOOOOOXXXXX #########################",
"############## @@@@@@@@@@@@@@ .XXOOOOOOOXXXXX ##########################",
"############## @@@@@@@@@@@@@@ #.XXOOOOOXXXXX ###########################",
"############## @@@@@@@@@@@@@@ ##.XXOOOXXXXX ############################",
"##############     @@@@@@     ###.XXXXXXXX #############################",
"################## @@@@@@ ######## XXXXXX ##############################",
"################## @@@@@@ ######### XXXX ###############################",
"################## @@@@@@ ########## XX ################################",
"##################        ###########  #################################",
"########################################################################",
"########################################################################",
"########################################################################",
"########################################################################",
"########################################################################",
"########################################################################",
"########################################################################",
"########################################################################",
"########################################################################",
"########################################################################",
"########################################################################",
"########################################################################",
"########################################################################",
"########################################################################",
"########################################################################",
"########################################################################"
};
