/* XPM */
static char *bGVldDE_[] = {
/* columns rows colors chars-per-pixel */
"64 64 241 2 ",
"   c #0A0704",
".  c #0D0A05",
"X  c #0D0C08",
"o  c #110E0B",
"O  c #0D1007",
"+  c #15170A",
"@  c #13120C",
"#  c #161412",
"$  c #191714",
"%  c #181916",
"&  c #1C1C1A",
"*  c #24190D",
"=  c #221C12",
"-  c #201F1D",
";  c #1B260C",
":  c #1C2618",
">  c #22211E",
",  c #292819",
"<  c #362D1B",
"1  c #263618",
"2  c #37311F",
"3  c #221F20",
"4  c #1A2726",
"5  c #242423",
"6  c #292626",
"7  c #252B2A",
"8  c #2C2B2B",
"9  c #362E21",
"0  c #382F21",
"q  c #302E2E",
"w  c #2B3428",
"e  c #343126",
"r  c #3B3323",
"t  c #35352B",
"y  c #343B2C",
"u  c #3C3B2D",
"i  c #283533",
"p  c #343432",
"a  c #373836",
"s  c #3B3B32",
"d  c #3C3B3B",
"f  c #4D1711",
"g  c #42240C",
"h  c #4A2B0D",
"j  c #4C2818",
"k  c #5F2523",
"l  c #423D2D",
"z  c #4B3F29",
"x  c #433E32",
"c  c #772A26",
"v  c #7D2D2A",
"b  c #6A312D",
"n  c #7B312D",
"m  c #7B3934",
"M  c #2A4A18",
"N  c #1D403C",
"B  c #394729",
"V  c #374539",
"C  c #314B38",
"Z  c #456810",
"A  c #43452D",
"S  c #51422F",
"D  c #42542D",
"F  c #45592C",
"G  c #444334",
"H  c #4A4535",
"J  c #494935",
"K  c #42433B",
"L  c #4B463A",
"P  c #4D4B3C",
"I  c #534635",
"U  c #514D3E",
"Y  c #4B5B34",
"T  c #495838",
"R  c #53503F",
"E  c #535E3C",
"W  c #4B6A2F",
"Q  c #53623B",
"!  c #58633F",
"~  c #556B3B",
"^  c #3A3F40",
"/  c #403F40",
"(  c #33524D",
")  c #32645D",
"_  c #444643",
"`  c #464941",
"'  c #4B4B44",
"]  c #524E42",
"[  c #514D49",
"{  c #4D534A",
"}  c #545242",
"|  c #5A5644",
" . c #5D5946",
".. c #56554B",
"X. c #5E5A49",
"o. c #4F5A59",
"O. c #555A56",
"+. c #605D4B",
"@. c #75554E",
"#. c #635C53",
"$. c #5A6641",
"%. c #5E6A4E",
"&. c #66734B",
"*. c #67794A",
"=. c #676354",
"-. c #6C6C57",
";. c #64645C",
":. c #696259",
">. c #576564",
",. c #5E6F71",
"<. c #6C6763",
"1. c #6D6A66",
"2. c #6F6968",
"3. c #716C63",
"4. c #736D6D",
"5. c #6E796E",
"6. c #73726B",
"7. c #777569",
"8. c #767271",
"9. c #787172",
"0. c #7D7B73",
"q. c #84322F",
"w. c #8D3532",
"e. c #873834",
"r. c #83423D",
"t. c #945550",
"y. c #966A64",
"u. c #817E75",
"i. c #967B74",
"p. c #3BA61C",
"a. c #509518",
"s. c #48A41C",
"d. c #4AB81D",
"f. c #55B21C",
"g. c #6FB11C",
"h. c #4D9E22",
"j. c #47A422",
"k. c #5BAB21",
"l. c #4ABD21",
"z. c #56BD25",
"x. c #6BAD24",
"c. c #68BA27",
"v. c #78BB24",
"b. c #77B03C",
"n. c #65C01E",
"m. c #5BC527",
"M. c #5AC533",
"N. c #66C729",
"B. c #64C52B",
"V. c #6CC22B",
"C. c #73C62B",
"Z. c #7BC42A",
"A. c #7CCA2C",
"S. c #68C734",
"D. c #78C835",
"F. c #73D331",
"G. c #668348",
"H. c #77B544",
"J. c #748468",
"K. c #7F837C",
"L. c #67CA46",
"P. c #78CD48",
"I. c #6BD547",
"U. c #79D549",
"Y. c #7EE34F",
"T. c #89BA2A",
"R. c #87C72C",
"E. c #96C92E",
"W. c #84D12E",
"Q. c #84C935",
"!. c #92D331",
"~. c #A3CB2C",
"^. c #B2CE30",
"/. c #ABDC32",
"(. c #8FEC36",
"). c #AAE534",
"_. c #CDCC31",
"`. c #82B848",
"'. c #848279",
"]. c #84837B",
"[. c #88897E",
"{. c #928B7D",
"}. c #8CCE4B",
"|. c #85D44A",
" X c #87D74A",
".X c #96D74B",
"XX c #9ADB4C",
"oX c #88D651",
"OX c #A5DD4C",
"+X c #B4D44E",
"@X c #99E64B",
"#X c #93E84F",
"$X c #A7E54E",
"%X c #B6E74D",
"&X c #BDEC51",
"*X c #D2DB50",
"=X c #C9F453",
"-X c #74898B",
";X c #778A8C",
":X c #7C9394",
">X c #7F9698",
",X c #47A997",
"<X c #4ED3BD",
"1X c #51DBC5",
"2X c #58E8D7",
"3X c #878885",
"4X c #8C8C84",
"5X c #918D84",
"6X c #8F9386",
"7X c #919187",
"8X c #94948B",
"9X c #98968E",
"0X c #97998D",
"qX c #989A8E",
"wX c #81999B",
"eX c #979791",
"rX c #9C9C94",
"tX c #9F9F98",
"yX c #A09F99",
"uX c #99A28B",
"iX c #9CAB8D",
"pX c #9DA193",
"aX c #9DAA93",
"sX c #9FA199",
"dX c #A1A297",
"fX c #A3A39C",
"gX c #A4A99C",
"hX c #A1B093",
"jX c #A8AAA3",
"kX c #AAABA4",
"lX c #B3AAA2",
"zX c #ADB4A4",
"xX c #AEB1A9",
"cX c #B2B3AB",
"vX c #B4B9AB",
"bX c #B9BBB5",
"nX c #BEC2B6",
"mX c #BEC1C1",
"MX c #CBCEC9",
"NX c #D5D9D4",
"BX c #D5D8D5",
/* pixels */
"4.4.4.6.4.4.4.4.4.4.4.4.4.8.4.4.4.4.4.4.4.4.4.4.4.4.4.6.4.4.4.4.4.fX4.4.6.4.4.4.4.4.4.4.4.4.4.4.4.4.4.4.4.4.4.4.4.4.4.4.4.4.4.4.",
"4.4.4.4.4.4.4.4.5.4.4.4.4.4.4.4.8.6.4.4.4.4.4.4.4.4.4.4.4.4.4.cXtXtX].4.4.4.4.4.4.4.4.4.4.4.4.4.4.4.6.4.4.4.4.4.4.4.6.4.4.4.6.4.",
"4.6.4.4.4.4.4.4.4.4.4.6.4.4.4.4.4.4.4.6.4.4.4.6.4.4.4.4.4.4.tXfXtX< 6.4.4.mX4.4.4.4.4.4.4.4.4.6.4.4.4.4.4.4.4.4.4.5.4.4.4.4.4.4.",
"4.4.4.4.4.4.4.4.4.4.4.4.4.4.4.4.4.4.4.4.4.4.4.4.4.4.yXjXtXjXtXX.K , 4.'.3XrXNX4.4.4.4.4.3.6.4.4.4.4.4.4.4.5.4.4.4.4.4.4.4.4.4.4.",
"4.4.4.4.4.4.8.4.4.4.4.4.4.4.4.4.4.4.4.4.4.4.eXlXfXsXyXrXrX8Xu P } 4.4., rXeXrXdXNX3.4.4.4.4.4.4.4.4.4.4.4.4.4.4.4.4.4.4.8.4.4.4.",
"4.4.4.4.4.4.4.4.4.4.4.4.4.4.4.4.4.4.4.gXyXtXtXyXtXtX= , G P } | qX4.' $ $ rXqXsXdXbXNXMX4.4.4.4.4.6.4.4.4.4.4.4.4.4.4.4.4.4.4.4.",
"4.4.4.6.4.4.4.4.4.4.4.4.4.8.4.zXfXyXyXtXtXtX, * V P ] [ } X.tXtXyXO.q 8 8 = 4XsXyXfXyXrXNXNX4.4.4.4.4.4.4.4.4.4.4.4.4.8.4.4.6.4.",
"4.4.4.4.4.6.4.4.4.4.4.eXsXsXsXsXyXyXK = s L U U | | X.+.#.fXfXjXeXx 6 8 6 e = 0.fXfXrXyXrXrXvXNXmX4.4.4.4.4.4.4.4.4.4.4.4.4.4.4.",
"4.4.4.4.4.4.4.4.4.4.4.sXsXtX4X= u K P ] | | +.| X.<.yXfXyXfXjXlXtXa 6 8 6 G e = 3XdXdXrXrXrXrXrXfXNXNX4.4.4.4.4.4.4.4.4.6.4.4.4.",
"4.4.4.6.4.4.4.4.4.4.sX0Xt G P ] f f j f #.3.t.9Xy.y.i.jXi.lXy.i.rXd 5 5 7 5 L G u , 4XrXrXrXrXrXrXtXgXkXNXbX4.4.4.4.4.4.4.4.4.4.",
"4.4.4.4.4.4.4.6.4.4.jXrXG P | X.f b i.s u.fXy.yXt.i.lXlXi.lXt.t.eX5 2.K.3X+ P ] U P G G y 8X8XrXqXeXrXtXtXfXNX4.4.4.4.4.4.4.4.4.",
"4.4.4.4.4.4.4.4.4.4.gXeXG  .3X8Xq.e._ 8 ' kXlXjXjXxXcXcXcXcXxXxXeX3 5 8 3X+ | | | } } P H G G [.8X8X9XrXtXtXsXNX4.4.4.5.4.4.4.4.",
"4.4.4.4.4.4.6.4.4.4.fXqX4.3X8X8Xe.q.@._ [ kXkXxXxXcXxXxXcXcXxXxXtX3 3 x O.6 S S I | | a p a a d d / 8X8XtXtXrXrX6.4.4.4.4.4.4.4.",
"6.4.4.4.4.4.4.4.4.4.yXyXb n n n m V 6 w.w.w.w.w.kXbXbXbXcXcXcXxXrXp O., 2 5 S S 8 8 8 8 q p p a a d / G 7.rXrX8X4.4.4.4.4.4.5.4.",
"4.4.4.6.4.4.4.4.4.4.gX9Xk c v v n t.e.q.e.e.e.e.[ L ( K ..nXcXkX8X# # 6 > 5 A > 5 6 6 8 8 8 8 q q a a d H y eXtX4.4.4.4.4.4.4.4.",
"4.4.4.4.4.6.4.4.4.4.gX8Xk c c q.m e.v q.e.q.e.' o.wX;X;Xo.` bXkXeX# $ $ 5 5 l @ # + # q p a p p a d x a T B eXfX4.4.4.6.4.4.4.4.",
"4.4.4.4.4.4.4.4.8.4.fXrXk c q.e.v v v @.v v ' >.;X:X;X;X;Xo.<.kXeX- % 7 6 7 1 ; + ; , 1 1 w B B B u B G E A fX0X6.4.4.4.4.4.4.4.",
"4.6.4.4.6.4.4.4.4.4.yX9X#.7.u.u.v v r.:.{.u.[ :X-Xo.o.,.:X;X` cXrX& & 7 8 8 1 Z a.a.p.s.a.s.p.x.c.g.x.~.Q D 0XpX4.4.4.4.6.4.4.4.",
"4.4.4.4.4.4.4.4.6.4.fX9X6.4X8X8Xn m m n 7X6.o.>X( d ( o.:X>X_ fXqX3 & ) 2Xw Y z.R.f.z.N.N.Z.B.!.W.B.Z.A.~ F 0X0X6.4.4.4.4.4.6.4.",
"4.4.4.4.4.4.4.4.4.4.fXqX8.4X8X8Xn v n c 4X| { >XwX>.O.5.:X5._ tX0X3 & 7 7 5 Y v.l.n.n.N.N.N.B.S.D.F.B.W.~ F 0XqX4.4.4.4.4.4.8.4.",
"4.4.4.6.4.4.4.4.4.4.gXqX8.3X7X8Xv n b c '.U ' >.wXwXwX,.wXo.<.rXtX5 & 7 7 : W B.l.d.m.F.m.B.V.F.F.Q.m.!.~ F uXqX4.4.4.6.4.4.4.4.",
"4.4.4.4.4.4.4.4.4.6.fXyX8.4X7X5X4X4X'.'.u.] I { >.>XwX-X>.' 4X9XtX3 7 2X1X: W l.d.m.n.F.V.(.(.F.S.C.A.W.~ F uXqX4.4.4.4.4.4.4.4.",
"4.4.4.4.4.4.4.4.4.4.fXrXV   . 9 8X4X[.'.'.7.R H a { ..{ s 0.7XrXsX3 4 7 7 , W a.M > : > 3 5 6 6 8 8 8 q T A iXqX4.4.4.4.4.4.4.4.",
"4.6.4.4.4.5.4.4.4.4.yXrX[ [ t @         + u.[.R P I H I X.'.8XrXtX3 3 7 7 + O O . o O . . o $ $ # # @ & V < iXiX4.4.4.4.4.4.4.6.",
"4.4.4.4.4.4.4.4.4.4.x 3 X.4.L L H G u t .     . O , u.'.'.[.5X8XrX3 4 ) <X@ X o o # & > > 6 6 6 6 6 q p V g iXiX4.4.4.4.4.4.4.4.",
"4.4.4.4.4.4.4.4.4.4.y.[ * 4.P P ' U H G x l u u 9   . . O + , qX'.& % 7 4 @ o Z d.d.c.f.f.c.B.(.c.E.Z.v.E h iXaX6.4.4.4.4.4.4.4.",
"4.4.4.4.2.4.4.9.4.4.4.4.:.#.| ] ] | X.|  .| | R R R R P I P R X > e J ; D Y ~ R.m.m.m.Z.Z.R.m.oXV.!.R.R.E h hXiX4.4.4.6.4.4.4.4.",
"4.4.4.4.4.4.4.2.4.4.4.4.x +.+.U U  .X. .|  . .| | |  .R R | R 8.8.9.8.G $.~ &.v.v.V.V.C.(.F.I.U.F.R.R.R.E h uXaX4.4.4.4.4.4.4.4.",
"4.4.4.4.4.4.2.9.4.4.4...L @.+.I U +. . . .+. . . . .+.| | |  .4.8.8.8.J $.&.*.c.V.B.C..X|.I.|.}.D.A.!.R.T h uXuX6.4.4.4.4.4.4.4.",
"4.4.4.4.4.4.9.2.4.4.2.O.8 ..+.] U +. .+.+.+.+.+. . . . .| | -.6.8.4.8.P &.&.*.Z.R.c.P.}.P.|.}.oXR.^.~.^.$.h uXuX4.4.4.4.4.5.4.4.",
"4.4.4.4.4.4.4.9.4.4.2.O.x +.+.R U +.+.+. . . .+.X.+.X. . .7.MX4.4.4.4.} &.*.*.E.V.Z.U.$XoX X|.XX~.~.~._.Q h uXpX4.4.6.4.4.4.8.4.",
"4.4.4.4.4.4.2.2.4.4.4.[ L +.] U U  . .X.+.+.+.+.X.X.+. .+.8XnX7.4.4.4.' &.*.*./.B.Q.Y..XXX$X.X+X~.^.^._.Q h pXqX4.4.4.4.4.4.4.4.",
"4.4.4.4.4.4.4.4.4.4.4.[ G  .| ] I  .+.+.+.+.+.+. .+.X.+.'.8XcX4.4.4.4.U &.*.*.R.R.#X X.XXX%X+X*X/.)._.^.Q h aXqX4.6.4.4.4.4.4.4.",
"4.4.4.4.4.4.4.4.4.4.4.4.G X.| U U  .+.+.+.+.+.+.+.+.+.+.0X7XkX4.4.4.4.} &.&.G.M.C.XX#X$XI.OXOX}.B.!.~.W.E h qXpX4.4.4.4.4.4.4.4.",
"4.4.4.4.4.4.4.4.4.4.4.] L =.| U P 8X8X8X7.+.X.+.+.+.X.8X7X8XbX2.2.4.2.} &.&.*.V.$X$XoX=X$X}.U..XC.W.N.R.$.h uXuX4.4.4.6.4.4.4.4.",
"4.4.4.4.4.4.4.4.4.4.4.4.G +.| } P 8X8X0X0XrXsXrX[.+.X.qX7X0X8X2.2.4.2. .*.&.G.S.#X@X&X=XXXXX X}.E.R.R.S.$.h 0XqX4.4.4.4.4.4.4.4.",
"4.4.4.4.4.4.4.4.4.4.4.] G X.| P U tX7X8X[ K.eX;.0X7.7X;.'.8X8X2.3.2.2.| &.&.G..XL.U.U.#X&XoX$X&XE.!.Z.C.Q h qXqX4.4.4.4.4.4.4.6.",
"4.4.4.4.4.4.4.4.4.4.4.] G '.| P P 9X8X[ ' '.4.:.8X'.qX1.eX8X8X2.2.2.2.E %.&.uXP.L.U.I.L.$X|.&XU.).~.E.R.Y g 0X8X4.4.5.4.4.4.4.4.",
"4.4.4.4.4.4.4.4.4.4.4.4.G 8X3XP L rXrX8X8XrXrX7X7X8X0X0XqX0X7X1.2.2.1.P ! 6X6XS.L.L.F.I.I.$X.X|./.~.^.W.D 1 ; w 3.6.4.4.4.4.4.4.",
"4.4.4.2.4.4.4.4.4.4.4.] I 8X4XP P qXrX9X8X8X8XeX8X8X8X8X8X8X4Xp 3Xy '.K 5.J.J.I.L.M.U.Y.#XoX|.@XW.W.A.W.B M 1 C 6.4.4.4.4.4.4.4.",
"4.4.4.4.4.4.4.4.4.4.4.] x 5X'.I H 0XqXrXrX:.=.'.8X+.#.8X8X7X3Xo 6 & 5 7 7 y C d.d.m.F.l.B.c.D.I.W.D.m.S.B M C V 4.4.4.4.4.4.4.4.",
"4.4.4.4.4.4.4.4.4.4.4.[ x eX'.x x 3X:.:.3.:.6.#.#.9.:.3.:.+.0.o 5 6 6 1X1XO X X & & : : 5 6 8 t 8 q q p B C C C 4.4.4.4.4.4.4.4.",
"4.4.4.4.4.4.4.2.4.2.3.] x 8Xu.O.L 8XrXrX7X'.6.'.7.#.0.0.8X8XP @ 3 5 6 7 & @ $ % o . X o & 5 6 7 8 5 : $ B C i C 4.4.4.4.4.4.4.4.",
"4.4.4.4.4.2.2.y.4.4.4.] l 5X3XP L 0X8X8X8X9X0.rX9X:.9X8X8X7XP @ 5 6 7 7 % + o @ % % 3 6 6 6 6 8 q q i p W B kXbX4.4.8.4.5.4.4.4.",
"4.4.4.4.4.4.4.4.4.4.4.] l rX'.U P 7X8XeX9XrX:.0X7X9.rXqX8X7X] o & 8 7 ,X( M W F.M.z.M.B.D.H.H.H.`.k.c.H.~ D zXhX4.8.4.4.4.4.4.4.",
"4.4.4.4.4.4.4.4.4.4.4.L l 8X'.P L rX8X0XrX8X+.9.u.u.9X8X8X4XP o 5 6 8 i 4 C 5.S.S.S.z.S.S.I.L.oX}.+XE.D.*.W gXgX4.4.4.4.4.4.4.4.",
"4.4.4.4.4.4.4.4.4.4.4.U l 8X[.P J 8XrXtXrX8X[.rX9XeX8X8X8X4XX.o 5 6 5 8 : T J.C.T.S.S.M.Q.F.I.Y.+XoXoX}.&.B aXzX4.4.4.4.4.4.6.4.",
"4.4.4.4.4.4.4.4.4.4.4.P l eX'.U K eX9X8X9X9XtX7X3.8X9X8X8X4XU o 5 6 7 ) N T J.B.D.c.S.S.}.@XU.oXoX}.}.T.~ B tXtX4.4.6.4.4.4.4.4.",
"2.4.4.4.9.2.9.2.9.2.9./ d eXi./ G 8XrX0XeXqXeX3.0.8XqX8X7X4XU o 6 6 i i 4 T $.j.h.j.x.s.s.z.c.k.c.P.Q.`.Q B dXdX4.4.6.4.4.4.4.6.",
"4.4.4.4.2.9.2.9.4.4.9./ x 5X'.L G 8X9X9XrX9X8Xu.7X9X8X8X8X7XP o 5 6 6 6 % T ; ; W j.h.s.j.p.s.d.b.x.g.*.Y B dXdX4.4.4.4.4.4.4.4.",
"4.4.4.4.9.2.9.2.4.4.4.b l 8X'.x G 8X8X8X8X8X8X8X8X8X8X8X7X4X} o 6 6 3 & o B @ + ; + ; w w w e y B y 2 u D u fXdX4.4.4.4.4.4.4.4.",
"4.4.4.4.2.9.2.9.4.4.4./ l 9X5X<.G 8X9X8X8X8X8X8X7X8X7X8X7X4XU o 5 & : 5 % V z o O O + % , 5 q t p q e t A y fXrX4.4.4.4.4.4.3.4.",
"4.4.4.2.9.4.4.2.4.4.4.I l 8X4X3.| } P G L ] L ] #.3.0.[.7X'.U o 3 8 a eX8.G H S . . . . # & - - 5 6 7 A t fXrXrX4.4.4.4.4.4.4.4.",
"4.4.4.4.9.2.4.4.4.4.4.4.9 l ].u. .| '.6X7XL L ] U } } } } P s o 5 6 7 8 0.y S S J   . O O O . o . o '.rXrXfXyXfX4.4.4.4.4.4.4.4.",
"4.4.4.4.2.9.2.4.4.4.4.4.x 0 0 4X6.4X4X8X8X8X8X..G L } U U L s X ..6 6 8 K.K  . .} } } } ' 8.3.;.X.rXrXrXfXfXfX3.4.4.4.4.4.4.4.4.",
"4.4.4.4.9.2.9.2.4.4.4.4.4.4.4.0 9  .4X7X4X8X8X5X4X4X..V H H u # o 6 _ x x B } } } L G x { %.X.+.rXyXtXfXjXbXr 4.4.4.4.4.4.4.4.4.",
"4.4.y.2.4.4.4.4.4.4.4.4.4.4.4.4.4.9 9 x 5X8X8X8X4X4X4X4X0.l q o       o o H L H ' O.;.+.+.#.+.+.fXfXyXyXj 4.4.4.4.4.4.4.4.4.4.4.",
"2.4.2.4.4.4.4.4.4.4.4.4.4.4.4.4.4.9.4.0 9 9 eX5X6X4X4X4X5X8Xe o           H _ O.u.7.+.+.+.+.+.yXkXk q 4.4.4.4.4.4.4.4.4.4.4.4.4.",
"9.2.4.4.4.4.4.4.4.4.4.4.4.4.4.4.9.2.2.9.4.4.9 9 U 8X4X4X3X8X5X  X       . ^ O.5XyXyXtX2.7.fXtX< 4.4.4.4.4.4.4.4.4.4.2.4.4.4.4.4.",
"2.9.4.4.4.4.4.4.4.4.4.4.4.4.4.4.2.9.4.4.2.9.4.4.e 9 0 8X8X5X8X5X_ 6 - $ s { eXtXyXyXyXlXL r 4.4.4.4.4.4.4.4.4.4.4.4.4.4.4.4.4.4.",
"4.4.4.4.4.4.4.4.4.4.4.4.4.4.4.4.9.2.9.2.4.4.4.4.4.4.4.< 9 eX9X9X9X2.( _ [ tXtXtXyXkX9 [ 4.4.4.4.4.4.4.4.4.4.4.4.4.4.2.4.4.4.4.4.",
"4.4.4.4.4.4.4.4.4.4.4.4.4.4.4.4.2.4.2.9.4.4.4.4.4.4.4.4.4.9 l yX9X9X2...eXeXtXkX6 4.4.4.4.4.4.4.4.4.4.4.4.4.4.4.4.4.4.4.4.4.4.4.",
"4.4.4.4.4.4.4.3.4.4.4.4.4.4.4.4.4.4.4.4.3.4.4.4.4.4.4.4.4.4.9 0 tXI 4.' r fXr 4.4.4.4.4.4.4.4.4.4.4.4.4.4.4.4.4.4.4.4.4.4.4.4.4.",
"4.4.4.4.4.4.4.4.4.4.4.4.4.4.4.4.4.4.4.4.4.4.4.4.4.4.4.4.4.4.4.4.x 4.4.4.< 4.4.4.4.4.4.4.4.4.4.4.4.4.4.4.4.4.4.4.4.4.4.4.4.4.4.4."
};
