/* XPM */
static char *_bf2942e38c349f294b50deda5797525GvHnfUC7q8DtyUuN[] = {
/* columns rows colors chars-per-pixel */
"30 30 2 1 ",
"  c None",
". c black",
/* pixels */
"                              ",
"              ..              ",
"              ..              ",
"             ....             ",
"             ....             ",
"            ......            ",
"            ......            ",
"           ........           ",
"           ........           ",
"          ..........          ",
"          ..........          ",
"         ............         ",
"         ............         ",
"         ............         ",
"        ..............        ",
"        ..............        ",
"       ................       ",
"       ................       ",
"      ..................      ",
"      ..................      ",
"     ....................     ",
"     .........  .........     ",
"    ........      ........    ",
"    .......        .......    ",
"   ......            ......   ",
"   .....              .....   ",
"  ....                  ....  ",
"  ...                    ...  ",
" ..                        .. ",
"                              "
};
