/* XPM */
static char *_3c6dff288b04694d687374e27c3cb53yETyHmolzVmmVPX3[] = {
/* columns rows colors chars-per-pixel */
"149 107 76 1 ",
"  c None",
". c black",
"X c #070707",
"o c #0B0B0B",
"O c #170F07",
"+ c #0F1700",
"@ c #0B1707",
"# c #171F07",
"$ c #1F170B",
"% c #131313",
"& c #1B1B1B",
"* c #2F1B0B",
"= c #13230B",
"- c #2B230F",
"; c #332B13",
": c #3F2F17",
"> c #2F371F",
", c #232323",
"< c #272727",
"1 c #2F2F2F",
"2 c #373F27",
"3 c #373737",
"4 c gray23",
"5 c #43331B",
"6 c #4B371B",
"7 c #533F1F",
"8 c #473323",
"9 c #4F3B23",
"0 c #4F3B2B",
"q c #533F2F",
"w c #5F4323",
"e c #5B472B",
"r c #474F33",
"t c #5F4B37",
"y c #53573B",
"u c #6B4727",
"i c #774F2B",
"p c #7F532F",
"a c #67533F",
"s c #434343",
"d c gray28",
"f c #4B4B4B",
"g c gray31",
"h c gray34",
"j c #5B5B5B",
"k c #7B634F",
"l c gray39",
"z c gray42",
"x c #6F6F6F",
"c c #7B7F63",
"v c #777777",
"b c gray50",
"n c #875733",
"m c #8F5F37",
"M c #9B633B",
"N c #A36B3F",
"B c #836B4B",
"V c #AB6F43",
"C c #B37347",
"Z c #BF7B4B",
"A c #9B7F6B",
"S c #CB7F4F",
"D c #CF8353",
"F c #D78B5B",
"G c #DF9363",
"H c #E79B6B",
"J c #EFA373",
"K c #F7AB7B",
"L c #838383",
"P c #8B8B8B",
"I c #939393",
"U c #A7A7A7",
"Y c #FFB383",
"T c #FFBB93",
"R c gray78",
"E c LightGray",
/* pixels */
"                                                                                                                                                     ",
"                                                                                                                                                     ",
"                                                                                                                                                     ",
"                                                                                                                                                     ",
"                                                                                                                                                     ",
"                                                                                                                                                     ",
"                                                                                                                                                     ",
"                                                                                                                                                     ",
"                                                                                                                                                     ",
"                                                                                                                                                     ",
"                                                                                                                                                     ",
"                                                                                                                                                     ",
"                                                                                                                                                     ",
"                                                                                                                                                     ",
"                                                                                                                                                     ",
"                                                                                                                                                     ",
"                                                                                                                                                     ",
"                                                                   ll                                                                                ",
"                                                                   33                                                                                ",
"                                                            hjjjg  ..  ghjjh                                                                         ",
"                                                          sghjjhgsf..<4ghjjhgs                                                                       ",
"                                                         ssdgggggss.,1sgggggdss                                                                      ",
"                                                        ssssdddgsss.,1ssgdddssss                                                                     ",
"                                                        s334ssss4df.,134ssss433s                                                                     ",
"                                                       s313444444df&,13444444313s                                                                    ",
"                                                       3111334433sf%,133344331113                                                                    ",
"                                                      s3111111113sg%,134311111113s                                                                   ",
"                                                      s3111111113sg%,134311111113s                                                                   ",
"                                                     s31111111113sg%,1343111111113s                                                                  ",
"                                                     s31111111113sg%,134311111111ss                                                                  ",
"                                                    3s31111111113sg%,13s3111111113s3                                                                 ",
"                                                    ss11111111113sg%,14s3111111114ds                                                                 ",
"                                                   3s311111111114sg%,14s311111111sgs3                                                                ",
"                                                   3s31<111111114sg%,14s311111111sgd3                                                                ",
"                                                np33s3=<111111114sg%,1ss311111111shg33                                                               ",
"                                             nNVMn3sd3,<11111111ssg%,1sd311111111djhs9                                                               ",
"                                          nNDDVmp33sg3=<11111111ssg%,1sg311111113djhse5                                                              ",
"                                       pmVDDVMiu633dg3$,,,,,,<<14dg%,1dg3<=,,,,,14ddde5                                                              ",
"                                     imNNMniiu7;;:333-*X.......,33g.,1d1,..........-5955                                                             ",
"                                   7imnniimMNmi6-:;-*....XXXXX...<3.,11.............-;5-pw                                                           ",
"                                  :wpiimMCSFFVm7:;-X%....X........<.,<,<13d3..o%&,,,&%#--i                                                           ",
"                                  :6wumNZDGHFCm-6*.......X.,............,1ds,..o%%%&<41#-u6                                                          ",
"                                 ;::6inMCDFGFVn-*........X.<............,1dg<......%%<41,-6                                                          ",
"                                 ;-:7pnMVZDFDN:-.........1--hzssIEz4..4zEIsszh--1...%%<j4-66                                                         ",
"                                 --:wpnMVZZDDM@..........1@.OO..@-@4..4@-@..OO.@1....%,4l1:6                                                         ",
"                                 --6unmMNCZDD:@.......X..,@...........1........@,.....%,34;:                                                         ",
"                                6--6unmMNVZDZ@..........X,............,.........,......%,4;;                                                         ",
"                                6--7unmMNVZS:..........X...............................#-;<-                                                         ",
"                                ;--7unmMNVZD@.@++.....................................#-:;;-5                                                        ",
"                                --;7unmMNVZ:.@@++.................................%,,,,:7;:uu5                                                       ",
"                               6;:::7unMNVM@@@###+......d......................,,,,<<3333;;unu6                                                      ",
"                               6:6unmMNVND7@@---#++....dEIj4<..............<4jIERd4,<4dgj3<;un76                                                     ",
"                               6:unmMNCCMM@@-;--#++...3dUbd1,..............,1dbUUd4,<4dglj3@6iu5                                                     ",
"                               :6wiinmMmp7@-:;-##+......%.......%%%%%%%%..%,,,,,,,,,<4djvvj3;6w66                                                    ",
"                               7667uinnpu@#;:;#@<<<XX.XX%%%%%%%%%%%%%%%%%%%&&&,&&&<<<3djvLvs3:666                                                    ",
"                              wuiipnmniiu@-;;#<d1,.XXXXXoo%%%%%%%%%%%%%%%%%%%%%%&&&&&3dlbIbvs;;;66                                                   ",
"                             wwinmMMmnuw6@-;#<d<...XXXXXooooooo%%%%%%%%%%%%%%%%%%%%%%&14lPIbxs---:                                                   ",
"                             winMNCVmpw7;@-#<1.....XXXXXoooo%%%%%%%%%%%%%%%%%%%%%%%%%%&<slPIbl3---                                                   ",
"                             w7wipiiuw76@-#@<...%..XXXXXoooo%%%%%&%%$%%.%%%%%%%%%%%%&&%&<sxPLxj---                                                   ",
"                             wippiuw7:;;@-@<.......XXXXX%%o%%%%&&%%&%&&%%%%%%%%%%&%%%%%&&<jxLvx3-                                                    ",
"                           wiinmMnpiw6:;@#@...%....%XX%X%o%%%%%%&%%&%&%%%%%%%&%&%%&%%%%%&<3jvvxg-                                                    ",
"                          wiipiuuu7766:-@@.......%%XXX%Xo%oo%%%&&%%&%&&%%%%%%%%%%%%%%%%%%&<fzvxj-                                                    ",
"                          wiuw766666:;;@@@...%.....%%%%%o%%%%%%&&%&&%&&%%%%%%%%%%%&%%%%%%%&3lvxj                                                     ",
"                          ww7wuuw7666:;@@.......%.%X%X%%oo%%%%%&&@&&@&&%%%%&%&%%%&%%%%%%%%&<fzxl                                                     ",
"                          wwnMNMniu779;.....%.%%%.%X%o%%o%o%%%%&%%&&%%&%%%%%%%%%&%$%%$%%%%%&3lxl                                                     ",
"                         wiMNMniuuw766-..%...%..%%%%%X%o%o%%%%%&%%&,%%&%%%%%%&%&%%%%%%%%%%%&<hzl                                                     ",
"                        wiMmniu76:;::;-....%%&&%%%XXo%%ooo%%%%%&&O&,O&&%%%%%%%%%%%%&%&%%%%%&<gllg                                                    ",
"                        wnmiuw7667wwww$...%%X&%%%%.%%%oo%%%%%%%&%%&,%%&%%%%%%%&%%%%%%%%%%%%%&3jlg                                                    ",
"                       winiw677pMMMMMMOO.o%%%%&&%%%%%%%%%%%%%%%&&%&,%&&%%%%%%%%%%%%%%%%&%%%%%<gjg                                                    ",
"                       wiiw77pMFFFFMMMoo.o&%%%%%%%%%%%%%%%%%%%&&%%&,%%&&%%%%%%%%%%%%%%%%%%%%%&3jg7                                                   ",
"                       wu77iMDDDFFSZCn...O%%%%%%%%%%%%%%&%%%%%&&%&&,&%&&%%%%%&%%%%%%%%%%%%%%O%<ss3w7                                                 ",
"                       wu7uDDDHGFHFSZnX..%&%%%%%%%%%%%%%%%%&&&&&%%&,%%&&&&%%%%%%%%%%%%%%%%%$%%&s43pu7                                                ",
"                       w7uNDJJDFFHHFSnX..&%%%%%%%%%%%%%%%%&&&%%&&%&,%&&%%&%%%%%%%%%%%%%%%%%%$%%131mpu7777w                                           ",
"                        unCGHDGFJHJGFnX.X%%%%%%%%%&&%%%%%%%%%%&&%&,,&%&&%%&%%%%%%%&&%%%%%%%%%oo<11iiuuuuuw76                                         ",
"                       6pMSGHDFYHJGHZnX.o%&%%%%%%%$%%%%%%&&&%%%%%&<<&%%%%%&&%%%%%%%$%%%%%%%&%oo%11wiipnnppuw6                                        ",
"                       umVSGDHFJJGHJZu..O&%%%%%%%$&%%%%%%%&&&%%&&&,,&&&%%&%%%&%%%%%&$%%%%%%%&%oo,1wpmMmnnnniw6                                       ",
"                      6nMZSGDJGHJFHHZ6..%%%%%%%%$$&%$%&%%&%&&&&%%&,,&%%&&&&&&%%&%$%&$$%%%%%%%%oo,13pmnpppppnpuw                                      ",
"                      iiCZGDGFGKGJHHV;.X%%%%%%%$$$%&%%&&&%&&&%&&%&,,&%&&%&&&%&&&%%&%$$$&%%%%%%oo&1<iipiiiiipnpuw7                                    ",
"                     qimCCHDHGGJGKHJn;.X%&%%%%%%%&&&&%&%%%&&&%%&&&,,&&&%&&&%&%%&%&&&&%%%%%%%&%oo&,,iiuuuiiuiiwwuuw7                                  ",
"                    :imVCZHDGJHGJJHHw%.X&%%%%%%%%&&&&&&&&&&&&%%%&&<<&&%&%&&&%&&&&&&&&%%&%%%%%&oo%,,uuwwwwuwwuuiinmmnuu                               ",
"                    uiVCDCGDJKHGJHJH:X.X%%%%%%%%&&&&&&&&,&%%&,%%&&<<&,&%&&&,&&&&&&&&&&%%%&%%&%oXo%,7w777w67wuuuuuupMMmnww                            ",
"                   iipCSDGDHJJGGHHHJ-..X%%%%%%&&%&&&%&&&&&&%,%%,,&,,&&%&%&&&&<&&&%&&&%&&%%%%%&oXX%,;766557uuiiiiuuuuiMMmn76                          ",
"                  qimpZSSHDGJHHHJFHG...O%%%%%%&&%%&&%%%&&&%&%&<&&&<<&<&&&%%%,,&%%%&&%%&&%%%%&%OXX%,-;:57uuppppppppiuuuinmp6;                         ",
"                  nMMpSGZDHHHJHJFHHG...O$%%%%&&&&%%&%&&&,&&,&,&&,<141,&,&&<&,&<&&%&%%&&&&%%%%&oXXX%--5wuupppnnnpppppiwwuinu:;                        ",
"                 9uMMVGDDDYGGKJKGGKGXXX%%%%%&&&&&&&&&,&&&,,&,&<,,<3d11,<,<&,&&&&&&&&&&&&&&%%%%oXXX%-5uuuppnnnnnnnnnpiuwwwuu::                        ",
"                9unnMVSSDGKGJKHHHHJGXXO%%%%%%&&&&&&&,&&,&,&&,&,1<14g311<&<,&,&,&&,&&&&&&&%%%%%o.XX%;wwupnnmnmmmmmmnnniu77w76:;                       ",
"                wiiCVVVGDGHHHHHHJJKF...$%%%%%%&&&&&&&,&&&,&,1,1333sjg31,<,1,&&,&<&&&&&&&%%%%%%oo.X%:wuppnnnmmMMMMMmmnniu7776:;                       ",
"               :iiVVMSCGGDHHHJHHHYJV..X%$&%%&%%&&&&&&&&,,,,1,14fgs3sjgf431,1,,&<&<&&&&&%%&%%%%.X..%:wppnmnmMMMMMMMMmmnniw66::;                       ",
"               qiVCMMZSDHSJHHJHHJJJnOOOO%%%%&&&&%&&,<33slcld2ycvj2<X,jvcyrdgcls43<,&&%&&&&%%%o....O6uppmnnmMMMMMMMMMmmnpw6:;;;;                      ",
"              :6ZZCVmCSDJSHKHKJKHHJXXX%%%%%%&&&&&<3sjzgs1-,$OO-,,,,,,,,,OO$,,<1gzjs3<&&&&&%%oo....X;upnnmnmMNNNNNNMMMmnpu7:--;;                      ",
"             :7upZSVMFSCJGSYHJJHHJJ...o%%%%&&&,11<<-$$$--4g3bfg,1134311,gfb3gsL43$<<131<&&&%.......;ippnmMMNNVVVVNNMMmnpiw:---;                      ",
"             7wnMCDVCFGVJHSKJJHHHJH...%%%&&&11,$$&-25;q,xldflhd,1114111,dhlsdlx,q;52-<<131<&&%......uppnNVVNVVCCVVNNMmnniu:---;                      ",
"            9unMCZCCSDSCGKGJYHGHHJG...$&,OO$$&;,&1;-&3314txg4fx,3134313,xf4gxt4133&-;1&,&-131<&.....wpnmNVVVVCCCCVVNMMmniu6:---                      ",
"           :96nMVCZGHCDDGHGKKHGGJKG..oOOO&&&<&&&&<,41:31dqkAd4k,1134311,k4sAkld13:14,<&&&&<&-<1<o.O.wnmNNVNVCZZZCCVNNMmniu6:---                      ",
"          ::56nZMMHHKZCHGGHYJHGKKKF..$$&$%&,$-$-,,;11;<g;lgh1Lg,1134311,sxszldqs,1<1;,,-$-$,&%-5-.X.wnVVNNNVZZSZZCVNNMmniu7:---                      ",
"         :::5upZSmFJYGZGGGJKHHGTKJZ$$o%%%%%&,:%,&,,;4134L4g3bfg,1134311,jfllssx333<;,,&,%:,&%%%%-$..7mVNNNCZSSSSZCVNNMmniu7:---                      ",
"        :;a967MDFmCJJHGGGGHJHGHYKHn..o%%%%%&,:%,&,,;4134L4g3bfg,1134311,hsxhh4xl313>,,&,%:,&%%%%%o..7nmNNCCSDDDDZZVNNMmnuuw:---;                     ",
"        :9tpM7VHFVZFKHGGJGGJHGHJGG:..%%oO&$&<$$,$<-25;q,xldflhd,1114111,flflflh38;82-<$,$$<&$&Oo%%..5nVVCCSDFFFDSZVNmniiuww6;--;                     ",
"       ::9ppSmmSGSZGFHHHHHGJKGHHYG:..$&O<%%&,&,&&<r543113ql3qvl,1114111,jlh3l0h3334:r<&&,&,&%%<O&$..-nCVVZSFGHFDZCNmniiuuww6;---                     ",
"      ::99pnSCVVZGGSGFHHJHFJGGHKJF...X%o&$%&,-&,&1;-&3314txg4fx,3134313,lffflaf<41-;;1&,&-,&%$&o%X..-nVVVZSFGGFSVNmnppppiiuu7---                     ",
"     :;;uunCMVSSVHGGSFKGKHFHHJKKHD..OX%o&$%&,-&,&1;-&3314txg4fx,3134313,xf4fxt4<33&-;1&,&-,&%$&o%XO..inVVZSFFFSVMnnpmMVZDDCniw:-                     ",
"    ::-tiuMZFZJHSVJJFFJHKFSJJJKJGS..XOO%&&&&<&&&&<,41:31dqkAd4k,1134311,k4sAkqs<3:<4,<&&&&<&&&&%OOX..inNVZSDDDDNMmMVZSSDFZMNNnw-                     ",
"   ::7uBpumSHVJKHSGHFFJHGSGKHGJGSC...%%O$%&,$-$-,,;11;<g;lgh1Lg,1134311,fL<hfl;f,;<<;,,-$-$,&%$O%%...7nmZSSDDDZVVCCZZZNmw656iNnw                     ",
"  ::77wiMipSGSZKJGSGGHJGFHGKGHJSCN...o%%%%%&,:%,&,,;4134L4g3bfg,1134311,ffb3f4L43<4;,,&,%:,&%%%%%o...7nVCZDDSZCVCVCCCnpw76:;;6inw                    ",
" :77159uZSMVGHCSJGGSGJKFGJGHHGGCNm...%%oO&$&<$$,$<-25;q,xldflhd,1114111,fhxsfhv<0;8>-<$,$$<&$&Oo%%...7nVCCSSCVVCSDDZMpiiww6:;--iw                    ",
"                                                                                                                                                     ",
"                                                                                                                                                     "
};
