/* XPM */
static char *db99238c7ff1421baa5efaa02f8c4eb59zkczSRCpeW7pSHi[] = {
/* columns rows colors chars-per-pixel */
"60 60 203 2 ",
"   c None",
".  c black",
"X  c #010101",
"o  c #020202",
"O  c gray1",
"+  c #040404",
"@  c gray2",
"#  c #060606",
"$  c #070707",
"%  c gray3",
"&  c #090909",
"*  c gray4",
"=  c #0B0B0B",
"-  c #0C0C0C",
";  c gray5",
":  c #0E0E0E",
">  c gray6",
",  c #101010",
"<  c #111111",
"1  c gray7",
"2  c gray8",
"3  c #151515",
"4  c #161616",
"5  c #181818",
"6  c #191919",
"7  c gray10",
"8  c gray11",
"9  c #1D1D1D",
"0  c #1E1E1E",
"q  c gray12",
"w  c #202020",
"e  c gray13",
"r  c #222222",
"t  c #252525",
"y  c #272727",
"u  c #282828",
"i  c gray17",
"p  c #2C2C2C",
"a  c #2D2D2D",
"s  c #2F2F2F",
"d  c gray19",
"f  c #323232",
"g  c gray20",
"h  c #343434",
"j  c #353535",
"k  c gray21",
"l  c #373737",
"z  c gray22",
"x  c #3A3A3A",
"c  c #3C3C3C",
"v  c gray24",
"b  c #3E3E3E",
"n  c #3F3F3F",
"m  c gray25",
"M  c #414141",
"N  c gray26",
"B  c #444444",
"V  c gray27",
"C  c #464646",
"Z  c gray28",
"A  c gray29",
"S  c #4C4C4C",
"D  c gray30",
"F  c #4E4E4E",
"G  c gray31",
"H  c #515151",
"J  c gray32",
"K  c gray33",
"L  c #555555",
"P  c gray34",
"I  c #585858",
"U  c gray35",
"Y  c #5A5A5A",
"T  c #5B5B5B",
"R  c #606060",
"E  c gray38",
"W  c #626262",
"Q  c gray39",
"!  c #646464",
"~  c #656565",
"^  c gray40",
"/  c #676767",
"(  c #686868",
")  c DimGray",
"_  c gray42",
"`  c #6C6C6C",
"'  c #6D6D6D",
"]  c #727272",
"[  c #747474",
"{  c gray47",
"}  c #7C7C7C",
"|  c #7E7E7E",
" . c #848484",
".. c gray52",
"X. c #868686",
"o. c gray53",
"O. c #888888",
"+. c #898989",
"@. c gray54",
"#. c #8B8B8B",
"$. c gray55",
"%. c #8D8D8D",
"&. c #8E8E8E",
"*. c gray56",
"=. c #909090",
"-. c #929292",
";. c #939393",
":. c gray58",
">. c #959595",
",. c #979797",
"<. c #989898",
"1. c gray60",
"2. c #9B9B9B",
"3. c #9D9D9D",
"4. c gray62",
"5. c #9F9F9F",
"6. c #A0A0A0",
"7. c gray63",
"8. c #A2A2A2",
"9. c gray64",
"0. c #A4A4A4",
"q. c #A5A5A5",
"w. c gray65",
"e. c #A7A7A7",
"r. c gray66",
"t. c #A9A9A9",
"y. c #AAAAAA",
"u. c gray67",
"i. c #ACACAC",
"p. c gray68",
"a. c #AEAEAE",
"s. c #B2B2B2",
"d. c #B4B4B4",
"f. c gray71",
"g. c #B6B6B6",
"h. c gray72",
"j. c #B9B9B9",
"k. c gray73",
"l. c #BBBBBB",
"z. c #BCBCBC",
"x. c gray",
"c. c gray75",
"v. c #C0C0C0",
"b. c #C1C1C1",
"n. c gray76",
"m. c #C3C3C3",
"M. c gray77",
"N. c #C5C5C5",
"B. c #C6C6C6",
"V. c gray78",
"C. c #C8C8C8",
"Z. c gray79",
"A. c #CACACA",
"S. c #CBCBCB",
"D. c gray80",
"F. c #CDCDCD",
"G. c #CECECE",
"H. c gray81",
"J. c #D0D0D0",
"K. c gray82",
"L. c #D2D2D2",
"P. c LightGray",
"I. c gray83",
"U. c #D5D5D5",
"Y. c gray84",
"T. c #D7D7D7",
"R. c #D8D8D8",
"E. c gray85",
"W. c #DADADA",
"Q. c gray86",
"!. c gainsboro",
"~. c #DDDDDD",
"^. c gray87",
"/. c #DFDFDF",
"(. c gray88",
"). c #E1E1E1",
"_. c #E2E2E2",
"`. c gray89",
"'. c #E4E4E4",
"]. c gray90",
"[. c #E6E6E6",
"{. c #E7E7E7",
"}. c gray91",
"|. c #E9E9E9",
" X c #EAEAEA",
".X c gray92",
"XX c #ECECEC",
"oX c gray93",
"OX c #EEEEEE",
"+X c #EFEFEF",
"@X c #F1F1F1",
"#X c gray95",
"$X c #F3F3F3",
"%X c #F4F4F4",
"&X c #F6F6F6",
"*X c gray97",
"=X c #F9F9F9",
"-X c gray98",
";X c #FBFBFB",
":X c gray99",
">X c #FDFDFD",
",X c #FEFEFE",
"<X c white",
/* pixels */
"                                                                                                                        ",
"                                                                                                                        ",
"                                                                                                                        ",
"                                                                                                                        ",
"                                                                                                                        ",
"                                                                                                                        ",
"                                                                                                                        ",
"                                                                                                                        ",
"                                                                                                                        ",
"                                                                                                                        ",
"                        :X:X:X:X:X:X:X:X:X:X:X:X:X:X:X:X:X:X:X:X:X:X:X:X:X:X:X:X:X:X:X:X:X:X:X:X                        ",
"                        :X:X:X:X:X:X:X:X:X:X:X:X:X:X:X:X:X:X:X:X:X:X:X:X:X:X:X:X:X:X:X:X:X:X:X:XD.                      ",
"                        =X=X1.%.].~.D.h.w.../ Q Q T Q T Q Q T Q T Q Q Q / / ( ( ( ` ` ` ` [ ~.:XN.                      ",
"                        %X%X..d.T.h.1.| L r X X X X X X X X X X X X X X X X + % % % ; ; ; 0 S.=Xn.                      ",
"                        %X@X~.E.x.8...Y t % X X X X X X X X X X X X X X X X + + % ; ; ; , r N.=Xx.                      ",
"                        @X+XT.n.w.@.T t ; X X X X X X X X X X X X X X X X X X X + % ; ; ; r N.@Xx.                      ",
"                         X+XN.i.=.Q p 3 X X X X X X X X X X X X X X X X X X X X X X % ; ; 5 n.+Xh.                      ",
"                        ].].:.| ( g 0 + X X X X X X X X X X X X X X X X X X X X X X + % ; 0 x. Xd.                      ",
"                        ].).8.D g t + X X X + b Y g X X X X X X X ; B T t X X X X X X + % 5 h. Xs.                      ",
"                        ~.).=.b r + X X X + { @X:X XY X X X X X % :.=X:X~.b X X X X X + + 5 d.).i.                      ",
"                        E.E.` i ; X X X X r ).:X:X:Xd.; X X X X b @X:X:X:X:.+ X X X X X X 3 s.~.i.                      ",
"                        T.T./ , X X X X X p @X:X:X:XN.5 X X X X D :X:X:X:Xw.; X X X X X X , i.E.t.                      ",
"                        P.P.H X X X X X X g +X:X:X:Xn.5 X X X X D :X:X:X:Xt.% X X X X X X , t.T.w.                      ",
"                        D.D.B X X X X X X p +X:X:X:Xn.5 X X X X D :X:X:X:Xt.; X X X X X X ; w.P.8.                      ",
"                        S.S.N X X X X X X p @X:X:X:XN.5 X X X X D :X:X:X:Xt.; X X X X X X ; 8.D.5.                      ",
"                        N.N.N X X X X X X g +X:X:X:XN.5 X X X X D :X:X:X:Xt.% X X X X X X % 8.S.5.                      ",
"                        N.N.N X X X X X X g +X:X:X:XN.5 X X X X D :X:X:X:Xt.; X X X X X X ; 5.S.1.                      ",
"                      +X].).A X X X X X X p @X:X:X:XN.5 X X X X D :X:X:X:Xt.; X X X X X X ; d. Xh.                      ",
"                      :X:X=XH X X X X X X p +X:X:X:XN.5 X X X X D :X:X:X:Xw.% X X X X X X ; S.:XP.                      ",
"                      :X:X=XH X X X X X X g +X:X:X:XN.5 X X X X D :X:X:X:Xt.; X X X X X X , S.:XD.                      ",
"                      :X:X:XH X X X X X X p @X:X:X:Xn.5 X X X X D :X:X:X:Xt.; X X X X X X ; D.:XD.                      ",
"                      :X:X:XH X X X X X X g +X:X:X:Xn.5 X X X X D :X:X:X:Xt.% X X X X X X ; S.:XD.                      ",
"                      :X:X:XH X X X X X X p +X:X:X:XN.5 X X X X D =X:X:X:Xt.; X X X X X X , S.:XP.                      ",
"                      :X:X:XH X X X X X X g @X:X:X:XN.5 X X X X D =X:X:X:Xt.; X X X X X X ; D.:XD.                      ",
"                      :X:X=XH X X X X X X g +X:X:X:XN.5 X X X X D :X:X:X:Xt.% X X X X X X , S.:XD.                      ",
"                      :X:X=XH X X X X X X p +X:X:X:XN.5 X X X X D :X:X:X:Xt.; X X X X X X 3 D.:XP.                      ",
"                      :X:X:XH X X X X X X 0 E.:X:X:Xw.3 X X X X h +X:X:X:X%.% X X X X X X 3 D.:XD.                      ",
"                      :X:X:XL X X X X X X X T D.].n.H X X X X X + ] E.).s.N X X X X X X X 5 D.:XD.                      ",
"                      :X:X=XL X X X X X X X X p B g % X X X X X X + h B i + X X X X X X % 5 D.:XD.                      ",
"                      :X:X=XY + X X X X X X X X X X X X X X X X X X X X X X X X X X X % % 0 D.:XP.                      ",
"                      :X:X:XY % % X X X X X X X X X X X X X X X X X X X X X X X X X + ; % 0 D.:XD.                      ",
"                      :X:X:XY % ; % + X X X X X X X X X X X X X X X X X X X X X X + % ; ; 0 D.:XD.                      ",
"                      :X:X=XY % ; % % + X X X X X X X X X X X X X X X X X X X X + ; ; ; , r P.:XP.                      ",
"                      :X:X=XT ; ; ; % + X X X X X X X X X X X X X X X X X X X + % % % ; ; r D.:XD.                      ",
"                      :X:X:X@.D A A B B B N b z h z h h h h h g h h z z z b N N B B A D H Y E.:XD.                      ",
"                      :X:X:X%X@X+X X X).).E.T.P.D.D.N.N.x.x.x.n.n.N.S.D.P.T.E.~.).]. X+X+X@X:X:XS.                      ",
"                        =X:X=X%X@X+X+X X].~.~.E.T.P.D.S.N.N.N.N.S.D.D.T.E.E.).). X X+X@X%X=X:X%X8.                      ",
"                          i.t.t.w.8.5.5.1.1.:.=.%.%.@.@.@.@...@...%.%.%.=.:.1.1.5.8.8.w.t.i.t.%.                        ",
"                                                                                                                        ",
"                                                                                                                        ",
"                                                                                                                        ",
"                                                                                                                        ",
"                                                                                                                        ",
"                                                                                                                        ",
"                                                                                                                        ",
"                                                                                                                        ",
"                                                                                                                        ",
"                                                                                                                        ",
"                                                                                                                        ",
"                                                                                                                        "
};
