/* XPM */
static char *Ym9tYg__[] = {
/* columns rows colors chars-per-pixel */
"64 64 256 2 ",
"   c #040A13",
".  c #071114",
"X  c #261308",
"o  c #2B1609",
"O  c #2A1A09",
"+  c #33170C",
"@  c #341C0B",
"#  c #3D1D0D",
"$  c #361018",
"%  c #15281B",
"&  c #34230B",
"*  c #3C240C",
"=  c #263418",
"-  c #232C23",
";  c #421E0E",
":  c #4E1517",
">  c #44240D",
",  c #4C250E",
"<  c #442B0E",
"1  c #4B2C0E",
"2  c #43300F",
"3  c #4B310F",
"4  c #442311",
"5  c #492411",
"6  c #4A2B11",
"7  c #59261B",
"8  c #4A3411",
"9  c #6A2E16",
"0  c #783817",
"q  c #602420",
"w  c #703024",
"e  c #314A1C",
"r  c #354A22",
"t  c #3E6022",
"y  c #714618",
"u  c #52661B",
"i  c #495228",
"p  c #73522A",
"a  c #556E2D",
"s  c #726F2D",
"d  c #6E7446",
"f  c #883B19",
"g  c #893929",
"h  c #864717",
"j  c #8C5019",
"k  c #995818",
"l  c #A55719",
"z  c #99631A",
"x  c #B16E1A",
"c  c #865627",
"v  c #975527",
"b  c #8F5030",
"n  c #AD532F",
"m  c #916B30",
"M  c #A96927",
"N  c #B8682B",
"B  c #B67728",
"V  c #A87431",
"C  c #B77735",
"Z  c #C26922",
"A  c #C77231",
"S  c #977247",
"D  c #977D6B",
"F  c #DA754E",
"G  c #5E8027",
"H  c #728936",
"J  c #778750",
"K  c #B3851E",
"L  c #8E9435",
"P  c #BB882B",
"I  c #AD8D32",
"U  c #B58A37",
"Y  c #B89837",
"T  c #B0AB35",
"R  c #CAA31F",
"E  c #C7972B",
"W  c #C88736",
"Q  c #D18E31",
"!  c #C69837",
"~  c #E6973B",
"^  c #D0AB28",
"/  c #D5B92C",
"(  c #C6A739",
")  c #D8AA39",
"_  c #CBB639",
"`  c #D6B839",
"'  c #E3B13C",
"]  c #D9C53A",
"[  c #D9C93A",
"{  c #E3C93D",
"}  c #8C964A",
"|  c #AF924B",
" . c #97A84E",
".. c #B1B14E",
"X. c #8C936E",
"o. c #AB926E",
"O. c #97A970",
"+. c #B0B36F",
"@. c #D3904A",
"#. c #DA9A48",
"$. c #E39049",
"%. c #C6A74A",
"&. c #D9A649",
"*. c #CAB747",
"=. c #D4BC43",
"-. c #D7B848",
";. c #C8AA56",
":. c #D7A957",
">. c #CCB959",
",. c #D7BA57",
"<. c #E5B150",
"1. c #DEA364",
"2. c #C8B767",
"3. c #CDB16C",
"4. c #D5BA65",
"5. c #BBC454",
"6. c #B7C46C",
"7. c #CBC54B",
"8. c #D5C444",
"9. c #DBC443",
"0. c #D8C949",
"q. c #DCD449",
"w. c #C9C857",
"e. c #DBCC54",
"r. c #D8C658",
"t. c #DBD458",
"y. c #E2C747",
"u. c #F1C944",
"i. c #E3D449",
"p. c #E3CA56",
"a. c #E4D658",
"s. c #E8E04F",
"d. c #C8C767",
"f. c #D8C967",
"g. c #CCD36E",
"h. c #DBD468",
"j. c #C8C779",
"k. c #D8CA77",
"l. c #DCD675",
"z. c #E5CA66",
"x. c #E4D667",
"c. c #E6CC75",
"v. c #E4D778",
"b. c #E2E271",
"n. c #6E8D98",
"m. c #78969A",
"M. c #5F88A6",
"N. c #6B93AA",
"B. c #6B98BB",
"V. c #759DBA",
"C. c #7EA3AC",
"Z. c #7CA2B7",
"A. c #6292C2",
"S. c #6E96C5",
"D. c #87968F",
"F. c #8BA499",
"G. c #9AAF97",
"H. c #95A99A",
"J. c #B0B38C",
"K. c #ACBA99",
"L. c #B8BB9A",
"P. c #829FAB",
"I. c #86A7A6",
"U. c #92B2AC",
"Y. c #85A8B8",
"T. c #98B9B6",
"R. c #A8BBA4",
"E. c #B1B9B0",
"W. c #CBB58F",
"Q. c #C1BEAF",
"!. c #BAC687",
"~. c #ABC397",
"^. c #BBC499",
"/. c #ADC1A6",
"(. c #B4C4A4",
"). c #B9C9A7",
"_. c #AEC6B1",
"`. c #B7C9B5",
"'. c #C6C587",
"]. c #CDD28E",
"[. c #D6D787",
"{. c #C7C898",
"}. c #D3CD99",
"|. c #D6D898",
" X c #E7DA86",
".X c #ECCD91",
"XX c #DCE392",
"oX c #E9E78B",
"OX c #C5CDA7",
"+X c #D6CCA9",
"@X c #CAD4A9",
"#X c #D6D9A9",
"$X c #CDCAB6",
"%X c #CBD7B7",
"&X c #D3DCB3",
"*X c #D9D8B5",
"=X c #D3DCBC",
"-X c #DBDDBB",
";X c #E3DAB3",
":X c #D8E1A9",
">X c #D8E2B7",
",X c #DBE3BC",
"<X c #E9ECAF",
"1X c #E4E5B9",
"2X c #E4EABC",
"3X c #8CADC2",
"4X c #A6B8CD",
"5X c #B3C7C9",
"6X c #ADCBD5",
"7X c #CCD7C7",
"8X c #CFD0CB",
"9X c #D5DBC3",
"0X c #D9DCC4",
"qX c #D4D4C8",
"wX c #D5DACB",
"eX c #DADDCC",
"rX c #D7D9D7",
"tX c #DBDDD4",
"yX c #E5DDC7",
"uX c #DCE3C4",
"iX c #D8E2C8",
"pX c #DDE2CB",
"aX c #DEE2D3",
"sX c #DEE2DB",
"dX c #E1E6C4",
"fX c #E4EAC4",
"gX c #E2E6CC",
"hX c #E5EACB",
"jX c #EAECC8",
"kX c #ECF2C8",
"lX c #F1F4CA",
"zX c #E1E4D4",
"xX c #E5EAD3",
"cX c #EAEED4",
"vX c #E3E5DC",
"bX c #E6E8DA",
"nX c #EBEDDC",
"mX c #EDF1D4",
"MX c #EEF1DC",
"NX c #F1F3DB",
"BX c #CBD6E4",
"VX c #D5DCE6",
"CX c #DDE3E7",
"ZX c #E3E4E3",
"AX c #EBECE3",
"SX c #E5E8E8",
"DX c #EAEBEC",
"FX c #EEF1E5",
"GX c #F4F7E6",
"HX c #F2F4EB",
"JX c #ECEDF3",
"KX c #EEF1F6",
"LX c #F3F4F4",
"PX c #F9FAF5",
"IX c #F9FAF7",
"UX c #F3F4FA",
/* pixels */
"1 3 3 1 6 5 5 5 5 5 : 5 5 5 5 5 , 5 < < 1 1 1 1 1 3 8 8 8 8 8 8 8 8 8 3 1 1 1 1 < 1 1 1 < 1 5 6 5 5 6 5 5 5 5 4 ; 4 > 1 6 8 1 1 ",
"3 1 < 1 < > > > ; ; ; ; ; ; ; ; > > > > > > > > < < < < 2 * = 8 3 8 2 2 < > < > < > , > > > > > 4 4 5 5 5 ; ; ; ; # * > 1 1 1 < ",
"1 6 * & @ @ + + + + + + + + + + + @ @ @ @ @ & @ & & & & & & & & & & & & O & @ @ @ & @ @ @ @ @ + @ @ + @ ; + + ; o + + * < 1 * & ",
"1 < @ ZXZXtXZXZXLXIXUXKXSXSXDXSXZXtXzXbXgXbXzXeXrXwXrXqX7XaXsXaXwXiX7X7X>X,XiXpXzXaXvXvXbXbXzXZXrXZXZXSXZXvXvXZXZXcXnXnXGX1 @ O ",
"1 > @ SXrXCXSXSXUXIXUXDXSXCXCXSXCXvXzXbXvXAXAXsXwXqXqXqXsXZXSXaX7X%X%X%X%X&X>XiXuXaXaXzXbXzXtXzXsXvXtXZXSXZXZXZXvXbXnXbXbX> + O ",
"> * o 8X7XsXKXUXIXUXUXJXZXVXBXVXSXZXvXAXAXHXFXbXtXrXtXZXHXIXIXGXiX%X%X@X:X&X>XhXuXeXgXpXtXqXqXeXtXaXsXzXtXqXqX8XrXtXzXbXvX> @ X ",
"> # + 8XwXKXKXUXUXUXUXSXCXBXVXCXCXZXZXAXHXKXHXAXsXtXZXDXLXPXPXPXxX%X@X:X:X:X>XiXdXyXeX0XeXtXzXeXeXeXzXtXqXqXqXqXqX$X*XeX0X# o X ",
"; # o qXSXUXUXUXUXJXKXJXCXVXVXCXCXCXAXAXDXHXHXAXzXtXsXAXIXPXPXMX2X@X@X@X:X:X&X&X-XyX-XqXqXeXrXpXpXpXqX-X;X+X+X;X;X+X+X+X#X# o X ",
"; # o 8XJXKXUXUXUXJXDXSXCXVXVXVXCXCXbXbXFXHXHXHXnXzXsXSXLXLXPXnX>X:X:X@X:X:X:X:X-X-X*X0XqXeXeXeXpXgXkXkX;X;X;X;X;X;X-X-X<X# o X ",
"; # o VXJXKXUXKXJXJXJXVXVXrXVXsXsXsXsXsXCXFXKXFXFXnXbXHXHXFXHXSXxX>X>X>X>X:X:X:X&X;X+X*X-XqXqX0XdXjXjXlXlXlXyX;X;XyX,X2X2X# o X ",
"# # o VXJXKXUXUXUXLXZXZXrXrXrXrXCXsXsXsXaXbXbXAXMXFXFXHXHXHXHXHXGXMXmXmXmX2X>X2X1X1X;X0XqX9X-X1XfXcXjXlXlXlXcXjXyXfXjXkX2X+ o X ",
"; # O VXJXKXUXUXUXJXZXvXrXrXqXrXaXaXaXeXpXxXxXnXcXNXGXPXIXHXIXGXPXPXKXMXNXMXmXhXxXgXdX0X9XeX9XuX2XjXjXlXkXjXjX1X;X2XdXjXjX# o X ",
"; # o SXJXKXKXUXCXDXCXCXvXCXaXpXpXwXiXpXgXgXhXgXmXGXHXPXIXIXIXGXHXHXPXGXGXGXMXmXnXnXcXhXgXpXgXeXjXkXkXkXkX2XjX1XfXgXzXyXyX# + X ",
"; ; + JXKXCXBX6X7XCXrXrXrXvXvXzX0X0X0XuXpXxXhXhXxXcXFXGXIXIXIXPXGXGXGXGXGXGXFXFXNXnXNXcXxXgXgXfXkXlXlXlXjXxX1XdXdXzXzXtXvX; + X ",
"5 ; + CXBX3XZ.3X4X6X5X8X5X7XeX0X9X9XuXuXpXxXgXnXxXhXMXGXIXIXIXGXHXGXGXGXGXMXnXMXcXcXcXxXhXkXkXkXkXkXcXhXdXuXuX-XeXeXsXtXrX4 + o ",
"5 4 @ 4X4XZ.V.Z.T.T.T.T._.`.7X9X9X9X9XiXuXuXgXnXhXxXxXnXmXFXHXGXFXMXMXmX2XfXcXcXjXjXkXmXkXkXkXjXhXxXpXdXdX=X9X9XqXeXrXrXrX4 + o ",
"6 4 @ S.Y.3X3XY.Z.T.T.T.T.6X5X%X_.%X`.%XiXiX%X7XpXuX,X2XdX,XcXcXcXhXhXfX2XfXuXkX2X2X2XlXkXkXkXxXzXgXeXuXpX=X=XwXwXrX8XVXrX> # o ",
"6 < @ S.S.Y.3XU.T.U.T.T.T.T._._.`._.`.).).%X%X=X=XiXfX,X,X,XuX2XhXsXcXhX,X,XuX2X2XkX2XlXfXhXgXzXaXiXeX,XuX9X=XwXwXwXrX8XqX: @ o ",
"1 1 @ S.S.Y.Y.Y.T.T.T.T.U.U.T.~._././.`.`.%X%X%X9X9X>X>X>X>XuXpXiXpXcXkXuXfXuXfX2X2X2X2X,XfXuXzXeXzX9XwX-X,X=X7X8X8X+X,.,.< & O ",
"1 < & A.S.S.S.Y.Y.3XZ.U.U.U.~.T._.(._.).).).%X%X%X=X7XiXuX0X>X,X,XiXpXiXxXhXcXxXkX2X2X,XuXpXeXwXwXwXwX9X0X0X9X$X7XqX! $.F < @ O ",
"1 > + A.S.B.P.S.V.V.Z.U.I.I.T./.~./.).).).).@X@X%X%X%X=X=X,X0X,X>XiXiXuXhXiXxXxXkX2X>X,XpXiXeXqXtXwXqXeXqX0XqX+XW.:.$.F 1.> + o ",
", ; + A.A.S.B.S.Z.Z.Z.U.U.R.U.R././.).~.@X@X).%X%X&X&X=X=XiXpXiX>XpX,X>X>XuXaXxXaXiXiX,XhXpXaX0XeXwXqX;XW.3.:.Q $.F 1.W.1.: @ o ",
", > # A.A.N.B.V.C.I.C.U.G.G.U.K././.).@X).).`.&X@X%X&X=X=X=X,X9X,X,X,XuX,XiXuXuXiXfXiXuXyX0XbXyXvXyX.X' ~ ~ #.,.F F $.$.&.> @ o ",
", > + B.B.V.V.P.C.C.F.I.H.G.R.R.(./.~.).@X@X).%X%X&X&X>X,X&X=X&X>X&X>X,XuXiXhXuXpXuXuXiXeXyXyXlXc.<.<.F $.-.&.) 1.$.<.0.<.> @ o ",
"1 > # Z.Y.Y.V.P.P.I.F.F.G.G.R./._./.(.).OX^.@X@X>X&X>X,X>X>X-X=X=X&X&X>XuXpXuXuXdXfXuXdXgXdX;X<.<.:.$.1.1.&.&.&.1.,.4.{.W.> @ O ",
"1 > & N.C.Y.I.P.F.F.I.H.H.K.R.K././.).).OXOX%X%X=X,X2X,X:X*X#X&X%X%X9X0X-XuX>X,X1X1X>X-XyX.Xz.1.$.$.F $.F &.&.1..Xf.+XOXOX> @ o ",
"1 < @ n.m.Y.P.I.F.F.H.H.G.G.R.R.R._.(.).).@X@X%X*X#X}.#X].}.W.}.=X%X7X%X0X9X,X>X>X>X1X;X1.<.$.$.$.1.4.1.&.:.c.f.[.@XyXzX9X< @ O ",
"3 < & n.m.m.m.F.D.F.H.U.U.K.R.R./.~.(.).).OX@X%X@Xo.N N W W ~ @.;.3.W.W.W.+X+X+X+X+X.X1.<.#.:.:.:.,.j.d.;.|.|.|.*XgXnXzXxX< & O ",
"8 2 & n.N.m.D.P.D.H.H.E.R.R.R.R./././.(.).OXOX+X}.b n N ~ ' -.u.) ~ ' &.#.#.#.&.-.:.3.:.4.*.-.%.;.2.;.#X[.}.#XdXFXMXfXdXxX2 & O ",
"8 2 & M.n.n.P.P.F.G.H.H.R.R.K.K././.(.(.^.OX@X@X'.S Q W Z W Q ~ <.' ' Q $.' $.~ ~ ' ,.,.-.*.*.%.;.3.'.+.0X;XkXAX-XjXmXhXMX< & O ",
"8 2 & A.M.n.m.P.D.D.F.F.H.E.K.L.~./.(.^.R.).^.{.W.| M N M B W Q A R ' @.#.{ ' ` -.q.*.0._ >.4.3.+.W.].].hXNXzXnXIX1XnXxXhX2 & & ",
"8 2 & J n.X.D d n.X.X.o.X.J.G.J.J.K.^.~.^.^.{.J.+.c v C Q W v Q R Q E E P ! ) -.*.*.;.;.2.;.J.2.J.!.'.2XbXMXMXbXcXzXtX%X%X< = O ",
"8 2 * 3.%.| U ;.| ! z.4.` ,.,.-.%.! ! %.4.3.| %.| w v N B B V P Q B N M x x ! >.h.t.f.[.k.k.b. X{.{.OX=XMXGXMX,XiX,X_.~.~.2 & O ",
"8 8 & k.] -.r.;.r.x.x.>.j n U x l M k _ -.p.c.;.&.%.%.-.=.%.4.,.%.x C | V Y _ k.h.x.e.v.v. X<XoX[.{.{.tXMXGXaX`.@XO.b.XX<Xe & O ",
"8 < & %.C ,. Xf.;.-.x.z.l B x E f l P ,.h. Xv.f.c.z.c..Xc.f..Xc. XC A A B B P 2.b.q.i.t.s.oXoXoX[.W.!.tXfXxX>X!.J [.b.b.XX2 & O ",
"3 2 @ q 0 | h.%.9 v ,.h.x N B x x k x *.x.c..X:.<.z.z.<.p.-.z.v.v.Y n g v M P r. X[ i.s.s. XoX X[.!.#X2X>XkXiXO.].XXg.g.6.2 & O ",
"1 < @ : q v v.o.f w &.r.l x Z x z P ^ z.v.a.e.r.1.c.:.p 9 c h.v.p.Y n n g n V *.7.q.s.s.b.r.| o. .+.@XgX2XjX).6.[.XX . . .2 & O ",
"1 < @ q 0 M v.| h v ,.r.Z x x R l E &.v.v.a.h.v.c.f.m $ 1 0 | v.r.! w g n n @.*.7.i.s.s.t.L y p c  .+XjX1X&XJ.!.g.g. .G G * & O ",
"1 < @ U | %.h.%...( ,.a.x l Z x x E -. Xv.2.( c. X4.S 7 h f M l.7.U g n v n C ( e.q.i.i.Y 8 c y I  .).:X;X~.+.!.l.6.a a e > & O ",
"1 > @ k.l.v.l.c.-.m ! &.E E x l k K &.x.h.| b o.:.f.d @ y h k b.>.I w w w q b ! p.t.p.q.c 7 v y m S O.j.@XO.O.J.g. .a t e < & X ",
"1 < @ y.x.v.v.l.W : m W P P l l j P E <.x.s c k %.2.p 7 y c l x.w.Y 9 y j c v E q.t.h.7.p 7 w 7 S s } X.F.O.J O.XXO.a a X.< @ O ",
"1 > @ r.k.k.h.,.N $ V Y P k l f f P ( i.r.V c 3.:.k.7 w f b z r.>.Y j y 0 0 j Y ] e.h.e.s w j m | v X.H.~.).>XJ.{. .d +.;.> @ O ",
"1 < @ h.f.l.f.#.E w c ..B V b n h E E x.e.p ;.;.4.l.y 9 h f j ,.*.C y j h m 9 Y ] q.f.>.m | | U | | J.9X#X>X>X`.^.K.+.1.A < @ O ",
"1 > @ z.k.l.f.A C : V U m | 9 9 y B ! <.l.p S k %.l.c j j 0 j ;.r.%.l j j m 0 Y / q.w.| U ..>.4.4.OX#XhXcXfXkXiX#XK.{.J.D > @ O ",
"1 > @ -.-._ ) E M : | r.| b f f : 0 P p.4.y I v P ,.I V P x %.U A U A b 9 f j | ` ] 7.I j I C J.$X*XuXzXfXmX%XfX<X).!.^.W., @ o ",
"1 > @ ,.:.Q A B N b | t...A n A N M N B @.m V >.f.Y V C B W A W #.#.A A Z C z Y -._ _ Y c c S J.5X*XzXmX<X).].@X6.].O.6.OX; @ o ",
", > @ P E x x P Y E ! p.-.<.&.) ~ Q ) Q <.<.e.x.x.r.>.,.r.r.=.z.4.v.x.,.W W W ! -.&.E P V I D.E.wX0X,X+X6.!.6.O. .6. .6.+.> @ o ",
", , @ *.7.8.=.r.9.0.p.0.0./ =.` -.{ z.e.p.a.s.a.p.p.a.p.,.4.r.f.v.<.p.u.p.z.` ' -.=.Y V c Y Q.$X8X,X1X!.6.J H a G H  . ...; # o ",
", ; # 0.e.t.i.a.i.a.i.7.e.a.y.[ y.p.p.p.0.p.p.e.f.p.r.-.p.,.y.z.p.p.<.p.0.-.y.9.=.9._ m b C Q.8XbX:X'.O.H a a r r r a } O.> @ X ",
"; ; @ 0.t.q.t.q.i.a.q.0.q.] { ` ` ` ] ' -.r.e.a.p.t.r.,.-.-.<.4.,.,.r.e.f.t.e.t.e.0._ z c S E.8XuX!.6.L a e r - % e e i O.< # X ",
", ; + e.f.0.t.0.q.q.i.q.0.9.] ] ` { -.] ` ` y.' ' ` { ` -.=.&.>.>.%.=.r.0.e.h.h.h.t.7.z m o.E.rX#X6. .a r r % i . % - t L ; o o ",
"> > @ f.e.0.0.8.[ [ 8.7.*.` ` / _ [ 0.] ) / / / ` / ` p.p.r.r.,.,.,.7.r.e.x.b.l.t.a...v p o.K.$Xj.6.H t - . i Q i   . u d ; @ o ",
"5 ; + =.=.8.0.0.q.[ p.f.r.r._ / ] [ [ ] q.{ ^ ` ` / ` -.` ` _ -.r.=.7.q.t.t.l.t.t.b.w.m p +.L.*XXX+.J r % . y ~ m   . = u 4 + o ",
"5 ; + l.g.f.f.e.q.9.9.8.=.` ` / 8.r.[ [ ] / R / ` ` r.e.9.] 9.-.=.` 8.t.7.l.XXh.g.j.j.j.| J.L.'.g. .H - % % s Q I     = u * + o ",
"5 ; + v.v.h.t.t.t.h.q.q.q.[ [ _ 8.8.] [ 9.{ { [ { { { i.9.y.] ` _ =.e.0.h.t.[.}.L.{.|.=X|.OX*X[.6...J = %   . @.&   . e s 4 + o ",
"5 > # =.r.0.0.e.e.q.p.q.q.0.-._ ` / / 9.q.[ [ y.{ i.a.a.y.e.9.` 8.8.8.7.[.'.}.}.{.+X-XbX>X1X:Xg.6. .H e -     .     = u  .* + o ",
"6 4 @ 8.e.q.a.i.a.q.a.x.e.[ 8.7.T *.*.` _ _ / _ ] r.r.8.9.y.[ 8.=.-.8.e.h.j.{.@X#X+X@XaXxX-X>X+.g...H G = - .       e H T < @ X ",
"6 4 + 8.e.e.9.[ [ 0.[ ] 0.8.[ [ [ 7.7.w.w.w.w.7.7.7.w.r.0.-.8.` =.` ' ` r.}.&X|.[.}.dXcX#X*X:Xg.w...6.H J r e % e e G L L < @ O ",
"< 4 + ` / ` / ) / ^ ^ R ^ _ 7.w.w.w.g.6.d.5.g.6.5.d.>.d.>.d.>.=.` y.y.{ r.'.}.].XX|.uXdX;X#Xd...5.T O.H } a a u i s L K T 4 @ O ",
"6 < # / ` ` ` ` ` / / / ] [ q.w.7.5.5.5.5.5.5.6.6.w.w.w.w.7.] *.-.` -.` >.d.'.j.}.2.j.+.#X].+.*.h.T 5.L  .H H H } L T L T < O O ",
"6 1 1 e.h.h.v.v.l.h.t.0.[ e.t.d.w.7.w.g.d.t.g.w.w.w.7.7.7.T _ ] ] ` ` ] 8.,.>.2.+.+.+.2.'.j.w.+.6.T w..... .} L } T L L T 2 & O ",
"< < 6 < 5 > > ; ; ; ; ; & * * > > > < 4 * < < < < < 2 * 2 * 8 2 < < < < > < < * < > > > < > < 4 < > > > 4 4 ; # # # 1 4 * * & O ",
"@ * & & @ @ + + + + + + + + + + @ @ @ @ & & & & & & & & & & & & & & & & & @ & & @ & @ @ @ @ @ @ @ + + @ @ @ @ + o o O @ & @ O O ",
"O O O o O o X o o o o X o o o X O X O X O O O O O O O O = O O O O O O O O O X O o O O O o O o O o o o o o o X X X X o o O O O O "
};
