/* XPM */
static char *d2FzdGVsYW5k[] = {
/* columns rows colors chars-per-pixel */
"64 64 238 2 ",
"   c #3F1A0B",
".  c #372608",
"X  c #141311",
"o  c #411D0D",
"O  c #45220E",
"+  c #4C240E",
"@  c #4C2B0E",
"#  c #422C04",
"$  c #4E320E",
"%  c #4C3303",
"&  c #553A04",
"*  c #5C3D02",
"=  c #563500",
"-  c #4B2512",
";  c #4C2B12",
":  c #4B3311",
">  c #4B3812",
",  c #483918",
"<  c #613D00",
"1  c #5D4102",
"2  c #54421B",
"3  c #4F4110",
"4  c #634203",
"5  c #6A4500",
"6  c #6C4B02",
"7  c #674807",
"8  c #734C02",
"9  c #774E05",
"0  c #745202",
"q  c #7A5402",
"w  c #7A5807",
"e  c #755514",
"r  c #564625",
"t  c #695837",
"y  c #715E39",
"u  c #654F29",
"i  c #7C653C",
"p  c #786905",
"a  c #6E5D42",
"s  c #7A6745",
"d  c #6F6041",
"f  c #835C02",
"g  c #8B5E02",
"h  c #845A07",
"j  c #8A5B0C",
"k  c #8C6303",
"l  c #886704",
"z  c #946503",
"x  c #946A02",
"c  c #9B6C01",
"v  c #986A0A",
"b  c #8A7604",
"n  c #9B7302",
"m  c #987706",
"M  c #876417",
"N  c #957717",
"B  c #A16E09",
"V  c #A47B02",
"C  c #AB7C02",
"Z  c #A77507",
"A  c #B47B05",
"S  c #A57A16",
"D  c #B66C00",
"F  c #906A2E",
"G  c #C87B02",
"H  c #836D47",
"J  c #8A7656",
"K  c #927A5D",
"L  c #957B53",
"P  c #8B754C",
"I  c #967E62",
"U  c #987F63",
"Y  c #9D8806",
"T  c #AC8504",
"R  c #AA8608",
"E  c #BA8D04",
"W  c #B48C0B",
"Q  c #BB8D0B",
"!  c #B48607",
"~  c #AB9608",
"^  c #BC930C",
"/  c #B99604",
"(  c #A78715",
")  c #B48C13",
"_  c #B88B16",
"`  c #BD9412",
"'  c #BA9319",
"]  c #AF921C",
"[  c #BEA404",
"{  c #BBA110",
"}  c #B38F26",
"|  c #C78804",
" . c #C2940B",
".. c #C49A0D",
"X. c #C79806",
"o. c #D89802",
"O. c #C19613",
"+. c #C49B13",
"@. c #CA9E13",
"#. c #C59A1A",
"$. c #CA9D1B",
"%. c #C6941B",
"&. c #D59208",
"*. c #E39901",
"=. c #CCAA02",
"-. c #C9A503",
";. c #D7A904",
":. c #CAB106",
">. c #DDB404",
",. c #D6B509",
"<. c #CCA116",
"1. c #CCA21B",
"2. c #C4A415",
"3. c #D2A51C",
"4. c #D6A816",
"5. c #DAB517",
"6. c #CEB117",
"7. c #E5A804",
"8. c #E4B809",
"9. c #E2B712",
"0. c #C99B25",
"q. c #C79C36",
"w. c #CEA526",
"e. c #D2A524",
"r. c #D4AA24",
"t. c #D3A52B",
"y. c #D4AA2C",
"u. c #DAAC2B",
"i. c #DAAA24",
"p. c #DDB628",
"a. c #CCA736",
"s. c #D5AC33",
"d. c #DAAE34",
"f. c #D5AD3B",
"g. c #DAAE3C",
"h. c #D4A435",
"j. c #DBB23B",
"k. c #D9B337",
"l. c #CFB336",
"z. c #E3B53B",
"x. c #E2B22A",
"c. c #EAC316",
"v. c #E7C839",
"b. c #EECA36",
"n. c #DFC02A",
"m. c #9B825A",
"M. c #A1875C",
"N. c #968163",
"B. c #9A8265",
"V. c #9D8569",
"C. c #9D896B",
"Z. c #9E8870",
"A. c #A28A6D",
"S. c #A08769",
"D. c #A48C73",
"F. c #AA9378",
"G. c #B2997C",
"H. c #B6A568",
"J. c #D6AD42",
"K. c #DCB343",
"L. c #DBB54B",
"P. c #DDB94E",
"I. c #D7B446",
"U. c #DBB653",
"Y. c #DDB954",
"T. c #DDBB5A",
"R. c #D6B755",
"E. c #CFAD4B",
"W. c #E2B848",
"Q. c #E2BB53",
"!. c #E3BC59",
"~. c #DCBD63",
"^. c #DCBF6B",
"/. c #C8BA73",
"(. c #E1BE61",
"). c #DBC557",
"_. c #E7C456",
"`. c #E7C449",
"'. c #DCC169",
"]. c #DEC572",
"[. c #DAC77B",
"{. c #CDC37E",
"}. c #E3C468",
"|. c #E4CA7C",
" X c #E4C777",
".X c #B29D82",
"XX c #B4AD9C",
"oX c #B9AE9B",
"OX c #BCB29E",
"+X c #B1A692",
"@X c #BDB4A2",
"#X c #BFB8A6",
"$X c #BCB7A5",
"%X c #BBAFA1",
"&X c #C1B59F",
"*X c #C6B99E",
"=X c #C2B6A2",
"-X c #C4B9A5",
";X c #C9BAA6",
":X c #C4BCAB",
">X c #CABDAA",
",X c #C7B7AA",
"<X c #C5BEB6",
"1X c #D9C785",
"2X c #DBCA97",
"3X c #CCC28D",
"4X c #E4CC84",
"5X c #E4CE8B",
"6X c #E8CD85",
"7X c #E7D18B",
"8X c #E4CD92",
"9X c #E7D199",
"0X c #CCC1AE",
"qX c #D2C3AC",
"wX c #CBC3B2",
"eX c #CBC4B6",
"rX c #D2C6B3",
"tX c #D5C9B6",
"yX c #D5CBBB",
"uX c #DACEBC",
"iX c #D9CAB5",
"pX c #DBD0BE",
"aX c #E5D3A6",
"sX c #E1D2BD",
"dX c #CFCAC3",
"fX c #D4CEC3",
"gX c #D8CFC1",
"hX c #D4CFCA",
"jX c #D6D0C5",
"kX c #DAD2C5",
"lX c #D6D1C9",
"zX c #DCD5CA",
"xX c #DFD8CE",
"cX c #DBD6D1",
"vX c #E0D7CD",
"bX c #E0D9CE",
"nX c #E2D7C5",
"mX c #E3DBD1",
/* pixels */
"; $ $ ; - - - - - - @ @ @ @ - + @ @ @ $ > > @ @ > > > > > > > > > > > > @ @ > > > $ ; @ - ; @ @ - - - ; - ; ; ; - - ; @ @ + O   ",
"$ $ @ @ - o o - - o + - + @ + - @ @ O @ : ; ; O @ : : : : > $ : : : : @ @ @ ; : : + ; @ - - ; - - - - - ; - - - - - @ O @ + O   ",
": @ 0XXXJ I K I K U A _ ] R W _ ) ) ) ] ) R ) R R R T ) ) T W ` ' C 0.' ' #.%.0.%.e.Q _ %.h.X.a.u.K.d.g.d.uXkXgXmXmXzXyXqXtXO   ",
": - :XXXJ J I K K U A } } ' W ) ) W ) ) T W ) ) ) R W ) T ^ ^ ! ( _ 0.E h.$.h.0.%.t.$.0.O.%.$.0.t.t.3.0.W.yXgXgXvXbXmXuXqXrXO   ",
"; - :XXXJ K K I I U ) W Q ) ) W ) ` ] ` ^ W W W W W W W E %./  .O.) O.O.O.i.%.z.!.3.u.$.h.0.e.@.&.h.t.h.L.yXuXzXzXmXmXrXiXiXO   ",
"- - :XXXK K K K K B.) Q W ) ) ` ` ` ` ` ` W ^ E ! W T T !  .! Q Q W E _ _  .3.i.W.h.y.t.h.<.z.t.g.q.J.h.z.yXkXzXxXmXmXuXiXiXO   ",
"- - 0XXXJ J I U U S.' ` ` ' O.^ #.` ` ` ` ` ` / ^ ! T ` | Q W 0.h.g. .z.@.| i.3.z.i.z.$.t.0.@.4.d.i.K.d.j.yXkXvXzXmXbXyXiXiXO   ",
"- - 0X+XK I U I U S.` / ` Q ..Q ^ ` ` W ` `  ./ ` W ^ E E ) R ` E ^ @.4.8.x.z.g.z.i.d.W.d.d.W.d.4.z.g.h.d.uXkXkXzXzXbXtXsXpXo   ",
"- - :X%XI I U B.A.S.O.^ ` 0.^ ` O.' +.#. .^ +.^ ^ ^ ' Q E  ._ _ ) X. .e.<.4.d.g.g.g.W.Q.J.h.J.J.h.g.h.K.W.uXkXzXzXzXxXuXuXuXo o ",
"- - >X:XK U U U S.A.O.Q Q ^ ^ ^ ^ ^ /  .O.O.` +.....+.` <.<.|  .+.i.@.0...w.g.g.W.K.d.W.J.f.W.W.f.W.W.K.z.gXkXgXzXzXzXyXiXuXo o ",
"- - >X-XJ I U U K S.Q Q O.` +.^ ` +. .#.#.X.O.+.+.+.<.e.@.y.i.$.3.i.4.4.@.w.f.g.J.Q.W.K.f.J.J.J.J.Q.W.L.W.nXkXnXzXvXmXuXuXiX+ o ",
"- - :X,XJ K U S.U S. .O.#.^ #.` ^ ` +... .....^ 1.<.@.@.1.@.3.y.t.i.i.i.f.d.d.f.g.K.g.W.K.L.J.L.W.!.Q.L.Q.uXkXzXnXbXxXkXpXpXO o ",
"; - :XeXK K K B.V.V.<.` +.^  .e.^ ......@./ ..1.....+...<.r.y.r.u.i.s.k.j.f.k.y.d.g.K.g.K.j.I.K.W.Q.L.K.L.pXkXzXzXzXbXkXiXpXO O ",
"; - :XeXK I U U B.V.2.^ ^ / ^ <.#. ...2...@...@...@.<.3.3.3.r.r.i.u.s.u.s.k.s.s.d.g.j.g.K.L.I.I.Q.L.L.L.R.uXkXkXxXvXmXpXiXpXO o ",
"- - :X:XU U B.B.U S.#.` ^ ` +. ./ @.#.+.3.@.e.1.2.3.3.1.1.r.e.w.r.w.s.k.s.s.s.f.g.g.g.K.L.L.L.L.J.L.K.W.L.pXkXkXxXkXbXkXpXuXO O ",
"; ; :XeXU B.V.U V.A.` ..` ^ 1.1.$.$.<.<.$.e.1.<.1.r.1.3.3.3.e.r.y.s.y.s.s.d.d.j.W.g.K.K.j.K.Y.L.U.U.U.Q.Y.pXkXxXvXzXbXyXiXnXO o ",
"; ; :X:XI I V.B.A.A.' @./  ...@.#.u.+.<.<.<.<.<.1.1.3.r.3.y.y.s.s.s.s.k.y.d.d.y.k.K.K.d.j.P.T.U.U.Q.Q.L.Q.kXkXvXvXvXvXpXiXpXO o ",
"$ ; :X:XI U A.B.A.D.O.i...3.$...#.@.+.+.w.$.$.<.y.1.3.y.e.y.a.y.a.s.y.a.s.s.d.k.Q.s.g.K.P.L.L.L.L.!.L.U.T.pXgXkXzXzXzXuXiXuXO o ",
"$ @ -X0XI U A.V.A.D. .+. .X.<.2.+.<.<.w.3.1.1.e.1.3.3.1.r.s.l.s.s.y.y.s.g.d.f.d.k.d.W.j.L.Q.Y.L.L.!.K.!.!.kXkXvXvXbXmXuXpXpXO O ",
"@ @ :X:XV.U U A.A.F.E E  .$.` <.<...1.<.<.1.-.$.e.1.e.1.1.r.r.r.u.r.y.j.s.s.d.d.K.k.k.W.I.!.Q.K.Q.Q.W.!.}.gXzXkXzXmXbXuXuXpXO o ",
"+ + -X:XS.U U S.A.F. .@. .+.#.1.1.1.1.4.3.<.3.1.3.3.r.j.k.u.k.y.p.p.y.d.s.y.y.L.j.d.K.K.W.K.Q.Q.!._.!.K.}.nXkXvXzXmXzXyXuXuX+ o ",
"- - :XeXU I S.S.D.F.X./  ./ $.#.w.1.$.u.e.1.-.K.K.f.l.L.Q._.j.I.W.f.Q.j.d.u.k.W.j.K.I.W.j.Q.K.}.(.Y.!.8X7XzXzXvXvXzXmXfXpXpX+ o ",
"o + :X>XU U U A.V.F.a.0.h.a.w.a.w.f.J.f.w.y.!.K.y.P.T.Y.Y.R._.}.L.1.K.L.Q.U.!.Q.`.K.K.L.W.J.}. X4X6X8X6X9XnXkXkXzXmXxXfXpXpXO o ",
"+ + ,XeXZ.U U D.V.D.f.E.a.E.a.f.l.a.f.L.I.R.T.T.^.~._.!.~.~.'.}.'.~.}.'.}. X X X}.Y.!.!.!.}. X|.6X9X9XaX8XnXnXkXzXmXxXuXuXpXO o ",
"$ @ ;X>XU V.B.A.S.A.U.L.E.J.I.I.L.L.J.L.L.T.'.'.}.^.'.~. X'.].|.T. X|.|.|.6X X4X6X|.6Xl.5X6X6X8X9X9XaXaXaXkXvXkXkXmXxXkXpXpXO   ",
"$ + =X>XS.B.B.B.V.D.~.R.U.T.f.L.R.R.~.R.'.'.T.}.}.}. X6X4X[.6X4X4X4X|.4X4X4X6X4X4X4X4X6X8X7X9X7X9X9XaXaXaXkXuXkXzXbXzXjXkXuXo   ",
"- + =X:XB.V.B.B.A.D.'._.R.R.'.'.^.T.}.(.].}.'. X|.|.|.4X|.4X6X7X4X4X|.|.|.|.|.4X6X|.6X5X4X4X5X5X8X9X9XaXaXpXkXzXvXbXvXrXpXkXO   ",
"+ + @X@XU K B.A.A.S.[.R.'.'.).].^.].].].[.7X|.7X|.|.|.}.4X7X|.7X X].|.4X4X|.|.4X5X4X4X7X7X2X2X7X2X2X9XaXaXkXkXgXkXvXbXrXuXpXO o ",
"+ + @X$XU B.B.C.S.D.{.'.].].{.[.[.1X[.|.5X8X7X1X6X|.4X7X7X4X7X1X4X].|. X|.).|.6X4X7X5X1X8XY 5X5X5X8X2X8XaXkXuXkXkXzXvXeXuXpXo o ",
"+ + #XeXV.B.B.B.S.S.3X'.{.3X/.E.1X1X{.{.{.).`.b.`.).`.p._.].[.1X:.:.b.>.=.=.n.b.`.'.K.v.'.] ).n.).}.[.5X).kXkXkXnXzXvXtXyXpXO o ",
"$ ; -X:XU I U C.S.A.~ ~ 6.).~ ~ T 2.,.:.:.,.,.5.5.5.,./ :.6.,.[ -.{ =.=./ -.-.-.-.-.[ -.-.p =.=.c.,.6._.l.kXnXgXzXkXzXuXuXyXO o ",
"> : @X=XU I V.I V.S.` 2.{ l.{ / l.{ ~ / ,.>.>.>.,.,.:.:.:.,.-.-.-.~ =.=.;.-.;.=.;.=.-.-.-.Y ;.5.-.>.c.c.`.kXkXkXvXzXzXuXuXrXO o ",
"> : :X@XN.K B.V.V.B.l ] Y a.R ( m ] ~ =.,.c.b.).v.c.8.8.=.>.;.6.~ b / =.=.;.;.;.>.b.b.7.8.p c.,.>.;.5.8.`.pXnXkXkXbXxXrXtXiXO   ",
"> > @X:XI K B.B.V.V.b ( Y ] ( m m N } ~ k.5.,.7.7.7.7.;.;.7.=.[ b ( / [ =.~ T b x ;.7.;.7.b <.;.;.o.8.c.c.pXnXxXzXvXbXpXpXpXO   ",
"> : :X@XV.N.B.V.C.V.} p p F m ( b l } ~ ~ x T X.X.E T T Y C A n m o.;. .-.>./ ,.! E W.o.o.T E &. . .o.X.o.uXzXzXkXzXbXrXiXtXO o ",
": : #X%XV.N.N.B.B.V.Y b ( b b l b b b m m Y T T W T Z Q w.t.3.d.W E S B g Z &.A D G G &.| | | &.&.*.o.*.o.kXkXkXbXkXlXiXyXyXO   ",
"; @ -XXXV.I V.B.V.S.m T ] C V m m R T R ! ) n n V ) ! A _ z z Z &.*.&.&.G G A &.*.*.o.o.| &.*.o.*.*.*.*.7.gXgXzXzXzXvXtXyXyXo o ",
"@ @ -X@XV.I I V.B.B.m m m m m ( W R T 1.| E E X.! T g ! z g z Z w.z g D z A %.G X.&.7.o.o.| &.&.o.*.*.7.&.gXuXzXzXkXzXuXyXtXO o ",
"@ @ #XXXB.B.B.B.V.V.T ! V V n V V T / X.o.-.4.A ! c T x Z n C n ' _ B S %.A 0.h.B Z Z E O.! G A D | &.! 7.gXgXnXkXzXxXeXyXtXO   ",
"@ ; $X+XB.B.I C.V.B.T n V n l l x V V T T C ! _ ! A Z ' m x k B h.v 9 9 9 z B A ! C S &.z z v B Z B %.| A kXgXvXgXkXzXtXuXrXO o ",
"@ @ #X@XB.V.N.V.B.B.l ( h 0 p x l w w 6 w f f x O.c V $.T C n f h M h j e h v f g q f g } F = j B g z z c uXuXjXkXkXzXwXtXyXO o ",
"@ @ #XXXN.N.U V.B.V.k 6 q 6 7 6 & 0 6 0 l b S l ) B S Z q q q 4 & 0 0 w 6 0 q q 0 M j f h e v v j B B z n uXyXyXuXuXzXyXtXtXo   ",
"@ @ :XwXI N.N.V.B.C.q l 0 S e M e w v x x n  .C Q Q g M 0 w 6 q q e 7 , $ = 4 6 w e 5 4 e < 8 e 8 j v v t.uXyXkXuXkXzXwXtXrXO o ",
"$ @ #X#XN.I I U B.N.w 0 p 8 & 1 6 6 l q.c k k f z f < M 6 = < 4 5 6 u O r i J 4 q 8 6 5 w h v v h 9 h f v uXyXuXuXkXzXtXtXrXo o ",
"; ; #X#XN.K N.U B.N.x 0 l q k l k v v 0 q w q g g q @ . . . . % * * & u J a H :Xq v 0 h w 6 0 g h h h c z iXuXuXyXkXzXrXiXrXO   ",
"@ ; :X:XV.A.V.N.B.V.x q N < 4 z 5 9 l w j 6 7 = 7 < 8 %.} 9 7 J y r , s P r r C.H 1 * 6 e E E k g h B g V yXyXyXtXkXjXrXrXrXO o ",
"@ @ #X:XN.B.K N.U V.l 6 q q 0 e 5 8 7 9 9 6 8 q 9 5 j 9 = % r 2 y t 2 . u r . X P e 6 7 5 w Z B S  .D A V fXyXuXyXjXfXwXrXrXo o ",
"@ @ $X$XN.I B.B.N.N.8 4 6 l f l S S & & 9 z 9 5 5 # % 3 $ u y s s 3 r r d t r r F.% 5 6 M w 8 v A B A Z z yXyXuXyXjXlX>XrXwXo o ",
"+ + @X@XK K N.N.N.Z.* & # * 1 0 5 e & 1 4 % = % & < < < % y P y s a , N.s s 2 u > # 1 6 0 0 k k v f k z v yXyXyXyXlXlXwXtXrXO   ",
"+ + #X@XI K I Z.N.B.j 0 0 6 * 6 7 7 = = * < 4 6 q 5 5 < r r s d N.m.y s s s N.s & 7 1 & 1 5 M w j 8 f S S uXyXjXyXzXzXwXiX0XO   ",
"@ + @X:XU I B.N.C.Z.H M.M.C.M.M.L F m.m.L m.M.C.*XG..X2Xu r s J s m.s s H y u P 7 6 5 7 9 0 M w h q h z N kXkXjXpXlXkXwXiXqXo o ",
"@ @ $X$XN.I N.B.Z.C.D.D.D.D.F.F.F.G..X@XjXjXjXlXkXfXjXjXa t s r s i 3 s s y H B.V.C.rXjXjXjXgXkXfXgXgXfXjXyXpXlXjXkXlX0XrX>Xo o ",
"O + $XXXK N.N.V.Z.D.D.Z.F.D.F.G..XfXlXjXjXfXjXfXpXjXjXgXK r r t r M.m.m.Z.K N.A.yXjXlXjXzXzXgXlXlXkXlXzXzXlXfXlXkXlXzX0XrX0Xo o ",
"- - XXOXK N.D.S.Z.Z.D.D.D.D.:XdXjXfXlXlXfXfXfXfXjXjXfXkXfX#X> J qX. t m.& =XfXjXjXlXjXkXlXlXkXfXzXzXlXzXjXlXlXyXzXkXlX:X0XqXo o ",
"- - @X@XV.N.F.D.D.F.D.@XdXlXlXdXhXfXfXlXfXfXfXfXfXjXfXjXlXjXjXyXfXlXdXlXkXjXkXjXjXjXjXkXfXgXlXkXzXlXzXzXzXxXlXcXgXgXzX>X>XqXo o ",
"- - XX$XN.B.F..X+XdXlXdXfXdXjXdXfXfXfXfXfXfXjXfXjXjXfXfXlXlXfXjXlXjXlXlXjXjXlXkXjXjXjXjXzXlXzXkXcXzXlXcXcXcXcXzXzXfXzXwX>XqXo o ",
"; ; OX@XN.$XdXdXdXdXfXdXjXdXlXlXdXjXjXfXfXfXfXfXfXjXjXfXjXjXfXlXfXjXpXjXfXjXlXlXkXfXlXfXlXzXlXzXzXcXzXcXcXcXcXcXcXhXlX>XqX>X+ o ",
"> ; OXOXOXOX@X@X#X#X:X:X:X:X$X:X:X:X0X:X:X:X-X;X:X;X:X;X;X=X@X*XOXOXOXOX-XOXOXOXoXOXOX=X@XoX@XoX%X,X<XrXhXdX<XdXdXhX:X;X>X>Xo o ",
"> ; OXOX#X#XOXXX@X@XOXOXOX-X:X@X;X=X-X-X@X=X-X-X&X;X-X;X-X-X;X-X0X3X$X$X0X-XOX&X=X&X,XoX@X=X=X,X%X=X;X=X;X=X=X=X,X-X;X;XqX>Xo o ",
"> : OXXXOXXXOXXXoXoXOX@XOX-X;X-X@X-X#X;X;X;X-X&X-X*X*X-X&X&X-X&XOXOX-X-X&X-X-X*X=X=X&X@X@X=X,X;X=X,X=X=X,X,X,X=X,X;X;X;X>X>Xo o ",
"$ $ XXXX@XOXOXOXOXOXoXOXOX&XOXOXOX&X=X-X;X-XOX-X;X-X;X-X-X&X-X&XOX=X$X@X*XOX-XOX=XoX&X=X%X=X@X;X=X:X,X=X=X=X=X;X;X;X;X>X>X;Xo o ",
"@ @ OXXX@X@X%XOXOXOXoXOXOX@XOXOXOX:X-X-X@X;X$X:X;X-X*X-X&X$X&XOX-XOX&XOXXXOX&X$XoX&X=XoX=X=X&X=X@XoX@X=X=X,X=X,X;X=X,X&X;X;Xo o ",
"O O . O o O O o o O o O o O O o O O O O O O O O O O O @ O O O O O @ O @ O O O O o O + o o o o o O o o O o O O + o o o O o o o o ",
"o o o o   o o o o o o o o o o o       O o O O   O O o o O   O O o     O O o o     o o o o o o o o o o o o   o o o o o o o   o o "
};
