/* XPM */
static char *am9zZXBo[] = {
/* columns rows colors chars-per-pixel */
"64 64 140 2 ",
"   c #001537",
".  c #02143B",
"X  c #0A163E",
"o  c #02183E",
"O  c #192436",
"+  c #363B37",
"@  c #373C3C",
"#  c #383C3D",
"$  c #031441",
"%  c #061942",
"&  c #091B45",
"*  c #0C1D49",
"=  c #101E4B",
"-  c #0E2245",
";  c #0F204C",
":  c #112346",
">  c #13234C",
",  c #18274E",
"<  c #1A294F",
"1  c #0C2052",
"2  c #152353",
"3  c #182555",
"4  c #162850",
"5  c #1C2A53",
"6  c #1A2759",
"7  c #172959",
"8  c #1C295C",
"9  c #1E3152",
"0  c #20314F",
"q  c #383A41",
"w  c #202E53",
"e  c #212D5B",
"r  c #223153",
"t  c #24315D",
"y  c #2A375C",
"u  c #2D3C5D",
"i  c #303D5F",
"p  c #202C60",
"a  c #283562",
"s  c #2D3A63",
"d  c #323F61",
"f  c #3C4041",
"g  c #2F455C",
"h  c #3A575D",
"j  c #364265",
"k  c #35436A",
"l  c #38446B",
"z  c #404445",
"x  c #454949",
"c  c #50524D",
"v  c #4D5152",
"b  c #535456",
"n  c #515559",
"m  c #565A5B",
"M  c #595D5E",
"N  c #57605F",
"B  c #4C4F62",
"V  c #476269",
"C  c #5D6263",
"Z  c #5F696A",
"A  c #616566",
"S  c #636669",
"D  c #616B6B",
"F  c #6E736F",
"G  c #73726D",
"H  c #6A6F72",
"J  c #6F7374",
"K  c #727474",
"L  c #747975",
"P  c #797B79",
"I  c #D1372D",
"U  c #F63953",
"Y  c #FB3955",
"T  c #F83A54",
"R  c #A15D5A",
"E  c #E64D44",
"W  c #FF6364",
"Q  c #39997E",
"!  c #FBD159",
"~  c #FFD568",
"^  c #FFD270",
"/  c #626880",
"(  c #D52EAF",
")  c #D82EB2",
"_  c #D531B3",
"`  c #DC3EB7",
"'  c #DB4EB7",
"]  c #E247BC",
"[  c #E348BE",
"{  c #3FACB1",
"}  c #5BB49C",
"|  c #00CEFD",
" . c #00D0FE",
".. c #42C1D3",
"X. c #49C3D3",
"o. c #6AC1D5",
"O. c #6AC1D7",
"+. c #67D2E6",
"@. c #6AD4E5",
"#. c #7CE4FF",
"$. c #858784",
"%. c #8A8C87",
"&. c #969892",
"*. c #9E9F99",
"=. c #9FA09A",
"-. c #A2A19B",
";. c #A9A99F",
":. c #9FA5A5",
">. c #ABABA1",
",. c #A7A9A8",
"<. c #AEAFA9",
"1. c #AFB1AB",
"2. c #B0B1AB",
"3. c #A8A8B0",
"4. c #B1B1B1",
"5. c #B7B8B3",
"6. c #B9BAB4",
"7. c #BEBFBB",
"8. c #C0BEBD",
"9. c #C0BEBF",
"0. c #BFC1BB",
"q. c #FFCC8C",
"w. c #FFD287",
"e. c #FCD289",
"r. c #C1C1BF",
"t. c #BDBEC0",
"y. c #C1BFC0",
"u. c #80C5D5",
"i. c #96C6D5",
"p. c #97C6D6",
"a. c #9AC3D7",
"s. c #8EE8FF",
"d. c #90E6FF",
"f. c #92EAFE",
"g. c #C0C0C0",
"h. c #CECDCB",
"j. c #D2CECA",
"k. c #D2CECB",
"l. c #D5D2CA",
"z. c #DFE0DB",
/* pixels */
"7.t.7.t.4.4.4.4./ G A A A A A A A A A A A A A A A A A A A A A A A A A A A A A A A A A A A A A A A A A A A A 4.4.4.4.4.7.7.7.t.7.",
"t.7.7.4.4.4.4.4.S S A A A A A A A A A A A A A A A A A A A A A A A A A A A A A A A A A A A A A A A A S A A A A 4.4.4.4.4.t.t.y.t.",
"t.t.4.4.4.4.4.C A A A A A A A A A A A A A A A A A A A A A A A A A A A A A A A A A A A A A A A A A A A A A A A 4.4.4.4.4.t.7.7.t.",
"t.5.4.4.4.4.S A A A A A A A A A A A A A A A A A A A A A A A A A A A A A A A A A A A A A A A A A A A A A A A A A 4.4.4.4.3.t.t.7.",
"y.4.4.4.4.K A A A A A A A A A A A A A A A A A A A A A A A A A A A A A A A A A A A A A A A A A A A A A A A A A A A 4.4.4.4.4.y.8.",
"4.4.4.4.A A A A A A A A A A A A A A A A A A A b b b b b b b b b b b b b b b b A C A A A A A A A A A A A A A A A A A 4.4.4.4.4.8.",
"4.4.4.A A A A A A A A A A A A A b b b b b b b b b b b b b b b b b b b b b b b b b b b b b b A A A A A A A A A A A A A A 4.4.4.4.",
"A A A A A A A A A A A A b b b b b b b b b b b b b b b b b b v # b b b b b b b b b b b b b b b b b b b A A A A A A A A A A C 4.4.",
"A A A A A A S S b b b b b b x c b b b b # # # # # # # # b b b b b b # # # # # # # # v v b b b # b b b b b b C A A A A A A A A A ",
"A A A A A b b b b b b b b b # # b b @ # # # # # # # # # # b b b b @ # # # # # # # # # # b b b # b b b b b b b b b A A A A A A A ",
"A A A b b b b b b b b b b b b b b @ # # # # # # # # # # # # b b v # # # # # # # # # # # # b b b b b b b b b b b b b b b A A A A ",
"S b b b b b b # # # # # # b b b b # # # # # # # # # # # # # b b x # # # # # # # # # # # # q b b b # # # # # # # b b b b b b A A ",
"b b b b # # # # # # # # # # b b b # # # # # # # # # # # # # b b # # # # # # # # # # # # # # b b # # # # # # # # # # b b b b M A ",
"b b b # # # # # # # # # # # # b b # # # # # # # # # # # # # b b # # # # # # # # # # # # # v b b # # # # # # # # # # # # b b b A ",
"b b # # # # # # # # # # # # # b b @ # # # # # # # # # # # # b b # # # # # # # # # # # # # b b b # # # # # # # # # # # # b b b A ",
"b b # # # # # # # # # # # # # b b b # # # # # # # # # # # # b b # # # # # # # # # # # # # b b # # # # # # # # # # # # q q b b A ",
"b b # # # # # # # # # # # # # b b b # # # # # # S y.7.7.y.y.y.t.9.9.t.7.y.6.+ # # # # # @ b b # # # # # # # # # # # # # # b b A ",
"b b # # # # # # # # # # # # # # b y.9.9.9.9.9.9.7.y.y.7.7.7.y.t.t.y.y.y.y.y.t.y.y.t.y.7.7.b b # # # # # # # # # # # # # z b b A ",
"b b # # # # # # # # @ + # 8.8.y.t.y.9.B % & & & & & * * & * * y.* * * * * & & % % % $ y.y.9.g.y.y.8.# # @ @ # @ # # # # b b C A ",
"b b b # # # # # @ 8.9.8.9.8.. . . $ $ % % % % * * * * * * = 1 t.= * * * * & * * & & % % % . . . 8.8.y.y.9.x # @ # # # # b b A A ",
"A b b @ # # g.9.7.7.= . . . . o X o % % & & & * * * = ; = ; 1 y.= = = = = * * * * & % % % o . . . . . . 9.9.9.8.,.@ @ b b A A A ",
"A b b 7.9.9.y.. . . . .   . - : , , < & * * * * = = > ; ; > ; y.= = 2 e y * = * * & & & $ o , : & * . . . . . 9.9.8.9.b b A A A ",
"A A t.y.3.. . . . . . . - - : , > , , , 5 * = ; z.k.k.> 2 2 > t.= 2 2 = 2 = = = * * * & & , r r w :   .   . . . . . 8.9.8.A A A ",
"A y.7.. . . . . . . . - - : : r r w , 5 5 5 * > z.z.k.2 2 2 2 7.3 2 2 3 2 ) ( = = * * & & < r 5 r :   . . . .   . . . . 8.8.A A ",
"t.9.. .     X   . . = & - 9 r u d j t y 5 5 t , H z.l.6 3 3 3 y.3 3 3 2 ' [ ) _ w.w.* * & & < r r :   .   . . . . .   . . 8.A C ",
"y.. . .       . . . O = r u s T T T g j u 8 8 t 1 1 3 6 6 6 8 t.8 3 7 3 [ ( [ _ w.q.= * * * 2 , , . . . . . . . . .   . . 9.P A ",
"7.8.. . . = ,   . - : : 5 u U W W T U l k s t 8 3 3 6 6 6 6 6 y.8 8 3 8 ] ] e.w.2 = 2 * * & & % . o o . . . . . . . . . . 9.A A ",
"C 9.. . . . . . . & - 0 u W W T T U U U l s 5 t 3 3 6 8 8 8 8 y.8 8 8 e.' e.` _ 2 2 * = * & & o X . . . X a.p.p.a.. . . 8.8.A A ",
"A 9.t.& % . . . . - - 0 u W W U W U T T l s t t 7 7 8 8 8 p 8 y.p 8 8 w.3 6 3 3 2 = = * * * * % % o . . o.O.i.p.a.$ & & 9.A A A ",
"A C t.& . . . . . - : 0 u W W W Y T T T l s p t 6 6 8 8 8 p p t.p p p 8 6 6 3 3 2 2 > * * * & % % % % O.o.i.O.u.a.a.$ H y.A A A ",
"A A 9.H . . . . . - - 0 u W W W T W T T l s a t 6 8 8 p p p p g.p p p p 8 6 3 7 3 > 2 * * * * & & . . o.o.o.i.i.a.a.. 8.A A A A ",
"A A A y.. . . .   - * : r i W W Y U T j l s t a 6 8 8 8 p p p t.p p p 8 8 8 6 3 2 2 2 > = * * & % % % o O.O.O.i.i.. . 8.A A A A ",
"C S S r.  .   . . . - : r r u W W T j l s t t 8 8 a 8 p p p p 9.p p p p 6 6 6 6 2 2 > = = * * & % $ o . O.O.i.o.i.. 9.A A A A A ",
"A S C C r.. . .   . : > , r t j g j s s 8 t t 6 p k p p p p p 9.p p p p 8 6 6 3 2 2 2 = = * & & % % % . . .   . . . 9.A A A A A ",
"A A A A 9.. . . . . . : : , , 5 y y 5 t e t 3 3 6 8 p p p p p 9.p e p p 8 6 6 3 2 2 2 > = * * & % o $ . .   . . . 9.A A A A A A ",
"A A A A S # O . . . . . : , , < , 5 5 e e 2 3 3 6 8 8 8 b b n b b b p 8 8 6 3 6 3 2 * * = * * & & % o o . . . . # C A A A A A A ",
"A A A A A A A # . . . . . % S C S A A A S S C C S A A A b b b b b b b S A A A A C S S S A A A A . % o . . . # m A A A A A A A A ",
"A A A A A A A A # . . o $ $ S S A A A A C S S S A A A A b b b b b b b S A A A A S S C S A A A A S % % . . + @ C A A A A A A A A ",
"A A A A A A S C # b J J J K J J J J J J K J J J J J J J J J J J J J J J J J J J J J J J J J K K J J J J J # S S A A A A A A A A ",
"A A A A A C S S # # J =.# # # @ K J -.# + @ -.J J # # @ # # # # @ @ # q @ $.K =.# @ @ *.J J =.# + @ &.K J # C S A A A A A A A A ",
"A A A A A A A A # # J =.y.y.# # D J # E # # # K J #  .| | | | | | | | | # $.J @ # y.7.# J J =.# + t.@ J J # A A A A A A A A A A ",
"A A A A A A A A # # J *.y.7.t.y.D J # } # 9.@ J J #  .| | | | | | | f.d.# $.J # # # # # J J =.# # @ q J J # A A A A A A A A A A ",
"A A A A A A A A # @ J *.Z D D D D J # q # # # J J #  .| | | | | | d.d.d.# $.J @ # y.t.# J J =.@ # 9.@ J J # A A A A A A A A A A ",
"A A A A A # # J J J J D N D R :.D J Z # # # D J J #  .| | | | | d.d.d.d.# $.J D # # # D J K D @ # # D J J J J J + # A A A A A A ",
"A A A A A # # J J J J q @ @ @ @ J J @ @ @ @ @ J J #  .| | | #.d.d.d.d.d.# $.J # @ @ @ @ J J @ @ @ # @ J K J J J # # A A A A A A ",
"A A A A A A A A A # # K J J J K J J J K J J J J J #  .| | s.d.d.d.d.d.d.# $.J K J J J J J J K K J J K # # S A A A A A A A A A A ",
"A A A A A A A A A A x # # J q X.@ J # # J J J J J @  . .d.d.d.d.d.d.d.d.# $.J J J J J X.@ J # # K H @ # A A A A A A A A A A A A ",
"A A A A A A A A A A A # # # + >.V J N @ J J J J K ;. .d.d.d.d.d.d.d.d.d.>.>.J J J J # ..+.J ;.>.J # # A A A A A A A A A A A A A ",
"0.7.7.7.0.0.>.<.A A A A + # ;.;.>.H Z @ J J J J >.>.;.# @ @ @ # @ @ @ >.>.>.>.J J J @ +.@.>.>.>.q # # S A A A 1.1.0.6.r.r.0.0.6.",
"0.0.7.0.r.r.<.r.r.<.A A + f >.>.>.>.# # J J J F >.>.>.;.# @ # # @ # # >.>.>.>.J J J f @.h >.>.>.# # S C 2.1.r.r.1.0.0.r.6.r.0.r.",
"-.2.<.1.r.2.1.5.%.%.A A @ # + >.>.J J J J J J J >.>.>.J J J J J J J J >.>.>.>.K J J J J K >.>.>.@ @ S C M %.&.5.1.0.<.1.2.2.0.6.",
"-.2.2.2.r.5.1.1.A A A A @ # f >.>.;.0.0.0.7.7.7.>.>.F I j.h.! J Q J { j.>.>.;.0.7.0.0.0.0.>.>.>.# @ S S A A C 2.1.7.1.1.2.>.r.r.",
"9.0.r.0.6.5.1.1.A A A A f @ @ >.>.>.;.C S 0.>.>.>.>.J E j.j.~ J } J ..l.F ;.>.>.7.C S 0.;.>.>.>.# # A A A A A 2.<.r.0.r.0.r.0.0.",
"r.2.2.0.r.5.1.1.A A A A @ @ @ J >.>.>.Z C >.>.>.>.K J E j.j.~ J } J ..j.J ;.>.>.>.S S ;.;.;.>.K # # A A A A A <.2.6.0.2.2.5.6.0.",
"0.7.7.7.0.6.2.0.0.1.A A # # @ J 6.>.>.# S >.;.>.0.J J E j.j.^ J } J ..j.J 7.>.;.>.C C >.;.;.0.J # # S A <.2.7.7.2.r.6.r.6.0.0.0.",
"7.0.7.7.6.6.2.r.5.1.A A # # @ J 0.7.7.c @ >.0.7.7.J J j.F h.j.K h.J j.J J 0.0.0.6.@ + 1.0.0.0.K # # A A <.2.7.7.<.0.0.0.r.0.r.6.",
"7.0.7.0.0.0.2.2.A C A A # # @ J 5.0.0.0.7.6.0.0.6.J J J J J J J J J J J J 1.0.0.r.r.0.0.0.0.2.F q + A A A A A <.<.r.r.0.0.r.0.0.",
"P P L P P P P P A A A M m A A A A L L L L L L L A A A A A A A A C Z A A A A L L L L G L L L A A S m m A A A A P P L P P G P A C ",
"A A A A A A A A A A A A A A A A A A A A A A A A A A A A A A A A A A A A A A A A A A A A C A A A A A A A A A A A A A A A A A A A ",
"A A A A A A A A A A A A A A A A A A A A A A A A A A A A A A A A A A A A A A A A A A A A A A A A A A A A A A A A A A A A A A A A ",
"A A A A A A A A A A A A A A A A A A A A A A A A A A A A A A A A A A A A A A A A A A A A A A A A A A A A A A A A A A A A A A A A ",
"A A A A A A A A A A A A A A A A A A A A A A A A A A A A A A A A A A A A A A A A A A A A A A A A A A A A A A A A A A A A A A A A ",
"A A A A A A A A A A A A A A A A A A A A A A A A A A A A A A A A A A A A A A A A A A A A A A A A A A A A A A A A A A A A A A A A ",
"A A A A A A A A A A A A A A A A A A A A A A A A A A A A A A A A A A A A A A A A A A A A A A A A A A A A A A A A A A A A A A A A "
};
