/* XPM */
static char *bGVldDI_[] = {
/* columns rows colors chars-per-pixel */
"64 64 241 2 ",
"   c #0A0703",
".  c #0D0A06",
"X  c #0E0A09",
"o  c #120D07",
"O  c #130E0B",
"+  c #101307",
"@  c #14130A",
"#  c #19140B",
"$  c #161A0A",
"%  c #191B0B",
"&  c #141715",
"*  c #191613",
"=  c #1C1A15",
"-  c #1E1D1C",
";  c #25190B",
":  c #221B11",
">  c #211E1C",
",  c #19200D",
"<  c #1D2616",
"1  c #23260C",
"2  c #243507",
"3  c #272416",
"4  c #24221C",
"5  c #29251D",
"6  c #252D1A",
"7  c #292E1C",
"8  c #332B1D",
"9  c #342A1C",
"0  c #2B3A17",
"q  c #25331B",
"w  c #2A331E",
"e  c #2C3B1D",
"r  c #32351E",
"t  c #36391A",
"y  c #1F1E20",
"u  c #211F20",
"i  c #1A2728",
"p  c #1C2E30",
"a  c #252323",
"s  c #2A2622",
"d  c #2D2A24",
"f  c #2A2629",
"g  c #23282B",
"h  c #2B2A2A",
"j  c #322E25",
"k  c #392F23",
"l  c #322D2A",
"z  c #2C3624",
"x  c #293B20",
"c  c #343225",
"v  c #3B3323",
"b  c #353A23",
"n  c #35312B",
"m  c #3A352C",
"M  c #3C392E",
"N  c #2B2E30",
"B  c #352F33",
"V  c #273336",
"C  c #2A383C",
"Z  c #343332",
"A  c #393533",
"S  c #3D3A32",
"D  c #373639",
"F  c #3B3A3B",
"G  c #4F341E",
"H  c #58381F",
"J  c #5D2D2A",
"K  c #433728",
"L  c #433C2C",
"P  c #593923",
"I  c #413D33",
"U  c #483A36",
"Y  c #563D36",
"T  c #762D2B",
"R  c #6C3330",
"E  c #7B3231",
"W  c #31420F",
"Q  c #2E4619",
"!  c #374A1B",
"~  c #3B561B",
"^  c #2A4422",
"/  c #2C4D22",
"(  c #374628",
")  c #2E5624",
"_  c #335826",
"`  c #3F4537",
"'  c #375A30",
"]  c #2E6422",
"[  c #326827",
"{  c #357727",
"}  c #43471E",
"|  c #425A1C",
" . c #47641C",
".. c #484626",
"X. c #4A5A24",
"o. c #565025",
"O. c #454136",
"+. c #4B4133",
"@. c #48453B",
"#. c #4E493D",
"$. c #534639",
"%. c #514A3D",
"&. c #48533E",
"*. c #794B38",
"=. c #715236",
"-. c #4B702D",
";. c #717C21",
":. c #373D41",
">. c #274F4E",
",. c #3D4345",
"<. c #444342",
"1. c #474747",
"2. c #4B4A45",
"3. c #4D4B4B",
"4. c #534D42",
"5. c #564B45",
"6. c #514E4B",
"7. c #565243",
"8. c #5A5345",
"9. c #55514D",
"0. c #5A534C",
"q. c #5E594B",
"w. c #514F50",
"e. c #4B5557",
"r. c #545251",
"t. c #5A5654",
"y. c #5C5956",
"u. c #545A59",
"i. c #5D5B5A",
"p. c #704C49",
"a. c #615C4D",
"s. c #6B594E",
"d. c #7B5941",
"f. c #645C52",
"g. c #635E5B",
"h. c #676252",
"j. c #6B6354",
"k. c #65615E",
"l. c #6A625C",
"z. c #79695A",
"x. c #565E61",
"c. c #5A6465",
"v. c #666462",
"b. c #696563",
"n. c #6B6A66",
"m. c #646A69",
"M. c #6E6C6A",
"N. c #766C65",
"B. c #736D6D",
"V. c #6F706C",
"C. c #7B7266",
"Z. c #73716D",
"A. c #7B736C",
"S. c #757271",
"D. c #797673",
"F. c #7B7975",
"G. c #797877",
"H. c #7D7C7A",
"J. c #862F2E",
"K. c #89312E",
"L. c #883735",
"P. c #933332",
"I. c #9C3432",
"U. c #9B3B39",
"Y. c #A33533",
"T. c #A63736",
"R. c #97403E",
"E. c #83583D",
"W. c #917B2A",
"Q. c #875550",
"!. c #AC514F",
"~. c #85796C",
"^. c #8F7572",
"/. c #837B73",
"(. c #827E7B",
"). c #8C7E7B",
"_. c #AB7771",
"`. c #C36866",
"'. c #368529",
"]. c #3B8632",
"[. c #768925",
"{. c #92812B",
"}. c #85827D",
"|. c #8A847A",
" X c #91857B",
".X c #437C8B",
"XX c #817E81",
"oX c #738082",
"OX c #52A8B0",
"+X c #858382",
"@X c #858685",
"#X c #898684",
"$X c #8C8A85",
"%X c #8E8B8A",
"&X c #978A87",
"*X c #928D8C",
"=X c #94928E",
"-X c #99948D",
";X c #908E91",
":X c #959392",
">X c #9A9594",
",X c #9B9995",
"<X c #999699",
"1X c #9D9C9A",
"2X c #A78A86",
"3X c #A39B95",
"4X c #A99895",
"5X c #A29E9C",
"6X c #B09692",
"7X c #9FA099",
"8X c #A4A29D",
"9X c #A9A39E",
"0X c #A19FA2",
"qX c #9FA1A0",
"wX c #A5A3A2",
"eX c #AAA6A3",
"rX c #ACAAA4",
"tX c #A8A5A8",
"yX c #ADABAA",
"uX c #B2ABA5",
"iX c #BCADA7",
"pX c #B1ADAA",
"aX c #B5B2AD",
"sX c #B9B3AF",
"dX c #B2AEB1",
"fX c #B6B5B3",
"gX c #BAB6B2",
"hX c #BDBAB5",
"jX c #BEBCBA",
"kX c #C09A97",
"lX c #D1B0AA",
"zX c #C4BAB5",
"xX c #C1BEBA",
"cX c #D3B9B5",
"vX c #C2C0BC",
"bX c #C9C2BC",
"nX c #D8C3BC",
"mX c #CBC7C3",
"MX c #D0CBC6",
"NX c #D3D2CE",
"BX c #E5CBC9",
/* pixels */
"B.B.Z.B.B.B.B.B.B.B.B.B.B.B.B.B.B.B.B.B.B.Z.Z.n.F.Z.n.: : 5 B.B.B.B.*XB.B.B.B.B.B.B.B.B.B.B.B.B.S.B.B.B.B.B.B.B.B.B.B.B.B.B.B.B.",
"B.B.B.B.Z.B.B.Z.B.B.B.B.B.B.B.B.B.B.B.B.B.B.M.M.M.= 4 4 o @ O B.B.D.H.+XB.B.B.B.S.B.B.B.B.B.B.B.M.B.B.B.B.B.B.S.B.B.B.B.V.B.B.B.",
"B.B.B.B.B.B.B.Z.Z.M.m.v.v.b.n.m.b.B.n.n.n.b.b.r.# s m I f o X X S.D..X#X;XmXB.B.B.B.B.B.B.B.B.B.B.B.Z.B.B.B.B.B.B.B.B.S.B.B.S.B.",
"B.B.B.Z.B.i.y.t.k.g.v.k.n.b.b.t.l O O * s d c m I Z.B.<.l a O h S.M.^.4X;X1XNXdXjX<XB.B.M.B.S.B.B.B.B.B.B.B.B.B.B.B.B.B.B.B.B.B.",
"B.Z.B.B.b.t.k.k.1.> X X 4 5 c n m L I I S %.@.%.*X#X(.b.l f h F F k.F.Z..X4X0X1X:X1X1XjXfX;XB.S.Z.B.V.S.S.B.B.B.B.B.B.B.Z.B.B.B.",
"B.B.B.B.b.@ 4 s l l J G Y Y 8.8.s.s.A.&X2X4X>X-X&X&X&Xm.3.B Z D 4 k.Z.Z.~.C.B.XXwX0X0X<XqXqX0XjXyX:XV.V.B.B.B.B.B.Z.M.B.B.B.B.Z.",
"B.B.B.B.b.4 n I %.8.J T E *.6X2XQ.^._._.wX9X2XQ.p.Q.5.b.3.3.H.8 * * M.B.S.S.S.B.S.S.B.m.tXdX<X<XyXtXfXjX<X;XS.S.Z.B.Z.B.B.B.B.B.",
"B.B.Z.B.M.2.b.#X&X4XJ.T p.U <.lXQ.^._.Q.rXrX^.2XQ.p.^.M.w.D.f l j s * m.V.V.B.S.S.Z.B.S.G.m.B.B.qX1XtXtX0X;X;X<XXXB.B.B.B.B.Z.B.",
"B.B.B.B.M.w.(.;X<X4XJ.L.U u g.jXzXxXxXgXsXpXrXeX1X>X*Xn.w.F Z 8Xj * = < S.S.S.B.B.M.S.V.M.B.M.M.m.M.S.S.+Xv.:X0X1XXXZ.B.B.B.B.Z.",
"B.B.B.B.M.t.).&X-X6XK.P.Y U K lXcXlXbXxXzXxXgXpXrX5X:Xm.r.n a F 5 * - * @ l 6.#X1X*X+X+X(.(.F.G.G.G.H.H.+XM.S.|.wXMXB.B.B.B.B.B.",
"B.B.B.B.B.t.J T J.J.P.R L.L.I.T.Y.Y.lXmXvXhXsXhXaX9X>Xn.6.a - - - & * * - 4 s j m m S m n n j j s s I b.+XH.Z.rX:X#XQ.Z.B.B.B.B.",
"B.B.B.B.M.g.T T J.P.L.U J Y.Y.Y.T.T.lXMXmXbXxXjXhXaX1XM.r.u a u - f * - 4 4 c 5.l.l.9.0.t.9.0.1.M n j d 5 = b.}.%X@X=.A.B.B.Z.B.",
"B.B.B.B.B.g.T L.J.P.I.L.U.Y.Y.Y.T.T.nXNXjXjXhXxXmXgX,XM.r.N >.l - a - & > > l.2.n n A A F 7.0.g.6.m n v c 5 n.~.A.&Xd.B.B.B.B.B.",
"B.B.B.B.M.i.T E J.L.P.I.Y.Y.I.T.T.`.lX=XN s d 6.%XrX,XM.w.a y - u a - * = 5 h A U 2.2.4.5.5.6.h.y.6.I m n 4 n.A.|.~.d.B.Z.B.B.Z.",
"B.B.B.B.B.t.XX2X6X6XP.P.T.I.cXnXBXnX/.g D ,.:.D s (.wXM.r.B a s a f f * : 4 M A ` ` O.@.2.&.&.&.B.N.I S M 5 j.|././.d.Z.B.N.B.B.",
"B.B.B.B.M.t./.<X0XlXR.U.U.!.nXmXNX9Xf z x.x.x.e.D h *XM.w.i.B B u a h * - > ) { [ '.'.'.'.'.'.].-.&.S I M 5 n.a.|.|.E.Z.B.Z.B.B.",
"B.B.B.B.V.i.#X,X5XuXU.U.!._.mXMXNXb.C 1.e.f D c.e.a B.M.r.a u > > f h * = 4 ] ] [ { { { { '.'.].].].I F M s M.z.~.|.E.B.B.B.B.B.",
"B.B.B.B.M.i.H.:X3X0XP.P.U.!.xXMXMXt.D c.x.i D S.i.f v.M.r.h u > - h h * - < / ) ] ] [ [ [ [ { { ].].b.m.n d n.z.C. XE.Z.B.B.B.Z.",
"S.B.B.B.B.y.H.%X3X5X2X2XkX6XcXMXmXr.F u.oXg N c.u.f m.V.r.g OXa a a h * = < ^ / / ) _ ] [ [ [ { { ].M.b.m 5 n.~. X$X=.Z.B.B.B.B.",
"B.B.B.B.Z.3.g.>X#X*X3XeXuXpXjXmXmX#Xf ,.c.m.m.x.Z l S.V.w.y u u - a h f = - x ^ / / ) / ) _ _ [ ' -.g.y.j 3 n.s.|.|.=.A.Z.B.Z.B.",
"B.B.Z.B.B.B.k.5 5 d 4 wXwX8XuXsXaXeX9.g N ,.,.z s k.n.V.w.a - y - f h f * 4 w x Q ^ ^ / ^ / / _ ' ' 2.@.4 - M.#X*X;X=.B.B.B.Z.B.",
"B.B.B.B.B.B.B.B.B.Z.B.B.M s # 9X9XeX,Xt.g d g F (.i.S.V.3.g .Xs a a f h = = q x x x x ^ ^ ( / ( _ ' F F - = M.*X*X<X=.N.B.B.B.B.",
"Z.B.B.B.Z.B.B.B.B.B.B.B.S h > 5 5 d s 9.7XH.(.1XS.M.*XB.3.i - y y s h h 4 j d m m A Z A @.U O.@.@.' * s j 5 n.(.=X%X*.B.B.Z.B.B.",
"B.B.B.B.B.B.B.Z.B.B.Z.B.I h 4 j j j j c j d j S -X#X+XS.3.u s g a * * o X   . $ + + $ + + + X . O I l j j j n.$X:X<X*.B.B.B.B.B.",
"B.B.B.B.B.B.B.B.B.B.B.B.S n s d c M M m m m m n c n j d d = X X O X X f * * % $ $ $ $ % % , % 3 < 6 m M m M n.#XS.<X*.B.B.B.B.B.",
"B.B.B.B.B.B.B.B.B.N.B.B.I n O.O.O.M M n c b m I 4 M m 5 d 4 - d d b.b.b.b.b.1 # $ $ # ; r e b b b ( U c O.I n.%X>X>X*.B.B.B.B.B.",
"B.B.B.B.B.B.B.B.B.B.B.B.M A %.4.%.+.+.@.%.7.%.%.+.@.M c c a = n l l.b.b.b.b.# $ 7 w r P K r ..P ..M n.#.#.@.n.=X:X:X*.Z.B.B.B.B.",
"B.B.B.B.B.B.B.B.B.B.N.B.M Z 4.8.7.7.a.7.%.7.8.7.#.#.#.d A h 4 M n b.b.b.b.l.; % 8 7 t 8 w t t o...( N.q.7.#.n.+X=X:X*.S.Z.B.B.Z.",
"B.B.B.B.B.B.B.B.B.B.B.B.U B 8.a.a.q.7.a.q.q.7.&.8.7.&.y.6.d 5 S m g.b.k.b.g.; 3 7 7 t ..r ( z b L M @.q.q.4.B.#X=X,Xd.B.B.Z.B.B.",
"B.B.B.B.B.B.B.B.B.B.B.B.U B n.a.h.h.q.a.h.a.h.h.q.7.#.f.9.d f S I b.b.b.l.b.3 5 5 7 w t w w w z ..M F.l.f.7.b.@X;X:XE.B.B.B.B.B.",
"B.B.B.B.B.B.B.B.B.B.B.B.U B >X3XrXwXk.7.q.q.h.7.q.7.A.D.y.c s I I g.g.k.l.b.% 4 6 6 6 7 w r w e b L -Xz.h.8.M.#X=X<XP Z.B.B.Z.B.",
"B.B.B.B.B.B.B.B.B.B.B.B.I D 5X0XrXyXF.F.7X8X7XC.a.a.,X}.y.h s S U g.v.l.k.k.$ < 6 6 w 0 } K e P ( ( 8Xz.f.8.M.+X*X:XP Z.B.B.B.B.",
"B.B.B.B.B.B.B.B.B.B.B.B.` A ,X8XuXaX8XfXaXfXgXyXrX=X=X$Xk.F a L n g.g.l.g.b.# 5 < q q q r } r o.b M 8Xj.j.0.n.*X:X>XH B.B.B.B.B.",
"B.B.B.B.B.B.B.B.B.B.B.B.L F 8XaXpXxXhXvXgXxXvXrX8X|.8X#Xv.9.f I I g.l.g.g.l.$ < 6 6 q 0 t o.0 W.....,Xz.j.7.n.#X:X:XP B.B.B.B.B.",
"B.B.B.B.B.B.B.B.B.B.B.B.O.n 8XeXaXxXxXhXvXvXvXfXpXuX1X=Xi.t.h I m g.g.g.g.l.1 6 q 6 6 0 w 0 K {.| ..-Xh.q.7.v.%XF =XP B.B.B.B.B.",
"B.B.B.B.B.B.B.B.B.B.B.Z.n.A 8XrXaXhXvXvXfXvXn.rXrXpX9X;Xv.3.A m n g.g.g.g.g.% 1 q r e t e K } {...( |.a.7.4.b.H.<.=XP B.B.B.B.Z.",
"B.B.B.B.B.B.B.B.B.B.B.B.M.Z 5XeXaXfXvXvXvXvXvXvXrXsX,X=Xb.r.<.n j g.g.g.g.g.; t 0 t Q ! W o...;.} X./.7.4.#.m.+X%X%XP M.B.B.Z.B.",
"B.B.B.B.B.B.B.B.B.B.B.B.M.A 8XyXfX8XvX8XhXuXhX-XpXrX9X=Xb.<.<.d d g.g.f.f.g.1 0 Q W ! ! | [.-.[.X.X.M.#.@.@.& & g C p i B.B.B.B.",
"B.B.B.B.B.B.B.B.B.B.B.B.M.n ,XrXaX-X|.A.iXh.vXC.9X9X,X#Xb.r.<.f 5 F N F F h 2 W W ~ | | | | |  .X.o.k.O.O.S & & V :.p < B.Z.B.B.",
"B.B.B.B.B.B.B.B.B.B.B.B.n.Z 1XrXuX7XsX8X9X9X9X,X9X=X9X}.B.:.:.:.F F D h = # 2 W ! ! |  . .~ [ ~ [  .t.L M m & V V C i = B.B.B.B.",
"B.B.B.B.B.B.B.B.B.B.B.B.M.Z 5XeXrXaXgX9XA.).sXsXrX9X,X}.S.< y y y a h h * = $ 1 Q e Q _ Q ! e e c n 2.m n c V V p :.i < M.B.B.B.",
"B.B.B.B.B.B.B.B.B.B.B.B.M.l 3XeXaX XN.uXA.A.iXA.1X8X,X|.S.g OXf a a h h = : 8 v I K K K U U 5.p.U l 1.h s d V V p :.i i B.B.B.B.",
"B.B.B.B.B.B.B.B.B.B.B.B.M.B 3X>XA.C.|.z.|.3XN.C.N.C.N.H.D s - < > h f f * > : 8 d l B m U 2.5.I l 5 h h = s C C V :.1.S.B.B.B.B.",
"B.B.B.B.B.B.B.B.B.B.B.B.M.l ,XeX9X|.C.~.C. Xz.l.N.A.=X#X2.> y u > a f h = > d # # # ; d k k > 8 : U F F B Z M.#X<X<XM.M.B.V.B.B.",
"B.B.B.B.B.B.B.B.B.B.B.B.M.h ,XtXyXpX|.-X/./.>XA.5X3X,XH.2.f OXa s a h h d 4 7 j # X     X O = n r.3.2.<.<.I n.*Xu.(.Z.B.S.B.B.B.",
"B.B.B.B.B.B.B.B.B.B.B.B.n.d 1X7XwXaXuXA.A./.B.eX0X>X%X(.0.B > > y h f h > 5 d d A K L L F U S S k.v.i.i.r.6.n.<XyXsXA.B.B.B.B.B.",
"B.B.B.B.B.B.B.B.B.B.B.B.M.h >X5X5XyXpX/./.~.Z.8X3X>X#XD.t.u u > - a f h 4 5 l d I m A m %.#.#.I n.n.b.k.y.j B.:X1XuX(.B.B.B.B.S.",
"B.B.B.B.B.B.B.B.B.B.B.Z.n.h ,X5X5XeXwXeX*X/.5X5X5X:X*XD.t.3.a A u a h f 4 4 c d m n j 5 O.#.+.M b.n.n.b.6.l n.:XyXpXwXB.S.B.B.M.",
"B.B.B.b.B.B.B.B.B.B.B.B.b.f XX6X>X1X9X,XB.A.8X5X,X=X#XD.r.D l f g s f f > s c 5 n d < d m O.M 1.k.n.n.n.m m n.,XpXdXtXB.B.B.B.Z.",
"B.B..XQ.B.B.B.B.B.B.B.B.B.f 0XXX1X>X1X5Xn.g.1X,X:X#X(.D.5.l u > 4 f f h 4 4 d d n 5 - d M O.+.1.t.k.b.v.I m n.,XpXpXyXB.B.B.B.B.",
"^..X^.Q.B.B.B.B.B.B.B.^.B.f XX4X,X3X,X5XA.l.>X>X#X#X(.S.6.B >.a 4 a h f 4 4 5 j c s 5 c S O.9.2.i.v.M.V.M m B.A.yXpXtXB.Z.B.B.B.",
"Q.Q.^..XB.B.B.B.B.B..XQ.B.B XX<X>X>X=X=X|.D.#X$X+X}.F.Z.6.a y u - a h f 4 4 d j l 5 5 j A O.S.3.i.v.n.M.I n n.,XyXyXyXB.B.B.B.B.",
"B.B.B.B.B.B.B.B.B.B.B.B.B.f #X%X*X=X$X*X*X(.(.H.H.F.b.n.5.B u y - h h h 4 4 4 4 3 5 5 l A D.F.2.t.i.m.v.m m B.1XsXtX0XB.B.B.B.B.",
"B.B.B.B.B.B.B.B.B.B.B.B.Y U g.B.F.Z.F.D.n.v.v.g.k.i.i.t.5 h u n A N h h > > : 5 5 > s j k.n.M.2.u.g.D.H.(.S.Z.$.yXuX6XB.B.B.B.B.",
"B.B.B.B.B.B.B.B.B.B.B.B.B.L m m M m M 9.i.y.n.(.@.4 4 3 3 l f g.k.h h h A d n g.+X$XF.S.B.M.M.n.M.m.n.M.M.M.+.+.+.$.B.B.B.B.B.B.",
"B.B.B.B.B.B.B.B.B.B.B.B.B.B.L m M M i.k.k.g.b.b.v.b.4 d s y.a %Xh i.d g S.S.S.B.S.Z.V.Z.B.M.M.n.b.n.n.b.U L L +.+.B.B.B.B.B.B.B.",
"B.B.B.B.B.B.B.B.B.B.B.B.B.B.B.5.v k g.k.v.b.v.v.b.v.i.s s F 6.y.a F f Z.Z.Z.Z.Z.B.B.B.B.B.b.n.v.K K v K m K k J B.B.B.B.B.B.B.B.",
"B.B.B.B.B.B.B.B.B.B.B.B.B.B.B.B.B.B.k k 5.b.b.n.M.M.n.: 4     .     b.S.Z.M.V.M.M.B.b.i.L v v 8 v v K K U B.B.B.B.B.B.B.B.B.B.B.",
"B.B.B.B.B.B.B.B.B.B.B.B.B.B.B.B.B.B.B.B.v v k n.M.M.M.n.N s     #   Z.Z.M.M.n.n.8 9 8 K v v v K L B.B.B.B.B.B.B.B.B.B.B.B.B.B.B.",
"B.B.B.B.B.B.B.B.B.B.B.B.B.B.B.B.B.B.B.B.B.B.L v t Z.B.n.H.N h O . D.Z.Z.M.L v v k K K K L B.B.B.B.B.B.B.B.B.B.B.B.B.B.B.B.B.B.B.",
"B.B.B.B.B.B.B.B.B.B.B.B.B.B.B.B.B.B.B.B.B.B.B.B.+.K M.S.B.1.Z g $XM.S.B.L v v K K $.B.B.B.B.B.B.B.B.B.B.B.B.B.B.B.B.B.B.B.B.B.B.",
"B.B.B.B.B.B.B.B.B.B.B.B.B.B.B.B.B.B.B.B.B.B.B.B.B.B.M f.A.5 3.3.g.B.U 8 7 8 B.B.B.B.B.B.B.B.B.B.B.B.B.B.B.B.B.B.B.B.B.B.B.B.B.B.",
"B.B.B.B.B.B.B.B.B.B.B.B.B.B.B.B.B.B.B.B.B.B.B.B.B.B.B.B.5 3 5 B.B.3 3 5 $.B.B.B.B.B.B.B.B.B.B.B.B.B.B.B.B.B.B.B.B.B.B.B.B.B.B.B.",
"B.B.B.B.B.B.B.B.B.B.B.B.B.B.B.B.B.B.B.B.B.B.B.B.B.B.B.B.B.U B.B.B.B.8 B.B.B.B.B.B.B.B.B.B.B.B.B.B.B.B.B.B.B.N.B.B.B.B.B.B.B.B.B."
};
