/* XPM */
static char *bGVldDM_[] = {
/* columns rows colors chars-per-pixel */
"64 64 249 2 ",
"   c #04030D",
".  c #0B050E",
"X  c #070412",
"o  c #0B0512",
"O  c #0C0B13",
"+  c #150918",
"@  c #141319",
"#  c #1A1619",
"$  c #1C1B1D",
"%  c #241A11",
"&  c #2B2318",
"*  c #130D26",
"=  c #1E1D22",
"-  c #1B1328",
";  c #181130",
":  c #270628",
">  c #300C2F",
",  c #251A27",
"<  c #241A3D",
"1  c #281838",
"2  c #381735",
"3  c #1F2022",
"4  c #232325",
"5  c #292527",
"6  c #2D2925",
"7  c #252629",
"8  c #2B2B2C",
"9  c #332826",
"0  c #333029",
"q  c #2B2237",
"w  c #2D2D31",
"e  c #37283B",
"r  c #2E3031",
"t  c #333235",
"y  c #39373A",
"u  c #481038",
"i  c #4B2D2D",
"p  c #5A3121",
"a  c #41293C",
"s  c #473C37",
"d  c #3E403E",
"f  c #4C4739",
"g  c #6F4B23",
"h  c #0C0055",
"j  c #0C0058",
"k  c #261941",
"l  c #301E50",
"z  c #2D244F",
"x  c #352A44",
"c  c #392C45",
"v  c #352848",
"b  c #3D3445",
"n  c #3E314B",
"m  c #352757",
"M  c #3D3553",
"N  c #031A61",
"B  c #143274",
"V  c #293673",
"C  c #56174C",
"Z  c #55194C",
"A  c #641E5D",
"S  c #472848",
"D  c #492A4E",
"F  c #473D47",
"G  c #42344D",
"H  c #5A2457",
"J  c #443653",
"K  c #463557",
"L  c #453954",
"P  c #493A56",
"I  c #4C3C5B",
"U  c #543A5D",
"Y  c #64255B",
"T  c #653558",
"R  c #770F6E",
"E  c #5C2E60",
"W  c #4E3E61",
"Q  c #523F63",
"!  c #692B66",
"~  c #73276B",
"^  c #663367",
"/  c #6A336A",
"(  c #7A2C72",
")  c #7A3B7B",
"_  c #3E455E",
"`  c #464248",
"'  c #4B424B",
"]  c #5C544D",
"[  c #4A4455",
"{  c #4E415D",
"}  c #514C50",
"|  c #544A57",
" . c #585556",
".. c #62594D",
"X. c #695D53",
"o. c #6F6856",
"O. c #4F4164",
"+. c #534364",
"@. c #554B64",
"#. c #584867",
"$. c #59546C",
"%. c #5E5278",
"&. c #645C68",
"*. c #7A417D",
"=. c #665B75",
"-. c #65626C",
";. c #646472",
":. c #676972",
">. c #6B6D74",
",. c #6C6579",
"<. c #746A7A",
"1. c #6D7176",
"2. c #6F747A",
"3. c #78737A",
"4. c #C4732C",
"5. c #8A126F",
"6. c #BB007C",
"7. c #C2006E",
"8. c #C4017B",
"9. c #835C7B",
"0. c #85706F",
"q. c #FB902B",
"w. c #FFA13C",
"e. c #8D856E",
"r. c #958B73",
"t. c #998F74",
"y. c #9D9177",
"u. c #A2967A",
"i. c #FFAB45",
"p. c #12378C",
"a. c #143C94",
"s. c #183C96",
"d. c #243D83",
"f. c #18419B",
"g. c #244598",
"h. c #3B5598",
"j. c #1A45A4",
"k. c #3055B0",
"l. c #615092",
"z. c #546499",
"x. c #7C7484",
"c. c #70708E",
"v. c #797489",
"b. c #576BAF",
"n. c #7079A3",
"m. c #B90090",
"M. c #873D84",
"N. c #933786",
"B. c #9C17A4",
"V. c #C30086",
"C. c #D90087",
"Z. c #CC009C",
"A. c #D80095",
"S. c #E60B8C",
"D. c #E70296",
"F. c #F3059B",
"G. c #D1239C",
"H. c #ED2296",
"J. c #F5229D",
"K. c #DB01AA",
"L. c #CC0EB1",
"P. c #D800B8",
"I. c #EC00A5",
"U. c #E906A8",
"Y. c #F302A8",
"T. c #F81AA8",
"R. c #EB02B4",
"E. c #E804B8",
"W. c #F706B7",
"Q. c #EE19B0",
"!. c #FC1EB6",
"~. c #D32BBB",
"^. c #FA23A9",
"/. c #F825B9",
"(. c #FF33BA",
"). c #864C81",
"_. c #837A87",
"`. c #847B8B",
"'. c #907490",
"]. c #A37B9D",
"[. c #950EFF",
"{. c #B506F6",
"}. c #D409CF",
"|. c #EA01C9",
" X c #F704C8",
".X c #F81DCB",
"XX c #EC02D4",
"oX c #F302D4",
"OX c #F904DB",
"+X c #F416D6",
"@X c #FA26C8",
"#X c #FB31C9",
"$X c #FD27D8",
"%X c #FF35D9",
"&X c #D103F7",
"*X c #E503E8",
"=X c #F402E5",
"-X c #EA02F9",
";X c #F904F5",
":X c #F716F1",
">X c #FA19FB",
",X c #C32CFF",
"<X c #FE29E9",
"1X c #E92FF4",
"2X c #FC28F7",
"3X c #F935FB",
"4X c #FF40D8",
"5X c #F950FF",
"6X c #7F8481",
"7X c #888588",
"8X c #8A818D",
"9X c #8D8493",
"0X c #8F8798",
"qX c #918696",
"wX c #928996",
"eX c #938699",
"rX c #9B879D",
"tX c #948B9A",
"yX c #998E9D",
"uX c #949396",
"iX c #96909C",
"pX c #9A929E",
"aX c #8D8AA0",
"sX c #9B8BA1",
"dX c #9791A2",
"fX c #9D94A1",
"gX c #9E99A2",
"hX c #A887A6",
"jX c #A28BA3",
"kX c #B386AB",
"lX c #A296A4",
"zX c #A39AA5",
"xX c #AA93A9",
"cX c #A59CA9",
"vX c #A99CAA",
"bX c #B295B1",
"nX c #A7A0AC",
"mX c #ABA2AD",
"MX c #B1A4AA",
"NX c #AEA7B2",
"BX c #B2A5B2",
"VX c #B3AAB5",
"CX c #B9AABB",
"ZX c #BCB5BC",
"AX c #C2B2B6",
"SX c #C2C0BD",
"DX c #C5B2C5",
"FX c #CFC7CD",
"GX c #D9D3D6",
/* pixels */
">.>.>.>.>.>.>.>.>.>.>.>.>.>.:.>.>.>.>.>.>.>.>.:.>.>.>.>.>.>.>.>.>.lX>.>.>.>.>.>.>.>.>.>.:.>.,.>.>.>.>.>.>.>.>.>.>.>.>.>.>.>.>.>.",
">.>.>.>.>.>.>.>.>.,.<.-.>.>.>.>.>.>.>.>.>.>.>.>.>.>.>.>.>.>.>.VXlXpX`.1.>.>.>.>.>.>.>.>.>.>.>.>.>.>.>.>.>.>.>.>.>.>.>.>.>.>.>.>.",
":.>.>.>.>.>.>.>.>.>.>.>.>.>.>.>.>.>.>.>.>.:.>.>.>.>.>.>.1.1.pXgXpX; >.2.>.SX>.>.>.>.>.>.:.>.>.>.>.>.>.>.>.>.>.>.>.<.>.>.>.>.>.>.",
">.>.>.>.>.>.>.>.>.>.>.>.>.>.>.>.>.>.>.>.>.>.>.>.>.>.lXxXpXmXpX@.G 1 >.0.8XtXGX>.>.>.>.:.>.>.>.>.>.:.>.>.,.>.>.>.>.-.>.>.>.>.>.>.",
">.>.>.>.>.>.>.>.>.>.>.>.>.>.>.>.>.>.>.>.>.>.uXMXzXgXpXyXdXtXx L I >.>.; tXpXyXfXGX:.>.:.:.>.>.>.>.>.>.>.>.>.>.>.>.>.>.>.>.>.:.>.",
">.>.>.:.>.,.>.>.>.>.>.>.>.>.>.>.>.>.>.vXgXlXpXlXpXpX; , b G P { tX>.' @ * sXtXgXfXZXGXFX>.>.>.>.>.>.>.>.>.:.>.>.>.>.>.>.-.<.>.>.",
">.:.>.>.>.>.>.>.>.>.>.>.>.>.>.MXzXpXgXpXgXgX; * G G P P I @.pXpXfX .8 8 8 * `.gXdXcXgXpXGXGX>.>.>.>.>.>.>.>.>.>.>.>.>.>.>.>.>.>.",
">.>.>.>.>.>.>.>.>.>.>.uXlXlXlXjXlXgXM * c n P [ I | +.#.#.gXcXMXpXd 8 8 7 q * x.gXzXgXpXpXiXCXGXAX>.>.>.>.>.>.>.>.>.>.>.>.>.>.>.",
">.,.:.>.>.>.>.>.>.>.>.pXlXlX8X* q n L P [ { @.+.+.=.lXcXgXcXnXmXpXy 7 0 7 n 1 * `.fXgXdXyXpXdXfXzXGXGX>.>.>.>.:.-.<.>.>.-.>.>.>.",
">.>.>.>.>.>.>.,.>.>.gXtXq b J P N N N N #.=.k.aXz.z.n.cXn.nXb.n.dXy 3 3 7 4 J b c > 8XdXyXyXpXtXpXpXzXmXGXZX>.>.>.>.>.>.>.>.>.>.",
">.>.>.>.>.>.>.>.:.>.vXpXc P { +.N V z.t c.cXb.tXh.n.NXNXb.nXk.k.dX3 :.e.7XO K K P J G c e eXiXpXyXuXpXlXpXcXGX>.>.>.>.>.>.>.>.>.",
">.>.>.:.>.>.>.>.>.>.xXuXn { 8XtXf.f.} w ' mXnXvXcXVXNXVXCXVXNXmXiX3 3 q 8X+ O.W I I P P n G c `.wXwXtXpXpXpXlXGX>.>.>.>.>.>.>.>.",
">.>.>.>.>.>.>.>.>.>.cXsX>.`.tXtXg.f.%.` [ nXNXBXVXVXVXNXVXVXVXBXfX3 3 y @.4 m m m O.{ t t y y y y d 0XiXpXpXfXyX>.>.>.>.>.>.>.>.",
">.>.>.>.>.>.>.:.>.>.pXdXV a.a.a.s.F ; j.j.j.j.j.mXCXZXVXVXVXVXMXiXr | 1 1 4 m m 8 8 8 r r t t t y y y G <.yXdXtX>.>.-.>.>.>.>.>.",
">.>.>.>.>.>.>.>.>.>.cXtXB p.p.a.s.h.g.j.g.j.j.j.} P s ' | ZXVXmXwX@ @ 4 , 5 l = 7 7 4 8 8 8 8 w w r y y D a uXpX>.>.>.>.>.>.>.>.",
">.>.>.>.>.>.>.>.>.>.gXeXB p.a.a.g.s.a.f.s.f.f.' ..t.r.r...F ZXMXwX@ @ @ 4 5 c + @ + + w t t e y y F d y T S rXxX>.>.>.>.>.<.-.>.",
">.>.>.-.>.>.,.>.>.>.lXyXB p.s.f.a.p.a.V f.f.' ..t.t.t.r.r.f &.mXiX& # 7 7 4 > * : : > 2 2 a u a S a S S ^ H fXpX>.>.:.>.>.>.>.>.",
">.>.>.>.>.>.>.>.>.>.gXyX@.,.v.c.s.a.g.%.9Xx.} y.0.] ..X.y.y.` NXtX3 $ 9 9 2 u 5.m.6.6.8.m.V.7.L.P.}.Z.&X~ H tXfX>.>.,.>.>.>.>.>.",
">.>.>.>.>.>.>.>.>.>.zXtX<.9XwXqXs.d.s.p.9X<.] y.f s f ..t.t.f nXyX$ # g w.9 Y D.}.A.A.R.R.XXY.;X=XY.oX X~ A rXaX>.>.>.>.>.>.>.>.",
">.,.>.>.>.>.>.>.>.>.zXyX>.`.wX0Xp.a.s.p.`.I } u.y.X...0.y.0.` pXiX3 $ 6 6 5 ~ |.A.K.I.R.E.I.W.Y. XW.Y.OX( ! rXdX>.>.>.>.>.>.>.>.",
">.>.>.>.>.>.>.>.>.>.vXpX<.8X0X9Xs.s.B p.v.K [ X.u.u.u.o.u.] -.fXfX3 # 0 9 , ~ I.C.C.F. XI.I.R. XW.=XY.OX( ! sXhX>.>.>.>.>.>.>.>.",
">.>.>.>.>.>.>.>.>.>.xXpX<.9X9X8X9X`.`._.v.K J | X.y.u.e.o.[ 8XtXfX3 & i.q., ~ C.C.D.R. XW.:X%XW.W. XoXoX~ Y hXhX>.>.:.>.>.:.:.>.",
">.>.>.>.>.<.>.>.>.>.zXpXy     < qX8X`.x.x.x.K m b | | [ t <.0XiXpX3 4 6 & > ~ Z.u , , $ 3 4 7 7 6 6 w r U H ].kX>.>.>.>.>.>.>.>.",
">.>.>.:.>.-.>.>.>.>.pXpX[ [ x @         + 3._.K K m D M +._.0XiXpX3 3 6 & + . . + O . . X O @ # @ @ O $ G ; ].kX>.>.>.>.>.,.>.>.",
">.>.>.>.>.>.>.>.>.>.t ; O.>.n n n n c q X   .   o - x.x._.`.'.wXpX3 6 g q.+ . . O O $ = 3 4 5 7 7 w w r F h kXkX>.>.>.>.>.>.>.>.",
">.>.>.>.1.>.>.>.>.>.1.@.* :.M L J J n G c x x e 1 . o o o + 1 0X_.$ $ & % + + R C.A.P.A.A.P.R.$XE.*X|.|.H j kXkX>.>.,.>.>.>.>.>.",
">.>.>.>.>.>.>.>.>.>.>.>.-.@.W I P W W I Q W W W P I K K J G K + , q G : H ^ ~ *XD.I.F. X|.|.D.#XE.;XOX*X^ h kXkX>.>.>.>.>.>.-.<.",
"1.>.>.>.>.>.1.1.>.>.>.>.n O.O.P P +.+.+.O.W W W W I U I I I I >.2.2.2.c / *.5.|.E.|.R.|.$X.XT./. XXX=XOX^ h kXhX>.>.>.>.>.>.>.:.",
">.>.>.>.1.>.>.>.>.>.>.@.M O.O.P J O.+.Q +.+.Q +.W O.O.W Q W W >.1.2.1.G *.) M.K.E.I.|.:X@XJ./.$XW.oX;X=X/ j hXhX>.>.>.>.>.>.>.>.",
">.>.>.>.>.>.>.>.>.>.>.| q O.O.P P +.+.O.+.+.Q +.W +.Q Q W W %.1.1.1.1.J *.*.M.|.XXR./.@X!.@X.X@X=X&X-X{./ h hXhX>.>.>.>.>.>.>.>.",
">.1.>.>.>.>.>.1.>.>.>. .M O.O.P P O.+.+.O.O.Q +.+.+.+.+.+.,.FX1.1.1.>.I *.M.M.*XR.XX/.2X$X.X@X2X-X-X-X{.~ h hXhX-.<.>.>.>.>.>.>.",
">.>.>.>.>.>.>.>.>.>.>._ b O.{ L P W O.O.#.+.#.#.+.+.O.O.+.eXDX<.>.>.>.I ) M.M.>XI.+X(.<X<X2X:X1X-X{.{.{.T h jXjX>.>.>.>.>.>.>.>.",
">.>.>.>.1.>.>.1.>.>.>.[ c +.W P J +.#.+.+.+.+.#.#.+.+.+.x.eXVX>.>.>.>.P *.).M.OXXX%X#X<X<X3X1X,X-X>X[.&X/ j hXjX>.>.>.>.>.>.>.>.",
">.1.>.>.>.>.>.>.>.>.>.>.n +.I L K Q Q Q #.+.+.+.+.+.+.+.eXqXBX:.>.>.>.P *.M.M.F. X<X<X3XT.<X:X$XU.;X-XOX/ j jXjX>.>.>.>.:.>.>.>.",
">.>.>.>.>.>.>.>.>.1.>.[ M %.+.P P eXtXwXc.Q @.+.#.+.+.tXqXeXCX>.:.:.>.U 5.9.M.E.3X<X.X5X2X$X^.<X XoXW.oX/ j jXjX>.>.>.>.>.>.>.>.",
">.>.1.>.>.>.>.>.>.>.>.>.c Q I P J 0XwXtXtXyXpXiX`.#.+.tXwXrXwX:.:.:.:.U ).l.M.Y.#X<X3X5X<X<X$X@X;XoX=XR./ h sXrX>.>.>.>.>.>.,.>.",
">.>.1.>.:.>.>.>.>.1.>.[ n Q W P P dXqXwX[ x.tX&.eX,.wX&._.wXwX:.:.:.:.Q ) ) N.$XH.@X^.4X5X#X2X3X-X;XoX X^ j hXrX>.>.>.,.>.>.>.:.",
"1.>.>.>.1.>.1.>.>.>.1.L v _.W J L wXwX[ ' _.,.$.tX_.tX=.wXwXwX;.;.:.:.I ) ) hX@XH./.J.J.2X#X3X/.>X;X-XoXY h rXeX>.>.>.>.>.>.>.>.",
">.>.>.>.:.1.>.>.>.>.>.>.v wX_.K J yXpXwXwXpXwXqXwXtXtXtXyXtXeX:.-.;.:.P / rX].Q.Q.H.J.T.^.3X<X@X-X-X-XOXH u > 9 >.>.>.>.>.>.>.>.",
">.>.>.1.1.>.1.>.>.>.>.L K tX`.J M yXdXtXwXwXyXtXqXwXwXqXtXwX'.t uXe 0.` 9.9.).J.H.S..X/.%X@X@X<X=X=XXX=XZ u u i >.>.>.>.>.>.>.>.",
"1.>.>.>.>.1.>.>.>.>.>.M c 0X_.G n pXyXpXsX$.$._.eX@.@.0X9X0X`.O 4 $ 4 9 & a a C.C.D.W.C.P.U..XT.=XoXF.U.C C p i >.>.>.>.>.>.>.>.",
">.>.>.>.>.>.>.>.>.>.1._ c wX_.c c 8X$.$.,.$.,.@.$.,.$.=.$.@.3.O $ 4 5 q.q.+ O O $ = = 4 7 7 7 w w w w t C i i i >.>.>.>.>.>.>.>.",
">.>.>.1.>.>.>.>.>.>.>.[ c 9X_. .n wXiXdX9Xx.,.v.,.$.v.<.wXqXP O 4 4 7 9 % o @ $ O X . O # 3 4 8 8 4 $ @ Z i i s -.>.>.>.>.>.>.>.",
">.>.>.>.>.1.>.>.>.1.>.M v 0X_.L J wXwXwXeXwXv.iXwX$.wXyX0X0XJ O 3 4 4 9 % + O O @ # = 4 7 7 7 w w 8 t t Y Z MXAX<.:.>.>.>.>.>.>.",
"1.:.1.>.>.>.>.>.>.1.>.L v iXx.J J tXtXyXtXpX$.pX9X,.tXtXqX9XK O 3 7 6 4.p u 5./.S.F.F.Y.Q.Q.G.~.~.K.K.~./ H CXkX>.>.>.>.>.>.-.<.",
"1.1.:.1.>.>.>.1.>.>.>.M v tXx.L G yXwXrXtXtX@.<.v.v.dXwXwX9XJ O 3 6 0 0 & Y ).E.U.E.S.Y.Q.Q.H.$X@X1X=XXXM.T kXbX>.>.>.>.>.>.>.>.",
":.1.1.:.1.>.>.>.>.>.>.M v tX`.J n wXpXfXdXwXv.dXtXtX0XwX9X8X+.O 4 8 4 8 % T 9.W.*XE.Q.F.+X!.^.^.2X$X#X1X5.T kXBX>.>.>.>.>.>.>.>.",
"1.:.>.>.>.>.>.>.>.1.>.M x yX_.J G wXwXyXtXwXfX0X;.tXtXwXeX8XP O 3 7 6 g p H 9.U. XD.U.Q.XX%X@X#X#X#X@X}.~ Y lXhX>.>.>.>.>.>.:.>.",
":.:.1.:.1.1.:.1.1.:.:._ z aX6XM n yXpXtXrXyXyX=.c.wXtXtX0X`.J O 3 7 0 0 & T T V.V.8.K.V.7.D.P.Z.P.Q.XX~./ Z fXlX<.>.>.>.>.>.>.>.",
"1.1.1.1.:.1.1.:.:.1.:.y q aXx.M n eXtXwXiXtXtXx.8XtXqXtX0X0XJ O 4 7 6 6 + T : > 5.8.m.V.8.7.V.C.}.P.L.B.E Z fXfX>.:.>.>.>.>.>.>.",
"1.1.>.1.:.1.1.:.1.1.1._ v wXx.b c 0XwXqXtX0XwXwXwXwXqXqX0X8XP O w 4 , $ O S * + + : : 2 2 e a a a a e x H S lXlX>.>.>.>.>.>.:.>.",
">.:.1.:.1.1.1.1.1.:.:.d v wXwX$.n tX0XwXtXwXeX0X0XwX9XqX9X7XL O = $ $ , # D l X . . + $ , 5 w w t t q w S e cXdX>.>.>.>.>.>.>.:.",
":.1.:.1.:.1.1.:.>.1.>.M v qX8X=.+.I J n G L L P @.,.3.'.0Xx.L O = 8 y uX3.D m z .   . . + $ = = 4 4 7 S e gXpXpX1.>.1.>.>.>.>.>.",
">.1.1.1.:.1.:.2.>.>.>.>.k z `.<.I U x.9XqXG L J P P P P I G x O 4 7 7 8 0.e m m m .     . . X o o o _.pXfXgXfXgX>.>.>.>.>.>.>.>.",
">.>.:.:.1.:.2.:.>.>.>.1.v k k 8X,.9X9XwX9XwX0X@.b G P P P G x O | 7 7 7 _.G { +.I P U [ K <.,.&.+.pXyXdXcXgXvX,.>.>.>.1.>.>.>.>.",
">.>.1.1.:.1.:.2.>.>.>.1.1.>.>.< k | 8X8X8XtX9X0X9X`.| G n n e O O 7 ' c c c I I P G n c ] #.{ +.pXgXzXlXcXCXk >.1.>.>.1.>.>.>.>.",
">.>.>.>.>.>.>.>.1.>.1.>.>.>.>.>.>.< < z 9XwXwX9X8X`.8X8X3.c q O       X O c L n L  .&.#.+.#.+.#.gXgXnXdX< >.>.1.>.>.1.>.>.1.>.>.",
">.1.>.1.>.>.>.>.>.>.>.>.>.>.>.1.>.>.>.q < < 0X0XqXqXqX`.8XwXq O         X n `  ._.,.#.#.+.#.#.fXNXz < >.>.>.>.>.>.>.>.>.>.>.1.>.",
">.>.>.>.>.>.>.>.>.>.>.>.>.>.>.>.>.>.>.>.>.>.< < J wXqX`.8XwX9X    X       s ] 9XdXgXgX;.<.lXfXk 1.>.>.>.>.>.1.>.>.>.>.>.1.>.>.>.",
">.1.>.>.1.>.>.>.>.>.>.>.>.>.>.>.>.>.>.>.1.>.1.1.< < < tXqXqX0X9XM 3 = @ c } iXpXgXgXgXnXv k >.>.>.1.1.>.>.1.>.>.>.>.>.>.>.>.>.>.",
">.>.>.>.>.>.>.1.>.>.1.>.>.>.>.>.>.>.>.1.>.>.>.>.>.>.>.< < tX0X0XtX>.d ` } pXpXgXgXnX< _ >.>.>.>.>.>.>.>.>.>.>.>.1.>.>.>.>.>.>.1.",
">.>.>.>.1.>.>.>.>.>.>.>.>.>.>.1.>.>.>.>.>.>.1.>.1.>.1.>.1.< v gXtXtX>.] wXiXpXBX< >.:.>.>.>.1.>.>.>.>.>.>.>.>.1.>.>.>.1.>.>.1.:.",
">.>.>.1.>.>.>.>.>.>.>.>.>.>.>.>.>.>.1.>.>.>.1.>.>.>.>.>.>.>.< < pXM >.P < zXk 1.1.>.1.>.>.>.>.>.>.1.>.>.>.>.>.>.>.>.>.>.1.:.>.>.",
">.>.>.>.>.>.>.>.>.1.>.1.>.>.1.>.>.>.>.>.>.>.>.>.1.>.>.>.>.>.>.2.v >.>.>.< >.1.>.>.>.>.>.>.>.>.1.>.>.>.>.>.>.>.>.>.>.>.>.>.1.:.1."
};
