/* XPM */
static char *bGVldDQ_[] = {
/* columns rows colors chars-per-pixel */
"64 64 248 2 ",
"   c #010E0B",
".  c #03110E",
"X  c #050913",
"o  c #020D12",
"O  c #040D1A",
"+  c #041213",
"@  c #0A1413",
"#  c #0A171A",
"$  c #151C1B",
"%  c #19191B",
"&  c #19221E",
"*  c #05122C",
"=  c #191D23",
"-  c #030D36",
";  c #14183A",
":  c #2D182B",
">  c #082A28",
",  c #1D2222",
"<  c #1B222A",
"1  c #102C31",
"2  c #0C3637",
"3  c #1B393B",
"4  c #232524",
"5  c #252926",
"6  c #2C242A",
"7  c #252929",
"8  c #2A2C2B",
"9  c #31232E",
"0  c #2C312D",
"q  c #30302A",
"w  c #282B32",
"e  c #332333",
"r  c #2E3333",
"t  c #28353C",
"y  c #323534",
"u  c #383A38",
"i  c #462D3C",
"p  c #14423E",
"a  c #005231",
"s  c #3F403E",
"d  c #016C2B",
"f  c #41423E",
"g  c #0C1250",
"h  c #1D2743",
"j  c #1B3245",
"k  c #192855",
"l  c #1B3252",
"z  c #262947",
"x  c #32234F",
"c  c #253C44",
"v  c #293B46",
"b  c #393E45",
"n  c #253B55",
"m  c #000566",
"M  c #162767",
"N  c #152E71",
"B  c #152B77",
"V  c #2D2B6D",
"C  c #26386A",
"Z  c #253D76",
"A  c #530944",
"S  c #482D4E",
"D  c #770F66",
"F  c #134442",
"G  c #154F4E",
"H  c #19494A",
"J  c #005746",
"K  c #244548",
"L  c #25454B",
"P  c #2C444B",
"I  c #2B494E",
"U  c #38424C",
"Y  c #2C524E",
"T  c #2E4752",
"R  c #2D4D52",
"E  c #314C54",
"W  c #374D56",
"Q  c #2B5659",
"!  c #325156",
"~  c #34545B",
"^  c #37585A",
"/  c #3A595C",
"(  c #1B645A",
")  c #2E645C",
"_  c #294A65",
"`  c #385663",
"'  c #355B62",
"]  c #3B5D64",
"[  c #2C4674",
"{  c #376267",
"}  c #3A6166",
"|  c #3C646B",
" . c #3C686C",
".. c #42444B",
"X. c #474A55",
"o. c #455858",
"O. c #515054",
"+. c #65495C",
"@. c #505865",
"#. c #664B61",
"$. c #72516A",
"%. c #486767",
"&. c #42636B",
"*. c #576B6C",
"=. c #4D716C",
"-. c #4E7072",
";. c #597678",
":. c #64746C",
">. c #69766E",
",. c #69786E",
"<. c #6B6F77",
"1. c #697874",
"2. c #82196F",
"3. c #85657D",
"4. c #028731",
"5. c #009B36",
"6. c #00A536",
"7. c #01A43D",
"8. c #00AB3C",
"9. c #00B33E",
"0. c #138E44",
"q. c #339C5F",
"w. c #0DAA49",
"e. c #04B745",
"r. c #4A8871",
"t. c #64837D",
"y. c #47B275",
"u. c #07CA4E",
"i. c #23C561",
"p. c #84847E",
"a. c #0E278D",
"s. c #1F3685",
"d. c #0105BC",
"f. c #0311B1",
"g. c #2D4B8C",
"h. c #314D84",
"j. c #355585",
"k. c #34538B",
"l. c #2E4B98",
"z. c #0048BB",
"x. c #535A90",
"c. c #6A7C82",
"v. c #757E85",
"b. c #606999",
"n. c #69729B",
"m. c #0402C4",
"M. c #0D07C5",
"N. c #0503D9",
"B. c #001CDB",
"V. c #0028C9",
"C. c #0029D8",
"Z. c #0304E7",
"A. c #0017E9",
"S. c #0202F3",
"D. c #010BF4",
"F. c #0506FE",
"G. c #1801FB",
"H. c #0216F9",
"J. c #1C18FF",
"K. c #240FFF",
"L. c #2919FF",
"P. c #0026EA",
"I. c #0035EA",
"U. c #1037ED",
"Y. c #0128F9",
"T. c #1B28FF",
"R. c #0338F6",
"E. c #0133FB",
"W. c #003CFC",
"Q. c #1A37FF",
"!. c #2924FF",
"~. c #2639FF",
"^. c #3333FF",
"/. c #0046D3",
"(. c #0148F8",
"). c #1E46FF",
"_. c #0A52F2",
"`. c #0257FA",
"'. c #2748FF",
"]. c #2859FF",
"[. c #3553FF",
"{. c #0166FC",
"}. c #0E71FC",
"|. c #2C64FF",
" X c #336FFF",
".X c #4059FF",
"XX c #9A6D88",
"oX c #A16F8D",
"OX c #A77293",
"+X c #EF18D0",
"@X c #FF2FDC",
"#X c #FF45D6",
"$X c #6B8384",
"%X c #738286",
"&X c #74848A",
"*X c #7B858C",
"=X c #79888C",
"-X c #6C948C",
";X c #7D8792",
":X c #7D8C91",
">X c #7D9394",
",X c #55B180",
"<X c #65AA88",
"1X c #7E8BAB",
"2X c #7C89B9",
"3X c #028AFC",
"4X c #019DFF",
"5X c #288BFF",
"6X c #3787FF",
"7X c #16A8FD",
"8X c #7C85C1",
"9X c #5090FF",
"0X c #0EC7FF",
"qX c #858489",
"wX c #818D94",
"eX c #898F95",
"rX c #848E9A",
"tX c #839196",
"yX c #889296",
"uX c #85939A",
"iX c #8A959C",
"pX c #85999C",
"aX c #8B999D",
"sX c #91989C",
"dX c #828CAB",
"fX c #8692A7",
"gX c #8C95A3",
"hX c #8D9BA1",
"jX c #8592AA",
"kX c #939DA3",
"lX c #969EA9",
"zX c #878FB6",
"xX c #8DA3A3",
"cX c #94A1A5",
"vX c #99A4AA",
"bX c #9BA4AB",
"nX c #9DAEB3",
"mX c #A1A8AF",
"MX c #A4ABB3",
"NX c #A5ABB6",
"BX c #A9B3BA",
"VX c #BCB9BB",
"CX c #8D96C3",
"ZX c #9DA7C1",
"AX c #B2B6C3",
"SX c #C2BCC0",
"DX c #CACAD4",
"FX c #D4D2DA",
/* pixels */
">.>.>.>.>.1.<.>.>.>.>.>.>.>.<.>.>.>.>.<.>.>.>.>.>.>.>.>.>.>.>.>.>.kX>.>.>.>.>.>.>.>.>.>.>.>.>.>.1.>.>.>.1.>.>.>.>.1.>.>.>.>.>.>.",
">.>.>.>.>.>.>.>.>.>.>.>.1.>.>.>.>.>.>.>.>.>.>.>.1.>.1.>.>.>.>.BXkXkX=X>.>.>.1.>.>.>.>.>.1.>.>.>.>.>.>.>.>.>.>.>.>.>.>.>.1.>.1.>.",
">.>.>.1.>.>.>.>.>.>.>.>.>.>.>.>.>.1.>.>.>.>.>.>.>.>.>.>.>.>.sXkXkXj :.>.>.SX:.>.>.>.>.>.>.>.>.>.>.>.<.>.>.>.<.>.>.>.<.>.>.1.>.>.",
">.>.>.>.1.>.>.>.>.>.>.1.>.>.>.>.>.>.>.>.>.>.1.>.>.>.lXbXlXmXcX%.P 2 :.qXqXhXFX>.>.>.>.>.>.>.>.1.>.>.>.>.>.>.>.>.>.>.>.>.>.>.>.>.",
"1.>.>.>.1.>.1.>.>.>.>.>.>.>.>.>.,.>.>.>.>.>.sXmXlXvXkXiXkXiXL W } ,.,.1 gXaXgXxXFX>.>.:.>.>.>.>.>.>.>.>.>.1.>.>.1.>.>.>.>.1.>.>.",
">.>.>.>.:.<.>.>.1.>.>.>.1.>.>.>.>.>.>.mXlXkXkXsXsXgX> 2 P E ^ &.aX,...> > gXgXkXhXAXFXDX>.>.>.>.<.>.>.>.>.>.>.>.>.>.:.1.>.>.>.>.",
">.>.1.>.>.>.>.>.>.>.>.>.>.>.>.NXcXsXvXsXlXsX2 > P P W / / &.sXsXsXO.8 8 8 > =XcXkXbXkXkXFXFX,.>.>.>.>.1.>.>.>.>.>.>.>.>.>.>.>.<.",
">.>.>.>.>.>.>.>.>.>.>.yXlXkXlXlXkXkXW > K E ~ / &.&.%.&.&.lXvXmXkXf 8 8 4 t > $XkXvXkXkXhXxXBXFXVX>.>.>.>.>.1.>.>.>.>.>.>.>.>.>.",
">.>.>.>.>.>.1.>.>.>.>.kXvXcXtX> u Y Y W ^ ] ] ] %.<.cXvXvXvXnXvXkXu 4 q 4 I j > =XhXlXhXgXaXcXhXkXFXFX>.>.>.>.>.>.<.>.>.>.>.>.>.",
">.>.>.>.>.>.>.>.>.1.kXiX3 P E ^ a a d d -.r.i.xXy.y.y.MX<XnXy.<XaXf 4 , 7 7 ^ P K 1 :XgXhXaXsXxXhXkXvXMXFXVX>.>.>.>.>.>.>.1.>.>.",
"1.>.>.>.1.>.>.>.>.>.mXkXL ~ } ] d 0.y.t $XlXy.xXq.<XnXnXy.NXi.i.cX, :.3.qXO ^ ^ ~ ! T P j iXiXsXgXiXaXkXgXbXFX>.>.>.>.>.>.>.>.<.",
">.>.:.>.>.<.>.1.>.>.lXgXT ] qXiX9.w.X.w ..mXMXbXbXBXBXBXMXBXMXMXpX, , 0 qXO ` ] ' ^ ^ ! R I P =XyXaXaXhXkXhXkXFX>.>.>.1.>.>.>.>.",
">.>.1.>.1.>.>.>.>.>.lXgX<.*XwXyXw.9.q.....vXvXvXMXBXBXMXNXBXBXNXsX4 , s %., ( ( ) ] ' y u u u u u f pXiXsXkXhXhX>.>.>.>.>.1.>.>.",
">.>.>.>.>.>.>.>.>.>.kXhX0.6.8.8.8.U < e.e.e.u.u.nXBXVXBXBXNXNXMXaXy O.1 j , ( ( 5 w 8 0 0 0 0 u u u u P c.hXhXiX>.>.>.>.>.>.>.>.",
">.>.>.>.>.>.>.>.>.>.bXiX4.5.7.7.8.q.e.9.e.e.9.u.X.U S U o.AXBXMXuX# # 4 , < ( = , 7 7 8 8 8 w e y y u u n j iXgX1.>.<.>.>.>.>.1.",
">.>.1.>.>.1.>.>.>.>.vXeX4.5.7.8.w.w.8.9.e.9.e.X.+.XXXXXX#.b BXMXaX$ $ $ , < v O # # # w y y t t t u U u _ l gXlX>.>.>.>.>.>.>.>.",
">.>.>.>.>.>.1.>.>.>.vXiX4.5.e.w.6.7.7.q.7.8.U #.oXoXXXXXXX#.@.NXsX4 $ 6 4 < ; O * * ; ; h h g k k z z z C k xXhX1.>.>.>.>.>.>.>.",
"<.1.>.>.1.>.>.>.>.>.kXgX=.t.-X-X8.7.w.r.>X%XX.OX3.#.+.$.XXXX..NXyX, % e e < g a.f.d.d.d.f.d.M.V.C./.V.{.Z M gXxX>.1.1.>.>.>.>.>.",
">.>.:.>.1.>.>.>.>.>.vXgX<.:XtXtX5.0.w.7.>X1.+.OXS i S +.XXoXU bXsX% = D @Xw C Z./.N.Z.A.A.P.D.`.(.D.R.Y.s.B uXyX>.>.>.>.>.>.1.>.",
">.>.>.>.>.>.>.>.>.>.lXhX<.;XyXuXw.6.7.5.>X' O.oXOX#.#.XXoX3.U sXaX4 % 6 6 7 N I.N.A.Z.A.P.S.D.F.Y.H.S.Q.s.B gXgX>.>.<.>.>.1.>.>.",
"1.>.>.>.>.>.>.>.>.>.bXhX<.;XtXtX7.w.4.5.-X' W #.OXOXOX$.oX+.*.hXkX, % e : = B Z.N.N.Z.Y.Z.Z.H.Y.F.(.S.W.s.B gXfX>.>.:.>.>.>.>.>.",
">.>.>.1.>.<.:.>.>.>.lXhX<.wXwX>X:X:X=X&X$X' ~ X.#.OXOXXX+.X.tXhXkX4 6 #X@X; a.Z.Z.Z.A.H.P.).[.H.F.Y.E.E.s.M dXdX1.>.>.1.>.1.>.>.",
">.>.>.>.>.1.>.>.>.>.vXsXP   . 3 pX=X&X&X$Xc.Q Q v X.o.X.t $X>XkXsX, % 9 : ; a.f.m * = 4 , 4 5 5 7 8 8 0 C M dX1X>.>.>.>.>.>.>.>.",
">.>.>.>.>.>.>.>.>.>.kXyXo.o.3 #     o X # c.&X' Q Q Q Q | *XyXiXkX, , 9 : # . @ . @ @   . @ $ $ # $ @ $ U a 2X2X>.>.>.>.>.>.>.<.",
">.>.>.>.>.>.:.,.,.,.0 a %.:.I I Y I c t +   X o o 1 $X%X&X:X>XyXsX4 : D @XO . @ . # & , , 5 5 7 5 5 q q b a 8X2X>.>.>.>.>.1.>.>.",
">.>.>.>.>.>.,.,.,.:.,.O.> >.^ ! ^ ! R L L v c c 3   o o o O 1 iXqX$ % 6 : X X B N.N.C.N.N.B.A.).A._.I.I.Z J 8XdX>.<.>.1.>.>.>.>.",
">.>.>.>.>.>.>.,.,.,.,.,.*.%.{ ^ ~ } { } ] { ] ' ~ ~ ~ ~ ~ R ^ O < t R * k B s.(.Z.S.S.I.I.I.Z.~.A.`.I.(.[ J CX2X>.>.>.>.>.:.>.>.",
">.>.>.>.>.>.,.,.,.,.,.,.R |  .~ ~ | } | | ] { { ' { ' ` ' ' ' ,.,.,.1.v [ [ g.I.P.P.D.I.).T.L.T.Y.R.(.R.[ J 2XzX>.>.>.>.>.<.>.>.",
">.>.>.>.>.>.:.,.>.>.,.o.Y %.{ ^ ^  .] | | | | | | | | { { ]  .t.,.,.>.T g.h.l.A.A.Z.Y.).Q.L.T.).H.Y.(.(.Z J dX1X>.1.>.>.>.>.>.>.",
">.>.>.>.>.:.>.>.>.>.t.o.3 %.{ ^ ~ | |  .| | |  .| | { | ] {  .,.,.,.1.E j.k.g.I.(.A.T.Q.T.Q.Q.).(.3X{.3X[ J dX1X>.>.>.>.1.>.1.>.",
">.>.>.,.>.,.,.:.>.>.,.o.Y  .] ^ ~  . . .| | | &. . .] { ] c.DX1.,.,.,.W k.k.l._.P.I.T. X'.~.Q.].{.{.{.4XZ J jXjX>.>.>.1.>.1.>.>.",
">.>.:.,.>.,.,.,.,.:.:.O.I } } ^ ~ { | |  .|  .|  .|  .|  .gXZX1.<.,.>.~ g.k.l.}.Z.W.^.'.].|.].5X{.3X3X4XZ J dXdX>.>.>.>.>.>.>.>.",
":.,.>.>.>.>.>.>.>.>.:.o.I | } ~ ~  .| &. .&. .&.&.| &. .c.tXNX>.,.,.1.` j.k.l.R.(.[.~.].|.6X5X7X}.|.0X3X[ J jXjX>.>.>.>.>.>.>.>.",
",.>.>.>.>.:.,.>.>.>.,.>.I  .' ~ ` ]  .{  . . . . .| | { iXdXnX>.>.>.>.W k.k.l.S.H.[.'. X!.].}.).G.(.{.Y.[ J jXjX>.>.>.>.>.1.>.>.",
",.,.>.>.>.>.>.>.>.>.>./ E -.} ~ Q uXuXpXc.| &.&.&.| | iXyXuXBX:.>.>.>.W k.g.l.H. X|.'.6X|.).J.].P.R.D.E.[ J fXfX:.>.>.>.<.>.1.>.",
":.,.>.>.>.>.>.>.>.>.,.1.I { ] ~ ~ uXuXpXgXgXsXaX*X&.| uXuXgXyX:.>.>.:.` j.k.l.F.[.].6X9X].].'.Q.`.R.(.D.[ J fXfX>.>.1.>.>.>.>.>.",
">.>.:.>.,.,.>.>.>.,.>.^ I | ' ~ ~ gXyXpXW v.aX*.fX1.>X*.v.iXuX:.:.:.:.` j.k.l.).L.!.L..X9X~.|.6X`.`.R.P.[ J 1XfX:.<.>.>.>.>.>.>.",
",.,.>.>.>.,.,.>.>.>.:.o.L &X{ ~ ! pXtXo.o.&X1.*.yX&XhX*.iXuXuX:.:.:.:./ h.h.1XT.K.!.L.L.|.'.6X^.}.`.`.R.C a rXfX>.1.>.>.>.>.>.>.",
":.,.>.>.>.>.>.>.,.,.,.>.L iX=X~ ! aXiXiXyXiXgXpXrXrXgXuXiXiXrX:.*.:.:.E [ n.n.F.H.K.J.!.J..X'.~.}.{.}.W.M g - : >.>.1.>.>.>.>.>.",
",.,.,.,.:.,.>.:.,.>.,.^ Q yX:XE ! aXgXaXuXiXpXiXyXuXiXrXyXwXwXy qXz v.b b.x.b.L.G.G.Q.T.[.Q.Q.].W.E.E.E.M m g i >.>.>.>.>.>.1.>.",
",.,.>.>.>.,.,.:.,.,.,.o.K yX%X~ Y iXgXsXkX=.=.=X>X%.%.pXuX:X*X@ 5 % 4 9 : z z N.N.Z.H.Z.B.A.Q.!.R.Y.S.D.M m A S >.>.1.>.>.>.>.>.",
",.:.>.>.>.:.,.,.:.,.,.Y K pX&XI L :X=.-.;.-.t.%.-.1.=.;.-.%.c.@ 4 5 6 @X@XX X @ % % , 4 5 7 5 8 8 r r r M V S S >.>.>.>.>.<.>.>.",
",.>.>.>.,.,.,.+.:.:.,.^ K yX%Xo.E pXaXiX>X&X1.%X1.-.$X1.pXuX! @ % 7 6 9 : X $ % %     @ & , 5 5 8 , = $ g x x S >.>.1.>.>.>.>.>.",
",.>.>.>.,.,.,.,.,.,.,.^ I yX%X! E uXpXiXuXaX$XaXpX=.iXiXiXwX! O 4 7 4 9 % O o O @ % , 4 5 5 8 8 0 0 y u V M NXSX>.>.>.>.1.>.>.>.",
",.,.,.,.,.,.,.,.>.>.:.^ L aX%X^ R rXuXiXaXaX=.iXwXt.iXiXyX>XW @ , 5 9 +XD m a.H.G.Z.G.S.H.H.D.U.U.A.C.E.s.C CXzX>.>.1.>.>.>.>.>.",
",.,.,.,.,.,.,.,.>.>.,.^ L pX%X! ! gXiXiXgXiX%.t.-X&XaXiXpX:X~ @ 4 8 q e : M x.H.D.H.S.F.H.H.K.[.Q.}.(.E.g.C zXzX>.>.>.>.>.>.>.1.",
",.,.,.,.,.,.,.,.>.>.,.~ H pX=X! T uXgXkXhXaX=XhXaXiXuXuXwXwX&.+ 4 5 4 6 % V x.Y._.H.H.F.E.T.L.!.|.'.^.{.s.N zXZX>.1.>.>.>.>.<.>.",
",.,.+.,.,.,.,.,.,.,.,.Q L aX=X~ I iXpXiXiXpXkXtX;.pXpXyXrXtX~ @ , 5 6 2.A M x.D.P.Z.S.D.W.[.!.~.~.'.~._.s.M lXgX>.>.>.>.>.>.>.>.",
":.,.,.,.,.,.,.,.,.,.,.f Y sXt.^ I iXgXpXgXiXiX;.$XrXiXpXtX:XQ + 4 4 q e : V V m.d.m.C.m.d.Z.C.B.C.J.E./.Z M gXhX1.>.>.>.>.>.>.>.",
",.,.:.:.,.,.,.,.,.,.p.0.p yXt.Y L gXiXpXiXiXiX$XuXpXuXiXtXtX~ @ 4 7 6 6 % C - - f.m.m.m.M.M.m.m./.V.C.z.C k hXkX>.>.>.>.1.>.1.>.",
",.,.,.,.,.,.,.,.,.,.,.f K tXqXY v pXpXuXaXpXyXuXpXiXuXtXtXtX~ @ 5 4 4 , @ k O O O O * ; ; h h z z z v z n k lXkX>.>.>.>.>.>.>.>.",
",.,.,.,.,.,.,.,.,.O.,.f L iXyX=.P iXpXiXpXyXrXuXtXtXwXuXtX*X! @ , , = = $ n (   X O O = = 6 w t r r r y n j vXkX>.>.>.1.>.>.>.>.",
",.O.,.,.,.,.,.+.>.>.,.Q H iXwX;.] / ! L E ^ ! ^ %.;.c.:XwX%X^ @ , 8 u sX<.n Q ( o o + + # % , , , 5 7 v j cXkXaX>.>.>.>.>.>.>.>.",
",.,.,.,.,.,.,.,.>.>.,.,.G G :Xc.] ' &XwXrXP E Y ~ ~ ' ` ' E K @ 4 5 5 6 v.w ( ( (     . X O + + + # v.kXkXcXkXkX:.>.>.>.>.>.>.>.",
",.,.,.,.,.,.,.,.>.:.,.,.Q F F ;X;.wXwXtXwXtXpX%.I E W W ^ E K @ o.4 5 w *Xn &.] ` / ~ / W c.<.*.| aXhXcXvXbXbX;.>.>.>.>.>.>.>.>.",
",.,.,.,.,.,.,.,.>.,.:.,.:.,.,.3 p &.wXwXtXrXtXtXwXwXo.v T I t # @ 5 ..I I v ~ ^ ~ E I v X.&.`  .aXcXlXkXbXBXH ,.,.,.>.>.>.>.>.>.",
",.,.,.,.:.>.>.>.>.,.,.,.,.>.>.:.>.0 p p pXyXyXtXwX:X:X;X1.c t @ .     . @ P ! I X.O.@.] &.&.&.&.cXcXsXsXq >.:.,.,.:.,.:.,.>.>.>.",
",.,.,.,.,.>.>.>.>.>.>.>.>.>.>.>.>.:.:.p p p yXwXwXwXwX;XwXwX3 @     . . . I f @.v.;.&.-.&.&.] hXmXY p ,.,.>.>.,.>.,.,.,.:.>.,.,.",
",.,.,.,.,.,.>.>.>.,.,.>.>.>.>.>.,.,.>.>.t.,.p p ~ wX:X:XwXwXtX. . . . .   b O.eXaXcXcX1.$XhXxXG t.,.,.,.,.:.,.:.,.,.>.,.>.>.>.>.",
",.,.,.+.,.,.>.:.:.>.,.:.,.:.,.,.,.>.:.>.,.,.,.,.F F F iXyXuXtX>XY 5 $ $ y O.sXkXkXcXvXmXQ G >.>.,.,.,.,.:.,.,.,.>.>.>.>.>.,.,.:.",
",.,.,.,.>.>.,.>.>.>.>.>.>.>.>.,.>.>.>.>.:.,.>.,.>.>.>.p p sXpXuXyX,.S ..O.gXkXkXsXcXa o.>.>.:.,.,.,.,.:.>.>.>.,.,.,.,.>.>.>.>.>.",
",.,.,.,.,.,.>.>.>.>.>.>.>.>.>.>.>.>.>.>.,.,.>.>.>.>.>.>.:.p Y sXpXyX,.O.rXsXkXNXq ,.,.,.>.>.,.:.,.,.>.,.>.>.>.>.:.:.,.,.>.>.>.:.",
",.,.,.,.,.,.:.,.>.>.:.,.>.>.>.>.>.>.>.>.,.,.,.>.>.>.>.>.,.>.p p xX) >.W F lXF >.,.:.,.,.>.>.,.,.:.,.>.>.>.>.>.>.>.>.>.>.>.>.>.>.",
",.,.,.+.,.:.,.,.>.>.,.,.>.:.>.>.,.,.>.>.>.:.:.>.>.>.>.>.>.>.>.:.Y ,.>.>.F ,.>.>.:.,.,.,.>.>.,.,.,.>.>.,.>.,.,.>.>.>.>.>.>.>.>.>."
};
