/* XPM */
static char *bGVldDU_[] = {
/* columns rows colors chars-per-pixel */
"64 64 245 2 ",
"   c #03050D",
".  c #09080E",
"X  c #090A0E",
"o  c #130D0E",
"O  c #070913",
"+  c #0B0C13",
"@  c #150B17",
"#  c #0E1119",
"$  c #12141A",
"%  c #141619",
"&  c #1B1B1D",
"*  c #2A1417",
"=  c #1D2B1A",
"-  c #262B1A",
";  c #0E1322",
":  c #1D1E22",
">  c #161928",
",  c #291A26",
"<  c #1E2123",
"1  c #1A2127",
"2  c #1D2235",
"3  c #1C2339",
"4  c #232425",
"5  c #282527",
"6  c #242529",
"7  c #262A2B",
"8  c #2A2B2C",
"9  c #372725",
"0  c #32342E",
"q  c #242735",
"w  c #2B2C32",
"e  c #2B2E3B",
"r  c #2E3133",
"t  c #2F313D",
"y  c #21383B",
"u  c #333235",
"i  c #32333D",
"p  c #39393A",
"a  c #761910",
"s  c #45381A",
"d  c #47272C",
"f  c #552C39",
"g  c #493337",
"h  c #653237",
"j  c #35473B",
"k  c #335038",
"l  c #4A581D",
"z  c #534E38",
"x  c #00124B",
"c  c #001352",
"v  c #081950",
"b  c #00225A",
"n  c #362A41",
"m  c #293048",
"M  c #343542",
"N  c #363844",
"B  c #3A3B45",
"V  c #353A4B",
"C  c #3C3E4B",
"Z  c #273258",
"A  c #383C51",
"S  c #002665",
"D  c #5E0F49",
"F  c #47334A",
"G  c #583446",
"H  c #583B58",
"J  c #66394B",
"K  c #633D50",
"L  c #5D3771",
"P  c #3D4544",
"I  c #3E414E",
"U  c #3D4252",
"Y  c #315355",
"T  c #3B5D60",
"R  c #444344",
"E  c #41434E",
"W  c #4B4849",
"Q  c #54574A",
"!  c #434553",
"~  c #454855",
"^  c #4A4C56",
"/  c #464A5A",
"(  c #4A4D5B",
")  c #534656",
"_  c #4E515B",
"`  c #535759",
"'  c #724B58",
"]  c #62655E",
"[  c #5C4A6B",
"{  c #4D5262",
"}  c #545968",
"|  c #67476B",
" . c #754A6B",
".. c #625E63",
"X. c #6C4A71",
"o. c #5D6268",
"O. c #5E6576",
"+. c #64656C",
"@. c #786D6A",
"#. c #626573",
"$. c #656A75",
"%. c #696D77",
"&. c #676E78",
"*. c #696D79",
"=. c #697077",
"-. c #677178",
";. c #697179",
":. c #6B7779",
">. c #737579",
",. c #73747C",
"<. c #991A2C",
"1. c #AF262F",
"2. c #B7362A",
"3. c #B9293C",
"4. c #C73538",
"5. c #A75A1B",
"6. c #B55028",
"7. c #B46D28",
"8. c #BA692A",
"9. c #CC4B31",
"0. c #C5722E",
"q. c #EA6437",
"w. c #B82A49",
"e. c #B73151",
"r. c #B62C6D",
"t. c #C72E4E",
"y. c #AC4A4F",
"u. c #84766F",
"i. c #CE4E4A",
"p. c #CA6749",
"a. c #CF734C",
"s. c #E47747",
"d. c #CE4B71",
"f. c #3BA61C",
"g. c #5DAE1C",
"h. c #6FAB1D",
"j. c #729D24",
"k. c #48AC21",
"l. c #58BD22",
"z. c #7BBB25",
"x. c #56C337",
"c. c #68C737",
"v. c #65CA47",
"b. c #73D247",
"n. c #8E971A",
"m. c #85AC1D",
"M. c #AFAA1C",
"N. c #969421",
"B. c #B78B2F",
"V. c #BC9628",
"C. c #88BD25",
"Z. c #93B724",
"A. c #BBB728",
"S. c #B1B82C",
"D. c #C49231",
"F. c #C3B52B",
"G. c #80C11F",
"H. c #8AC42D",
"J. c #A8C62A",
"K. c #B8C331",
"L. c #C7C433",
"P. c #9E9860",
"I. c #C9864A",
"U. c #D0964A",
"Y. c #E4804F",
"T. c #CDAD4A",
"R. c #8DD047",
"E. c #B4D148",
"W. c #D0CE49",
"Q. c #023C88",
"!. c #3B2FB1",
"~. c #4A2CB2",
"^. c #682CB6",
"/. c #792BB1",
"(. c #034499",
"). c #334F90",
"_. c #0045A5",
"`. c #004AA6",
"'. c #004BAB",
"]. c #004BB3",
"[. c #024DB7",
"{. c #0152BA",
"}. c #2862B8",
"|. c #687088",
" X c #757883",
".X c #7B7C83",
"XX c #516FAD",
"oX c #6478AD",
"OX c #2D3AC1",
"+X c #7631C3",
"@X c #0156C5",
"#X c #1263D5",
"$X c #3D70C8",
"%X c #4E5FC3",
"&X c #6A4CC6",
"*X c #941C98",
"=X c #992C9E",
"-X c #B52A88",
";X c #902CAF",
":X c #B42CAA",
">X c #C831B4",
",X c #807F85",
"<X c #9B4AB5",
"1X c #CE4B90",
"2X c #CA4BB0",
"3X c #9731C8",
"4X c #914DCF",
"5X c #9C4DD4",
"6X c #D54FD8",
"7X c #54999C",
"8X c #7C868B",
"9X c #7C8792",
"0X c #62BDC3",
"qX c #69C8D1",
"wX c #84858B",
"eX c #87868B",
"rX c #858D95",
"tX c #8C8C93",
"yX c #918E96",
"uX c #998D99",
"iX c #8A9197",
"pX c #919197",
"aX c #94949B",
"sX c #99949D",
"dX c #97989E",
"fX c #99999F",
"gX c #AA908E",
"hX c #A38D94",
"jX c #A69698",
"kX c #ABA399",
"lX c #9F97A1",
"zX c #9C9CA2",
"xX c #A394A1",
"cX c #A19EA5",
"vX c #9DA1AF",
"bX c #A4A3A9",
"nX c #A7A5AA",
"mX c #B2AAAB",
"MX c #ACABB2",
"NX c #B2ABB2",
"BX c #B7B5B9",
"VX c #BEB6C0",
"CX c #BEC0C0",
"ZX c #CBCACC",
"AX c #D6D8D5",
/* pixels */
"%.%.%.%.%.%.%.%.%.%.%.%.%.%.%.%.%.%.%.%.%.%.%.%.%.%.%.%.%.%.%.%.%.fX%.%.%.%.%.%.%.%.%.%.%.%.%.%.%.&.&.%.%.%.%.%.%.%.%.%.%.%.%.%.",
"%.%.%.&.%.%.%.%.*.%.%.%.%.%.%.%.%.%.%.%.%.%.%.%.%.%.%.%.%.%.%.MXfXaX.X%.%.%.%.%.%.%.%.%.%.%.%.%.%.$.%.%.%.%.%.%.%.%.%.%.%.%.%.%.",
"%.%.%.%.%.%.%.%.%.%.%.%.%.%.%.%.%.%.%.%.%.%.%.%.%.%.%.%.%.%.fXlXdX> %.%.:.BX%.%.%.%.%.%.%.%.%.%.%.%.%.%.%.%.%.%.%.%.%.%.%.%.%.*.",
"%.%.%.%.%.%.%.%.%.%.*.%.%.&.%.%.%.%.%.%.%.%.%.%.%.%.zXcXfXbXfX_ M > %.eXeXaXAX%.%.%.%.$.%.%.%.%.%.%.%.%.%.%.%.%.%.%.%.%.%.%.%.%.",
"%.%.%.%.%.&.%.%.%.%.%.%.%.%.*.%.%.%.%.%.%.=.pXnXzXzXaXaXaXtXe P ~ %.%.> yXyXaXfXAX%.%.#.%.%.*.*.%.%.%.%.%.%.%.%.%.%.%.%.%.%.*.&.",
"%.%.%.%.%.%.%.%.%.%.%.%.%.%.%.%.%.%.%.bXfXdXdXaXdXaX> > M C E ~ pX%.! # ; aXyXaXdXBXAXZX%.%.%.*.%.%.%.;.%.%.%.%.%.%.%.%.%.%.%.%.",
"%.%.%.%.%.%.%.%.%.%.%.%.%.%.*.MXzXdXzXzXfXfX2 ; i C I ! ~ ( dXsXaX` 8 8 8 $ wXdXaXvXaXzXAXAX*.&.%.%.%.%.%.%.%.%.%.%.%.%.%.%.%.%.",
"%.%.%.%.%.%.%.%.%.%.%.iXzXlXfXdXdXdXV $ t B F E ~ ^ ( _ _ fXbXbXdXg 7 8 5 q ; ,.aXzXzXaXpXaXMXAXBX;.%.%.%.&.%.%.%.%.%.&.%.%.%.%.",
"%.*.&.%.%.%.%.%.%.%.%.dXzXfXeX; w M C E ~ ~ / ( ( } xXcXzXzXbXbXaXp 6 8 5 i q > 8XfXfXaXuXpXzXaXzXAXAX%.%.%.%.%.%.%.%.%.%.%.%.%.",
"%.*.%.%.%.*.%.*.%.%.zXpXq i C ! b b S S { O.#XiXXXXXXXvX7XbX$XoXaXp 4 4 5 4 B i i ; eXpXaXpXpXaXaXaXzXnXAXBX%.%.%.%.%.%.%.%.%.%.",
"%.*.%.%.%.&.%.%.%.%.cXpXt I ~ / S (.XXr  XcX$XpX}.oXMXnX$XvX#X#XdX> +.P.eXX C ! C B B M q tXyXuXpXpXpXzXsXzXAX%.%.%.%.%.%.%.%.%.",
"%.%.*.&.%.%.%.%.%.%.cXpXM ~ eXyX[.{.W 0 W bXcXbXvXMXMXNXNXNXnXnXtX: ; m wX@ ~ ~ ! ! ! C N N u wXtXiXtXdXdXpXzXAX%.%.%.%.%.%.%.%.",
"%.%.%.%.%.%.%.%.&.%.zXaX@.eXeXtX{.].).R W cXbXnXMXMXMXMXMXMXMXMXaX< : p ` 4 m Z Z / ~ u u p p p p R eXyXaXfXaXaX%.%.%.%.%.%.%.%.",
"%.%.%.%.%.%.%.%.%.%.aXpX(.`.'.'.].g 2 {.{.@X@X@XcXBXBXNXMXmXNXnXpXu ` > 2 : Z Z 8 8 8 8 r u u u p p B M *.aXaXyX%.%.%.%.%.%.%.%.",
"%.%.%.%.%.%.%.%.%.%.bXyXQ.(._.`.'.}.{.].@X[.{.@XW R P R ^ CXMXnXtX$ # 5 : 5 m : 6 6 5 8 5 8 8 u r r u p n e pXdX%.%.%.%.%.%.%.%.",
"%.%.%.%.%.%.%.%.%.%.zXyXQ.(.`.`.].].'.].[.[.@XW ` 9XwX9X` R BXnXtX$ % $ 4 , e o @ + # 8 u u u u p B g p A n yXzX%.%.%.%.%.%.%.%.",
"%.%.%.$.&.%.*.%.%.%.zXpXQ.(.[.[.`._._.)._.[.E ` 9X9X9X8X8XT ] nXaX: % 7 7 4 > @ @ < * * 9 - 0 l 9 g g 0 H g sXaX*.$.%.%.*.%.%.%.",
"%.%.%.%.%.%.%.%.%.%.zXtX{ |.|. X'.`.[.).wX.XQ rX:.` ` ;.8X8XW MXpX: & 8 w 8 , a <.n.g.n.5.7.f.<.1.*X<.~.H f tXsX%.*.*.%.%.%.%.%.",
"%.%.*.%.%.%.%.%.%.%.zXpX%.eXeXwX_.(.[._.eX%.` rXP P P ` 8XrXz zXpX: & Y qX8 f Z.*XZ.Z.V.5.3.F.:Xr.K.3.9.J f yXtX%.*.*.%.%.*.%.%.",
"%.%.$.%.%.%.%.%.%.%.zXpX%.eXpXtX`.'._._.wXU Q rX9Xo.` :.8X:.P dXpX: & 7 7 5 G r.C.V.M.8.6.J.F.L.9.8.J.4.J f yXyX%.%.*.*.%.$.%.%.",
"&.%.%.%.%.%.%.%.%.%.cXpX@.wXtXrX`._.(.(. XV E o.rXrXiXo.rX` ..aXfX: & 8 - - G A.k.l.J.9.J.A.D.0.F.-XJ.t.J f sXuX%.%.%.%.%.*.%.%.",
"%.%.%.&.%.%.%.%.%.%.xXdX*.eXwXwXwXwX8X,. XU C W } rXiX8Xo.! eXaXaX- 7 qXqX= h l.l.C.7.0.9.t.q.L.F.0.4.w.J f uXuX%.%.$.*.%.%.%.%.",
"%.%.%.%.%.%.$.&.%.%.zXaXp     2 tXwXwX>. X,.C M u Q Q ) r :.rXaXaX4 < 7 4 - f 5.l * * & < 6 5 8 8 8 8 r F f uXhX%.%.%.%.%.%.%.%.",
"%.%.%.%.%.%.%.%.%.%.fXyX~ / e +         + ,..XA V V V V / .XrXyXfX: : 7 4 X       . .   . O # ; # % # % N x gXhX%.%.%.%.%.%.%.%.",
"%.-.;.=.-.&.-.%.-.;.m > { -.N V M M i q           > .X,..X.XwXyXaX: 6 Y 0X+ + . + # & & & 4 9 5 5 8 w e N x gXgX%.%.%.%.%.%.%.%.",
";.&.=.%.-.=.=.=.-.-.-.{ ; ;.C C C C M M M e e w 6   .     O : iX8X& & 6 < o + D g.M.6.M.M.6.D.9.B./.w.r.F v gXjX%.%.%.%.%.%.%.%.",
"-.;.=.=.&.=.=.=.=.=.&.-.o._ ! ! ! ~ / ~ ~ ~ U U I U F I I B F   & w N @ F G J :Xz.J.C.2.1.t.C.U.7.-Xe.-XH c gXhX%.%.%.%.%.%.%.%.",
"-.-.-.=.;.%.-.-.=.;.&.&.N / ( I I / / ^ / / ( ~ ~ ~ ~ U U ~ U ,.=.:.>.t H H L w.2.2.V.1.4.T.R.W.0.r.-Xr.H c hXxX%.%.%.%.%.$.%.%.",
"=.%.=.=.=.=.-.=.=.=.=._ B / / I I / ( / ( ( / ( / / / U ( ~ / *.:.>.:.V | |  .B.6.K.2.d.I.v.U.a.D.3.:X-XH c hXhX%.%.%.%.%.%.%.*.",
"=.-.=.=.=.-.=.=.=.=.-._ q ( ~ ! I ( ( / / ( ( { / / / ( ~ / } :.:.=.*.C | | | e.-X8.T.p.E.U.I.I.:X~.;X~.H c hXuX*.%.%.&.%.%.%.%.",
"=.;.=.=.=.=.%.-.=.=.=.^ M ( ~ U I ^ ( / / ( / ( / _ / / / #.ZX*.%.%.-.U | X. .;X8.w.W.2Xa.U.D.1X~.^.^.!.H c xXuX%.%.%.%.%.%.%.%.",
"=.&.=.=.=.=.-.-.-.=.=.~ M ( ~ I I / ( / ( / ( ( _ / / / ( rXVX*.=.=.;.F |  . .3XA.e.W.9.d.5X2X&X/.!.!.!.H c uXuX%.%.%.%.%.%.*.%.",
"-.=.-.=.-.=.=.%.=.=.=.~ M / ~ ! C ( ( ( ( ( _ ( ( ( ( /  XtXMX%.%.=.%.C [ X. .r.r.a.U.d.1X5X&X%X+X>XOX~.H c cXuX|.%.%.%.%.%.%.%.",
"-.=.=.=.=.=.-.=.=.=.=.=.M / ~ A A / ( / ( ( ( ( ( ( ( / tXrXnX%.%.%.%.E | X. .H.D.d.i.2XR.1X:Xi.J.:X^.t.H c uXsX$.*.%.%.%.%.%.%.",
"=.=.=.=.-.=.=.=.=.=.=.! B } ~ C I tXtXtX*.( ^ ( ( ( ( yXtXtXNX$.$.$.%.! | X.' 8.6X1XU.&X1Xp.E.1X3.e.F.w.H c uXsX%.%.%.%.%.%.*.%.",
"-.-.=.-.=.=.=.=.=.=.;.*.M / ~ ! C tXrXyXyXaXfXsX,X( / tXtXyXtX$.$.$.#.~ [ |  .K.U.d.5X5X1Xd.p.p.:Xw.-XV.H c yXyX%.%.%.%.$.%.%.%.",
";.=.-.=.=.=.=.=.=.=.=.! M ~ ! C I sXtXrXE ,.aX` tX%.tX..,.pXtX$.#.$.*./ [ | ' i.v.T.R.Y.6XW.2X5X;X:Xw.1.H c tXyX%.%.%.*.*.%.%.%.",
";.&.=.=.;.=.-.=.=.=.=.! M .X/ C C tXpX! E .X%.+.tX.XtX+.tXtXtX$.O.O.$.F [ | hXU.v.E.b.v.2XT.4XW.3X3X;Xr.H x yXtX%.%.%.%.%.%.%.%.",
"=.&.=.=.=.=.=.=.=.=.=.=.M tX,XC C pXpXyXtXaXyXrXtXtXtXyXyXyXtXO.O.#.O.V L u.P.R.E.v.R.R.W.1Xi.T.+X^.~.w.f * * 0 %.%.%.%.%.%.*.%.",
"=.=.=.-.-.-.-.=.=.=.-.E V tXwXB C pXpXtXtXtXyXyXeXtXtXtXtXwXwXu eXu u.g u.u.u.b.x.v.9.W.s.D.I.d.r.t.3.t.d s - j %.%.%.%.%.*.*.*.",
";.=.=.-.=.-.%.=.=.=.=.U i rX.XB B aXaXsXaX} } .XtX{ { rXtXwXwX+ 4 & 4 8 7 0 z m.l.z.D.l.6.7.0.R.r.w.H.A.d l k j %.%.%.%.%.%.%.%.",
"&.=.;.%.=.-.=.=.-.-.-.U i tX.XM t eX} } #.} *.{ { |.} #.} { >.+ : 6 6 0X0Xo   . % & = - 4 8 5 8 8 u r u d k j u %.%.%.%.%.%.%.%.",
"=.=.=.-.=.=.=.-.=.-.-.I i rX X_ M iXiXpXrX.X*..X$.} ,.,.tXtXB + & 5 5 7 & O @ % o O . o > : , q 7 6 & $ s k k j %.%.%.%.%.%.%.%.",
"=.=.=.-.=.-.=.=.=.=.-.I M wX,XB C tXtXtXrXyX;.yXyX} tXrXyXeXF + < 7 7 7 % + O o # % < , 4 6 8 q w 8 8 e G n kXCX%.%.%.%.%.%.%.%.",
"=.-.=.=.=.=.=.-.=.=.-.U i pX.XC C tXtXyXyXpX} pXeX*.pXyXtXeXC + : 7 7 7XY s J L.x.c.v.A.B.T.S.y.y.N.6.y.K f mXjX%.%.%.%.%.%.%.%.",
"-.=.=.=.=.=.-.-.=.;.-.I M pX,.C B pXtXpXyXyX_ |..X,.pXiXtXeXC + < 8 8 8 & z u.8.F.D.C.H.E.D.v.a.I.<X:Xe.X.G jXjX%.%.%.%.*.%.%.%.",
"=.-.-.-.=.=.;.=.-.-.*.U e tX.XE B tXaXsXaXyX8XpXiXiXtXtXrXeX^ + 4 6 5 8 % z P.6.=X8.B.b.r.W.b.R.2Xa.U.<XJ f jXNX%.%.*.%.%.%.%.%.",
"=.&.-.%.=.=.=.=.-.-.$.V M tX.XC B tXtXyXtXtXaXtX#.tXtXtXtXwXC + < 6 7 T y z ..B.2.S.S.S.e.i.T.W.I.a.I.;XJ d xXzX%.%.%.%.%.*.$.%.",
"-.=.=.-.=.=.;.=.-.-.=.A t rX.XC M yXsXtXpXpXyX#.;.tXtXtXeXwXC + 4 6 7 r 1 Q z j.n.f.6.m.k.z.1.5.6.E.3.=XJ d uXaX$.*.%.%.%.%.%.%.",
"=.=.=.=.=.=.-.%.;.-.-.C e tX.XB M rXyXtXpXyXyX>.tXyXtXtXtXrXC + 4 6 6 8 % h @ * l j.7.N.j.f.h.h.*X1.<.L F F zXxX*.$.%.%.%.%.%.%.",
"=.;.=.-.-.=.=.=.=.=.=.V e tX,.M M rXtXtXtXtXtXtXtXtXtXtXeXeXU + 8 4 : : + p . o % ; & , 9 9 9 9 9 g i u F e xXzX*.*.*.%.%.%.%.%.",
"=.&.=.-.=.=.=.=.=.=.=.V t tXtX} i yXtXtXtXtXtXrXtXtXwXtXwX8XI + : & < 4 % n m . . + + & & 4 8 u u u w u M q zXaX*.*.%.%.%.%.$.%.",
"&.=.=.-.=.=.=.&.=.=.=.A e eXeX#.~ ! F M B E C E _ #.*.wXeX,.I + : 8 p pX>.p Z Z .   O X # & & : 4 4 7 i w xXpXpX;.&.%.-.%.&.-.;.",
"=.=.%.-.=.&.;.;.=.=.=.=.q m ,X:.! !  XrXrXB B C I E E ~ ~ F t + 4 6 5 8 >.0 Z Z m             O X + .XaXdXdXdXzX=.-.;.-.%.-.=.=.",
"=.=.&.=.&.=.;.&.=.=.=.;.m q q ,X$.eXeXrXeXtXrX^ M B E E I V i + ^ 6 5 7 8Xi / / ! ! ! E E >.$...~ fXpXfXzXzXzXo.=.=.=.-.=.=.=.=.",
"-.=.-.-.=.=.=.-.=.=.-.-.;.;.%.3 2 / eXeXeXtXtXeXwXwX^ i B N r + + 7 R i i t ! E I B M i Q ( ( ( iXfXzXfXbXBXm $.&.-.=.=.=.=.-.=.",
";.%.=.-.&.=.=.=.=.&.=.=.=.=.=.-.=.3 2 q rXtXtXtXwXeXeX.X>.i w O .     O + M I M E ` +._ ^ ( ^ ( fXzXzXdX3 =.=.-.;.;.=.=.-.=.&.=.",
"-.-.=.=.=.=.=.=.=.=.=.=.=.=.=.-.=.=.=.q 3 3 pXeXeXeXeXwXeXeXq +           M z ` u.#._ _ _ _ ( zXMXm 3 -.=.=.=.-.=.=.=.=.=.=.-.=.",
";.-.=.=.=.=.=.=.=.-.=.=.=.=.=.=.=.=.=.=.;.;.3 3 V yXeXeXwXeXeX            B ^ rXpXzXzX#.&.zXzX3 %.=.=.=.=.=.-.=.%.-.&.;.-.=.=.=.",
";.-.-.=.&.=.=.-.-.=.=.-.&.=.=.-.=.=.-.&.;.;.;.&.q 3 3 tXtXrXtXeXV 2 & # i Q pXaXdXzXzXbXV 3 $.;.=.=.-.=.%.=.-.&.-.=.=.=.=.=.=.&.",
"%.=.=.-.%.-.;.-.=.=.-.=.=.=.=.&.=.=.=.-.-.=.=.-.*.;.%.3 3 iXiXtXtX;.P R ^ aXaXfXzXcX3 U =.=.=.=.=.=.=.=.&.;.=.=.-.=.-.%.=.=.=.=.",
"=.=.=.=.-.=.=.&.=.=.=.=.=.=.=.-.=.=.&.=.=.=.=.=.*.%.-.=.-.2 M dXtXtX;.Q tXpXaXmX3 =.%.%.=.=.=.=.=.=.=.=.=.=.=.=.=.=.=.-.=.=.=.=.",
"&.=.=.;.=.=.=.-.-.%.=.=.=.=.=.=.=.=.=.=.%.-.-.-.=.=.=.=.;.=.2 2 fXA =.E q cX3 =.&.=.;.-.=.=.=.-.%.=.=.=.=.=.=.=.=.=.=.-.=.=.&.&.",
"=.=.&.=.=.=.=.=.-.;.=.-.=.=.=.=.=.=.-.=.=.=.-.=.%.=.=.=.=.=.=.=.m -.=.=.2 -.-.;.;.&.-.-.=.-.=.-.=.=.=.-.;.&.;.=.=.=.=.=.=.=.=.=."
};
