/* XPM */
static char *bGVldDY_[] = {
/* columns rows colors chars-per-pixel */
"64 64 241 2 ",
"   c #0D0402",
".  c #0D0B05",
"X  c #0E0D08",
"o  c #110503",
"O  c #130907",
"+  c #120D0A",
"@  c #0E1007",
"#  c #16160A",
"$  c #13130C",
"%  c #1A1313",
"&  c #191815",
"*  c #1D1D1B",
"=  c #26180D",
"-  c #241A14",
";  c #231E1D",
":  c #361D12",
">  c #172117",
",  c #262A10",
"<  c #22211E",
"1  c #292818",
"2  c #342A1A",
"3  c #3C2B1B",
"4  c #343618",
"5  c #231E21",
"6  c #371C20",
"7  c #1A2726",
"8  c #252423",
"9  c #292425",
"0  c #292A24",
"q  c #2C2629",
"w  c #252B2B",
"e  c #2C2B2B",
"r  c #372F22",
"t  c #312B2D",
"y  c #2B312C",
"u  c #333325",
"i  c #393626",
"p  c #33312C",
"a  c #3B3B2D",
"s  c #342F32",
"d  c #283533",
"f  c #353432",
"g  c #3B3B32",
"h  c #3A3939",
"j  c #500808",
"k  c #561400",
"l  c #581601",
"z  c #650023",
"x  c #483827",
"c  c #413C2D",
"v  c #5A3824",
"b  c #423E32",
"n  c #533A37",
"m  c #1D403C",
"M  c #3D442A",
"N  c #2E4137",
"B  c #374537",
"V  c #444A18",
"C  c #586810",
"Z  c #454A2A",
"A  c #4C522C",
"S  c #51582D",
"D  c #444235",
"F  c #4A4435",
"G  c #454933",
"H  c #42423B",
"J  c #4A4539",
"K  c #4E4A3C",
"L  c #534538",
"P  c #514C3E",
"I  c #4C5436",
"U  c #545B34",
"Y  c #55583C",
"T  c #5C652F",
"R  c #5B6331",
"E  c #5B623C",
"W  c #6C742F",
"Q  c #636B3B",
"!  c #3A3F40",
"~  c #413F41",
"^  c #33524C",
"/  c #32645D",
"(  c #484643",
")  c #474841",
"_  c #4B4B43",
"`  c #564645",
"'  c #524E42",
"]  c #4E514C",
"[  c #555242",
"{  c #5A5545",
"}  c #5D5946",
"|  c #54544B",
" . c #5B564A",
".. c #5E5A4A",
"X. c #4F5D5C",
"o. c #565A56",
"O. c #614A4F",
"+. c #67574D",
"@. c #615B4B",
"#. c #665D52",
"$. c #705651",
"%. c #5C6340",
"&. c #646C44",
"*. c #6B7346",
"=. c #6B734B",
"-. c #747D4B",
";. c #69645A",
":. c #75685D",
">. c #765F67",
",. c #576564",
"<. c #5E6F71",
"1. c #6A6A63",
"2. c #756165",
"3. c #776D64",
"4. c #76676B",
"5. c #78666E",
"6. c #77686D",
"7. c #777569",
"8. c #786671",
"9. c #776A70",
"0. c #7A6B73",
"q. c #6A7A79",
"w. c #767772",
"e. c #7C7C73",
"r. c #850037",
"t. c #97033D",
"y. c #A2023F",
"u. c #9B0041",
"i. c #A50042",
"p. c #A90046",
"a. c #A50048",
"s. c #AC0049",
"d. c #B20044",
"f. c #B5014B",
"g. c #BC014C",
"h. c #B51E58",
"j. c #92304C",
"k. c #B43D66",
"l. c #C70051",
"z. c #D5145E",
"x. c #E4015B",
"c. c #C83467",
"v. c #AE536D",
"b. c #8C736D",
"n. c #827E75",
"m. c #AF6276",
"M. c #C74169",
"N. c #748521",
"B. c #7A8348",
"V. c #7E8265",
"C. c #8B9C1A",
"Z. c #97A61B",
"A. c #90A91B",
"S. c #A8B81D",
"D. c #B0BD1D",
"F. c #919E22",
"G. c #98A722",
"H. c #9AB22C",
"J. c #A8BB25",
"K. c #B1BE22",
"L. c #B0BF2E",
"P. c #ADBC3F",
"I. c #ABC01E",
"U. c #A8C329",
"Y. c #ACC32B",
"T. c #ACCA2D",
"R. c #B2C425",
"E. c #B3C52C",
"W. c #B8C72A",
"Q. c #B3CB2D",
"!. c #BACA2B",
"~. c #ADD02F",
"^. c #B6D12D",
"/. c #AEC534",
"(. c #B4C432",
"). c #B6C837",
"_. c #BCCC33",
"`. c #B9D632",
"'. c #CDCE2F",
"]. c #C1D435",
"[. c #C9E735",
"{. c #DDF838",
"}. c #A6B645",
"|. c #84837B",
" X c #86857B",
".X c #8C9077",
"XX c #BBCB47",
"oX c #B4CD4D",
"OX c #BDD449",
"+X c #C3CE48",
"@X c #C5D345",
"#X c #CAD647",
"$X c #C3D44A",
"%X c #C5DC4C",
"&X c #CADB4C",
"*X c #C6D751",
"=X c #D6DB50",
"-X c #C9E44D",
";X c #D5EA4C",
":X c #D1F052",
">X c #74898B",
",X c #778A8C",
"<X c #7C9394",
"1X c #7F9698",
"2X c #47A997",
"3X c #4ED3BC",
"4X c #51DBC4",
"5X c #58E8D7",
"6X c #878886",
"7X c #8C8C84",
"8X c #918E85",
"9X c #8F9087",
"0X c #929386",
"qX c #94948B",
"wX c #98968D",
"eX c #97988E",
"rX c #999B8E",
"tX c #81999B",
"yX c #979791",
"uX c #9C9C94",
"iX c #9F9F98",
"pX c #A1938C",
"aX c #A09E99",
"sX c #9DA18B",
"dX c #9EA093",
"fX c #9FA099",
"gX c #A6AA8D",
"hX c #A1A395",
"jX c #A2A39B",
"kX c #A7AA9A",
"lX c #B3A896",
"zX c #A9AAA3",
"xX c #AAABA4",
"cX c #AFB0A8",
"vX c #B2B3AB",
"bX c #B6B9A8",
"nX c #BABBB5",
"mX c #C0C2B6",
"MX c #BEC1C1",
"NX c #CCCEC8",
"BX c #D8D8D4",
/* pixels */
"6.6.6.6.6.6.6.4.3.5.6.6.6.3.4.5.4.4.6.6.4.6.4.4.3.6.6.6.6.6.4.4.6.hX6.4.6.6.4.3.4.6.4.6.4.6.4.6.4.5.3.5.6.6.4.6.6.6.6.6.6.4.3.5.",
"4.6.6.4.6.5.6.6.4.5.6.4.6.4.6.4.6.4.4.4.3.4.6.4.5.6.6.6.6.6.6.vXfXuX X4.6.6.6.6.6.4.6.6.6.6.6.4.4.3.6.5.6.6.3.5.6.6.6.6.4.6.5.5.",
"4.4.6.6.4.3.6.6.5.4.3.6.4.6.6.6.6.6.6.6.6.6.6.4.6.6.4.4.5.6.iXaXfX1 6.4.6.MX4.6.4.6.4.4.4.6.4.6.6.4.6.6.6.6.6.4.6.3.5.6.3.4.6.5.",
"6.6.4.6.6.4.6.6.6.6.4.5.3.5.6.6.6.6.6.6.6.6.6.6.6.5.jXkXaXzXiX..D 2 6.6X6XuXBX6.5.4.4.4.4.6.6.4.6.4.6.6.5.3.4.4.4.4.4.5.5.6.4.6.",
"4.6.6.4.4.3.5.6.6.6.6.5.5.5.6.6.5.6.6.6.6.6.yXxXjXaXaXuXuXeXa K { 5.4.1 wXrXuXdXBX4.6.4.4.4.6.4.6.6.4.6.4.6.6.6.6.6.4.3.6.6.5.4.",
"6.4.6.4.5.4.4.5.6.6.6.4.4.4.5.6.6.4.6.kXhXiXiXuXaXuX= 1 b K ' | rX5.~ = = uXuXuXuXnXBXNX6.6.4.5.6.4.6.6.4.4.6.6.6.5.4.4.6.6.5.3.",
"4.6.6.6.6.6.6.3.4.4.5.4.4.4.4.cXaXiXjXiXiXiX1 = D J P [ [ ..iXiXaXo.e e y = 7XuXiXzXhXuXBXBX5.4.4.4.6.6.6.6.4.6.6.6.4.6.6.6.4.5.",
"4.3.6.6.6.6.6.4.6.4.4.wXjXjXhXaXiXaXJ = g J P [ { { ..@.#.fXzXzXuXb e e 9 p = e.aXjXaXhXyXuXbXBXmX5.6.6.4.4.3.5.4.6.6.4.6.4.6.6.",
"5.4.5.6.5.5.5.3.4.3.5.aXhXaX8X= y G K _ { { ....#.1.aXjXjXjXzXzXiXh 9 t 8 D u - .XaXaXuXuXuXuXuXkXBXBX5.6.4.6.4.3.5.6.6.6.4.6.4.",
"4.4.6.6.5.5.3.4.6.5.aXyXu b K ' z z z z +.:.z.pXk.k.v.jXm.xXc.m.yX! 5 5 0 8 K b g , 7XuXuXyXuXuXuXuXjXcXBXnX6.6.6.6.5.4.6.6.4.3.",
"3.5.6.6.6.4.4.6.4.5.zXuXc P {  .z t.v.f n.jXc.pXc.v.cXcXM.lXx.z.uX5 1.6X6X# P P P K J b i yXyXuXyXyXuXuXuXkXBX4.4.6.6.5.6.6.5.6.",
"5.3.4.4.6.4.6.4.3.8.kXyXD { 6XyXf.g._ e ( xXxXzXzXvXvXvXvXvXcXcXyX5 5 q 6X# { { { [ ' P J D b  XqXeXyXuXiXuXaXBX6.6.4.3.4.6.6.6.",
"5.5.6.6.6.6.6.6.5.6.jXdXw. XqXqXg.f.j.( _ xXzXxXcXvXvXvXvXvXvXvXuX8 < b o.8 v v v  .{ f f h h h h ~ qXqXuXuXaXuX3.4.4.6.4.3.5.6.",
"5.4.6.6.6.6.6.6.6.6.uXyXt.a.s.s.d.B 2 g.g.g.l.l.zXvXnXnXvXvXvXcXyXf o.1 2 8 v v e e e e s s f f h h ~ D e.uXrXeX5.6.6.6.6.4.6.6.",
"4.6.6.6.4.3.6.4.6.6.zXyXr.u.t.p.s.h.g.f.l.f.g.l.] ( ^ J | nXvXcXqX% % 8 < < x < 5 q 0 e e e e y f h f h G a wXuX6.6.6.6.4.4.6.6.",
"6.4.6.4.6.4.4.6.6.6.kXyXr.u.i.p.f.s.s.f.f.f.g._ X.<X6X,XX.) nXzXeX% % % 9 0 D $ % # & e f f g f f h b h I M wXkX6.6.4.5.3.6.4.6.",
"4.4.4.3.5.5.4.5.6.6.hXyXr.t.d.d.a.i.y.j.p.d._ ,.tX<X<X,X<XX.;.cXyX5 & 0 8 0 , # & , 1 1 4 4 M D M M M G Y Z kXuX6.6.6.4.6.4.6.4.",
"4.6.6.4.3.5.4.6.6.6.hXyX$.b.b.b.s.p.g.j..Xn._ tXq.o.X.,.<X,X_ cXyX5 * w d u 4 N.C.A.Z.Z.C.Z.Z.G.J.A.A.Y.R A rXdX6.4.6.6.4.6.4.6.",
"3.6.5.4.6.6.6.4.6.6.jXyX3.7X0XqXi.i.p.i.7X7.o.1X^ h B X.,X<X( zXyX< & / 5X0 U J.S.J.R.R.R.Y.W.~.~.!.Q.Q.Q S eXeX4.6.4.6.6.5.6.4.",
"6.6.5.6.6.4.6.6.6.6.jXyX7.6XqX0Xi.i.i.y.7X' o.1X<X,.,.q.<Xq.( uXyX5 * w w 0 U J.S.S.I.R.Y.W.!._._.!._.].Q S eXrX6.4.6.6.6.3.5.3.",
"5.4.6.6.4.4.3.5.4.6.kXuXw.6X8X8Xi.y.u.u.n.P ' ,.tXtXtX<.tXX.1.uXfX5 * w w 1 R Y.K.D.R.!.W.R.E._._.T.!.`.Q S dXrX4.3.4.4.6.6.6.6.",
"4.6.6.5.6.4.6.6.6.4.jXdXw.9X9X8X7X7X6X6Xn.[ J | ,.1XtX>X,._ 7XrXdX5 w 5X4X1 R R.J.R.R.^.R.[.{.]._.Q.Q.Q.Q S sXrX5.4.4.5.6.6.4.4.",
"4.3.5.6.6.4.5.6.4.6.jXuXb     r qX7X XV.n.e.P F g | | | a e.qXuXfX5 7 w w 1 T C.V < , * 5 5 9 q e 9 t s I A gXrX3.8.6.4.6.6.6.4.",
"3.5.3.4.4.6.4.6.5.5.aXyX' ` a #         # |. XL L F F F +.|.qXyXfX5 5 w w # + @ @ + O   O O % % % % + - b j gXgX6.6.6.6.5.4.5.3.",
"8.8.6.8.6.6.8.6.8.6.x : O.5.F F F D g u     . . @ 1 e.|.|. X.XqXuX5 w / 3X$ @ X O % - * 8 5 9 q q q t s H k gXgX6.4.6.6.6.4.4.6.",
"8.5.6.5.8.8.8.6.5.8.8.O.= 9.K K _ L F D b c a a u   . . @ # 0 wX6X& > w 7 @ $ C S.S.J.S.S.S.E.[.L.U.U.J.I l gXgX6.6.5.4.6.6.3.4.",
"8.0.8.6.6.6.6.8.6.8.8.8.#.#.{ ' P  .} { { { { { P P P P K J ' @ < u G = Z E E U.K.!.E.E.Y.Y.R.*XY.`.Q.T.Y l gXgX6.6.4.5.5.3.4.5.",
"8.8.5.8.6.9.8.8.6.5.5.5.F { @.P ' } }  .{ { { { { { { [ [ [ [ 0.0.0.0.D E Q Q Y.U.Y.E.Y.[.#X$X#X`.Y.T.Q.Y k gXgX6.6.4.3.5.4.6.6.",
"6.6.8.9.6.8.8.6.9.8.8. .J  .@.P P @.} } } } { @.{ } } { { { Y b.0.0.0.J *.*.=.J.U.E.E.OX$X$XOXOX!.Q.~./.E l hXrX6.6.6.5.6.6.6.6.",
"8.6.6.6.6.6.6.9.9.6.8. .r @.{ [ L @.@.} @.@.} @.} } } } {  .;.0.0.0.0.K =.=.-.U.J.Y.XXOX$X$X$X*XY.Q.~._.E l gXrX6.6.6.3.6.6.4.6.",
"6.6.8.9.8.6.6.8.5.5.9.| F @.{ P K ..@.@.{ } @.@.@.@.} } } 7.NX5.0.9.9._ =.=.-.U.L.U.@X-X&X%X$XOXT.T.T.'.U l hXhX4.3.6.4.5.5.6.4.",
"8.6.6.8.6.9.8.8.8.9.5.| D  .{ P P ....} @.@.@.@.@.} @.} @.qXmX6.9.9.9.] =.=.B.`.R.).;X%X-XOXoXOXT._._.'.E l rXrX5.4.6.6.6.5.3.4.",
"8.6.5.9.8.9.8.5.9.6.8.[ D } { ' P @.@.@...@.;.....@.....V.qXvX6.6.6.5.P =.=.B.Y.U.:X&X$X-X-XOX=X`.[.'.].E k dXsX9.9.4.6.6.6.6.6.",
"8.8.9.8.6.4.8.9.6.8.8.5.D @.[ P P { @.{ @...} ..@.@.....yX9XxX4.6.6.4.[ =.=.-.E._.%X&X-X&XOXOXOX^.~.T._.E k sXdX6.1.6.4.4.6.3.6.",
"6.9.9.4.8.9.9.6.9.8.6.[ J ;.{ P K qXeX0X7.......@.@...qXyXqXnX>.4.4.4.Y =.=.B./.-X-X&X:X-XOX#XOXQ.E.E.T.E k sXsX6.4.4.6.3.6.6.4.",
"8.8.6.8.8.4.9.6.9.6.5.5.c @.{ P K qXqXrXrXuXiXuX6X%...yXqXyXqX4.4.2.4.{ =.=.-.).&X-X:X:X%X%X$XOXT.E.T.(.%.l eXeX6.6.6.4.4.6.6.6.",
"4.5.8.8.5.9.6.9.5.8.6.' D { { P P uXqXqX_ n.uX;.qX7.0X1.V.yXyX>.2.2.4.{ =.=.-.$XXX#X+X;X:X*X%X-XT.~.T.R.%.k sXsX6.6.5.3.5.5.4.4.",
"8.8.6.6.8.6.8.5.9.5.8.' b  X{ K K eXqX' '  X6.;.rX|.qX1.qXeXyX>.2.2.2.[ &.=.sX+XXX#X+X+X-X-X-X&X[.~.T.Y.U j 0XsX6.6.4.4.4.4.6.6.",
"8.5.9.9.6.9.9.6.9.5.8.5.c eX XK K wXyXyXqXyXqXqX0XqXqXyXyXeXqX>.2.2.2.J &..XrX).XX+X@X#X#X:X%X&X`.T.^.^.Z 4 , y 4.6.4.6.6.6.4.6.",
"6.9.6.8.8.5.8.9.5.8.5.P K qX9XJ J yXuXwXqXeXyXyXqXqXqXqXqX0X7Xf 6Xa 6XJ 7.7..X].XX)._.#X;X@X@X-X~.^.T.^.Z V 4 B 6.6.6.6.4.6.6.4.",
"8.6.9.8.8.8.5.9.8.6.9.` b qX|.K J yXuXuXuX$.$. X8X+.@.qXqX9X X$ w * 8 w 7 g B S.D.R.'.I.I.I.XX#XQ.Q.!.(.A V B N 4.4.3.5.6.6.6.6.",
"5.9.6.8.6.8.8.4.8.5.8.L c qX Xc b 7X#.;.:.;.3.+.+.b.+.:.;.+.e.+ < 8 w 3X4X$ + + & ; < < 9 q 0 p t t t f V I B N 5.3.4.6.6.4.6.4.",
"6.6.6.8.8.9.9.8.8.8.9.L c qX|.o.J wXwXyX8X|.3. X4.;.e.e.qX0XK $ 5 8 0 w > $ % & % o . + * ; 9 q q 9 * % A B M B 4.6.6.4.6.6.4.6.",
"9.8.9.4.9.4.6.8.9.8.9.L D 0X|.K J wXeXeXqXwXn.uXwX$.qXeXqX9XP $ 5 9 0 w * $ X $ % & ; 8 9 9 q q t t y f R M xXmX5.6.6.6.6.5.3.4.",
"4.8.9.4.4.9.4.8.9.8.8.P c yX|._ J qXrXrXrXyX$.yX8X7.uXwXqX9X' $ 5 q w 2X^ M W _.L.(.].W.P.P.}.}.}.H.L.}.Q A bXlX3.4.6.4.6.4.4.3.",
"8.9.8.9.9.8.8.8.6.6.8.K b wXn.K J rXeXyXrXeX+.e.n.n.wXwXqX7XK + ; e e d > U V./.(.(.L._.]._.XX*XXXoXT./.=.U kXkX5.6.6.6.5.6.6.5.",
"9.8.8.8.9.8.8.6.9.8.9.L c wX XK J eXyXuXuXwX XyXrXwXqX0XqX7X} + 8 9 8 e > Y V./.U./.(._.P.#X#X&X*X*X*XoXQ S kXbX4.3.6.6.4.4.6.6.",
"4.8.6.5.8.4.9.9.6.8.5.L c rX|.K J qXwXeXeXwXhX9X2.wXyXyX0X7XP + 8 9 e / m U V.Y.L.L.(.(.).;X$X&XOX*XOXH.Q A uXhX5.8.6.5.3.6.5.6.",
"8.8.6.8.6.9.8.9.5.8.5.J c qX|.K D eXuXqXrXyXeX:.e.qXrXeXqX XP @ 8 9 e d 7 Y E G.F.G.H.Z.G.K.J.G.J.OX).F.E Z dXdX6.6.6.6.3.6.6.6.",
"8.9.4.9.6.8.8.6.8.8.8.L c 0Xn.K D qXwXwXyXrXqX|.8XwXqXqXqX9XP + 8 e 9 e & I , , W F.C.Z.G.A.Z.S.A.H.H.B.U M dXfX6.4.6.6.6.4.6.6.",
"9.5.9.8.5.9.6.9.6.9.8.L c 0Xn.D D qXqXqXwXqXqXqXqXyXqX8XqX7X' + q 8 ; ; O Z $ $ = # , 1 u u i i a a a M I a jXhX4.4.6.4.4.6.3.5.",
"6.5.8.8.6.8.9.9.9.4.9.b c qXeX;.b wXwXqXwXqX0XqX8XqX0X0X8X6XP + ; * * 8 & G v @ @ # & * < 0 e p f f t d G i jXuX6.4.6.6.6.4.4.4.",
"5.8.6.5.9.8.5.5.8.6.6.L c 8X7X3.{ [ K D J ' K ' #.3.e..X9Xe.P O 8 t h yXw.B v v . o . . % * ; < 8 0 9 D i iXuXuX8.5.5.8.6.6.6.8.",
"9.6.6.8.9.4.5.8.6.6.6.0.x i  Xe.{ [ |.9X0XD K _ _ ' [ ' [ _ g O 8 8 8 e e.a v v Z o . o . . . O @ @ |.uXuXiXdXdX6.8.6.8.6.8.8.6.",
"8.8.5.6.5.9.8.5.8.9.5.8.x r r 7X3.9X9XqX0XqXqX..G J _ [ ' J b O | 9 q e |.D } { [ [ { ' K w.1.1. .uXuXaXzXzXjX4.8.6.9.5.9.6.9.6.",
"4.9.8.8.8.6.4.8.6.6.8.8.8.9.6.3 r  .7X9X9XqX8X0X7X7X| D J D a + + 9 ( b b b [ [ P J D b o.....@.uXaXhXhXzXbXr 5.8.6.9.6.9.8.8.6.",
"8.5.4.5.5.9.9.9.8.6.9.6.6.6.6.6.6.2 2 x 9XqXqX0X7X7X7X6Xe.a p +       o + D K D ] o.;.@.@.@.@.@.fXjXzXuX3 9.9.8.6.8.6.6.8.6.6.8.",
"8.8.8.9.4.9.6.6.8.6.8.6.8.9.8.8.8.9.8.r 3 3 yX0X9X7X0X6X7XqXp +   .     O b ( o.V.7.o.#...#.@.hXcXx 3 8.9.6.8.8.8.6.9.8.8.9.8.6.",
"5.8.8.6.8.9.5.9.9.8.8.6.6.8.8.9.4.8.6.8.8.8.3 3 P qX9X7X7X0X8X        o o h o.9XuXhXjX3.7.jXaX3 9.5.6.9.6.9.5.6.6.6.6.6.6.6.6.8.",
"5.8.8.9.4.8.9.8.8.6.9.8.6.6.6.8.9.9.8.5.8.5.5.5.3 2 3 yX0X0XqX7Xn 6 * % g ] yXiXiXjXjXzXF 3 5.5.6.9.8.6.5.8.8.5.8.6.8.8.6.9.8.6.",
"6.6.9.5.6.5.8.8.9.5.8.9.8.9.6.6.9.4.9.8.8.9.9.8.0.9.6.3 3 yXeXeXqX8.) ( ] uXfXiXiXzX3 L 9.8.9.8.9.8.5.9.5.5.9.8.5.8.5.9.8.9.6.8.",
"9.9.6.9.8.5.6.5.5.9.5.6.6.9.6.8.8.9.8.4.6.9.5.5.6.6.8.9.8.3 x iXrXqX9.| yXyXuXcX3 4.5.5.8.4.9.4.8.5.9.6.8.5.6.9.6.9.5.8.6.8.6.6.",
"5.9.9.8.6.9.6.8.8.6.9.8.9.6.8.6.9.4.9.8.5.9.8.5.6.8.9.8.5.6.2 3 iXL 9._ r kX3 6.5.9.5.8.6.9.9.8.5.8.6.9.9.9.6.8.9.8.9.5.6.9.6.8.",
"8.6.5.5.8.9.6.8.5.9.6.8.9.9.6.8.6.8.5.9.4.9.8.9.5.5.9.6.8.9.8.8.x 5.8.8.3 8.8.5.5.5.8.8.9.5.6.8.9.4.9.8.6.5.8.9.6.6.6.9.9.6.8.6."
};
