/* XPM */
static char *dDEx[] = {
/* columns rows colors chars-per-pixel */
"64 64 233 2 ",
"   c #010101",
".  c #04050A",
"X  c #060A0C",
"o  c #08080A",
"O  c #0A0B0D",
"+  c #10140E",
"@  c #070B12",
"#  c #0A0D12",
"$  c #0A0C17",
"%  c #0D1114",
"&  c #0E131A",
"*  c #121515",
"=  c #151B16",
"-  c #12151B",
";  c #151A1C",
":  c #191C1C",
">  c #241007",
",  c #261308",
"<  c #2B1609",
"1  c #2A1A09",
"2  c #33170C",
"3  c #341C0B",
"4  c #3D1D0D",
"5  c #1C221D",
"6  c #34230B",
"7  c #3C240C",
"8  c #28251B",
"9  c #131622",
"0  c #151A22",
"q  c #191D23",
"w  c #131929",
"e  c #151A28",
"r  c #1A1E2A",
"t  c #1D2123",
"y  c #1D222A",
"u  c #1F2829",
"i  c #1D2535",
"p  c #222524",
"a  c #21252B",
"s  c #252A2C",
"d  c #292D2A",
"f  c #2B312E",
"g  c #3C3E2F",
"h  c #222632",
"j  c #242A34",
"k  c #2A2D35",
"l  c #252A3A",
"z  c #2A2E3B",
"x  c #2C3233",
"c  c #25303A",
"v  c #2D343B",
"b  c #333534",
"n  c #383B37",
"m  c #32363A",
"M  c #353A3C",
"N  c #421E0E",
"B  c #44240D",
"V  c #4C250E",
"C  c #442B0E",
"Z  c #4B2C0E",
"A  c #43300F",
"S  c #4B310F",
"D  c #442311",
"F  c #492411",
"G  c #4A2B11",
"H  c #4A3411",
"J  c #46351D",
"K  c #3D423E",
"L  c #544B34",
"P  c #2D3342",
"I  c #2A3046",
"U  c #2E3846",
"Y  c #313642",
"T  c #343B45",
"R  c #333A4B",
"E  c #393D4A",
"W  c #363C54",
"Q  c #3C4244",
"!  c #3C454B",
"~  c #3C4453",
"^  c #3B4458",
"/  c #3D4763",
"(  c #454849",
")  c #444B4C",
"_  c #4F544B",
"`  c #454C53",
"'  c #474A57",
"]  c #434B5B",
"[  c #4C5555",
"{  c #4C535C",
"}  c #545A57",
"|  c #545C5C",
" . c #675E4D",
".. c #59625C",
"X. c #6C6958",
"o. c #444D63",
"O. c #494F63",
"+. c #4D5363",
"@. c #4B5767",
"#. c #545C64",
"$. c #555A69",
"%. c #4E5971",
"&. c #565D74",
"*. c #5B6463",
"=. c #596564",
"-. c #5C646B",
";. c #5D696B",
":. c #5D6374",
">. c #5B6577",
",. c #636B65",
"<. c #646867",
"1. c #636D6B",
"2. c #667065",
"3. c #66716D",
"4. c #6A736C",
"5. c #767969",
"6. c #646C74",
"7. c #656879",
"8. c #656C7C",
"9. c #657273",
"0. c #6A7573",
"q. c #6D7975",
"w. c #65727F",
"e. c #6B747B",
"r. c #6E7B7B",
"t. c #737A75",
"y. c #757878",
"u. c #727D7C",
"i. c #837A6B",
"p. c #74807D",
"a. c #7D837B",
"s. c #868777",
"d. c #948D7E",
"f. c #999273",
"g. c #DDCF79",
"h. c #596781",
"j. c #686C82",
"k. c #6D7384",
"l. c #6D7B82",
"z. c #6B738B",
"x. c #747C83",
"c. c #757888",
"v. c #757A8B",
"b. c #777D93",
"n. c #817F85",
"m. c #758182",
"M. c #7A8384",
"N. c #788789",
"B. c #7C828C",
"V. c #7C8293",
"C. c #7C8597",
"Z. c #7B9598",
"A. c #7C8CA1",
"S. c #83888A",
"D. c #8A9289",
"F. c #989585",
"G. c #828594",
"H. c #848A94",
"J. c #858997",
"K. c #858A9B",
"L. c #8A8C9B",
"P. c #8C9395",
"I. c #8C929C",
"U. c #86989A",
"Y. c #92959C",
"T. c #959A99",
"R. c #A29D83",
"E. c #8DA29D",
"W. c #95A19B",
"Q. c #9BA49C",
"!. c #A7A69A",
"~. c #B2AE96",
"^. c #868DA5",
"/. c #8A8EA2",
"(. c #8D92A3",
"). c #8C95A8",
"_. c #9295A3",
"`. c #959AA4",
"'. c #969AA6",
"]. c #959AAA",
"[. c #9A9EAC",
"{. c #969CB1",
"}. c #8EA0A5",
"|. c #95A5A6",
" X c #9BA2A2",
".X c #9DA2AB",
"XX c #9DA6B2",
"oX c #A4AAA4",
"OX c #A8A9A6",
"+X c #A1A4AB",
"@X c #A5ABAC",
"#X c #ACB2A7",
"$X c #B7B7AA",
"%X c #A2A6B3",
"&X c #A6ACB7",
"*X c #A9ADB3",
"=X c #A6B0B6",
"-X c #ACB2B4",
";X c #AAB5BC",
":X c #ACB9BD",
">X c #B6BAB6",
",X c #B3B4BC",
"<X c #B4BABB",
"1X c #BBBDBB",
"2X c #C5BC96",
"3X c #C3BCAA",
"4X c #BDC1BB",
"5X c #D9CB8B",
"6X c #D8CC96",
"7X c #D2CBA5",
"8X c #C4C6BA",
"9X c #D8D5B8",
"0X c #EAE3BB",
"qX c #ABB6C1",
"wX c #AEBAC1",
"eX c #B4BAC3",
"rX c #B2BDC5",
"tX c #B4C1C6",
"yX c #B6C2CA",
"uX c #BEC7CA",
"iX c #BAC4CD",
"pX c #BCC7D1",
"aX c #BEC9D2",
"sX c #C6C9C6",
"dX c #D7D7C8",
"fX c #D5D5CB",
"gX c #C2CBD4",
"hX c #C5CED8",
"jX c #DEE1C7",
"kX c #E7E5C9",
"lX c #EDEBCC",
"zX c #F1F1CD",
"xX c #E7E6D5",
/* pixels */
"Z H Z G Z V G F F F D F N F F F F B Z Z Z B Z Z Z S S S H H H H H H S S Z Z Z Z Z Z Z C Z Z G F G F F G F F F D D D B Z Z S Z S ",
"S Z Z Z B B F N N N N N N N N N N B B B C B B C C C A A A g A A A A C C C B C B B C B C B B B D D D D F D D 7 4 4 4 B B Z Z Z C ",
"Z C 7 6 2 2 2 2 2 2 2 2 2 2 2 2 3 3 3 3 3 3 3 3 6 7 6 6 6 6 6 6 6 6 6 6 3 6 3 3 3 3 3 3 3 3 3 3 2 3 2 3 3 2 3 1 2 < 3 6 Z G 7 6 ",
"Z C 6 L.G.b._.qXeXrXpXpXgXrXgXgXaXaXgXhXgXgXhXgXsXgXgXgXhXhXaXhXuXgXuXuXyXyXtX4XyXtXtXrX<X:XwXwXwXwXqXwXqX;X;X=X=X=XH.a ; C 3 1 ",
"Z B 2 b.<.+.j.c._.%XeXiXpXpXpXgXaXgXgXgXhXgXhXgXhXhXhXhXhXhXaXaXpXpXyXyXyXtXyXyXyXwXrXyXrXwXeXwXwXwX:X;X;X=X;X=X&Xe.$ & a B 3 1 ",
"B 7 2 y.c.8.j.h.G.L._.,XpXgXgXgXaXgXgXgXgXgXhXhXgXhXhXhXhXhXhXaXaXaXaXpXiXiXpXyXtXtXyXrXrXrXwXwXwXqXqX;XqX;X=X;Xy.& $ . - 4 3 , ",
"B 4 < -.c.n.K.n.k.qX_.(.%X&XeXgXaXgXgXaXgXgXgXgXgXgXgXgXgXaXgXaXpXpXpXiXiXpXyXyXtXyXrXyXrXrXrXwX:X:X:X;X;X;X;XH.9 - $ - : 4 < , ",
"N 4 < k.:.j._.&Xb.n./.L.(.(.].qXgXgXaXgXsXgXgXgXgXgXaXgXgXhXaXaXaXiXpXiXiXyXiXyXtXyXyXrXrXwXwXwXwXqX;X;X;X=XC.y 9 . & - . 4 < , ",
"N N 2 c.j.z.n.n./.b.b.n.%XL.n.^.[.eXeXeXeXgXgXgXpXhXpXpXhXpXpXpXaXaXpXyXiXtXtXtXtXrXtXrXrX:XrX:X:X;X;X;X-X7.e h - & # o o 4 < > ",
"N 2 < (.n.b.h.&.O.h.&.n.^.{.^.n._.[.&X%X[./.&XrXgXpXgXpXpXpXpXpXpXiXpXyXyXtXyXyXtXrXrXrXrXwXwXwX:X;X;X@X1.a h - q - $ - . 4 2 > ",
"N 2 2 z.n.b.&.7.:.+.&.j.8.L.{._.L./.].'.(.(.L.Y.qXrXpXpXpXpXpXpXpXiXyXyXtXtXtXrXyXrXrXrXrXwX:X:X;X;X%X7.y Y a 9 - - - o $ 4 < > ",
"N N 2 j.z.h.$.j.:.&.c.n.'. X/.{.L.].'._.[.(./.K.b.n.^.^.^.^.{.n.).=XwXtXtXtXtXtXtXrXwXrXwXwX:X:X:XU.Q r y y q q - # O - - 4 < > ",
"N 4 < c.z.j.b.&.h.j.L./.J._.].[.P. X'.'.%XK.n.J.^.^.).{.{.n.{.{.).).^.).XX&XwXrXwXtXwXwXwXqX:X:Xx.y h l q $ k : - - - - # N 2 > ",
"N N 2 b.j.h.h.h.7.>.j.z.:.n.n./._.c.L.P.J._.G.L.^.^.^.b.n.c.b.{.).(.).^.A.C.A.XXXXXXqXqXwXqXXX$.y j y k - a d ; . q - o O N 2 , ",
"F D 2 c.n.o.l +.n.b.&.7.n.].{.n.'.G.'.eX&X`.T.J.'.S.b.G./.[.%X_.C.j.G./.^.K.z.z.b.b.C.C.{.|.~ y a t o i q - ; ; - : o o - D 2 < ",
"F D 2 K.{.n.z.j.j.z.L.(.K.%X).{.[.&Xb..X,XL./.L.Y.L.L.I.b.n./.qX&X_.T.`.z.b.]..XXXK.C.I.m.R P q Q % % y q a q # o # & @ - D 2 < ",
"F F 3 ).V.C.b.V.k.c.K.XX%X%X&X[.^.{.%X_.%X/._.S.j.n.n.n.^._.n._._._.c.x.].n.L.J.[.[.L.c.U y j u s & q q - - t ; % . $ & t D 6 1 ",
"G D 6 /.E K.b.>.L._.[.{.^.&.+.b./.b.c.).XXeX].).n.7.n.{.+X[.'._.[..XY.*XeXy._.'.B.G.e.R q y v y : k q y - * ; # . . ; 0 t C 3 1 ",
"G C 3 c.%.z.@.>.).^.C.c.z.7.+.E c.k.I.L.:.OXgX%XeX$.:./.eXiX,XL.V.%X+X Xn.G.J.P.uXy.I j j s : - k a % - % O O o O & 0 X 9 C 6 1 ",
"H Z 3 K.:.j.K.G.{.>.o.E ` 7.e.6.:.8.:.:.[.%X[.^.n.+X+Xc.+X3X[.,Xc.K.H.+X,X,XY.T.x.U i v s x q M f & - t & % O o % - y X # C 3 1 ",
"G C 3 j.b.).h.l W W r W O.&.$.#.7.7.n.c.k.{.[.n.{.c.qX/.:.,X*XeXY.G.%X.X,X&X%XP.z l ' P k m m s & % q - - o # . # X y & . B 4 1 ",
"B B 3 o.R R $.+.y +.l l %.%.I e.E &.c.O.y.n.n.{.n.].n.qXOXy.+XT.S.V.V.&X+X*X[.k j Y m k a s a t % : p 9 o - @ o @ q 0 @ . B 2 1 ",
"V B 3 V.b.%.o.+.$.j.E I o.O.] 6.<.' L.+.P j.+./.'._.n.OX%XeXL.OX-X-X.X-X>XY.' 9 Y j a 9 M y q x @ & # . = o o # & # ;   & B 3 1 ",
"V B 3 z.b.h.W &.R >.] &.O.O.>.K.8.x.7.n.Y n.(.I /.b.n.'.L.+X_.+XT.v.-X+X+XE 9 r 0 r s m m q ; s t + o y 5 # # . # ; X O - B 3 < ",
"G B 3 T h.>.;.Z.o.W W v.c ~ #.] +.k.x.%.W V.,X.XT.L.^.n.E c.n.8.c.T.+Xc.Y r k 9 q a r T s * % d = - & t + # t X - % . & q B 3 < ",
"V Z 3 R w ^ ;.o.l I ^ -.+.T c y a I.L.' l / k.I.K.`.;X,XS.&.:.j.y.T.1.I Y q r a r s ( b : : n ( d @     X X X 9   # X & 9 C 3 1 ",
"G C 3 8.l I ^ { ^ l +.k.k.-.9 { Y ' e.c.+.^ 7.].'.G.b._.S.+.S.T.i.' l P a q m a E ) s s # q k p . ; - : X X + t     X & y C 3 1 ",
"S C 6 V.%.W ! %.W W ~ ' :.b.c.c.x._.{ u.u.' / @.Y.7.v m  X$.J.P.Y I Y y 9 n m k ) & p x - : : o q p t *   . 5     . X & & C 6 1 ",
"H C 6 { -.Q w./ e.l *.$.] :.:.[ #.k.e.` M.*.y.Q c.+X*X( `.P.<.U j l U y a x M p % K 5 * b Q p o # - q - @ % .   %   X @ $ A 6 1 ",
"H A 6 { [ / { Q 8.+.$.>.P i ) e.#.#.B.;.v.e.7.| 7.S.c.u.T.c.E ~ z @ & y a . o # : s X s : -   % t * o O X % X 5 % . X % & A 6 1 ",
"H A 6 U i ; m.c E %.%.C.@.j 0 U :.` { ` $.c.c.$.<.y.*Xi.} R j Y 9 9 k 9 # o ) 5 d X * ; # O   p : t # o X = 5 + X . X X X A 6 1 ",
"H A 6 i { w ! / i $ R ! 6.@.! x -.-.[ m Y ` } e.j.S.T.[ r P - 9 9 y ; y -   _ : : % X O p d o * : = o * + % 5 X   X X     A 8 1 ",
"H A 6 j $.] ^ #.^ c Y m 6.1.;.;.e.~ <.e.r Y } j E P.' i l 9 $ & q o o x b o m ; b X ; % ; j * o % :   X   = % .   X @   % A 6 1 ",
"H A 6 i ` / -.U v T H.@.p m ^ ] ) | ` =.:.U ;.{ ) +.T & 9 y & T * o m d = q b s x 9 ; ; ; ; O * % 5 X     X = . X   X . & C 6 1 ",
"H C 6 +.Y R e.;.` ^ #.0.=.M.#.e.r l #.u.T 6.#.-.! U j : i & q y @ q a O t t : b * q p X # b + X O   % X O + O # . .   @   A 6 1 ",
"H C 6 #.. & -.l.k.~ ;.P.>.h =.^ { ^ -.{ N.;.` q ! t m & 9 9 q % & 9 O o * % . & % x 5   * p   +     O O O   % &       . . A 6 1 ",
"Z C 3 ;.: / v {   # v =.! X e.I ) #.} B.` { e T T y $ @ & y & t p &   .   x ( E & .   d +   8 K   f =         O . . X     C 6 1 ",
"Z C 3 / - W ] v l.& ) ! v y Q =.M N.t { -.v y ` & r p ' ; @ @ y p a s & @ x K x & y # * X ; 5 o o 5     o * . - .   . ; X C 3 1 ",
"C C 6 R . & U j T y c -.9.w 9 ! j #.! l e { l s e m | a . u f 5 s s x Q = m d q ;   : % .   o   5 5 o .   . % X       X X C 3 1 ",
"Z C 6 I . 9 @ @ ~ ( m $.U c   f s j ;.e Y v y ~ j ) k a j Q u y * - _ ) t s y T : - : = 5 _ p = + O     X   o o X   X o . B 6 1 ",
"Z B 3 & # j l o #.m.@.;.! { =   & Y - i x ) +.+.! v u x f u t y q s k b { Q M ; *.D.!.Q.@X=XD.|.a.t.| p . .     .         B 6 < ",
"Z C 6 o & i $ v @.e.w 0.N.Q ~ O r.! ) } ..) 9.#.Q % #.K = c ! _ b m L D.!.7X9XjXzXxXdX1X4X<X4X4XsXfXsX8X4X>XOXT.T.y.<.L # C 6 1 ",
"Z B 6 [ ` ] i I >.e.+.) m.^ #.t ' ^ ) ,.| ;.[ M f [ | u ~ ^ _ K !.dXxXzXzXlXkXkXkXkXdX>X:X4X:X>X>X>X1X1X3XsXsXsX8X8X8X8X$XC 3 1 ",
"Z B 3 a.M.N.N.e.;.0.m.D.N.j.j.c +.) 0.M.} | =.} ;.3.=.! [ ..K + d.lXlXlXkXlXlXkXkXjXuX<X=X4X>X4X<X*X-X,X<XeX3X8X>X1X1X8X$XB 3 < ",
"Z C 1 l.m.m.p.M.N.M.M.m.M.Z.Z.0.:.9.m.M.{ *.9.#.q.3.K 9.[ m Q n K 9XlXlXlXlXzXkXxXfX1X<X;X1X$X4XfX=X&X-X:X1XsXeX<X-X*X@XOXB 3 < ",
"B B 3 m.m.m.p.p.p.m.M.m.M.m.M.m.l.l.r.r.l.u.u.m.9.| 9.| ( K ( b t d.0XlXlXxXxXxXxXsXsXeX<X>XF.dXdX8X%X&X@X>X&X X=X@X.X.XQ.B 6 < ",
"V B 6 0.p.m.m.p.m.m.u.M.m.M.m.m.M.M.m.m.l.r.r.r.w.0.e.9.3.9.) M % _ zXkXkXkX0XxXjXsXsX1XoXoX>XfXfX8X&X@X#X+X .J  .Y.}.|.P.B 3 < ",
"V B 1 9.9.9.9.m.r.r.l.l.m.m.m.m.m.m.m.m.r.m.r.r.p.r.r.e.r.0.0.r.p.a.lXkXxXxXjXxXfXsXeX,X!.f.$XfXfX8X-X-X$XT.L L L p.H.U.J.V 3 < ",
"V N 4 ,.9.p.;.p.w.p.p.r.p.p.p.m.m.m.p.m.m.m.m.m.m.p.p.m.u.u.r.r.0.S.xXxXxXfXfXxXfXsX$X~.R.!.8X8X8X8X~.!.#XF.5.i. .i.P.P.).B 2 < ",
"V N 2 *.;.9.p.9.p.9.p.9.9.9.w.p.r.l.m.m.p.p.p.m.m.m.m.m.m.u.0.0.q.x.xXxXxXxXxXxX0X6X5X2X~.R.$X3X8X$X!.R.f.d.d.s.i.S.P.U.|.B 3 < ",
"V N 2 9.;.w.9.3.9.9.p.p.9.p.p.9.1.q.0.r.r.l.p.r.u.p.u.p.a.p.p.r.0.0.9XkXxXlXfX7Xg.5X5X7X~.~.~.$X$X$XOX!.d.f.f.d.F.s.P.|.W.N 2 < ",
"V B 2 9.;...=.3.3.9.3.9.9.9.9.9.9.0.9.q.0.0.r.q.r.p.p.u.p.u.u.u.y.0.4.!.3XdXxXxXjX7X6X5X6X2X~.$X$XOXOXR.R.f.f.s.s.T.XXU.|.B 2 < ",
"F N 3 *.*.*.} ....[ 2.q.0.2.2.9.3.3.9.9.4.0.0.0.r.u.u.p.p.u.u.y.u.t.2.n   8 d.7XxXxXxX9X5X5X5X6X3X~.~.!.R.T.F.S.E.oXE.Z.E.B 2 > ",
"F N 3 q.6.=.=.=.*.3.2.=.p.3.3.9.4.,.4.1.1.4.0.0.q.t.t.u.u.t.t.u.y.} =            .!.$Xi.3X9X6X5X6X2X~.~.$XOX!.$X=XZ.).U.Z.D 3 < ",
"F N 3 ,.[ ;.[ } *.4.3.q.9.2.1.;.,.1.,.1.3.4.0.e.0.9.0.q.t.t.4.=.d                         X.#X9X2X2X9XsX1X3XOX>X|.Z.U.Z.).N 2 , ",
"F N 2 0.;.=...=.} 3.3.,.4.9.3.4.1.,.1.1.1.0.0.3.3.r.0.t.4.4.L .                               ( !.fXfXfXfXOXOX[.|.U.Z.U.E.D 2 < ",
"F 7 6 ..} =...*...,.;...=.3.=.,.2.1.=.,.9.9.4.p.t.4.1.4...+                                       8 F.4X#X#XW.U.|.Z.E.U.U.B 3 1 ",
"G C 3 X.1.=.*...=.| ;.3.,.} ..2.2.q.1.1.0.4.y.5.t.4.2.d                                           # D.#X#X X XU.Z.E.U.E.U.C 3 < ",
"G D 3  .) ..1...;.,.=.2.[ _ *.3...=.;.,.4.4.y.4.2._                                             f W.-X!.T.|.Q.U.N.U.W.oX XC 3 1 ",
"G C 6 5.,.} ..5.2.0.3.4.0.q.4.=.,.....,.,.,.4.} :                                             b W.#XQ.W.|.T.U.U.|.D.N.!.OX7 3 1 ",
"G G G s.s.a.s.D.5.,.y.5.p.a.X.,.X.,.2.,.,.,.L           o                                   ) Q.Q.Q.oXoX|.Z..XoXQ.!.oX X@XC 3 1 ",
"A C C G B D D B N N N B B N B B B B 7 B B 7 7 C C C C C J 7 A A C C C C B C C B C B B C B C C F D D F C D D D 4 4 7 7 B C 7 3 1 ",
"6 6 6 7 3 3 2 2 3 2 2 2 2 2 2 3 3 3 3 3 3 3 6 6 6 6 6 6 6 6 6 6 6 6 6 6 6 3 3 3 3 6 3 3 3 3 3 3 2 8 3 2 3 2 2 3 1 2 3 3 6 3 1 1 ",
"1 1 1 1 1 < < < < < < < < , , , < , 1 , 1 < 1 1 1 1 1 1 1 1 6 1 1 1 1 1 1 < 1 1 < 1 1 1 < 1 < < < < < < < < < , , , , < 1 1 1 1 "
};
