/* XPM */
static char *dDEy[] = {
/* columns rows colors chars-per-pixel */
"64 64 256 2 ",
"   c #0D0809",
".  c #150B0A",
"X  c #120B0D",
"o  c #17150C",
"O  c #141C0D",
"+  c #071815",
"@  c #041C15",
"#  c #051C19",
"$  c #121210",
"%  c #141C14",
"&  c #181916",
"*  c #261308",
"=  c #24160B",
"-  c #2B1609",
";  c #2A1A09",
":  c #33170C",
">  c #341C0B",
",  c #3D1D0D",
"<  c #241A1A",
"1  c #052315",
"2  c #092416",
"3  c #0C2B15",
"4  c #0A241C",
"5  c #0C2C1B",
"6  c #162517",
"7  c #1A2315",
"8  c #122914",
"9  c #132D15",
"0  c #1C241B",
"q  c #132C1B",
"w  c #1C2A1B",
"e  c #1A3317",
"r  c #14321C",
"t  c #1B331C",
"y  c #2E2E0C",
"u  c #34230B",
"i  c #3C240C",
"p  c #262719",
"a  c #232B1C",
"s  c #35281B",
"d  c #27361A",
"f  c #373919",
"g  c #121B23",
"h  c #0D2C23",
"j  c #0D2927",
"k  c #142A27",
"l  c #133324",
"z  c #1A3825",
"x  c #13302F",
"c  c #272C22",
"v  c #362C25",
"b  c #2C3324",
"n  c #263827",
"m  c #2A3A25",
"M  c #343B23",
"N  c #393827",
"B  c #323B2B",
"V  c #2C3C38",
"C  c #4D170B",
"Z  c #421E0E",
"A  c #57110F",
"S  c #681210",
"D  c #44240D",
"F  c #4C250E",
"G  c #442B0E",
"H  c #4B2C0E",
"J  c #43300F",
"K  c #49340F",
"L  c #442311",
"P  c #492411",
"I  c #4A2B11",
"U  c #46251C",
"Y  c #562E1B",
"T  c #4A3411",
"R  c #443618",
"E  c #71321C",
"W  c #4C2C25",
"Q  c #473828",
"!  c #573A28",
"~  c #6D3827",
"^  c #354214",
"/  c #3D4718",
"(  c #1C4529",
")  c #1F512E",
"_  c #284628",
"`  c #234B2A",
"'  c #354628",
"]  c #29572A",
"[  c #375729",
"{  c #214F30",
"}  c #3B4934",
"|  c #3A5439",
" . c #3A672A",
".. c #37682B",
"X. c #4B480D",
"o. c #554C09",
"O. c #5B520C",
"+. c #474719",
"@. c #544E12",
"#. c #4B5915",
"$. c #565517",
"%. c #674C17",
"&. c #764E19",
"*. c #645C18",
"=. c #4D610E",
"-. c #4C6217",
";. c #596718",
":. c #666919",
">. c #76681A",
",. c #69781B",
"<. c #777417",
"1. c #474928",
"2. c #564A27",
"3. c #475628",
"4. c #585828",
"5. c #474932",
"6. c #564B32",
"7. c #495835",
"8. c #585A36",
"9. c #674628",
"0. c #7A4728",
"q. c #69512D",
"w. c #73562B",
"e. c #695835",
"r. c #78593A",
"t. c #466928",
"y. c #576729",
"u. c #48752A",
"i. c #567929",
"p. c #456B34",
"a. c #5A6436",
"s. c #5A7835",
"d. c #656627",
"f. c #726D2C",
"g. c #79762A",
"h. c #676A38",
"j. c #77683C",
"k. c #687736",
"l. c #112D44",
"z. c #535644",
"x. c #735B44",
"c. c #6C5D5A",
"v. c #766748",
"b. c #6E724E",
"n. c #7B7646",
"m. c #797866",
"M. c #A41B19",
"N. c #872B19",
"B. c #96261A",
"V. c #883A1E",
"C. c #AC3118",
"Z. c #893C24",
"A. c #9A3629",
"S. c #D31806",
"D. c #D3280B",
"F. c #87461D",
"G. c #99491A",
"H. c #8B5C1A",
"J. c #985A18",
"K. c #A15518",
"L. c #99671B",
"P. c #887119",
"I. c #A9691A",
"U. c #B7731C",
"Y. c #884527",
"T. c #885C24",
"R. c #95532F",
"E. c #AB5531",
"W. c #866427",
"Q. c #966626",
"!. c #8D6E33",
"~. c #A26523",
"^. c #AF7134",
"/. c #D95213",
"(. c #925A49",
"). c #92734D",
"_. c #88775C",
"`. c #A87049",
"'. c #A97E58",
"]. c #8A7864",
"[. c #957D67",
"{. c #B87F65",
"}. c #7B8E18",
"|. c #5E842D",
" X c #69892A",
".X c #748F2F",
"XX c #6A8739",
"oX c #758939",
"OX c #6D8748",
"+X c #778A47",
"@X c #7A8857",
"#X c #7C986B",
"$X c #878417",
"%X c #938F13",
"&X c #8C8F33",
"*X c #A8A026",
"=X c #C29A3D",
"-X c #8B8F4F",
";X c #938559",
":X c #979855",
">X c #A9845C",
",X c #B68759",
"<X c #B3855C",
"1X c #BC8B5C",
"2X c #A4925C",
"3X c #BA9052",
"4X c #97A54B",
"5X c #9BA55A",
"6X c #AAB154",
"7X c #8E8D6F",
"8X c #9A8465",
"9X c #96826C",
"0X c #9C846A",
"qX c #9E896C",
"wX c #998977",
"eX c #9C8A74",
"rX c #A88864",
"tX c #A2866B",
"yX c #A48A6C",
"uX c #AB8D6C",
"iX c #B78B63",
"pX c #A79165",
"aX c #AD916C",
"sX c #B59366",
"dX c #BC9164",
"fX c #B4936D",
"gX c #BA956D",
"hX c #BC9A6D",
"jX c #A38E74",
"kX c #A68E76",
"lX c #B18F71",
"zX c #A59175",
"xX c #AC9273",
"cX c #A5927A",
"vX c #AC967B",
"bX c #B39473",
"nX c #BA9673",
"mX c #BC9972",
"MX c #B59778",
"NX c #A6B16B",
"BX c #C38D45",
"VX c #C28350",
"CX c #C18C5D",
"ZX c #C2925D",
"AX c #C8965F",
"SX c #C48E65",
"DX c #C39464",
"FX c #C4956C",
"GX c #CA976B",
"HX c #C2996D",
"JX c #C39672",
"KX c #C39A74",
"LX c #C69975",
"PX c #CA9A72",
"IX c #969481",
"UX c #A99780",
/* pixels */
"H H T H I I P P P Z Z P P P P Z P P H F G H H H H K K K T T T T T T K H H H H H H H H H H F I I P P I U I I U L L D D H I T H T ",
"T H H H D D D L Z Z Z Z Z Z Z Z D D D D D D D G G G G G J J J J J G G G D G D D D H D G D D L L L L P P L L Z , , , i P H I G H ",
"T G i > u > > > : : : : : : : : > > > > > > > u u u u u s y u y u u > u > u > u i u > u > > > , > > > : > > ; > : - > > G H i u ",
"H G u xXaXnXnXmXnXKXKXJXLXLXGXLXKXKXGXLXHXKXmXKXKXKXKXHXLXLXLXKXLXKXmXMXMXKXmXgXMXLXUXKXKXKXKXMXMXvXvXUXcXcXeXwXwXwXwX7XeXH u - ",
"H D > xXaXfXfXfXhXbXnXmXnXJXGXJXJXKXJXKXLXLXPXPXLXmXPXPXKXKXKXKXLXLXLXJXmXmXmXmXMXmXLXLXLXLXJXnXvXcXcXzXvXcXzXzXcXcXwXwXjXL > ; ",
"D D > aXaXaXfXnXbXhXnXgXnXnXnXJXFXKXJXKXFXPXPXHXKXPXKXKXKXKXKXmXLXLXLXLXmXKXKXKXLXLXMXnXUXLXMXnXMXMXxXbXMXMXvXcXcXcXcXwXwXi : = ",
"Z , - aXfXfXfXhXhXfXnXhXgXmXmXmXnXJXJXLXGXLXPXKXLXLXKXKXMXMXmXKXLXPXPXLXLXGXGXLXGXnXnXnXLXMXMXbXMXbXMXbXxXbXxXxXcXzXcXUXvX, ; * ",
"Z , - gXfXfXfXgXfXfXhXfXnXmXgXgXnXgXKXGXLXGXPXPXPXGXJXhXKXmXmXmXLXLXLXLXGXJXGXJXnXMXMXMXMXMXbXxXvXvXvXbXxXbXzXzXwXcXwXcXcX, : * ",
"Z , - gXfXfXgXfXx.).fXfXhXfXhXhXmXhXmXmXKXmXhXKXGXLXGXJXKXbXnXnXMXnXnXJXJXFXJXFXnXMXMXMXbXbXnXnXbXnXMXbXbXxXxXjXcXcXwXjXvX, * * ",
"Z , - pXfXhXfXfXx.v.hXfXhXmXhXnXmXhXmXmXmXKXhXhXmXGXPXHXmXmXmXnXKXbXnXlXlXlXlXnXnXlXlXlXbXfXlXfXlXuXlXfXbXMXcXcXzXzXUXcXUX, * * ",
"Z : - R.).sXhXhXr.(.fXmXhXbXnXhXhXKXhXHXhXhXhXhXKXhXHXHXFXnXgXnXnXnXnXnXnXnXbXnXnXMXlXbXfXbXaXzXMXbXxXxXjXxXkXkXcXwXeXUXvX, - * ",
"Z , : E F.R.`.hXx.x.hXnXhXhXmXhXhXDXZXZX3XAXdXHXFXhXhXFXGXJXnXlXbXlXlXlXfXlXlXfXlXlXbXkXzXeXjXqX8X0X0XeX0XyXjXjXwXwXeXcXwX, - * ",
"Z , : V.V.N.Z.R.Y.v.mXmXhXhXhXhXKXHXdXhXgXHXDXgXhXhXhXHXGXGXJXlXfXuXuXlXlXlXuXxXuXbXbXxXkXuXyXyXtXyXtXuXyXxXuXxXwXwXwX[.[., : = ",
"C i : Y.F.Z.Y.V.Y.R.>XnXbXhXhXhXhXhXhXhXhXmXhXhXHXHXHXGXPXPXGXnXfXuXuXuXyXtXtXqXtXtX0XqXqXtXyXyXyX8XtXtX0X0X0XjXkXkXIX[.[., : * ",
"P L : 9.0.Z.Z.Z.G.V.F.Q.,XDXHXHXHXKXhXhXhXhXsXhXhXhXgXDXDXgXFXgXgXfXfXpXyXuXyXyXjX8XqX8XqXqXyXqX0XtX8XtX0X0XtX[.[.jXwXwXwXZ : < ",
"P U > z z n _ 6.q.0.Z.G.E.`.DXHXHXHXFXsXsXdXsXsXdXiXDXSXSXDXgXpXfXlXbXlXuXaXxXaXuXjXaXzXaXxXxXyXyXqXqXqXtXjXtXeXeX9XwXwXkXL : - ",
"I L > x z x l l l ( ' 1.w.T.`.iXDXCXAXPXGXdXsXsX1XDXZXAXDXDXgXaXuXsXaXaXyXqX8X8X0XtXyXyXyXtXtXkXqXtX8XeXkXkXkXkX0XjX0XwXwXL > ; ",
"I G u z l l r 5 r r t _ _ | 8.vXFXGXGXPXPXGXdXdXDXDXDXGXAXDXsXpX4X:X:X2XfXaXaXuXuXyXrXtXyXtXtXyXqXeX[.0X[.'.[.[.[.[.[.[.[.P > ; ",
"I G u z l l 5 l 5 r r e n _ p.IXgXDXGXGXGXDXdXdXCXCXdXDXZXHXsX6X%X}.}.}.aXaXlXuXuXuXuXrXtXtX0X[.[.[.[.[.].].].]._.].].].[.D u ; ",
"H G > z l l l l l r ( r t ] | IXgXFXFXGXGXFXdX1XZXCXZXAXDXZX3X*X*X}.}.}.2XaXfXaXuXtX[.0X[.[.[.9XjX0X[.[.]._.].]._._._.].[.G u - ",
"H G > z x x h l l z z r _ _ ] IXrXdXgXGXDXFXCXCX1XDXAX1XdX3X3X*X%X%X}.}.pXaXfXaXuXaXyX0X[.tXuX{.[.[.[.9X[.[.].].[.)._._.[.D > - ",
"F P > l l z l l l l r ( _ _ } IXgXDX<XHXDXZXZXCXCXiXiX1X,X3X3X*X*X%X.X}.uXaXlXlXuXuXuX0XtX[.[.[.[.[.[.9X[.wX].].]._.[._.].F > - ",
"F D ; 5 h h h h 5 l r z _ ' [ wXdXDXiXdX1XAXZXCX1X>XiX,X<X3X3X=X`.!.g.&XaXfXuXyXyXuXuXyXtXtX0X0XtX[.[.wX7X[.].].]._.m._._.D > - ",
"F D ; h 5 5 h h l z r r _ ' z.7XiXsX1XZXdXAXZXCX1X,XiXrX<X>X<X^.VXr.Y.T.rXaXyXtXyXyXyX8XuXuXtX0X[.jXtX].#X7X#X#Xm.]._._._.F > - ",
"I D > h 4 4 5 h 5 l r r n _ p.m.sX1X,X1X1XCX1XCXVXiX<X<X,X'.3XBX^.K.R.).iXpXfXuXyXyXyXyXyX8X0X0X0X9X9X#XOX#X@X#X@Xn.;X].].D > ; ",
"H D > h h 1 5 h 5 5 r z l _ | m.<XdX,X<X,X{.,XCXCX1X<X<X,X,X`.^.(.Z.~ '.uXyXuXrXsXpXaXaXyXqX8X8X9X9X-X+XOXOX+X@XOXb.n._.m.G > - ",
"I D > k h 1 5 5 5 r r r z ( | b.8X'.;X<X,XCXCXiXiXiX1X,X'.'.^.G.E.A.W '.pXrXpX2XpXpXpXaXpXqXqXOX;X@XXXXX XXXXXXXy.h.k.f.k.G > ; ",
"J G u h 5 5 1 5 5 9 r r z ( | c.;X'.[.'.CXVXCX<XCX1X,X,X3X=XL.E E W v 5.v.tXiXpX2XrX:X;X:X:XXX|.XX+XXX.X.X.XXXk.k.y.s.i.u.G u ; ",
"T J u h h 1 1 5 3 3 r t t _ | m.[.;X'.,XVXVX'.tX'.{.'.BX*XU.P.S S A P M M 1.[.>X<X<X2X;X:XoXk.|.|.s. X X X.X Xp.t.y.t.t.t.G u ; ",
"T J u 4 4 1 5 5 5 5 r z d d | m.tX1X'.,X{.{.{.rXiXuXiX%X%X%X%.S A A i M N M ' `.'.'.3X=X3XP.!.f.i.s.OX+X X Xi. . .t...[ t.K y ; ",
"T J u j 4 1 5 5 5 r l r d d | m.rX<X<X'.>X,X<XiX'.{.).%X%X%Xo.S A A f Q N M N 9.E.D./././.K.<.<.i.u.i.s.i. X|. . . .[  .i.J u ; ",
"T J u h 4 4 5 5 5 r 5 r t _ | @X<X'.>X,X<X<X'.{.{.'.-XP.$XP.%.A A Q Q Q 1.} N N C.D.S.D././.J.,.i.u.u.t.u.u.u.s.u. . . .i.J y ; ",
"T G u h 5 1 5 5 h 5 r r e m V _.(.[.(.(.(.(.(.A.A.A.T.>.$X$X>.A ! 5.6.W N 5.} N E S.S.S.S.J.;.' t.|.|. .] ..] ] ........=.K u ; ",
"T G u j 1 1 5 5 5 4 r a d m B c.M.M.B.B.B.N.M.B.B.N.w.>.P.$Xg.R 6.Q Q v 7 B 5.B v C.S.S.D.W.:.s -.-.u...u...] ] ( ] ] ] [ y u ; ",
"K G u # # 1 2 5 5 5 r e r d _ (.C.C.E B.A N.E E A.Y >.:.}.P.<.+.! ! Q & 7 0 ! ' N ! S S ~ y.#.U t.u.u.u.u...u.u...( ] ] [ J u ; ",
"T G u 4 1 # 3 2 5 5 r r n d _ pX^.A.W A.~ ~ r.~ `.Q <.:.<.$X<.+.2.Q v c 7 p Q Q V B Q U Q 4.1.v y.u. .u.u.u.....] ( ] ) [ K u ; ",
"H G u 2 @ 1 1 3 5 5 9 r t n _ qXBXBXAXBX!.`.`.!.`.r.P.,.<.<.<.$.2.N v p 7 c b Q 1.V N W W W v N 3.[  .[  ... .] ] ` e ` ] G u ; ",
"H D > # @ @ 3 3 5 9 e e t t _ j.^.~.~.J.T.Y.9.E E %.>.:.<.<.:.$.4.Q s a 7 p Q N 5.} B Q W U & U ! 1.t.d ' [ ] ` ] ] ` ( ^ i > ; ",
"H G u 2 @ 1 1 1 3 e e 9 q d m d.G.F.Y.0.V.E E Y.F.T.>.:.:.>.:.$.6.N p p & v Q M 1.5.B B ~ v < U U s 3. .....] ` ] ] ] ` _ G > ; ",
"H G > + @ 1 1 3 3 9 9 e 9 6 n h.O.G.G.G.G.G.K.G.K.L.H.:.%.>.y.:.4.v a k c Q e.w.1.5.B V Q v < Q ! ! 2.t.u.u. ._ ` ] ] ] z D u ; ",
"H D > 2 + @ @ 3 3 3 9 e 9 e n +.Y J.I.K.G.J.J.K.~.~.H.:.9.V.&.&.2.f f v c 6.r.!.e.' } ' V Q 6.x.W.H.T.e.t.....] ` ( ( ( z G > ; ",
"H G > 2 + @ 1 3 9 3 9 e 9 d a f %.Q.L.I.J.J.J.I.~.~.P.;.$.*.%.2.2.2.1.N B b x.(.(.e.M 1.Q W 9.R.W.J.J.Q.W.d. .{ ` ` ( ( ( P u ; ",
"H D > 3 1 1 1 3 3 e e O e r n Q %.H.L.L.K.J.J.J.H.Q.W.w.:.:.y.1.4.7.} b m 0 6.W.!.r.e.!.~ ~ 9.T.L.H.H.W.W.f.d.3.] ` ( ( _ G > ; ",
"H F > 2 @ 1 3 3 3 e e 8 7 d ( +.*.&.L.I.I.U.U.I.I.Q.W.&.;.;.-./ a.7.' n B 0 e.-X).(.r.).!.Y.~ T.H.H.L.L.g..X|..._ ` ) r z D > - ",
"H D > 2 @ 1 1 3 3 9 9 3 O z z 5.&.T.~.I.U.I.L.W.Q.T.Q.&.;.:.;.#.4.a.' m m a 3.5X-X-X-X!.r.!.q.&X:X5X5X:Xi.|.u...{ { ] l l D > ; ",
"F D > @ @ @ 1 3 9 e 8 3 q q d 1.@.>.Q.W.H.W.!.).).).j.q.$.;.t.7.a.7.} B m b d 5X5X5X5X5XN j.&X4X4X:X+XoXy.s.s...] ( ) ) k L > ; ",
"F F > + @ 1 @ 3 3 9 3 9 q t z ^ $.g.e.j.j.j.).8.c.].e.e.#.;.} 7.7.8.} m b d a.6XNX6XNX:X1.&X4X4XoX+Xy.h.7.p.s.7.( ( z z q D > - ",
"F D > @ @ @ 1 3 e q 8 q q d d } d.2.h.n.j.v.f.. . < $ o #.-.| 7.5.z.B a p 7 a.g.&Xh.n.a.1.y.y.7.6.3.8.' ' 7.b < & % 7 & v D > - ",
"F D > @ # # # e 9 9 3 6 6 w d _ Q f.e.n.j.n.n..   N z.z.;.=.[ } 5.} n p c $ <     X <   & c   . $ X & X     o <     X $ g C > - ",
"F C - + + # 5 e d r q q q t k V ' j.;XqXm.;X).=   s x.5.;.=.7.5.B } c a b & < N 4.b.h.7 h.-X  . 2.f.2.X . q.d.h.X < n k z Z : - ",
"F Z >   @ 4 e 3 3 q h O q w q V 3.,.m.7X5.v.n.< . c 6.N =.-.3.7.a } c m b % X oX-X5Xk.1.-X-XN d f.P.!.s p w.w.y.v & [ ` 4 Z : - ",
"F Z ; + 2 @ 9 3 8 q r 7 k & z x d.1.m.;X;Xb.z.<   p v V ;.-.' 7.w 5.b N d $ $ oX.X5X-Xd.5XoXb.1.$XP.Q.e.s >.w.4.} < _ ) z Z : - ",
"F Z : # @ # e 9 q + 8 w l 0 h x 5.b.;X;X;X_.b.s   v 1.b ;.#.[ | a 7.n b b % X XX4X4X#Xi.&Xf.8.f !..XW.h.o >.0.2.v.o _ ) k Z : - ",
"P Z : # # q d q r $ & l q & 6 c d 2.q.d.d.h.h.7 o +.4.+.#.=.' 5.d 1.B b c %   XX.X6Xk.y.,.d.6.N w.g.W.9.< 0.0.! c.& d ' n Z > = ",
"P Z : # # w q q q k $ 6 7 8 $ k f #.o.o.o.o.O.y p f @.O.-.#.' | a N B c b & $ a.-XNXz.a.f.y.R N w.0.%.! N d.*.:.X.O 0 _ _ Z : - ",
"F Z : # # 4 4 2 x x g 4 % 4 X c X.X.o.o.o.o.O.O.o.f d d #.-._ m a k n & 6 $ c ' y.@Xv +.>.+Xz.p +.$.%.+.N 3.#.$.#.d a k z L : - ",
"P D > # + # # j x l.k & k $ 4 & p ^ o.X.X.o.o.O.O.O.o.K / #.m n c 7 0 0 & + d d ^ +.7 @.O.%.O.@./ d f +.$.+./ _ ^ d 7 w a D : = ",
"I L > @ + # j j l.j 4 $ & . $ O O O y y y f X.o.O.O.O.O.o.#.d n c w 6 c 0 $ f f p o & f +.@.O.$.$.$.X.d a d y f d 7 e a w D > ; ",
"I L > @ + + % g g % %   o o O O O O O % ; O O y X.#.=.o.X./ / a & 8 7 6 7 + y O.@.7 p d p d ^ +.$.$.$.+.6 7 7 7 7 7 7 7 w L > ; ",
"I G i + $ $ $ O O O % 7 8 7 7 7 7 7 7 7 9 7 7 y 7 7 y ; o o y o   6 % O   $   f +.o Q +.X.f f d a s M d 7 7 7 7 7 7 7 7 6 G > ; ",
"I T G 0 6 % 6 7 6 0 & % O 7 a c c b _ b B m m m m B < < & & & X   % .     & $ & 0 0 c v c +.1.B n t c c z a c c 0 a k 7 7 G > ; ",
"G G G I P L D Z Z Z Z Z D Z D D D D D D D D D D G G J J J J G J G G G G G G D D D G D G D D G P P L L L L L , , , , D D L i > ; ",
"u u u , > > : : : : : : : : : : > > > > > > > u u y i u y u u y u u u u u > u > > > > > > > > > > : > > > : > : - > : > > u ; ; ",
"; ; ; ; ; - - - - * - * - - * * - - ; - ; ; - ; ; ; ; ; ; ; ; ; ; ; ; ; ; ; - ; ; ; ; ; - - - - < - - = - - * * * * = - ; ; ; ; "
};
