/* XPM */
static char *dDEz[] = {
/* columns rows colors chars-per-pixel */
"64 64 17 1 ",
"  c #F7CE46",
". c #FBDC75",
"X c #C88644",
"o c #E9BA4C",
"O c #D1964C",
"+ c #D9A453",
"@ c #6F533A",
"# c #624831",
"$ c #704C2E",
"% c #896445",
"& c #50331B",
"* c #A28166",
"= c #C8A671",
"- c #7C512B",
"; c #C8975B",
": c #B08D6A",
"> c #BC986D",
/* pixels */
"             ...................................................",
"              ..................................................",
"               ................................................ ",
"                   .........................................    ",
"                ..     ...............   ..........XX....    .. ",
"                  ...     ..........         .....X..X........  ",
"                    ...................          X....X.....    ",
"                ooo    .......     ......       X    ..X..      ",
"O                ooooooo         ....          X ++++++ X   OOOO",
"OO          ooooooooooo                       X++++++++++XOOOOOO",
"OOO+++  ooooooooooooo      oooooooo      OOOOX++++++++++++XOOOOO",
"OO+++++++ooo+++ooooooooo    ooooo++++OOOOOOOX++++++++++++++XOOOO",
"O+++OOO++++oo+++++ooooooooooooo++++++++OOOOX++++++++++++++++XOOO",
"OOO++OOOO++++++++ooooo+++oooo++++OO++OOOOOX++++++++++++++++++XOO",
"OOOOOOOOOOOO+++++++++++ooooo++++OOOOOOOOOX++++++++++++++++++++XO",
"@@@@@@@@##########@@@@@@@@@@@@@@@@@@@@@@@@@#$$$$$$$$$$$$$%######",
"...  ................           ..........$&&&&&&&&&&&&&&%......",
"..    ..............         oo  .........*##############%......",
"       ...........   ....  ooo  oooo.....+*##############*......",
"   ooo   ..............  ooooooooooooo++++*##############*...   ",
" oooo       .......       ooooooo+++++++++*##############*++++++",
"++oooooo                oooo+++++++++OO+++*##############*++++++",
"++++ooooooooo          o+++++++++OOOO+++++*#############@*++++++",
"++++++++oooo        ++++++++++OOOO++++++++*#############@*++++++",
"XXXX++oooooooo  +++++++++++OOOOOOOOXXXXXXX*############@@XX+++XX",
"XXXXXOOoooooo++++++OOO+++OOOOOOOOOOOOOXXXX*############@@XXXX++X",
"XXXXXXOOOO+++++++OOO+++OOOOOXXXXXOOOOOOOXX*###########@@@XXXXXXX",
"XXXXXXXXOOOO+++OOOO+++OOOOXXXXXOOOOOXXXXXX*##########@@@@XXXXXXX",
"XXXXXXXOOOXXXXOOOOOOOOOOXXXXXOOOXXXXXXXXXX*#########@@@@@XXXXXXX",
"XXXXXXXXXOOXXXXXOOOOOOXXXXXOOXXXXXXXXXXXXX*#######@@@@@@@XXXXXXX",
"XXXXXXXXXXXXXXXXXOOOOXXXXXXXXXXXXXXXXXXXXX*####@@@@@@@@@@XXXXXXX",
"##@@####@@@@@@@@######@@@@@@@@@@@@@@@@@@@@%*====XXXXXXXXX=@@@@@@",
"+++++++++++++++++oo                  ooooo+==============X++++++",
"++++++++++++++oo++oo   oo          ooooooooooooooooooo++++++++++",
"+++++OOO++++ooo++oooo    oo          oooo    ooooooooooo++++++++",
"+++OOOO++++++oooooooooo   oooo         ooo     ooooooooooo++++++",
"+++++OOOOXXXXOOO++ooooooooooooooooo           ooo++++oooooo+++++",
"++OOOOOXXXXXOOOOOOOOOoooooo  oooo           ooo+++++ooooo+++++++",
"OOOOOOOOXXXOOOXXXOOOOOOooooo              oooooo+++oo++++++++++O",
"OOOOOOXXXXXXOOOXXXXOOOOOOoooooo   oooooooooooo++++++++++++++OOOO",
"XOOXXXXXXXXXXXOOOXXXXXOOOOOooooooo  ooooooo++++++XXXXXXXXXXXXXXX",
"XXOOXXXXXXXXXXXXXOOXXXXXXXXXOOoooooooooooXXXXXXXXXXXXXXXXXXXXXXX",
"XXXXXXXXXXXXXXXXXXXXXXXXXXXXXXXXXXXXXXXXXXXXXXXXXXXXXXXXXXXXXXXX",
"XXXXXXXXXXXXXXXXXXXXXXXXXXXXXXXXXXXXXXXXXXXXXXXXXXXXXXXXXXXXXXXX",
"XXXXXXXXXXXXXXXXXXXXXXXXXXXXXXXXXXXXXXXXXXXXXXXXXXXXXXXXXXXXXXXX",
"XXXXXXXXXXXXXXXXXXXXXXXXXXXXXXXXXXXXXXXXXXXXXXXXXXXXXXXXXXXXXXXX",
"XXXXXXXXXXXXXXXXXXXXXXXXXXXXXXXXXXXXXXXXXXXXXXXXXXXXXXXXXXXXXXXX",
"######@#######$$$$$$$-######@@@@@@@@@@@@@@@@@@@@@@@@@@@@@@@@##@@",
"XXXXX;$&&&&&&&&&&&&&&%XXXXXXXXXXXXXX===XXXXXX;;;;;;;XXXXXXXXXXXX",
"XXX;;;$##############%XXXXXXXXXXXX=======XXXXX;;;;;;;;;;;XXXXXXX",
";;XX;;*##############*XXXXXXXXXXX;;========XX;;;;;;;;;XXXXXXXXXX",
"=;;;;;*##############*XXXXXX::;XXXX;;===========;;;;XXXX;;;;====",
"===;;;*##############*:::::::;;;;XXX;;=============;;;;;;=======",
"==;;;;*##############*:::::;;;;;;;;;;=====;;;====;;;;;==========",
"=====;*#############@X****::;;::;;;;;;;;===;;;;====;;;;=========",
"======*#############@X**::::::::::::;;;;;;;;;;==================",
">>>===*############@@X***::::::***::::::;;;;====>>>>>===========",
">>====*############@@X*******:::*****::::::>>>>>>>>>=======**>>>",
">>>>==*###########@@@X******************::::::::>>>>>>===***>>>>",
"*>>>>>*##########@@@@X****************::::***:::::>>>>>>***>>>**",
"****>>*#########@@@@@X*******************::****:::::>>>******>>*",
"*******#######@@@@@@@X************************::::>>>>**********",
"*******####@@@@@@@@@@X***********************::::::>>>>>********",
"@@@@@@%=====XXXXXXXXX=@@@@@@@@@@@@@@@@@@@@@@@@@@@@@@@@@@@@@@@@@@"
};
