/* XPM */
static char *dDE0[] = {
/* columns rows colors chars-per-pixel */
"64 64 14 1 ",
"  c #FBDC75",
". c #F7CE46",
"X c #D1964C",
"o c #E9BA4C",
"O c #D9A453",
"+ c #C88644",
"@ c #A06A34",
"# c #7C512B",
"$ c #E4C474",
"% c #C8A671",
"& c #BC986D",
"* c #B08D6A",
"= c #A28166",
"- c #6F533A",
/* pixels */
"         ......                                  ....           ",
"        .....                                   ....            ",
"       .....   ..                              ....  ..         ",
"         .....  ..                             .....  ....      ",
"          .........  ...                  .   ...............   ",
"     ...   ..........  ....             ..   .............   .. ",
"   ....  ....................        ....  .................    ",
" .................ooooo....      ......  ........XXXXOOOOOOO..  ",
"XO............ooooooo........................XXXXXXXXXXOOOOOOOXX",
"XXOO.............oooooo..................XXXXXXXXXXXXXXXOOOXXXXX",
"XXXOOOOOoooooo.....ooooooo.....ooo....XX++++XXXXXXXOOXXXXOOOXX++",
"XXXXXXOOOOOOooooooooooooooooo...ooooXX+++++XXXXXXOOOXXXOOOOX++++",
"+XXXXXXXXXOOOOOOOoooOOOooooooooooOXXX+++++XXX++XOOOOOOOOOO++++++",
"++XXXXXOOOXXOOOOOOOOOOOOOooooooOXXXXXX++++++XX++XOOOOOOOO+++++++",
"++++XXXXXOOOOOOOOOOOOOOOoooooOOXXXX+++++++++++++++XOOOOO++++++++",
"@@@@@@##@@############@@@@@@@@@@######@@@@@@@@@@@@@@@@##########",
".......                          ...............................",
".....                          .................................",
"....   ...             ...   ...................................",
"......  ......           ......................oooo.............",
"Oo.........oooo.....        ...  ..........OOooooo............oO",
"OOOo.....ooooooooo........     .........OOOOOOOooooo........oOOO",
"OOOOXXXOoooooooo....................OOOOOOOXXXOOOooooo....ooOOOO",
"OOOOOXXXOOOOoooooooo............OOOOOOOOOXXXXOOOOOooo...ooOOOooO",
"OXXXXXXXXOOoooooooooooo......OOOOOOOXXXX+++XXXXOOOOOoooooooooOOO",
"++XXXXXXXXOOOOooooooooooooOOOOOOOXXXXX++++XXXXXXXOOOOooooooOOO++",
"++++XXXX+++OOOOOOOoooooOOOOOOXXOOOXX++++++++++XXXXOooooooOOO++++",
"++++++XXX+++OOOOooooOOOOOOOXXXOOOXXXXXX+++++++++XXOOooooOO++++++",
"+++++XXX++++++OOOOoooOOOOXXXXXXXXXXX+++++++++++++XXOoooOO+++++++",
"++++++++++++++++OOOOOOOOOOXXXX++XX++++++++++++++++XOOooO++++++++",
"+++++++++++++++++OOOOOXXXXXXX++++++++++++++++++++++XOoO+++++++++",
"######@@####@@@@@@@@@@@@@@@@@@##################################",
"OOO$$$$$$$$$$$$$$$OOXXXXXXXXXXO$$$$$$$$$$$$$$$$$$$$$$$$$$OOOOOOO",
"OO$$$$$$$$$$$$$$$OOOOXXXXXXXOOOO$$$$$$$$$$$$$$$$$$$$$$$OOOOOOOOO",
"O$$$$$$$OO$$$$$$OOOOOOXXXXOOOOOOO$$$$$$$$$$$$$$$$$$$$$OOO$$OOOOO",
"OOO$$$OOOOO$$$OOOOOOOOOOXXXXXOOOOOO$$$OOO$$$$$$$$$$$$OO$$$OOOOOO",
"OOOOO$$$OOOOOOOOOOOOOOOOOO++++++OOOOO$$$OOOO$$$$$$$$$$$$$OOOOOOO",
"OOOOOOO$$$OOOOOOOOOOOOOOOOOO++++++++OOO$$$OOOOOO$$$$$$$OOOOOOOOO",
"XXOOOOOOOOOOOOOOOOOOOOOOOOOOOO+++++++++OOOOOOOO$$$$$$OOOOOXXXXOO",
"XOOOOOXXOOOOOOOOOOO+++++OOOOO++++++++++++OOOO$$$$$OOOOOXXXXXXOOO",
"XXXXOOOXXXOOOOO+++++++OOOO+++++++++++++++++OOOOOOOOOOOOOOXXXXXXX",
"XXXXXXXXXXXX++++++++++++++++++++++++++++++++++OOOOOOOOOXXXXXXXXX",
"XXXXXXXXX++++++++++++++++++++++++++++++++++++++++OOOXXXXXXXXXXXX",
"XXXXXX+++++++XXXX++++++++++++++++++++++++++++++++++++XXXXXX+++XX",
"X++XXXX++XXXXXX+++++++++++++++++++++++++++++++++++++XXXX++++++++",
"++++++XXXXXX++++++++++++++++++++++++++++++++++++++++++XXX+++++++",
"++++++++++++++++++++++++++++++++++++++++++++++++++++++++++++++++",
"################################################################",
"+++++++++++++++++++++++++++++++++++++++++++%%%%%%%%%%%%+++++++++",
"++++++++++++++++++++++++++++++++++++++++%%%%%%%%%%%%%%++++++++++",
"+++++++++++++++++++++++++++++++++++++%%%%%%%%%%%%%%%%%%%+++%%+++",
"&&%%+++++++++++++++++&&&&&+++++++%%%%%%%%%%%%%%%%%%%%%%%%%++%%%%",
"&&&%%%%%+++++++++&&&&&&&++++&&&%%%%%%%%%%%%%%%%%%%%%%%%%%%%%%%%&",
"&&&&%%%%%%&&&++++++&&&&&&&&&&&%%%%&&&&%%%%%%%%%%%%%%%%%%&&%%%%&&",
"&&%%%%%%%%%&&&&&&&&&&&&&&&&&&&&&%%%%&&&&&&%%%%%%%%%%%&&&&%%%%&&&",
"&%%%&&%%%%%%%&&&&&&&&&&&&&&&&&&&&&&&&&&&&&&&&%%%%%%&&&&%%%%&&&&&",
"&&&%%&&&%%%%%%%%&&&&&&&&&&&&&&&&&&&&**=**&&&%%%%%&&&&&&&&&&&&&&&",
"&&&&%%&&&&&%%%&&&&&&&&&&&&&&&&&&&&***==****&&&&%%%%&&&&&&&&&&&&&",
"&&&&&&&&&&===******&&&&&&&&&&&&&&****===**&&&&&&&&&&&&&&&&&&&&&&",
"&&&&&&&&&&&====**&&&&&&&&&&&&&&&****====****&&&&&**&&&&&&&&***&&",
"&&&&&&&&=========**&&&**&&&&&&&**&**===********&&&***&&&&****&&&",
"&&&&&&============********&&&&&&&&&======****&&&****&&&********&",
"&&&&&==============********&&&&&&&=========*******&&&&**********",
"----------------------------------------------------------------"
};
