/* XPM */
static char *dDE1[] = {
/* columns rows colors chars-per-pixel */
"64 64 5 1 ",
"  c #7C512B",
". c #A06A34",
"X c #F7CE46",
"o c #C88644",
"O c #FBDC75",
/* pixels */
"      ......        ........                ........            ",
" XXXXXXXXXXXXXXXXXXXXoXXXXXXXXXXXXXXXXXoXXXXXXXXXXXXXXXXXXXXXXX ",
" XXXXXXXXXXXXXXXXXXXXoXXXXXXXXXXXXXXXXXoXXXXXXXXXXXXXXXXXXXXXXX ",
" XXXXXXXXXXXXXXXXXXXXoXXXXXXXXXXXXXXXXXoXXXXXXXXXXXXXXXXXXXXXXX ",
" XXXXXXXXXXXXXXXXXXXXoXXXXXXXXXXXXXXXXXoXXXXXXXXXXXXXXXXXXXXXXX ",
" XXXXXXXXXXXXXXXXXXXXoXXXXXXXXXXXXXXXXXoXXXXXXXXXXXXXXXXXXXXXXX ",
" XXXXXXXXXXXXXXXXXXXXoXXXXXXXXXXXXXXXXXoXXXXXXXXXXXXXXXXXXXXXXX.",
" XXXXXXXXXXXXXXXXXXXXoXXXXXXXXXXXXXXXXXoXXXXXXXXXXXXXXXXXXXXXXX.",
" XXXXXXXXXXXXXXXXXXXXoXXXXXXXXXXXXXXXXXoXXXXXXXXXXXXXXXXXXXXXXX.",
" XXXXXXXXXXXXXXXXXXXXoXXXXXXXXXXXXXXXXXoXXXXXXXXXXXXXXXXXXXXXXX.",
" XXXXXXXXXXXXXXXXXXXXoXXXXXXXXXXXXXXXXXoXXXXXXXXXXXXXXXXXXXXXXX.",
" XXXXXXXXXXOOOOOOOOOOXOOOOOOOOOOOOOOOOOXOOOOOOOOOOOOOXXXXXXXXXX.",
" XXXXXXXXXXO .........                 ............ OXXXXXXXXXX.",
" XXXXXXXXXXO.XXXXXXXXXXXOOOOOOOOOOOOOOOOOXOXXXXXXXX.OXXXXXXXXXX.",
" XXXXXXXXXXO.XOOOOOOOOOOOOOOOOOOOOOOOOOOOOOOOOOOOOX.OXXXXXXXXXX.",
" XXXXXXXXXXO.XOOOOOOOOOOOOOOOOOOOOOOOOOOOOOOOOOOOOX.OXXXXXXXXXX.",
" XXXXXXXXXXO.XOOOOOOOOOOOOOOOOOOOOOOOOOOOOOOOOOOOOX.OXXXXXXXXXX ",
" XXXXXXXXXXO.XOOOOOOOOOOOOOOOOOOOOOOOOOOOOOOOOOOOOX.Xoooooooooo ",
" XXXXXXXXXXO.XOOOOOOOOOOOOOOOOOOOOOOOOOOOOOOOOOOOOX OXXXXXXXXXX ",
" XXXXXXXXXXO.XOOOOOOOOOOOOOOOOOOOOOOOOOOOOOOOOOOOOX OXXXXXXXXXX ",
".XXXXXXXXXXO.XOOOOOOOOOOOOOOOOOOOOOOOOOOOOOOOOOOOOX OXXXXXXXXXX ",
".XXXXXXXXXXO.OOOOOOOOOOOOOOOOOOOOOOOOOOOOOOOOOOOOOX OXXXXXXXXXX ",
".XXXXXXXXXXO.XOOOOOOOOOOOOOOOOOOOOOOOOOOOOOOOOOOOOX OXXXXXXXXXX ",
".XXXXXXXXXXO.OOOOOOOOOOOOOOOOOOOOOOOOOOOOOOOOOOOOOX OXXXXXXXXXX ",
".XXXXXXXXXXO.OOOOOOOOOOO .............. OOOOOOOOOOO OXXXXXXXXXX.",
".ooooooooooX.OOOOOOOOOOO.OOOOOOOOOOOOOO.OOOOOOOOOOO OXXXXXXXXXX.",
" XXXXXXXXXXO OOOOOOOOOOO.OOOOOOOOOOOOOO.OOOOOOOOOOO OXXXXXXXXXX.",
" XXXXXXXXXXO OOOOOOOOOOO.OOOOOOOOOOOOOO.OOOOOOOOOOO OXXXXXXXXXX.",
" XXXXXXXXXXO OOOOOOOOOOO.OOOOOOOOOOOOOO.OOOOOOOOOOO OXXXXXXXXXX.",
" XXXXXXXXXXO OOOOOOOOOOO.OOOOOOOOOOOOOO.OOOOOOOOOOO OXXXXXXXXXX.",
" XXXXXXXXXXO OOOOOOOOOOO.OOOOOOOOOOOOOX.OOOOOOOOOOO OXXXXXXXXXX ",
" XXXXXXXXXXO OOOOOOOOOOO.OOOOOOOOOOOOOX.OOOOOOOOOOO OXXXXXXXXXX ",
" XXXXXXXXXXO OOOOOOOOOOO.OOOOOOOOOOOOOX.OOOOOOOOOOO OXXXXXXXXXX ",
" XXXXXXXXXXO OOOOOOOOOOO.OOOOOOOOOOOOOX.OOOOOOOOOOX.Xoooooooooo ",
".XXXXXXXXXXO OOOOOOOOOOO.OOOOOOOOOOOOOX.OOOOOOOOOOO.OXXXXXXXXXX ",
".XXXXXXXXXXO OOOOOOOOOOO.OOOOOOOOOOOOOX.OOOOOOOOOOX.OXXXXXXXXXX ",
".XXXXXXXXXXO OOOOOOOOOOO.OOOOOOOOOOOOOX.OOOOOOOOOOX.OXXXXXXXXXX ",
".XXXXXXXXXXO OOOOOOOOOOO.OOOOOOOOOOOOOX.OOOOOOOOOOX.OXXXXXXXXXX ",
".XXXXXXXXXXO OOOOOOOOOOO.OOOOOXXXXXXXXX.OOOOOOOOOOX.OXXXXXXXXXX.",
".XXXXXXXXXXO OOOOOOOOOOO .............. OOOOOOOOOOX.OXXXXXXXXXX.",
".XXXXXXXXXXO XOOOOOOOOOOOOOOOOOOOOOOOOOOOOOOOOOOOOX.OXXXXXXXXXX ",
".XXXXXXXXXXO XOOOOOOOOOOOOOOOOOOOOOOOOOOOOOOOOOOOOX.OXXXXXXXXXX ",
".XXXXXXXXXXO XOOOOOOOOOOOOOOOOOOOOOOOOOOOOOOOOOOOOX.OXXXXXXXXXX.",
".ooooooooooX.XOOOOOOOOOOOOOOOOOOOOOOOOOOOOOOOOOOOOX.OXXXXXXXXXX.",
".XXXXXXXXXXO.XOOOOOOOOOOOOOOOOOOOOOOOOOOOOOOOOOOOOX.OXXXXXXXXXX.",
".XXXXXXXXXXO.XOOOOOOOOOOOOOOOOOOOOOOOOOOOOOOOOOOOOX.OXXXXXXXXXX.",
" XXXXXXXXXXO.XOOOOOOOOOOOOOOOOOOOOOOOOOOOOOOOOOOOOX.OXXXXXXXXXX.",
" XXXXXXXXXXO.XOOOOOOOOOOOOOOOOOOOOOOOOOOOOOOOOOOOOX.OXXXXXXXXXX.",
" XXXXXXXXXXO.XOOOOOOOOOOOOOOOOOOOOOOOOOOOOOOOOOOOOX.OXXXXXXXXXX ",
" XXXXXXXXXXO.XOOOOOOOOOOOOOOOOOOOOOOOOOOOOOOOOOOOOX.Xoooooooooo ",
" XXXXXXXXXXO.XXXXXXXXXXXOOOOOOOOOOOOOOOOXXXXXXXXXXX.OXXXXXXXXXX ",
" XXXXXXXXXXO ...................................... OXXXXXXXXXX ",
" XXXXXXXXXXOOOOOOOOOOOOOXOOOOOOOOOOOOOOOOXOOOOOOOOOOOXXXXXXXXXX ",
" XXXXXXXXXXXXXXXXXXXXXXoXXXXXXXXXXXXXXXXXoXXXXXXXXXXXXXXXXXXXXX ",
" XXXXXXXXXXXXXXXXXXXXXXoXXXXXXXXXXXXXXXXXoXXXXXXXXXXXXXXXXXXXXX ",
" XXXXXXXXXXXXXXXXXXXXXXoXXXXXXXXXXXXXXXXXoXXXXXXXXXXXXXXXXXXXXX ",
" XXXXXXXXXXXXXXXXXXXXXXoXXXXXXXXXXXXXXXXXoXXXXXXXXXXXXXXXXXXXXX ",
" XXXXXXXXXXXXXXXXXXXXXXoXXXXXXXXXXXXXXXXXoXXXXXXXXXXXXXXXXXXXXX ",
" XXXXXXXXXXXXXXXXXXXXXXoXXXXXXXXXXXXXXXXXoXXXXXXXXXXXXXXXXXXXXX ",
" XXXXXXXXXXXXXXXXXXXXXXoXXXXXXXXXXXXXXXXXoXXXXXXXXXXXXXXXXXXXXX ",
" XXXXXXXXXXXXXXXXXXXXXXoXXXXXXXXXXXXXXXXXoXXXXXXXXXXXXXXXXXXXXX ",
" XXXXXXXXXXXXXXXXXXXXXXoXXXXXXXXXXXXXXXXXoXXXXXXXXXXXXXXXXXXXXX ",
" XXXXXXXXXXXXXXXXXXXXXXoXXXXXXXXXXXXXXXXXoXXXXXXXXXXXXXXXXXXXXX ",
"              ........          ........        ......         ."
};
