/* XPM */
static char *dDE3[] = {
/* columns rows colors chars-per-pixel */
"64 64 11 1 ",
"  c #B8945F",
". c #C29D62",
"X c #967441",
"o c #AF8F55",
"O c #67502C",
"+ c #7E6237",
"@ c #8A6938",
"# c #987E47",
"$ c #999998",
"% c #8B8B8A",
"& c #7B7B7A",
/* pixels */
" .............................................................. ",
"X        ooooooooo     oooooooo        ooooo           oooooo  X",
"X          oooooo   ooooooooo           ooo       oooo  oooooo X",
"X            oooooo   oooo               ooo     oooo    oo    X",
"O     oooo  oooooo   ooo                ooo  ooo   oooo oo     X",
"O   ooooooooooo                       oooo    ooo    oooooo    X",
"X  ooo   ooooo    oo     ooo        oooooooo   oooooo  oooooo  X",
"X    oo   ooo   ooooo  oooooooo         oooooo  oooo    ooo    X",
"O        ooo  ooooooooooo   ooooo          ooooo  oooo    oo   X",
"O      ooo   oooooooooo   ooooo      ooo    ooooo   ooo  oo    X",
"O              oooooo              oooo    ooooooooo           X",
"O    oooooooo   oooooooo            ooooo       ooo   oo       X",
"O   ooo   ooooo    oooooooooo          oooo          ooooo     O",
"O       ooooo         ooooo           oooooooo      oooo       O",
"OOOOOOOOO+OOOOOOOOOOOOOOOO++++O++OOOOOOOO++++OOOOOOOOOOOOOOOOOOO",
"O@@@@@@@@@@@@@@@@@@@@@@@@@@@@@@@@@@@@@@@@@@@@@@@@@@@@@@@@@@@@@@O",
"O@@@@@@@@@@@@@@@@@@@@@@@@@@@@@@@@@@@@@@@@@@@@@@@@@@@@@@@@@@@@@@O",
"O@@@@@@@@@@@@@@@@@@@@@@@@@@@@@@@@@@@@@@@@@@@@@@@@@@@@@@@@@@@@@@O",
"O@@@@@@@@@@@@@@@@@@@@@@@@@@@@@@@@@@@@@@@@@@@@@@@@@@@@@@@@@@@@@@O",
"O@@@@@@@@@@@@@@@@@@@@@@@@@@@@@@@@@@@@@@@@@@@@@@@@@@@@@@@@@@@@@@O",
"O@@@@@@@@@@@@@@@@@@@@@@@@@@@@@@@@@@@@@@@@@@@@@@@@@@@@@@@@@@@@@@O",
"O@@@@@@@@@@@@@@@@@@@@@@@@@@@@@@@@@@@@@@@@@@@@@@@@@@@@@@@@@@@@@@O",
"+@@@@@@@@@@@@@@@@@@@@@@@@@@@@@@@@@@@@@@@@@@@@@@@@@@@@@@@@@@@@@@O",
"+@@@@@@@@@@@@@@@@@@@@@@@@@@@@@@@@@@@@@@@@@@@@@@@@@@@@@@@@@@@@@@O",
"+ooooooooooo        oooooooooooo@oooo          ooooooooooooooooO",
"+oooooo          ooooooooo      @oooooo           oooo      oooO",
"+ooooooo       ooooooo          @o  oooooo          ooo   ooooo+",
"+ooo  oooo       oooooo         @     oooooo            ooooooo+",
"+oo  oo    ooo  ooo        oooo @   oooooo    oooooo       ooooO",
"+o       oooo        ooo    oooo@           ooooooo       oooooO",
"+ooooooooooooo        oooooooooo@        ooooooooooooo        o+",
"+##############################################################+",
"+     oooooooooXoooooooooo        ooooooooo      #......       +",
"+   oooooooooo Xooooooooooooooo       oooooo     #.....        +",
"O  oo  oooo    Xooooo   oooooo       oooo        #..  ..       +",
"O     oooo     #oooo     ooooooo    ooo          #.. ..        +",
"O       oooo   # ooooo     oooooooo        .    .#.            O",
"O    $$%  oooo #    oooooo   oooo      ....     .#.     $$%    O",
"O    $%&    ooo#oo    ooo   ooo      .....     ..#      $%&    O",
"O    %&&       #oooo    oo        ....       ....#      %&&    O",
"+    ....      # oooo          .....       ......#             O",
"+. .....  ..   #   oooo         .....    ...  ...#             O",
"+.....     ..  #  oooo            ......   ..  ..#  oooo      oO",
"+....   ....   #                     .....    ...# oooo   oooooO",
"+..........    #                    .............#   oooo  oooo+",
"+.........     #              ...................#     oooooooo+",
"+@@@####################################################XXXXXXX+",
"+       .......................#..........................     +",
"+                ooooooo       #                               +",
"+                 ooooo    ooo #                               +",
"O               ooooo       ooo#                 oooooo        +",
"O              oooo oooo  oooo #                ooooo          +",
"O    $$%      ooo    ooooooo  o#                  oooooo$$%    O",
"O    $%&       ooo    ooooo  oo#                   ooooo$%&ooo O",
"+o   %&&            ooooo    oo#             oooo    ooo%&&ooooO",
"+oo       oooo     oooo   o ooo@ oooo      oooo        ooooooooO",
"+oooo      oooo   ooo     oooo @  ooooo      ooooo         oooo+",
"+ooo    ooooo      ooo ooooooo @ oooo          ooooo     oooooo+",
"+ooooooooo               oooo  @ooo       ooo   ooooooo   ooooo+",
"+ooooooo               oooo    @ ooooo  oooo  ooooooooooooooooo+",
"+oooooooooo          oooo      @   ooooooooooooo     oooooooooo+",
"+oooo   oooooo     oooo   ooo  @  oooooooooooooooo     oooooooo+",
"Oooooo    ooooo   oooo     oooo@        oooooooooooo     ooooooO",
"OOOOOOOOOO++OOOO++++++++++OOOOOOOOOOOOOO++++++++++OO++OOOOOOOOOO"
};
