/* XPM */
static char *dDE4[] = {
/* columns rows colors chars-per-pixel */
"64 64 5 1 ",
"  c #B8945F",
". c #C29D62",
"X c #AF8F55",
"o c #9F844D",
"O c #967441",
/* pixels */
" .............................................................. ",
".XXXXXXXXXXXXXXXXXX   XXXXXX                   XXX  XXXX      X.",
".XXXXXXXXXXXXXXXXX      XXXXX                   XXXXXXX       X.",
".XXXXXXXXXXXXXXX           XXXXX             XXXXXXXX         X.",
".XXX     XXXXX            XXXXXXX           XXXXXX      XXXXX X.",
".XX        XXXXXXXX  XXXoooooXXXXX            XXXXX   XXXXX   X.",
".XX     XXXX XXXX     XXXXoooooXX                      XXXXXXXX.",
".X   XXXXX     XXXXXXXXXoooooXXXX                        XXXXX .",
".XXXXXXXX        XXXXXoooo  XXXX                               .",
".  XXXX         XXXXoooo      XXXX                             .",
".   XX       XXXXX    oooXXXX XXXXXX                     XXX   .",
".  XXXXX   XXXXX     oooooooXXXXXXXXXX                 XXXX    .",
".   XXXXXXX       XXXXXXoo    XXXXXX      XXX           XXXXXXX.",
".    XXXXX      XXXXXXX        XXXX     XXXX       XXX      XXX.",
".      XXXXX       XXXXX      XXX         XXXX    XXX      XXXX.",
".                     XXX      XXX   XXX   XXXX    XXXXXX     X.",
".  XXXXX      XXX    XXX              XXXXX         XXXX       .",
". XXXX      XXXX                    XXXXX       XXXXXXX        .",
".XXXXXX  XX  XXXXXX                  XXXXXXXX    XXXXXXX       .",
".XXX      XXXXXXX                     XXXXXXXXXXXXX   XXXX     .",
".XX      XXXXXXXXX                      XXXXXXXXX      XXXXX   .",
".OOOOOOOOOOooooooOOOOOOOOOOoooOOOOooooooooooooOOOOOOOOOOOoooooo.",
".      .........       ..................................      .",
".                                                              .",
".                                                              .",
".                 XXXXX                                        .",
".     XXXXX    XXXXXX                                          .",
".      XXXXXX   XXXXXXXX  XXX                                  .",
".XXXXX   XXXXXXXXoooooooXXXX                                 XX.",
".  XXXX    XXXXXoooooXXXXXXXXX                              XXX.",
".    XXXXX  XXooXXooooXXX  XXXX                            XXXX.",
".  XXXXX     XXooXXXoooX     XXX                        XXXXXXX.",
".XXXX         XXXXX         XXX                 XXXX     XXXXXX.",
".XX          XXX                       XXXXXXX    XXXX      XXX.",
".XXoooo                              XXXXX  XXX     XXXXX    XX.",
".XXXoooo         XXXX              XXXXX   XX      XXXXX    XXX.",
".Xoooo   XXXX     XXXX           XXXXX          XXXXXX    XXXXX.",
".oooo  XXXooo   XXXX              XXXXXXX    XXXXXXXX  XXXXXX  .",
".oooXXXXXXXooooXXX                   XXXXXXXXXX   oooXXXXX     .",
".XooooXXoooooXXXX                   XXXXXXXXXX     oooooXXXX   .",
".XXooooooooXXXXXXXX            XXXXXXX     XXXXXXooooooXXXXXXX .",
".XXXXXooooXXXXXXXXXXX            XXXXXX     XXXoooooooooooXXXXX.",
".OOOOOOOOoooooooOOooooooooooOOOOOOOOOooOOoooooOOOoooooooooooooo.",
".      ......................          ..................      .",
".                                    XXX                       .",
".                        XXXX      XXXX                       X.",
".        XXXXX            XXXXX      XXXXXXXX                XX.",
".XX     XXXX             XXXX         XXXXX               XXXXX.",
".X     XXX                XXooXXXooooXXX      XXXX         XXX .",
".XXX    XXXX              XooooooooXXX     XXXX         XXXXX  .",
". XXXooXXXXXXX           XXXXoooooooXXXXXXXXXX                 .",
".  oooXXXXXX   XXX      XXXXooooXXXXXXXXXXXXX       XXX       X.",
". oooXX   XXX   XXX    XXXX  XoooXXX   XXXX        XXX     XXXX.",
".ooo     XXoooXXXX    XX      XXXX      XXXX        XXXXXXXXXXX.",
".ooooo      oooo               XXXXXXXXX               XXXooXXX.",
".XXXooooooooooXXX               XXXXXXXXX               oooXXXX.",
".XXXXXXooooXXXXX            XXXXXXX  XXXXX            XoooXXXXX.",
".XXX   XooooXXXXXXX          XXXX   XXXX             XXXooooXXX.",
".XXXX   XXooooooooXXX              XXX            XXXXXXXXooooo.",
".XX    oooooooooXXXX                XXX    XXXX    XXXX     ooo.",
".XXXXoooooXXXooooX   XXX                 XXXXX    XXXX       oo.",
".XXXoooooXXXXXXooo  XXX                    XXXXXXXXXXXX   XXXXo.",
".XXXXXooooXXXXXXooo  XXXXX                   XXXXXXXXXXXXXXXXXo.",
" .............................................................. "
};
