/* XPM */
static char *dDE5[] = {
/* columns rows colors chars-per-pixel */
"64 64 11 1 ",
"  c #B8945F",
". c #C29D62",
"X c #967441",
"o c #AF8F55",
"O c #67502C",
"+ c #7E6237",
"@ c #987E47",
"# c #999998",
"$ c #8B8B8A",
"% c #7B7B7A",
"& c #9F844D",
/* pixels */
" .............................................................. ",
"X        ooooooooo     oooooooo        ooooo           oooooo  X",
"X          oooooo   ooooooooo           ooo       oooo  oooooo X",
"X            oooooo   oooo               ooo     oooo    oo    X",
"O     oooo  oooooo   ooo                ooo  ooo   oooo oo     X",
"O   ooooooooooo                       oooo    ooo    oooooo    X",
"X  ooo   ooooo    oo     ooo        oooooooo   oooooo  oooooo  X",
"X    oo   ooo   ooooo  oooooooo         oooooo  oooo    ooo    X",
"O        ooo  ooooooooooo   ooooo          ooooo  oooo    oo   X",
"O      ooo   oooooooooo   ooooo      ooo    ooooo   ooo  oo    X",
"O              oooooo              oooo    ooooooooo           X",
"O    oooooooo   oooooooo            ooooo       ooo   oo       X",
"O   ooo   ooooo    oooooooooo          oooo          ooooo     O",
"O       ooooo         ooooo           oooooooo      oooo       O",
"OOOOOOOOO+OOOOOOOOOOOOOOOO++++O++OOOOOOOO++++OOOOOOOOOOOOOOOOOOO",
"OXXXXXXXXXXXXXXXXXXXXXXXXXXXXXXXXXXXXXXXXXXXXXXXXXXXXXXXXXXXXXXO",
"OXXXXXXXXXXXXXXXXXXXXXXXXXXXXXXXXXXXXXXXXXXXXXXXXXXXXXXXXXXXXXXO",
"OXXXXXXXXXXXXXXXXXXXXXXXXXXXXXXXXXXXXXXXXXXXXXXXXXXXXXXXXXXXXXXO",
"OXXXXXXXXXXXXXXXXXXXXXXXXXXXXXXXXXXXXXXXXXXXXXXXXXXXXXXXXXXXXXXO",
"OXXXXXXXXXXXXXXXXXXXXXXXXXXXXXXXXXXXXXXXXXXXXXXXXXXXXXXXXXXXXXXO",
"OXXXXXXXXXXXXXXXXXXXXXXXXXXXXXXXXXXXXXXXXXXXXXXXXXXXXXXXXXXXXXXO",
"OXXXXXXXXXXXXXXXXXXXXXXXXXXXXXXXXXXXXXXXXXXXXXXXXXXXXXXXXXXXXXXO",
"+XXXXXXXXXXXXXXXXXXXXXXXXXXXXXXXXXXXXXXXXXXXXXXXXXXXXXXXXXXXXXXO",
"+XXXXXXXXXXXXXXXXXXXXXXXXXXXXXXXXXXXXXXXXXXXXXXXXXXXXXXXXXXXXXXO",
"+     oooooooooXoooooooooo        ooooooooo      @......       O",
"+   oooooooooo Xooooooooooooooo       oooooo     @.....        O",
"+  oo  oooo    Xooooo   oooooo       oooo        @..  ..       +",
"+     oooo     @oooo     ooooooo    ooo          @.. ..        +",
"+       oooo   @ ooooo     oooooooo        .    .@.            O",
"+    ##$  oooo @    oooooo   oooo      ....     .@.     ##$    O",
"+    #$%    ooo@oo    ooo   ooo      .....     ..@      #$%    +",
"+    $%%       @oooo    oo        ....       ....@      $%%    +",
"+    ....      @ oooo          .....       ......@             +",
"+. .....  ..   @   oooo         .....    ...  ...@             +",
"O.....     ..  @  oooo            ......   ..  ..@  oooo      o+",
"O....   ....   @                     .....    ...@ oooo   ooooo+",
"O..........    @                    .............@   oooo  ooooO",
"O.........     @              ...................@     ooooooooO",
"OXXX@@@@@@@@@@@@@@@@@@@@@@@@@@@@@@@@@@@@@@@@@@@@@@@@@@@@XXXXXXXO",
"O         ...............XOOOOOOOOOOOOX..........              O",
"+            ..........XOOOOOOOOOOOOOOOOX......             .. O",
"+             .......XOOOOOOOOOOOOOOOOOOOOX...    ...     ...  O",
"+     ...  .........XOOOOOOOOOOOOOOOOOOOOOOX....   .....   ....O",
"+   .................XOOOOOOOOOOOOOOOOOOOOX...........    .....O",
"+ ....   ..............XOOOOOOOOOOOOOOOOX............         .+",
"+....     ...............XOOOOOOOOOOOOX................        +",
"+&&&&&&&&&&&&&&&&&&&&&&&&&&&&&&&&&&&&&&&&&&&&&&&&&&&&&&&&&&&&&&+",
"+       .......................@..........................     +",
"+                ooooooo       @                               +",
"+                 ooooo    ooo @                               +",
"O               ooooo       ooo@                 oooooo        +",
"O              oooo oooo  oooo @                ooooo          +",
"O    ##$      ooo    ooooooo  o@                  oooooo##$    O",
"O    #$%       ooo    ooooo  oo@                   ooooo#$%ooo O",
"+o   $%%            ooooo    oo@             oooo    ooo$%%ooooO",
"+oo       oooo     oooo   o oooX oooo      oooo        ooooooooO",
"+oooo      oooo   ooo     oooo X  ooooo      ooooo         oooo+",
"+ooo    ooooo      ooo ooooooo X oooo          ooooo     oooooo+",
"+ooooooooo               oooo  Xooo       ooo   ooooooo   ooooo+",
"+ooooooo               oooo    X ooooo  oooo  ooooooooooooooooo+",
"+oooooooooo          oooo      X   ooooooooooooo     oooooooooo+",
"+oooo   oooooo     oooo   ooo  X  oooooooooooooooo     oooooooo+",
"Oooooo    ooooo   oooo     ooooX        oooooooooooo     ooooooO",
"OOOOOOOOOO++OOOO++++++++++OOOOOOOOOOOOOO++++++++++OO++OOOOOOOOOO"
};
