/* XPM */
static char *dDI_[] = {
/* columns rows colors chars-per-pixel */
"64 64 68 1 ",
"  c #0E750E",
". c #0E7C0E",
"X c #176617",
"o c #166C16",
"O c #186718",
"+ c #186B18",
"@ c #157515",
"# c #147C14",
"$ c #187218",
"% c #187B18",
"& c #068F06",
"* c #0E840E",
"= c #0C8C0C",
"- c #069406",
"; c #059C05",
": c #0C940C",
"> c #0C9C0C",
", c #138413",
"< c #138B13",
"1 c #188318",
"2 c #188B18",
"3 c #119311",
"4 c #119B11",
"5 c #05A405",
"6 c #04AC04",
"7 c #0AA10A",
"8 c #0AA70A",
"9 c #0DA20D",
"0 c #0FA30F",
"q c #08A808",
"w c #08A908",
"e c #08AC08",
"r c #08AE08",
"t c #0DAA0D",
"y c #0CAE0C",
"u c #00B300",
"i c #02B602",
"p c #05B105",
"a c #04B404",
"s c #00B800",
"d c #02BC02",
"f c #04B904",
"g c #05BD05",
"h c #08B308",
"j c #0AB60A",
"k c #0CB10C",
"l c #09BB09",
"z c #08BE08",
"x c #11A311",
"c c #12A312",
"v c #10AA10",
"b c #00C100",
"n c #04C104",
"m c #04C404",
"M c #05C405",
"N c #05C705",
"B c #02C902",
"V c #00CC00",
"C c #04CE04",
"Z c #09C209",
"A c #08C508",
"S c #00D200",
"D c #02D502",
"F c #04D004",
"G c #00D900",
"H c #01DD01",
"J c #04D904",
"K c #00E200",
/* pixels */
",$,=DGr4#%,>iV5341%>uSw3x%$7dba:w%,xVd5x3%3yf663<13>ii-#:#,>uij#",
"d=w=MFdn;rr>rb6nd0-85niMC:;8aiN5d=6tMiaDi0wh66iCnkz>u6;6g:w85uM6",
"r:>*lnah-j>:8a5ah8=>>fwaz->>8wf>w&>:arrM68>07;rzrlt:75&;r:7>;5d>",
"7*=@>h88=t3#*8>87>.2:w>8y=,,:>h&0*<,>87j>>:<=:5w7x4,>-&:7*:2:;r=",
"3@%O%<:3*4#$o:<::<$%%<=44%%%%,>#:@%$1<:x=<1%%#:4:3<$,# *:%21%,>#",
"%%=;@%,2$%<5%2,%#,,8,,%,<$<w%$%X%o2-%%1<%%3>#%%2%%<5,$+@2$vF@$%O",
",ndiw<%4,-id5313386ij<$<4-fl5,%o,:6;j,%x,rd68*,437nd8<%#45HK-,$*",
"6Si6ad;Bu;6drnjBSd66fr>aC5ww5w5-r-5:lf7Midd5w6wbBudi5ff6BdSS;i;B",
"6b65wr;d6;66>hgiMa5>r755f>>4:>w&x&:,065f8rr:>;rdi6a5>rb;biBn&8;g",
"-d6>>>:6-&>7=7y6kw:<3==>y:33,,>.3#%$,::t>7>*,=>w8>8>=>j-argl*>:h",
"=w>:,:,7&=->,34>4:=><,#*4,0M%@#+%%:;#@<4<30>,,34>:>:#30=77w7@=*0",
"#>,,12%4,.=<,,<4>>7732,*>>CV-<@,=gi67,%4=-8>:#23::>,,,3,>332X%@3",
"+#$#Fv%3,#,38:<3x->>8w0-zagM;u-B6Vu6aa=a8-78884>433:w:2,3<,#;=%%",
",@*;KGw>*<>5fiw6t>065dg>lwgM-r7g6Mr5wa>a7&8aruatt>>6ii;=x,:8udn,",
"B-i;VViB6fg8waadbw88>af5frnl=>-r-fw>08>Z6;8a5rinnaawi6;uB;ij6iS6",
"f;8-gbig5gr-7w5aa57:*8h>r8r0#<=>&6;:<>&w>;>>:7ajfzw:55;5g;6556n6",
"h:>*rj8w-r4=:>>70>:##<4:x:3,o#%:.>*,23*x&**<,<00xw:<4>=-w:>:>5f-",
"0*=@0w>0=0<%>:<3<<<%;:,,3,$@;=,%O@$@Cx%3%@#25:<343,,>>*=>*=2:>k=",
"3#%@3>:4<<,3:7>::,2>66-<>%<86ig*,@<:HD>>.,<>5i>>>2,3->=<4#2<<=>%",
"%%=5,,:x33>6>>8hrtara6;8g:fa6iS6B;a;CVdM;yawww5jw4-r:>=3x%tM,#%o",
",gdu64<y-5adw70hhfu5a6-5f>aw66M5g;8-MMaz;Ma8rr5jrrra58::t5SD;=@,",
"6Bu6ad>B658686agzfw>r5-5l-7>;wg-r:>*lnaf>gt-5a5ag8555ga6Mabn;a;B",
"6b870w;g8;>>:;ahrw0<x-&-w=4<:-h=8*=#>h8w:y>#=87ww7:>:rj5grah&8;d",
">a7-3::y:=:<,=00>4<%,* <>%<,#,>.:@@o,<:4*4,@@3:>>:,<,>0>w>8x,>:h",
"&6>>,2,4,#:>,#<<2,3w,$@@<@vC%$@+%%=;$@,<$,=>#<<,<2*5,<4<4=xy#*=>",
"#>:>3,#>=>a6>#2>35bi8,#.45KK-,@*,giu8<,>*;ii73,3:;66x<2=4>60,%@3",
"o,,:At=jw5a5r;xgb6biwij6BdDS-f;B6Si6ai-M6;ia6nhgMu66fw>wZ7>084#%",
",%>8nf5lr5f8w;aaf6gr5rn;bdFM&w;d6ni5wa;g5;6a5znlna5rarr5Z>7auda=",
"B;i5ww5naag>>:waj5a8-0l-jagz*>:r-g5>40:a>-5w:rajZa;8w05rM5auwrn6",
"g58:3:>j88w=<*>w8>w*%36=88a0@<*0=a>-2:*>&&->,xtxy8:=<3>>l5>037i6",
"j::%%%,x>44%,o<3:<>++#3,:33%+@@3,>,%1<#>, #,O23343 ,,2,3x:<%2<>-",
"0,%%z,o32,21r#,1%,2%8=1$2,%$;=%%O@+%Zx$2@++1w3,%2,+154%13%$%f<,=",
"x%,0Sd8x3%3ti6h3213>du-#4%<>uif#,$,=SGr4#%%>dV7341%>uS53x%@7bbj:",
"d=wwgiiGf08aa5dCdyl>u6;5g:w05iB5g=8=MVdn;hr;rnung0:w5BinC:>wain5",
"j&>>l6wMww>>8;rgajt:85&;h&0>>6d-h:>*znaj-j>:5a5ah8=->fwjz::>7rd-",
"7,<,>78j>0:<*:8r804,>-&-7*3,:-r=>=<@4a>8=t=#*w>w7>.23w;7r=<,:>k&",
"3$#o%=3x<2,%%*:4:31%%, *3#<1%*>#:@%O,<:3*3%$o3=3:<$%%:=4>%%%%,>#",
"#$,>%%,2#%3>#$%,%%<>,$+$2$vF%$%+%%<;$%,2@%<8%2,%%1,5,,%,<+<w%@#+",
",:65w,#x,wd6w,,435Bd5<%.35HK-,@,,gdiw<%4,-id53,33w6ih<@<4>dl>*%o",
"w-5:zf7Mddi6658Bnuduwgg6VdDD-i>B6Sa6ad;Bu;udrnjBSg66jr>uC5ww568-",
"0&:*0w5l5ah:>>rid5a5>wM5biBb&t;g6B66xw;d6;56>agfbu5>t758g>04>>r-",
"3%#$,3:0>7>,,&>8w58>:>j:rrgl*>-r-d5->>:r;-;>=0ywh8:=3==-t=33,,:#",
"%,=;@#<4<3>>,,<3>:0=#30=0>60$<*>=6>:2:*7&*->,34>4::><,,,4,0M#$#+",
",gd65,%4<-w7:,2:3:>*,#3*4>3<+@#:%>*,,<#4,.:<,1<>4>>03,,*47BS-*$,",
"6Su5ah=j8-08rx4>4>3=5:<,3<,%;=%%o%$#Ct@3,#,38:<>x:>>5w0-frnM;a-B",
"5M65wa;j7&7u6aa804>wii>=x,3widn**$<-GG80=<>5iiwxy>7r8ag>frgM-65g",
"-d6;07;g5;8a5rfNnfgwu6;uB;fa6iS6B-a>SVgB6fg5ruabbwr8;hf5Zrfl=>:r",
"&a>:<>:r;>;0:7wzffw:75;5d;w556n5d56&gnig;fr>7556a5>:<0r;r8a0 <=7",
"#>*,13,x=*,=,<7800><:>&>w:>::5f>h->*hh5w-k>*>:>7x>:%%3>&4::,+%@:",
"O%$$Ct%3%@#<7:<343,,>:.=>,3,>-r=0**@0t>0<0<%>:33=<,,>:2,3,@$;<%%",
",%,-GD54*%<>ra>>4<,=>>*<>#22<*>,3@%$3>>4<<<::7>::2<>6u-*4%<8uin,",
"B-u;CCdn;ha8wr>aw:>r>>=:x#yM,#%O%#:5,,3x:3>r>>7hwtu8aw;6n:fa6iS6",
"d;8-MBig;Za86a>jhw6a88::t5SD;<@*,gduw><y:5uar57jrza5aw-8d>aw56B6",
"r:>*zbrl;lw-5awfgw555gjuMabb;a;N6Su6ai7Br55rw6aggaw>r5-7f->>;5g-",
"7==#>h5w:w:,=85ww7:>:wa5graj:w;g6n6;06;l5;>>:>6jhwx=0-:-w=42:>r=",
"3@@O,<:4<4,@@3:>>:,<,>0>w>xt*>:r-a7:3::w:=3:,<>0>42#,* =>%<,#*>#",
"%%<;@@,<%,=>#2<,,<<5,23<4=x6#=*0=w:0,<,><#:;,%<<,,:8,$o#<@vF%$#+",
",giuw<1>*-id7:,::8668<2=4>60,#@3%>:>3,%4<-a8>,2>47dd8*#.>8HK-,$,",
"uSi6ad-n6;6iwnhgBa66a808Z>>08>,%o,,:Aw=lr5f5r;7gb6biwiz5BbDD;d-B",
"5Bu58h;f6;667lnln658ar65Z7>huia*<,-8Ma8jwwf58;aigwdr>aM;giVM&w;b",
"-g5>:7:a;-58:kljga57505rN5rawrM6B>u5j6>nawg7>&waawi8:>f:6aMf*>:6",
"=h>:24*8:=->,>t8kw:=<:>>z>7037i5d58:3:>j88r=2,>tx;6*#3y=88h0@<=7",
"#:*%12%:, #,+<334:#%12<:0:<%2<0-h:3%%@,0>4>%,+<33=4++%3,>:<%+@@3",
"o%$@n0$<$+$1w3%%2,o154%%3,$%a<,=0,%%z<o32,21a#1,%,2@r,1%2,%$;<@%"
};
