/* XPM */
static char *dDIx[] = {
/* columns rows colors chars-per-pixel */
"64 64 14 1 ",
"  c #22B59E",
". c #24A7AD",
"X c #398382",
"o c #1F5752",
"O c #287067",
"+ c #279994",
"@ c #2E5F51",
"# c #3A8E8C",
"$ c #6C667A",
"% c #5E596B",
"& c #524B5D",
"* c #483F51",
"= c #1E4340",
"- c #113835",
/* pixels */
"        .       .            .         .       .               X",
".XXXXXXXXXXXXXXXoXXXXXXXXXXXXXXXXXXX OOOOOOOOOOo+XXXXXXXXXXXXXXO",
".XXXXXXXXXXXOXXXoXXXXXXXXXXXXXXXXXX  OOOOOOOOOXo+XXXXXXXXXXOXXXO",
".XXXXXXXOXXXOXXXoXXXXXXXXXXXXXXXXXX  OOOOOXOOOXo++XXXXXXXXXOXXOO",
". XXXXOXOXXXOOXXoXXXOXXXXXXXXXXXXXX OOOOOOXXOXXo++XXXXXXXXOOOXOO",
". XXXXOXOXXXOOXXoXXOOXXXXXXXXXXXXX  OOOOOOXXOXXo+++XXXXXXXOOOXOO",
".  OXOOOOOXOOOOXoXXOOXXXXXXXXXXXXX  OXOOOOOXXXOoO++++XXXXXOXOOOO",
".   OOOOOOXOOOOXoXOOOOXXXOXXXXXXX. OOXXOOOOXXXOoO+++.+XXXXXXOOOO",
".@   OXOOOOOOOOOoXOOOOXXXOXOXXXX..OOXXXOOOOXXXOo@O+++...XXXXXOXO",
".@@   XXOOOOOOOOoXOOXOXXOOOOXXX...OOXOXOOXOOXOOo@OOO++...   XOXO",
".O@@   XOOOOOOOOoOOOXOXXOOOOOO...@OOXOXOOXOOXOOo@@@OO+++...    X",
".O@@@    .OOOOOOoOOOXXXOOOOOO....@@OXOOOOXOOOOXo@@OO@@@OOO...   ",
".XO@@@    ...++++OOOOXOOOOO....OO@@OXXOOXXXOOOXo@@@@@oooooooo@@@",
".XO@O@OOO......+++OOOOOOOO....@OO@@OXXXOXXXOOXXoXXXXXXXXXXXXXXXo",
".XOXO@OXOOO.....++++++++.....@@@O@@OOXXOXXXOOXXoXX#XXXXXXXXXXXXo",
"XXXXOOOXOXO@@...+++++++.....O@@@O@@OOXXOXXXOOXXoXX#XXXXXXXXXXXXo",
"$$$$OOXXXXX@@@@@+++++.....OOO@@@@@@OOXXOXXOOXXOoX###XXXXXXXXXX#o",
"%%%%@OXXXXOO@O@@++++...@@@OOO@O@@@XOXXXXXXOOXXOoX###XXXX#XXXXX#o",
"%&&&@O@OXXOO@O@@+++++@@@@OOOO@O@@@XXXXXXXXOXXXOoX####XXX#XXXXX#o",
"%&**@@@OXXXOOO@..++@@@@O@OOOOoO@@OXXXX#XXOOOXXOo######XX#XX#X##o",
"%&**@@@OXOXOO@@ .+@@@@@O@OXOOoOO@OXXXX#XXOOOXOOo######X##XX#X##o",
"%&**@@XOOOXXO@  .@@O@@OOOOXOOoXO@OXXXX#XXOOOXOOo##X###X###X#X##o",
"%***O@XOOOXXOO .o@@O@@XOOXXXOoXOOXXXXX##XOXOXOOo##XX###########o",
"****OXXXOXXXO  .o@OOO@XOXXXXXoXOOXX#X###X#XOOOOo##XX##########Xo",
"XXXXOOXXOXXX   Oo@OOXOXOX#XX#oXOOXX#X#####XOOOOo#XX@X###X#####Xo",
"XXXXXOXXOXXX  .OoOOOXXXOX#XX#oXXOXX#X#X####OOOXo#XX@X###X##X#XXo",
"XXXXXOXXXXX  .O@oOXOXXXXX#X##oXXOXX#X#X####XOOXo#XX@XX#XX#XX#XXo",
"XXXXXXXXX    OO@oOXOOX#X#####@#XOX##XXX####XOXXoXX@@XX#XXXXX#XXO",
"#XXXXXXX   .O@O@oOXOOX#X#####@#XXX###XXX#X#XOXXoXX@@XXXXXXXXXXXO",
"#XXXXXX  ..OO@@@oOXXO########@#XX####XXX#X#XXXXoXX@@@XXXXXXXXXXO",
"#.XXXX  ..O@O@@@oOXXX#X####X#@##X####XXX#XXXXXXoXX@@@XXXXXXXXX  ",
"#..X   ..OO@@@@@oXX#XXX####XXO##X##X#XXXXXXXXXXoX@@@@XXXXXXX   O",
"#..  ...OO@@@@@Oo#X#XX#####XXO#####X#XXXXXXXOXXoX@@X@XXXX     @O",
"#. ....OOO@O@O@Oo####X#####X#OX####XXXXXXXXXOXXoX@@XXXX  ... @@@",
"#.OOOOOOOO@O@X@Oo##########X#OX###XXXXXXXOXXOOXo@@@XX   ...  @@@",
"#.OOOOOOOOXOOXOOo##X#########OX###XXXXXXXOXXOOXo@@@   ...   @@O@",
"..OOOOXOOXXXOXXOoX#X##X##X###OXX#XXXXXXXXOXXOOXo@@ .....  @@@@OO",
". OXOOXOOXXXOXXXoX#XX#XX#X##XOXX#XXXXXXXXOOXOOXo@.....@@@@@@@OOO",
"  OXOXXXOXXXOXXXoXXXXXXXXX##XOOXXXOXXXXXOOOOOOXo@...@@@@@@@@OOXO",
"  OXOXXXOXXXXXXXoXXX#XX#XXX#XXOXXXOXXXXXOOOOOOOo...@@@@O@X@@OOXX",
"  XXOXOXOXXXXXXXoXXX##X#XXX#XXOOXXOXXXXXOXOOOOOo..@@O@@OXXO@OOX.",
"  XXOOOXXXXXXXXXoXX###X#XXXXXXXOXXOXXXXXXXXOOOOo.@@OXO@OXXXXOXX.",
"  OXOOOOXXXXX#XXoXX######XXXXXOOXXOXXXXXXXXOXOOo@@@OXX@XXXXOOX..",
"  O@O@OOXOXXX#XXo#X#X####XXXXOOOXOOOXXXXXXXOXOOo@@OXXXOXXOXOOX.O",
"  O@@@O@XOXXX#XXo#XXX####XXXXOOOXOOOO.    XXXXOoO@OXXXXXXOOOO..O",
"  O@@@@@OOXXX#XXo##XX####XXXXOOOOOO..        XOoO@OXOXXXXOOO..OO",
"  OO@@@OOOXX###Xo##X###X#XXXXOOOOO..            OOOXOXXXXXO..OOO",
"  OX@O@OOXXX###Xo#####XX##X#XOOOO..  XXOOO@       OOOXXXX....OOo",
"  XX@OOXOXXX###Xo#####XX##X#XOOO..@XXXO@O@@@O        XX.....OOO@",
"  XXOOOXOXXX###XoX####XXX###XOO...@O@OO@@@@@OO@       ....OOOXOo",
" #XXXOXXXXXX#X#XoXX###XXX####OO..@@@@O@@@@O@@O@oOOOOO  .OOOOXXOo",
" #XXXOXXXXXXXX##oXXX##XXXX###O..@O@@@O@@@OO@@@@oOOOOOOOOXOOOXXXo",
" #XXXOXXX#X#XX##oXXX#XXXXX###O..@OO@@O@O@OOO@@@oOOOOOOOOXXOOXXXo",
" #XXXOXXX#X#XX##oXXXXXXXXX#X#..@@OO@OOOOOOOOO@OoOOOOOOOXXXOOXXX@",
"##XXXXXXX###XX##oXXXXXXOXXXX#..@@OX@O@OOO@OOOOooooOOOOOOOOOOXXX@",
"##XXXXX#X####X##oXXXXOXOXXXX..@@OOX@@@O@O@OOoo  ##@@OOOOOOOOXXXo",
"#XXXXXX######X##oXXXXOXOXXXX..@OOXX@@@O@@@Oo      ##@OOOOOOOXXXo",
"@XXXXXX########XoXOXXOOOXXX+..@OOXX@@OOO@@o    ###XXX@OOOOOOXXX@",
"@XXXXX#########XoXOXOOOOXXX+.+@OXXXO@OOO@@o ########X@O@OOOOXX@@",
"@XXXXX#########XoXOXOOOOXOX+.+OOXOXO@OOO@=   ##XX###XX=@OO@OOX@@",
"$$$$XX#X######XXoOOXOXOOXOX++@XOOOXOOOOOO=####XX###XXX=@OO@OOX@@",
"%%%%XX#X######XXoOOXXXOOOO+++@XOOOXOOOOOOO-##XXXXXOOX-@@O@@@O@@@",
"%&&&XXXXX#X##XXXoOOXXXOOOO+++@XOOXXOOOOOOO-####OOOOXO-@@@@@@O@@@",
"%&**XXXXX#XX#XXXoOOXOXOOOO++@@XXOXXOXOOOOOo-XXXXOOOO-@@@@@@@@@@o"
};
