/* XPM */
static char *dDIy[] = {
/* columns rows colors chars-per-pixel */
"64 64 218 2 ",
"   c #205D5A",
".  c #205D5B",
"X  c #2A5859",
"o  c #2A585A",
"O  c #2B5F58",
"+  c #2C5F58",
"@  c #3F5657",
"#  c #365A57",
"$  c #345358",
"%  c #345359",
"&  c #365A58",
"*  c #16615B",
"=  c #2D6657",
"-  c #2E6656",
";  c #216359",
":  c #226359",
">  c #266959",
",  c #386255",
"<  c #386256",
"1  c #316C57",
"2  c #326C57",
"3  c #396954",
"4  c #3A6954",
"5  c #3E6E54",
"6  c #306558",
"7  c #306559",
"8  c #3A6058",
"9  c #3A6F5F",
"0  c #367257",
"q  c #39705F",
"w  c #38775E",
"e  c #38775F",
"r  c #3E765F",
"t  c #397D5E",
"y  c #397D5F",
"u  c #3D7D5F",
"i  c #2A5F64",
"p  c #345A63",
"a  c #345B63",
"s  c #166865",
"d  c #166866",
"f  c #156F65",
"g  c #1F6B64",
"h  c #1E6B65",
"j  c #167565",
"k  c #167665",
"l  c #1F7164",
"z  c #1D7A6F",
"x  c #166F70",
"c  c #167071",
"v  c #157670",
"b  c #157770",
"n  c #137E70",
"m  c #167D70",
"M  c #147E70",
"N  c #1D7A70",
"B  c #16777B",
"V  c #16777C",
"C  c #157E7B",
"Z  c #1F7A7A",
"A  c #1E7A7B",
"S  c #206365",
"D  c #206465",
"F  c #296664",
"G  c #216B63",
"H  c #226A63",
"J  c #2E6D61",
"K  c #2A6C64",
"L  c #2A6D64",
"P  c #2A666F",
"I  c #2A676F",
"U  c #296D6F",
"Y  c #296E6E",
"T  c #2B6E6E",
"R  c #2C6E6E",
"E  c #336263",
"W  c #366162",
"Q  c #366262",
"!  c #3A6762",
"~  c #356961",
"^  c #346863",
"/  c #366F61",
"(  c #386960",
")  c #3A6862",
"_  c #396F62",
"`  c #207263",
"'  c #267163",
"]  c #267064",
"[  c #2C7461",
"{  c #2D7461",
"}  c #217863",
"|  c #247863",
" . c #257863",
".. c #257E63",
"X. c #2D7A61",
"o. c #2D7B61",
"O. c #21726F",
"+. c #22726E",
"@. c #27756F",
"#. c #2A746F",
"$. c #2D756C",
"%. c #2E746C",
"&. c #26786F",
"*. c #2C7C6B",
"=. c #297B6E",
"-. c #2D7B6C",
";. c #297C6D",
":. c #367060",
">. c #377060",
",. c #377660",
"<. c #367A62",
"1. c #3F7C60",
"2. c #30746E",
"3. c #317B6C",
"4. c #327B6D",
"5. c #206B70",
"6. c #20727B",
"7. c #20737B",
"8. c #227979",
"9. c #217A79",
"0. c #267F79",
"q. c #267F7A",
"w. c #405657",
"e. c #415D55",
"r. c #425D55",
"t. c #445C57",
"y. c #436453",
"u. c #446453",
"i. c #456355",
"p. c #466356",
"a. c #456B52",
"s. c #476A53",
"d. c #476A54",
"f. c #406E56",
"g. c #4A6955",
"h. c #427554",
"j. c #427555",
"k. c #497152",
"l. c #4D7752",
"z. c #4E7753",
"x. c #4C7054",
"c. c #467B55",
"v. c #427C5F",
"b. c #507654",
"n. c #527D53",
"m. c #407561",
"M. c #3D835F",
"N. c #1F816E",
"B. c #1F866F",
"V. c #148470",
"C. c #158470",
"Z. c #1F8670",
"A. c #158B70",
"S. c #13857B",
"D. c #13867B",
"F. c #16847B",
"G. c #1D817A",
"H. c #128D7B",
"J. c #1F8879",
"K. c #1E8F78",
"L. c #1F8D7A",
"P. c #13937B",
"I. c #15927B",
"U. c #1F9578",
"Y. c #14997B",
"T. c #1F9C78",
"R. c #1F9C79",
"E. c #23876E",
"W. c #2B836B",
"Q. c #2D826B",
"!. c #2D826C",
"~. c #2D826E",
"^. c #208D6E",
"/. c #2C896B",
"(. c #2A896D",
"). c #2B896D",
"_. c #2F896C",
"`. c #358161",
"'. c #368661",
"]. c #368761",
"[. c #36816C",
"{. c #36806D",
"}. c #35876C",
"|. c #338F6C",
" X c #348F6C",
".X c #25936E",
"XX c #2C906C",
"oX c #30966C",
"OX c #31966C",
"+X c #208079",
"@X c #218679",
"#X c #218779",
"$X c #248679",
"%X c #258679",
"&X c #238E79",
"*X c #219479",
"=X c #229579",
"-X c #239B79",
";X c #259B79",
":X c #23A279",
">X c #41835F",
",X c #46825F",
"<X c #41895F",
"1X c #45895F",
"2X c #568353",
"3X c #408361",
"4X c #468260",
"5X c #167E86",
"6X c #158586",
"7X c #168B86",
"8X c #138D85",
"9X c #159386",
"0X c #129485",
"qX c #119B85",
"wX c #139A85",
"eX c #159985",
"rX c #14A185",
"tX c #14A785",
/* pixels */
"l.2Xh.s.k.h.<.>Xg.: + -.v : v l r  .J , s.3 #.9XG.F >.,.6Xn J.W.OX X+.s./.N s H = 3 u.v 6X+.0XR.;X:XP.z = E.%.-.Z C h H -.= _ s.",
"9 c.c.l.5 c.v.9 h.G 2 G x -.n w -.3 = 3 5 s.6X6XV 9.E.D.D.8X0XA q @.@.%.> -.8.H : q s.q 5X6XqXR.rX+.n N.> 2 *.6Xs 9.N V V $.6X>X",
"b.4 0 k.'.l.4 0 G  .2 h.G -.9 J 9 3 = n.t v.s.1 6X6XW.J J.-.-.H.Q.E.n -.X.= : = g | 1 s.$X6XJ.P.A +.n /.t G = s v 6X= V 8.-.*.{ ",
"l.u.f.* = 0 5 * ' 2 2 w 9 [ 9 %.< 9 u.h.v.h.<.B J 8.1.J.0XP.0XD.$.;.  * = * 5 * ' k.1 w J.[ J.8XE.6.T 4 q . s 5X1 h #X8.6XP.*.D.",
"b.= 3 O f J g.5 = 0 /.M.` : : X.L >.4 k.M.v.f.= #.k.qX*X,.4 3 X.2.g.: O f J s.5 s.3 (.M.w 3 z P.q.$XE.y.w 9 . x = 4.!.$XG.N.N.P.",
"u.f.3 G + = J : D v X.m.2 l.> 2 >.>.f.w u.4 w h.9 -.V J k.8.4.&.R x : 8.O d.J 4 _ -.C q k.s.5 }.J.S.@.8.y.+.1 +.A 6XV B }.J./.c.",
"4 1.# = G 6 . ` ` c s.] = H   0 <.>.h.s.v.n.N.*.-.8XW.E.J q ( * 5.7.x & 9 = , w G.$.%.v.c Z # x V J.x 2.J.3.+.*.6X8XXX.XV J.G.= ",
"d.4 u.s.u.G G J w v H M H 5 s J l.h.l.n.n.r 0XJ.0Xw 4 X.G y.c c = +.T %.%.9 q V w 6X9 7X8.* V B = 3 s.s./.q.6X7.7XL.N.P.U.*.* x ",
"v.l.k.4 q = ( , v , s.= 6 l.g.0 G n.l.h.&XE.U..X0XE.3 3 r 2 G k +X= 2 4 8.= 9 , -.h u.g.= 7 P * > *.s.+.q.@.8.E.0XE.3 B. .1 D k ",
"# # & _ 4 4 d._ ( o : l.: m.>.h., h.f.&XE.Q.k.l.&Xy.= = : L  .l > 3.@.8.+.4 u.r 9 r.: = : H g 3 , +.# v.#.$.}.OX&X-.x s.: u  .` ",
"] # & J k.4 1./ : u., u.G g.J = 7.5.l.eXE.E.oX< 3 u.= y.L s.> @.G +.+.X.*.3 v.q 4 y., = G = s - ~ 3 s.7X&.N.0 : z y.x u.r s.> > ",
"r.r.E 5 # # 1 4 y.q 4 9 l > >./ s.6.8.q.8.q = ^ y.q 5 > l , = 9 a.%.q 5 3 < J 4 u.H : D w 5 G B $.6.8.+XA h * s = Z 5.B w 5.s.G ",
"= _ w w i 9 i 9 g.p.r., 9 F 3 ! [ 6X-.-.$X%.2 8.3 > : : 9 g O 5.c 8.9.w J >.>.>.d.2 s.5 ' F.< 7.{ 6X6X3.q x s G 5.#.z +.8.q o , ",
"4 o 2 # # k.W 9 k.z.u.r.F P %.f X.D.6XC / '.5X+.> 4.2 O S h s 6 +.c J 4 4 k.q w k.l.n.s.> 5X5XF.D.F.6XC 6.M.x +.&.3.3.T 8.A B x ",
"4 s.& < E r.# E t k.s.( i = E J 4 8.G.6._ $.F.7X@X2 O 8.. 7 . : +.$.4 < q l.3 m.1.k.n.,XV s.A J +.8.A S G = k 7X| *.y.8., O g 3 ",
"s.k.s.2 r.y.4 4 d.u.v.w a p j p E $Xr.& 8.T F.+.r.p.E g B . : q = x.a.= s.u.h.h.l.k.3X>Xm._ { >.q `.s.h.G = k : $.k.9 g s $X: _ ",
"2Xn.5 y.4 s.J w y.5 = { U F I & %X4.o w.r.4 _ $Xt.# t.9 W o s = 0 k.5 y.3 s.L w g.c.n.`.6X[ %.h.v.n.x l.= * L $XR @.2.>XA A.B d.",
"-X5 4 h.x.n.J J 4 G 4 I I 5XF F 8.V $ w., k.9 q & q s.a p p F l 1.5 4 4 k.y.1 w h.m.h.$.%.%.`.`.Z ,.h.y.> 1 G G > r $.6.v.f.Y.3X",
"z z.= c.oX3 s.J 1 ;.g : J F F 5.t.2.i v.~ s.4 4 9 ~ w.# J ` W * % r.= 5 !.& s.<.1.;.m.4 <.`.1.N b.z.,.4X9 s.: 3 r +Xy.h.<.+Xm.V.",
"l.5 x.= 3 s [ J $.3 k.- 8.5 q.8.4 p p # w.6 4 4 q k.k.t.P C v G @ % y.= 4 V L <.{.3 n.l.H c.4Xm.h.( ( , = = 4 < 9 n.n.l.{.`.0XJ.",
"n.s.= r.[ b ` : s.l.| 1 4.@.+.D.$XW # r.F J y.3 g.5 Q.+X# B +.L 0 r.o r.{ T 8.: $.2X| 2 n.c.: k L / , r.k s y.h.l.5 !.4Xh.<.E.].",
"l.h., q y.l J > 6 ` > ' @.$.$X&.3 1 = 9 $ s.a , u.>.<.E , h L k.@ z % 1 R +XJ &.$.` > $X> z.] 5 : J = ~ # = 9 5 x.1.J 9 5 m.r k.",
"3 J , s.>.5 k u l G s.{.+.O.5.~ L ^ , 3 ~ 5 3 q -.{.h.c.x = O # 4 V < U 9 f.F.$X+X6.$.0 : : a.V s J , 3 9 > 3 g v {.# 8 = l.y.3 ",
": , k.3 f.L 1.>.M.l : t Y x # 9 y.= 3 9 r J >Xq '.-.d.M l.+ +.8.O.5.I N E.%X$X8.M.q N $XO.5.5.6.p.= 3 G L J l G X.T d.$.w.= 4 q ",
"s = 3 = >.d q : v < - 3 &.+.x 3 ~ s.q = $.1 <.{ -.`.3X= 4.= . . V !.N.V.J.1 8.O.6X+.s.+.&.: x 4 S = G * x s [ ~ *.] t g.k.= . : ",
"* = , *.s w q v.G O 1 3 c q r 3 = / , $.= 4 m.c.{.D V | k J.G.E.M M z 6XD.Z 7.%X8.u.J +.c 8.l 4 * s . x * : E 8 $.9 J w L G l : ",
"q * G Q.| ,. .9 s D - ~ $.s.B B $.3 3 <X5 k.k.l.s T s h 8.;.: z 7.A.J.tX*XU.*X8.F.~ x A 5X%.s d x : 4 | 5 k.k.s.i u.i p p O :   ",
"s.. q r G G s 3 . s 5 J *.J s.5X$.s.v.c.b.k.c.4 7 5X7 5X6Xn R G.XX$X*X-XR.*XI.N., B 4 I.6XP.%.x = g.9 5 s.y.8 $ w.P o P v * O 9 ",
"= s -.w x x : G x.k.k.5 J *.s.u.@.r 1.w q ,Xh.,X%.@.8.- D.6X+.&.= B 6X-XeXwXE.8.4.OXk..XI.rXXX).> 1.r w _ ! 4 m.p.8 E o i v : , ",
"= 4 _ 4 u.L G = 2 d.k.s.J $.$.3 5 3 J h.n.n.v.v.4 @.3.N.q J.B x x E.7.+.*.8.>.$.k.s.k.s.I.eXeX^.5 4 J & k.u.9 G # # p.: 9 G J , ",
"5 k.u.r.9 3 * G 1.k.y.~ - u.u.J J 4 y.l.r n.<.7X7X#.s.J V.;.#.&.5 s.R P 9 +.= _ t k.y.~ = ).(.J J 4 y.s.1.s.F $.2.< = i = O r.5 ",
"k.n.k.4 , y.* * 3 k.>.>.h # J *.w r s.h.n.O '.j w $XJ A C z : G 3.3./.4 z u.= x 4 k._ U.L.E.J *.M.,Xa.3 k.w.{ F ` ( s G h , 3 9 ",
"c.2X4 d.x.h.2 w u.: + v *.< ;.w r u J 5 s.h.c V.G.[ Z K.0X* H $.[.[.x s.2 : d +Xu.+.= -.qX4 -.w 1.t <., l.h.P /.w f g l v = q s.",
"9 c.c.d.5 c.H q 3 9 x.9 x v /.w *.h.= : c.1 v v B 8.O.B V 5Xv H 8.&.&.a.> > W q 4 q 4 9 $.*. XM.$.h.0 h.c.k.*.*.i g : i s x v w ",
"s.h.= x.X.z.4 = 9 u 2 4 q v 9 ~ 9 < 0 n.<Xv.$.B 6X6X#.B 8.v b k s.O.x 4.o.- 4 * E u k.5 q -.v./ m.h.0 n.t v.s.i T T = s G v v M.",
"2 g.5 = 5 * > * r k.2 w G j H $.3 9 R : G : B s d 9.$Xh b k ;.d s.%., = s.c s.o ' k.k.w q k 9 4.4 ( y.4 a 3 F J i E _ 9 *.k *.L ",
"6 = h.u.<.J 6 > = 0 C...` 3 3 k q.G < %.Z 8.5.* s.1 7X .l : : ].g.l.3 u.{ B s.3 # b.V.>Xl 4 * '.4Xm.h.y.^ q , = 5 k.@.r w : : k ",
"u., : G = = J : 6.6XC q l.$.&.-.G s O.7.= 5.J 3 D b s s 2 G 2 5 x.f.4 8.#.w.B # p T { q s.= h.x.9 [ h.E y.3 q 3 7.b V 2 (.9 1 5 ",
": D   + 9 6 . l ` 5X= ' = 8.5.c B G : $.9 4.3 -.*.$.l.c.1.G ( = > r f.R 7.%.5.9.~ P = L 1 q , = / v.h.s.v.s.3 *.6X7XW.5 D.J.9 = ",
"s.< u.= 6 9 h s ~ 6X$XqXJ.5.J J s.3 3.n.n.v.-.9 Q.w h.].m.+ * $.= : R $.2.E W F ` v h !.9 , J 1 s.h.l.n.s.u 3.q 7Xl +.P.G o * $.",
"r k.1 3 q * p $ x z = W.!.y.r.= 9 s.= < ,Xh.9 5 }.c.h.h.4X2 m.k L -.3.+.A o p   I   = = g.u.r.= >.2 - : 4X&.8.@.b &.: +.J 1 S X.",
"5 5 3 q # : r.' S t.: XX^.G v.3 3 h.5 r c.s.k.0 ] x.* z.h.]  .` @.&.O.H & : w.9 p o : = 4 E _ 4 4 4   ' @.$.4.0 L = x 2.O.$X1.` ",
"r 3 3 o.1 # ' 9 : u.Z.*.*X= ,.= _ 4 b.-.c.h.l.: : x.- d.%X$.> > ] O.O.F.p.& ) H : O , p.E w.i o a # r.N &.z {.4 * 7 x R q.= > > ",
"s.s.q > : # i # s.q * *X` c.m.<.n.v.9 v.q v.0 <.u.G 4 2 ,.5.2.G = $.8.&.& : s > @ 9 4 9 ~ 8 >.i s.A a %XW 7.x s 6 H x B 9., s._ ",
"= _ w w i E s W r.XX= > &X<.h.1.`.*.-.-.9 [.<.v.h.5 4 +.G ` R 5.* H +X` s W d H = p.s.5 r [ & a F.-.6Xv G x d H : > +.3 9.9 T , ",
"4 = 2 # # p.W G l.0 2X= D.8X$.[ o.'.*.~ q M.[.h.c.k.2 O p p i o O.* s : : 3.7.= y.{.p.= 1 $.$.F k F.6XC G ..5X: @.k.k.y.9 9 L * ",
"4 s.. . G r.: 9 ` 1 1 ,X<.l.>.J h.v.'.9 G = '.W.t k.O W $ @ x @ & $.5.. G = : F _ 4.1 ' s s.E s : 9.A A G = k n t k.y._ , y., 3 ",
"s.2 = * r.O : : = n.,X>X6.1.{ q q 1Xs.4 9 y.X.4 = 2 G h i . & W s.1 r.* = = : +.= 2 q.l q ~ { G 9. .= z 9 u.D.4 s.k./ q 2 . 3 G ",
"0 1 > @ * 6 s ` y.> $.C }.[ $.4 4Xn.= y.s.: G  .O > = ` G o s r.g.1 8 @ +.$.s G.= &.$.C v f $.+.%X3.C.R -.^._ t u.5 s.w q = F s.",
"' > # : p.p.s q 3 8.+.8X5X5X[ C 8.V 4 y.5 1 _ H > r = S S S [ w ' 8 & +.p.1 B B x 8.O.x 5Xx C C 6.B z R .XOX9 $X5 r s.9 h S { G ",
". = * > M : = s s 6X7.+.D.C V 4 $.g.J r w $.4 : ' w + 3 s l G * , $.x 8 7X+.$.V d 6XH : s C B 5.6 $.B %XR.(.E.z &XR.y.3 1 ` G = ",
"= . = o : V H.B 5XE.-.!.J.@.q.8.+.( ( , O * O.O.8.2 3.s.$.C v G = . T = & V C B x : 2X- m.5 $XG +.6.6.5.T x z Z.*XOXu.s.$.{ v G ",
"p.s.* o C 6XG.+.!.OXU.}./.-.z C r q 5.r.C s T +.= 5 7Xu 3 B 3 k 2 = = r.C *.w +.6 0 <X3 1 5 4 X.r 9 x t.B F.T &.s.f.Q.~ 3 F # j ",
"s.3 , s U $XB E.%.U.E.&XE.$.9 5 5.V c D . 2.6.x T 8.1 9 &.6.r 4.%.4 , J y.| J 5 g.>X> 4Xc.s.r #.3 B 7 Z G = Z x u._ F p 8 Q _ p.",
"3 1 2 O _ @.{ $XJ.J.%.4.@.4 x V V s 5.: D > h.g 6X#.+.5 = $.R +.3 <.f.y.,X5 f  .l >Xk.2Xh.4 , J J J 5.+.S > @.A 6X5X# > = d.w.# ",
"3 # O 4 f.q.t 8.-XU.+.%X+.8 5.! = * : v.,Xw >Xg k v $.7Xs.y.+.8.5 < g.h.h.r  .q M.w c.3X4 f., ~ u.= +.8.G d q.8.k 6X= 7Xr.w.> W ",
"s g.: = G >.8.4 6X+.$.+.5 3 , 3 1.= _ = {.<.<.<.v B $X$.k.s., h.<.l.h.6 v.J _ 3 -.4 l.h.c.4 4 h.( 6 q * 6XB B s v C  .%.y.=   : ",
"* *   6Xi +X>.( 7.@ B < c q w 4 0 >.# $.0 h.q c.c A s +Xo.8.w 3 = = , v J w G ,X_ u./ h.0 m.w +.0 1 . c * +.G > x 9 s A k G g : ",
"D = G n $X,.m.8.J p c A $.s.~ [ {.# # t s.n.k.= <.= B 6.9.u.< , v.0 9  Xu ` u q J ( = u {.$.J <.{.: *  .#.1 -.= s O s ! q = # . ",
"l., 9 1.~ W F & $ s > s 6XJ s.$.s.r.W # , k.s.3 O c c 5X*.x T 9 $.f.v.' ` G J 3 f.,.h._ 7X<.(.qX- 2.8.> = k.s.: u.P = P T 0 @ a ",
"0 <.}.w 2.2.& 6 u.u.2 4 s -.= y.5 r u w E m.& ) = -.A o J *.3 5.c V v w $.$.3 v.k.n.n.c.<.rXXX).> L | <.q r : ' 1 > E o i T h.  ",
"0 h.9 4 g.1.v.r.p.w.k.O s $.x 4 5 4 J 4 l.u.) a > & p.& D Z B 5.c : 8.+.+ r 9 l.n.b.n.l.V eXeXO.E.Z.V : 4.k.r E > # 1 # p v.<.5 ",
"c.k.g.r.m.4 o >._ 2 y.9 * O O s >.: u.s.>.p.F #.#., = s x y.@.&.E.1 + P 9 3 0 v.<Xn.s.q A.-.(.I.F.O.#.6 r k.s m m > r.J = u.r.c.",
"k.n.n.4 h.g.0 0 : 2 G 9 h   s -.w q s.3 b.w.X.F +X~ s 8.h z N.J.}.*.}.3 3 R = * 4 n.q h ~ B.I.0XJ.$X/.+.1 ;.X.{ G.L B w S , 3 _ "
};
