/* XPM */
static char *dDIz[] = {
/* columns rows colors chars-per-pixel */
"64 64 13 1 ",
"  c #5E596B",
". c #524B5D",
"X c #483F51",
"o c #398382",
"O c #3A8E8C",
"+ c #1F5752",
"@ c #287067",
"# c #279994",
"$ c #2E5F51",
"% c #113835",
"& c #24A7AD",
"* c #22B59E",
"= c #6C667A",
/* pixels */
" .XXoooooOoooooo+@oo@o@@@###$$oo@oooo@@@@@@+%%ooo@%%$$$@$$@$$$o+",
" .XXoooooooooooo+@o@@@@@###$$$oo@ooooo@@@@@@++%%%%++$$$@$$@@$@o+",
" XXXoooooooo##oo+@@@@@@####$$$oo@oooooo@@@@@@@+++@@@@$$@@$@@$@o+",
"XXXXoooooo&&&&###@@@@#####$$o$ooOoooOoo@o@@@@@@+@@@@o@$@@@@@$@o+",
"oooooo**&&&@@######@@@##$$$$o$ooOoooOoooo@@@@@@+@@@@o@$@@@@@@@o+",
"Ooooo**&&&@@@@@@+######$$$$$o$oOOOooOOoooo@oo@@+@@@oo@@@@@@@@@o+",
"OOoo**&&@@@@@@@@+$$$$$$$$o$oo$oOOOoOOOoooO@ooo@+@@@ooo@@@o@@@oO+",
"OO***&&@@@@@@@@@+$o$$o$$oo$oo$OOOOoOOOoooOoooo@+@@@o@o@o@o@@@oO+",
"O***@@@@@@@o@@o@+ooo$oo$ooooo$OOoOoOoOOoOOoooo@+@@@o@o@o@o@@@OO+",
"O**@@@@@@@@oo@o@+ooo$oooooooo$OOoooOoOOoOOooo@@+@@@@@o@ooo@@oOO+",
"***@@@@o@@ooooo@+oooooooooooo$OooOooooOOOOooo@@+@@@@@ooooo@@OOO+",
"***@@@@oo@oo@o@@+ooooooo@oooo$OooOoOooOOOoooo@@+@@@@@oOooo@oOOO$",
"**@@o@ooo@oo@o@@+o@oooo@@@@oo$OoOOoOoooOOoooo@@+@@o@ooOooO@OOOO$",
"**@@o@ooo@oO@@@@+o@o@o@@@@@@o$OOOOOOo@oOOoooo@@+@@o@oOOooO@OOOO$",
"**@oo@oooOoOo@@@+o@@@o@@@@o@@$OOOOOOo@oOooooo@@+@@oooOOOoOoOOoO$",
"*&@ooooooOOOOooO+@@@@@@@o@o@@$OOOOOoo@oOooo@o@@+@@OoOOOOoOOOOoo$",
"*&oOooooOOOOOOoO+@@@@@@@o@o@@$OOOoOo@@ooooo@o@@+@@OOOOOOOOOOooo$",
"*&oOooooOOOoOOOO+@@o@@@oooo@o$OOoooo@@oo@oo@o@@+@@OOOOOOOOOOooo$",
"*&OOOoooOOOoO@Oo+@@o@@@ooOo@o$OOoOoo@@o@@@o@o@@+@@OOOoOOOOOOooo$",
"&&OOOoOoOOO@o@Oo+@ooo@oooOo@o$OOOOoo@@@@@@o@o@@+@@oOoooOOoOoooo$",
"&&OOOOOoOoO@o@oo+@oOo@oooOOoo$OOOoo@@@@@@@@@o@@+@@oOooooOoOoooo$",
"&OOoOOOoOoo@@@@o+@oOooOoOOOoo$OoOoo@@@@o@@@@o@@+@oooooooooooooo$",
"&OOoOOooooo@@@@o+oOOooOoOOOOo$OoOo@@@@@o@o@@$@@+@oo***&oooooooo$",
"&Oo@oOooooo@@@@o+oOOOoOOOOOOo$Oooo@@@@@ooo@@$$@+********oooooooo",
"&Oo@oOoooooo@@@@+oOOOoOOOoOOo$Oooo@o@@@oo@@$$$$****&&&****oooooo",
"&oo@oooooooo@@@@+OOOOOOOOooOO$oooo@o@@@oo$@$$$***&@ooo&&****oooo",
"&o@@o@oooooo@o@@+OOOOOOOoooOO$oo@oo@@@@o@$@$$$**&@@o@oo***&&&ooo",
"&o@@@@oooooo@o@@+OOoOOoOO@oOO$@o@o@@@@@o@$$$$**&@@@@@@@@o&&&&&&o",
"o@@@@@oooooooo@@+OOoOOoOO@oOO$@o@@@@@$@@@$$$**&+$$$$$++++++++++$",
"o@@@@@oooo&&&&&@+OOo@OoOO@ooO$@o@@@@@$@@@$$$*&++@@@@@@@@ooo@@@@@",
"o@@@@oooo&&&&&&&+OOo@oooO@ooO$@o@@@@$$@@@@$&&&++@@@@@@@@ooo@@@@@",
"o@@o@ooo&&&&&&&&*OO@@@ooO@ooo$@o@@@@$$$@@@$&&+++@@@@@@o@ooo@@@o@",
"o@@ooo****&&&&&&**O@@@ooo@@oo$@oo@@$$$$@@@&&&+$+@@@@@@oooooo@@o@",
"o@@oo&&****@o&&&&**@@@oo@@@oo$@@o@@$$$$@@#&&++$+@@@@@@oooooo@oo@",
"&@@&*****@@@oo@&&&*@@@@o@@@oo$@@o@$$$$$@@#&++$$+@@o@@ooooooo@oo@",
"&@&&&**@@@@@@o@$&&**@@@o@@@oo$@@@@$$$$@@##&+$$$+@@o@@oooooooooo@",
"&&&&&@@@@@@@@o@$+*&**@@@@o@@o$$@@@$$$$@@#&&+$$$+@@o@@ooo@@@o@oo@",
"&&@@@@@$@@@$@@$$+o***@@@@o@@o$$@@$$$$$@##&++$+$+@oo@@oo@@@oo@oo@",
"@@@@@@@$@$@$$@$$+o&***@@oo@@o@$@@$$$$$@##&++++$+@ooo@ooo@@@@@@o@",
"o@@@$@$$$$@$$$$@+o@&&&*@o@@@o@$$@$$@$$###&++++$+@ooooo****@@@@o@",
"====$@$$$$@@$$$@+@@&&****@@@@@$$@$$@$$###++@+@$+@oooo******@@@o@",
"    $$$@$@@@@$@@+@@o&&&***@@@@@$$$$@@$###+@@$@$+@ooo*******&@@@@",
" ...$$@@@@@@@$@@+@@@oo&&***@@@@$$$$@@###++@@$$$+@oo**@@@@@**&@@@",
" .XX@$@@@@@@@@@o+@@@@@@o&&&&&@@@$$@@##&#+$@o$$$+@o***@$@@@@**&@@",
" .XX@@o@@o@@o@@o++++++++++&&&&&@$$@##&#+$$@o@$o+@o**@@$@@$@@*&&@",
" .XX@@oo@o@@o@@o+$$$$$$$$+++&&&&&$##&&$@$$oo@$o+@***@$$$@$@@@$&&",
" XXX@@oo@o@@o@@o+$$$$$$$$@@++&&&&&&&&@$$$@o@@$o+@**@@$$$$$$@$$&&",
"XXXX@ooo@oo@oo@o+$$$$o$$$@@@+++&&&&&@@@$$@o@@oo+***@$$$$$$$@$$@&",
"o@@@ooooooo@oo@o+o$$oo$$@@@@@o+++++@@@@$@@oo@oo+***@$$$@$@$$$$@&",
"O@@@ooooooo@oo@o+o$$ooo$@@@@@ooooo@@@@@$@ooo@oo+&*@$$$$@@@$$$@@@",
"O@o@oooooooooooo+o$$ooo$@@o@@oooooo@@@@o@o@oooo+&*@$@$@@@@o$@o@+",
"Ooo@oooooooooooo+oo$o$oo@@o@@oooooo@o@@o@@@oooo&&@@$@$@@@oo$@oo+",
"Ooo@oooooooooooo+oo$$$o@@oo@@oooooooo@@o@@@oooo&@@$$@@@@@ooo@oo+",
"Ooo@oooooooooooo+oo$$$o@ooo@@oooooo@o@@o@@oooo#&$@$$@@@o@oooooo+",
"OooOooooooooOooo+oo$$$ooo@oo@@ooooo@o@oo@@oooo#&$$$@@@@o@oooooo+",
"OooOooooooooOooo+ooo$oooo@oo@@ooooo@@@ooo@oooo##$$$@@@oo@oooooo+",
"OoOOoooooooOOOoo+ooo$ooo@@@o@@@oooo@@@ooo@ooo##+$$@@@@ooooooooo+",
"&oOOOoooOooOOOoo+ooooooo@@@@@@@oooo@@oooo@oo###+@$@@@@ooooooooo+",
"&OOOOoooOooOOooo+ooooooo@o@@@@@ooooo@ooooooo##o+@$o@o@ooooooooo+",
"&OOOOoooOooOOooo+ooooooooo@@@o@ooooo@oooooo##oo+@@o@ooooooooooo+",
"&OOoOOoOOOoOoooo+oooooooooo@@o@ooooo@oooo####oo+@@ooooooooooooo+",
"&OOooOoOOOOOoOoo+ooooooooo@@@ooooooooooo####ooo+@@ooooooooooooo+",
"&OOooOOOOOOOOOOO+++ooooooo@@@@@@@oooo#####ooooo+@oooooooooooooo+",
"@++++++++++++++@+++++++@@@+++++++++++@@@+++++$$+$+++++++++++++++"
};
