/* XPM */
static char *dDI0[] = {
/* columns rows colors chars-per-pixel */
"64 64 15 1 ",
"  c #167E86",
". c #119B85",
"X c #14B485",
"o c #3E4F58",
"O c #16615B",
"+ c #303C35",
"@ c #511515",
"# c #501B1B",
"$ c #572121",
"% c #6C2D2D",
"& c #723232",
"* c #7A3939",
"= c #652828",
"- c #854242",
"; c #411616",
/* pixels */
"  .... X.XX.o oo ..    .XX.   X.X..XXX...   ....   .XX.X.XX ooo ",
" O  ... XXXX.o oo. .  X..XX....XXXXXX.X... ....  ..X.XXXXX..  oo",
" Oo  .  .X...... o   ..XXXXX  ....X...   ...   X..X.   ..  ...  ",
"  OOO  O  . . .    ...X. .. ..    .    O   ..   XX ..    o o O  ",
"   OoOO      o    .  .  .. ..  O      O O      .X    o   OO O  o",
" o oOOO   o Oo o o ..         OO OO OO OO OO   X o oOOo OOOOOooo",
"  OOoo    OoO o o   .. .    O  OO OooooOOOO O X   oooOOoOOoooooo",
"oOOooOO  OOOoo  oo   ...  O  O OOooOOoooOOOO       oooOOOooooooo",
"OOOoooOOOoooooooooo o ...  OOOOooooOOOOooooo   O ooOoooooooooooO",
"ooOOooooooOoOOOooooo o  o  OOoooooOOOOoOOOOo O OO OoooooOoooOoOo",
"OOoOoo+oOOoOOOOOoOOooooo oo ooOOOOoooOoOOoo     OOOooooooOoOOOoo",
"oOO+o+oooOOOOOOOOOOOo+oOoo  OoOOOOOOoOOooo  OOOooooooooOOOOOOOoo",
"o++++ooOOoOOoOOOOOoo++oOOooooOOOOOOOOOOOo  OOoooooOoooOOOOOooo+o",
"+o++oOOOo+oooOooOOOo+oOOOoOooooOOOooOOOo OO ooooooOOoOOOo+oo+oo+",
"+++oooOo+++o+oOOoOo++oOOOOooooOooooOOOOOoOoOoooOoOoOOOOOoo+oo+++",
"o+++oo++++++oOooOo+++OoOOoooOOoooo+oOOOoooOoooooOOoo+oOoO+++o@@@",
"@@+++++++oooOOOOoo++oooOOoooOoooooo+oOOOOoOOooooooOOo++oo+##@@@#",
"#@@+++++oOOOOOooo+++ooOoOOoOo+oo+o+o++oOOOOoooooo+oOoo++@@@###@@",
"@#@@@++oOOoOo+o++++++ooOOoOOOo+o+++++++$OOOoOooooo+o+++@@$$##@##",
"##@@@+++ooOooo++++++++oOOoOOoO++++++@@@@$$OOO+oooo++++@#$@$%$$##",
"#@@#@@+++o+o+o++++@+++OoOOooo+++++#@@@#$@$$++oooo+++@@##&%$%%$$#",
"@###@@++++ooo+++@@@@+++oo+o+oo++@#####$$$$%$++oo+++@@#@$*&%%%$=$",
"@#####@+ooo+++++@@#@@++++o+++o@@#@$$$&%%==$o+++++o##@$$*-*&&$%$$",
"#@#@##@@+o+o++++@###@@@#++oo@@#$#$$%%&%$=O+++++oo+@#$@&**-*&%&$$",
"#@@@#$@@++ooo+++#@$##$@@#@@@####$=%%==%oOo+@@@++o@##%&*-*-*&*%$$",
"@@$@$###@+o+o++#;$$#$@##@@####$%&&===$OOo+@#@@@++#$$%=*----*&=&$",
"%&@$$#$#@+oo+++;;$$=$$$##$@#$%%%%%$$$OO$+##@@@##oo=====**-****&&",
"&%%@$$$##+++++#;##=$$==%%#$$%=%$%==$OOO@%%%%%@@@#$$==%=&*-*-***&",
"%&%%$$#$#o+++##;;#$$==$%%%==$$$=$$$OO@%%%==%==$o+#$$=%%=&*----&&",
"=&&=$###@oO++#@@#;;$$$===%$==$$$$$Oo@%%&%%%=%=++oo++$=%%%&-**--*",
"*=$=$#$@@oO+@@@;;;#;$$$=$==$$$$@OooO$$%%=%====$==++o++$=%%**----",
"*&=$$$$$oOo@$$$$$$;;;$$$$$$$@@ooo$$$=%%=%%&=%==$$$o+oo=%$=&=**--",
"==&=$$#$OO$$$%===$$$$###$$@;#oo$$===&====&%&%%===$$OoOo==$$&==**",
"&$=$#++oO===%&%%$==$$$#####;OO$$=$======%%=&&&=%%%=@OooO$$=====&",
"==$$++OO$=%%**%=%==%=$$##;#oo$$$$=&===%===&&&&&%==$OOOOo@$$$=%%%",
"=$##$#$$=%%*---%==%=$=$$#;;o;$$=%==%%%===%%&&&%==$%%OOoooO@#@%==",
"#####$==$=*---**%&%%=$$=##;o$$$==%%%%===%%&&&&&&&==%@@OOOo#@@@##",
"###$$=$=%%--*---&%=====$###o$$=$==%&=&%==&&&&&&&&%%$@@#Oooo@@###",
"##$==%&%=&&*&*-**===%%==;#oo$$=&=&&%&%%%&&&&&&&&=%=$@#@@+oo#oo#+",
"##$===%&&&&&***--*&==%=%=#oO$$==&*&&&&&&&&&&&&&&&$$@@@;@++o+oo+o",
"#$=%=%&&&&&*&&**&&=%&%%%$#oO$===&--&****&*&&&&&=$=$;;@@;;;+ooo++",
"$=%%%=%&&=&&&&&&&&&&%%$=$ooO$==&&-**--***=&%&=%$$$;@;;@;;;++o++;",
"$=$%&%&==%%&%&&&&&&&===$#oOO;=&=***--**&&&==%%==$$@;;;;###;+++;#",
"$$$$%&&$==%%%&%&%%%=&$$$ooOOO$&&**-----&===%%$=$$@;;;;#;#;#++###",
"$#$==$$==%==%%&%%==$=$$OoOoOO$==*--**&&%&==$==$$@;;;;#$$##;;;###",
"#$=$$$###==%%%%==$==$$OOooooo@$=***&&%&&%%%=$$$#@;;#;;#$$$$#####",
"###$$#+++#==%=$&==$$$+ooo@@#@ooo=&&%%&==%=$$$$@@#;#;$$$$$$##@###",
"####++++$#$$$$==$$$#++++##@@@;ooo==$%%%==$=$$@@;;#$$$=$==$$$#@##",
"+#+++=&=%$+++===#+++++=&&@@@##;;o$$===$$$==$@=$=%%==$$==%=$@@@@#",
"++++===&%%==++++++++==&&&&@#@###@@$$$$=$$$@@$$=%%&%===%%====@@#@",
"++==%====%%$=$++@@@=&&=**&&@#@#@##@@@###@@$$$=$==%&%=%%%=%=&=@@@",
"=@=&==%%&&%%%=$$#$=&**&&-*&&@@@####;###$@$====%=%=&&%=**%===%=@@",
"@@=&%%=&&%&%=$$&&=&*----*&&&#@##@###;#$#$=$=%%===%%&**--==%%===@",
"=@=%&%%&&%%=%%=$&&&&-***&&&=@##@##;#;#$$$$=%=%%===*%---**==%%%=#",
"=@%%&&&&%%=%=%%%**&-*&===$=$@#@@##;;;$#$$==%%&==&&&**-*--&&%====",
"=#%%=&&&=%%====%%*-**=&=&&$$@@@@#;#;;;#$$$=%&&%&=&**----*&*&%===",
"=#$=&&==&====%%=**-*&&&===$@@#@#$###;;#$==&&&&&&&&&--*-***&%=%==",
"$$$==&&=====%%&*--&&&&=$=$@@##$$#$$#;;;$$&&&&&&&&&&**---*&&%%===",
"$#$#&====%%%=%%&***&&===$$@@$##$$$#$;#;;$&=&&&&&%&&&****&&&&==%=",
"#$##$=$=$=%&%%&&&&&=&&$=$@#@#$$$=$$$#$;#$=$=&=&%%=%&&&&&&&&&%%=$",
"#$##@$$$===%=&&&=$=$$$######=%%&=&=$$;#;;##$$$==$%&&&&&&=&%%&=$$",
"#@###@@==$$=&&&&&=$=$#####%===%%%=$$##;;;###$=$$==$&&&&&&==%%%$#",
"##@@@@#@====&&&&==$$#####$==%%%&&&=$$$;#;#####$$$$&%&&&==%=%=$$$",
"####@@@=======&$=$$#####$$%&=&%%&=%==####;#######$$$&&&&===$$###"
};
