/* XPM */
static char *dDI1[] = {
/* columns rows colors chars-per-pixel */
"64 64 23 1 ",
"  c #9E8B61",
". c #E4CD8E",
"X c #A59467",
"o c #D7C185",
"O c #C8B77A",
"+ c #B8A875",
"@ c #AE9F76",
"# c #C6C6C6",
"$ c white",
"% c #D8D8D8",
"& c #493615",
"* c #6D4218",
"= c #444444",
"- c #90581F",
"; c #6D6D6D",
": c #281E0B",
"> c #59431A",
", c gray42",
"< c gray59",
"1 c #896727",
"2 c #1B160D",
"3 c #4B2B18",
"4 c #382116",
/* pixels */
" ...............X............... ...............X...............",
" ooO++oOooo+OOooXo.ooo++ooooOOoo O+O+oooOOo+ooooXooOooO+Ooo+OOOO",
"XoooO+OOooO++OooXo.OOO+oooooOOoO +O++OoooOO+oo.oXooOOoO+OOo+OOOO",
"XooOO+OooOoO+OOo ..OO++ooooOoOOO +O++OoooOoO+o..@oooOo++OOO+oOOO",
"XooOO++oooOOOoOO ..OO++OooOOooOO OO+oOoOooOO+o..@ooo+O+++Oo+oOOO",
"XooOo++OooOOooOO .oOO+OOooOOOoO+ O++oOOoOoOO+oo.@oooOO+++ooo+OOO",
" ooOOO+OOooOoOo+ ooO++OOOoOOooO+ OOOOoOO+#OoOooO@ooO#O+O+ooo+OOO",
" ooOoO+oO+ooOOoo ooO+OoOOOOOooO+ OOOOoOOO##OOOO+Xoo#$+OO+OooooOO",
"Xoo+oO+oo+ooO+oo oooOoooOOOOoOO+ oOOoOO+O###+O++@o#%$+OO++ooOooO",
"Xoo+oOoOO+o+O+oo oooOoooOOOOoO++ oOOoo++O#%##Oo+X#%$$+OOo+oooooO",
" oo+OooOo++oo+oo o.oo&&&OoO+Oo++ oOOoo++O#%%##oo#%%$%O+OoOOoOoOo",
" oo+OoOOoo+oOOoo o&&&&&&oo++Oo+OXOOoOo+OOo#%%##%%%$$XO+OoOOoOoOo",
" oooOoOooO+oOooo&&**&&O=oo++Oo+O OOoOO+Ooo#%%%%%%$$$+OOoOOoOoooo",
"XoooOoOooOOoOoo&**&&oO+=oO++Oo+O Oo+Oo+Ooo##%%%%$$$$OOOooOoOoOoo",
" oooooOoOoOOoO&**&oooO+=Oo++oOO+ Oo+oOO+Oo##%%$$$$$%OoOOoOOOoOoo",
" @@@@@@XXXXXX***&  XXXX=XX@@@@@@@        XX#%$$$$$$         XXXX",
"XOOOOOOOOOOO**-& .oOOOO;Oo+OOOOOXoOOOOOO+O+#%$$$$$%OoOOOOOO+OOOO",
"XOoOo+oOoOoO*--o .oOOoO;Oo+OOOOOXoO+oOoooo++%$$$$$+OoooOO+O+OOOo",
" OoO++OooOo*--oo .oOooO;OO++oOO.Xoo++OooOoo+#%$$$%oOOooOO+O@oOoo",
"X+OO++Ooooo*-&oo .oOooO;oO++oOo.Xoo+OO+oooo+o%$$$oooooOoOO@+oOoo",
"X+O++OOooo*--Ooo ..OOoO;o++OoOo.XOo+OO+ooOoOO#%$%ooOoOOoOO@+oOo.",
"X+O++oOoOo*-&Ooo ..+OOO;o++OooooXOoOO++OoOoOOo::XooOoOooOO+OOOo.",
"X+++OOoOoO--oOooX..+oOo;O++ooo.oXOoOO+OOooOoOO>>XooOo+OooO+OOO..",
"Xo++oOoOo*-&oOooX..+ooO;O+OoOo.oXooOO+OoOoOoOO>>XooOO+OoOO+oOo..",
"Xo+OoOooO*-oOOooX..+OoO;O+OoOo.oXooOO+OOOo+OOO>> ooo++OoOoOo+o..",
"@ooOooOoO-,oOooOXo.OOoo;++ooOo..XooOoOOOoo+OoO>> ooo++OOooOoOo..",
"@ooOOooO*-,oOooO o.O+oo<+OoOoo..Xoo+oOoOoO+OOo1> ooO+O+OooOOoO..",
"XooOOooO*,,oOoOo o.++oo<+OoOooo.Xoo+oOoOoO++Oo11 ooO+O+OoOOOoO..",
"@oo+ooOo*,oOooOOXo.++Oo<OOOooOo.Xoo+OooOO+O+oo11 oo++OOoO+Ooo+..",
"@oo+oOOo-<OOoOoOXo.+++O<+O+OoOo.XoOoooOo++O+oo11 oo+OOOoO+Ooo+.o",
"@ooOOOOO-<OOOOoOX.oO++O<++OoOo..XoO+oooo+OO+oo11 o++OOOO++oOo+.o",
"2222333333333333333333333444333333333333333333444444444444444444",
"@..O+OoO,<++Oo..XooO+Oo<OooOOo..@O++OoooO+++oO11 ++OoOO++Ooo+ooo",
"@.oO+OoO,<+Ooo..XOoOO+O<OooOoO..@OO+OOoOoO+oOo11 ++OooO++oOo+ooo",
"@.oO++Oo,<oOOoo.@OoOo++<OOo+ooo.@+O+oOOo+OO+Oo11X++OooO+OoOo+o.o",
"@.oO++OO,<OOoOo.@oOOO++<OOO+ooo.@++OoOOo+OOOOo11X++oOoO+Oooo+o.o",
"X.ooO+oO,<+OoOo.@oOOOO+<OOO+oOo.@++OOoOOO+OOoO11X+OoOOO+OOoOoO..",
"X..oO+oO,<+OOoO.@OOoOO+;OoOOoO.o@++OoOOOO++OoO>1X+OoO+OOoOoOoO..",
"X..oOO+o-<++OoO.@OOoOoO;OoOO+o.o@+OOooOOOO+OOO>>Xo+OoO+OoOoOoo..",
"X..+OOOo-,O+oOOo@OOoOoO;ooOO+ooo@+OOOooOoO++Oo>>X.+OoO+OOoOOoO..",
"X.o+oOoo*,OOooOO@OoOoOo;ooOO+ooo@++OOooOo+O+oo>>X.oOoO+OooO+Oo..",
"X.oOoOoO*,OOooO+@OoOooO;oooOOooo@+++oOooOOO+Oo>>X..Ooo+OoOO+Oo..",
"Xo.ooOo+*-,oOoO+@+OOooo;oOoOOOo.@++OoOoooOOOoO>>X..+oOoooO++oO..",
"Xo.oOoO+**,oOo+O@++Oooo;oOoOoOo.@++OoOoooo<%oo>> .$%oOoooO+OoO..",
" o.OOoOo+*,ooO+O@++Oooo;O+OOoOo.X+OoO+OoOo<%$o>>X$$%OoooOo+OoO..",
" ooOoOO++**oOo@+X+OOOoo;++OoOoooX+OoO++oOo<%$$::$$$%OoooOoOOoO..",
"XooOOOO++**&oo+@XoO+OoO;+o+OOoooX+oOoO+ooo<%$$$$$$$%oOoOOO+Oooo.",
"X.ooOo++Oo**oo@@XoO+OoO;+ooOOoooX+oOOOOOooo<%$$$$$%+oOoOoO++Ooo.",
" .oOoo++Oo**&o@@Xoo+ooO;+OooOOooX+OOOoO+ooO<%$$$$$%+OoOooOo+Ooo.",
" ooOoO++Oo***o@+Xoo+oOo;+OOoOOooXOOOooO+OoOo<$$$$%+OOoOooooOO+oo",
" ooOoO++OOo**&+OXoo+oOo;OOOoOoOo@O+ooO++Oo+O<%$$$%++Oo+OooOOO+oo",
" @@@@@@@XXX***O+       ;XX        XXXXXXXXXXX<$$%XXXXXX         ",
"X...........**&OX.....+;........X.........+O+<$$%..OOo++O.......",
"XoOO+Oo++oOo&**&Xoo+Oo+;++oOooooXO+oOo+OOoOO+O<$@..OoOO+OooooOoo",
" oO+OOo+OOoOo&**&ooOoO+=O++OOoooX++oo++OoOO+Oo<%@..OoOoOOOo+oOoo",
" oO+OoO+O+oOoo&**&oOoO+=O++OOoooX++oo+oOoo+OOooo@..O+OooOOO+Oooo",
" oo+Ooo+++OOOoo&**&&oOO=oO+OoOoo@+O+o+oOoO+OOOoo@..o+oooOO+OOooo",
" oo+O+oo+OOOoOOo&&*&&&O=OO+OoOoo@OO+oo+OOooOOOoo@.oo++oOo++oOOoo",
" oo+++OoOooOOoOo o&&&&&&Oo++OOoo@OO+ooOOOOOOOOoo@.ooO+oOo++Oo+oo",
" oo++Oooo+oooooo oooO&&&ooo+OOOo@OOO+oOoOOO+OOoo@.oOO+OOO+oOo++o",
" oo++ooooOOoOooo o+OooOoooO+oOOOXoOoO+OooOOOoOoo@.o+OoOoO+ooO+Oo",
" ooO+ooOoOoooooo o+OOoooooO+OoOO oOoO+oooooOoOoo@.o+OOoo++oOo+OO",
" ooO++oOoOoOoOoo +++OooooOOoOoOo oo+OOoOooOOOooo@.o++OOo+OOOoOOO",
" ooO++OooOoOoooo @@@@@@@@@@@@@@@ Oo+oOOOoOO+Oooo @@@@@@@++++++@@"
};
