/* XPM */
static char *dDI3[] = {
/* columns rows colors chars-per-pixel */
"64 64 49 1 ",
"  c #9E8B61",
". c #E4CD8E",
"X c #A59467",
"o c #D7C185",
"O c #C8B77A",
"+ c #B8A875",
"@ c #AE9F76",
"# c #D8D8D8",
"$ c white",
"% c gray59",
"& c #E0E4E4",
"* c #D7DCDD",
"= c #D9DEDF",
"- c #E8EBEB",
"; c #F5F7F7",
": c #DBE0E1",
"> c #281E0B",
", c #FEFEFE",
"< c #F3F4F5",
"1 c #F0F2F2",
"2 c gray98",
"3 c #E3E6E7",
"4 c #59431A",
"5 c #EAEDED",
"6 c #E9ECEC",
"7 c #88220F",
"8 c #9B221A",
"9 c #AC2321",
"0 c #BF2529",
"q c #ECEEEE",
"w c #F8F9F9",
"e c #EBEEEE",
"r c #DDE1E2",
"t c #D1D7D8",
"y c #742303",
"u c #F4F5F6",
"i c #DCE1E1",
"p c #FDFDFD",
"a c #E6E9EA",
"s c #DCE0E1",
"d c #E1E4E5",
"f c #F5F6F6",
"g c #896727",
"h c #EFF1F2",
"j c #D6DBDC",
"k c #1B160D",
"l c #382116",
"z c #4B2B18",
"x c #C6C6C6",
/* pixels */
" ...............X............... ...............X...............",
" ooO++oOooo+OOooXo.ooo++ooooOOoo O+O+oooOOo+ooooXooOooO+Ooo+OOOO",
" oooO+OOooO++OooXo.OOO+oooooOOoO +O++OoooOO+oo.oXooOOoO+OOo+OOOO",
" ooOO+OooOoO+OOo ..OO++ooooOoOOO +O++OoooOoO+o..@oooOo++OOO+oOOO",
" ooOO++oooOOOoOO ..OO++OooOOooOO OO+oOoOooOO+o..@ooo+O+++Oo+oOOO",
" ooOo++OooOOooOO .oOO+OOooOOOoO+ O++oOOoOoOO+oo.@oooOO+++ooo+OOO",
" ooOOO+OOooOoOo+ ooO++OOOoOOooO+ OOOOoOO+OOoOooO@ooOOO+O+ooo+OOO",
" ooOoO+oO+ooOOoo ooO+OoOOOOOooO+ OOOOoOOOOoOOOO+XooOO+OO+OooooOO",
"Xoo+oO+oo+ooO+oo oooOoooOOOOoOO+ oOOoOO+OOoo+O++#$oO++OO++ooOooO",
"Xoo+oOoOO+o+O+oo oooOoooOOOOoO++ oOOoo++OOOoOOo+#$OO++OOo+oooooO",
" oo+OooOo++oo+oo o.oooOoOoO+Oo++ oOOoo++OoOOoOo#$$%++O+OoOOoOoOo",
" oo+OoOOoo+oOOoo o.oooOooo++Oo+OXOOoOo+OOooOooo#$$%++O+OoOOoOoOo",
" oooOoOooO+oOooo ..ooOOOoo++Oo+O OOoOO+OoooOOo#$$$#%+OOoOOoOoooo",
"XoooOoOooOOoOooo .oooO+OoO++Oo+O Oo+Oo+OooOOOo#$$$$%OOOooOoOoOoo",
" oooooOoOoOOoOoo .oooO+OOo++oOO+ Oo+oOO+OoO+O#$$$$$#%oOOoOOOoOoo",
" @@@@@@XXXXXXXXXX  XXXXXXXX@@@@@@XXXXXX      #$$$$$#%       XXXX",
"XOOOOOOOOOOOOO&*=-;:&*&*=-;:&*=-;:OOOOOO+O++#$$$$$$$#%OOOOO+OOOO",
"XOoOo+oOoOoO&*=-;:&*=-;:&*=-;:&*=-;:oOoooo++#$$$>>$$#%oOO+O+OOOo",
" OoO++OooOo&*=-;:&*=-;&*&,,<12&,,<123OooOoo+#$$o44o$#%oOO+O@oOoo",
"X+OO++Oooo3&,,<12&,,<1&,,<12&,,<121233+oooo+#$.o44oo#%OoOO@+oOoo",
"X+O++OOoo5,67788990000000099998888776,5ooOoOOooo44oOoOOoOO@+oOo.",
"X+O++oOoOq&w788889900990000099998887w&qOoOoOOooo44oOoOooOO+OOOo.",
"X+++OOoOert688y777888899998888777y886treooOoOOo.44oOo+OooO+OOO..",
"Xo++oOoO&ue68873:2itpa23:2:2itpa27886eu&OoOoOOo.44oOO+OoOO+oOo..",
"Xo+OoOoots&w887tpa32:2itptpa22:2i788w&stOo+OOO..44oo++OoOoOo+o..",
"@ooOooOo21t6887df:2itdf2a2:22tpa27886t12oo+OoO..4goo++OOooOoOo..",
"@ooOOooOe62h897f:pa32f:i2tpa22:2i899h26eoO+OOo..ggoO+O+OooOOoO..",
"XooOOooO&w3j897dffdffdffd2fdfdfdf899j3w&oO++Oo..ggoO+O+OoOOOoO..",
"@oo+ooOot63,998f:2it00009977:f:f:890,36tO+O+oo..ggo++OOoO+Ooo+..",
"@oo+oOOo2he699832:t299777yy7fi2df8906eh2++O+oo..ggo+OOOoO+Ooo+.o",
"@ooOOOOO3j&w988tai23977yyy77i22a2800w&j3+OO+oo..gg++OOOO++oOo+.o",
"kkllllll3,t6988f:22t7777yyy732i2i8006t,3llzzzzzzzzzzllllllkkkkkk",
"@..O+OoOe62h998dfap27yyyyyyy2tpdf909h26eO+++oOoogg+OoOO++Ooo+ooo",
"@.oO+OoO&w3j998f:fit77yyyyy732:f:909j3w&oO+oOooogg+OooO++oOo+ooo",
"@.oO++Oot63,99832:ti7yyyy799df:df800,36t+OO+Oooogg+OooO+OoOo+o.o",
"@.oO++OO2he6998tai23yyy79999f:ff:8006eh2+OOOOooogg+oOoO+Oooo+o.o",
"X.ooO+oO3j&w987ft2p232:2232:t22:2809w&j3O+OOoOoog4OoOOO+OOoOoO..",
"X..oO+oO3,t698732:2itapi2tapi3api8996t,3O++OoOoo44OoO+OOoOoOoO..",
"X..oOO+oee6h887tap23ap32:22:2i2:2788h6eeOO+OOOoo44+OoO+OoOoOoo..",
"X..+OOOot&w688732:t232tap2api2api7886w&toO++Oooo>4+OoO+OOoOOoO..",
"X.o+oOoo2t6w887tap23tap23api23api788w6t2o+O+oooo>>oOoO+OooO+Oo..",
"X.oOoOoO32h688y777888899998888777y886h23OOO+Oooo>>.Ooo+OoOO+Oo..",
"Xo.ooOo+O3jh788899990000000099888887hj3ooOOOoOo#$#x+oOoooO++oO..",
"Xo.oOoO+O3,j778888999909900009998877j,3oooOoooo$$$#+oOoooO+OoO..",
" o.OOoOo+O3,21<1<,,&21<,,&1<,,&21<2<,3OoOoOoOo#$$$#xOoooOo+OoO..",
" ooOoOO++Oo3<,,,,&21<,,&*&;-=*&:;-<,3++oOooOOo$$$$$#OoooOoOOoO..",
"XooOOOO++Ooo:;-=*&:;-=*&:;-=*&:;-=:-oO+oooooO#$$$$$#xOoOOO+Oooo.",
"X.ooOo++Oooooo:;-=*&:;-=*&*&:;-=*&oOOOOOooooO$$$$$$#xOoOoO++Ooo.",
" .oOoo++OoOooo@@Xoo+ooO++OooOOooX+OOOoO+ooOo#$$$$$##xxOooOo+Ooo.",
" ooOoO++OooOoo@+Xoo+oOo++OOoOOooXOOOooO+OoOo$$$$####xxOooooOO+oo",
" ooOoO++OOoOOo+OXoo+oOo+OOOoOoOo@O+ooO++Oo+O$$$######x+OooOOO+oo",
" @@@@@@@XXXXXXXX        XX        XXXXXXXXXX$$###xx##x+         ",
"X...............X...............X..........#$##x@@xx##x+O.......",
"XoOO+Oo++oOooOooXoo+Oo++++oOooooXO+oOo+OOoO$$#x@ .@xx#x+OooooOoo",
" oO+OOo+OOoOoOooXooOoO++O++OOoooX++oo++OoOO$#x@o ..@xxxOOOo+oOoo",
" oO+OoO+O+oOooooXooOoO+OO++OOoooX++oo+oOoo+$x@ooX..O@xxoOOO+Oooo",
" oo+Ooo+++OOOooo ooooOOOoO+OoOoo@+O+o+oOoO+x@Ooo ..o+@xoOO+OOooo",
" oo+O+oo+OOOoOOo ooooOOoOO+OoOoo@OO+oo+OOoo@OOoo .oo++@Oo++oOOoo",
" oo+++OoOooOOoOo oooOoOoOo++OOoo@OO+ooOOOOOOOOoo .ooO+oOo++Oo+oo",
" oo++Oooo+oooooo oooOoOOooo+OOOo@OOO+oOoOOO+OOoo .oOO+OOO+oOo++o",
" oo++ooooOOoOooo o+OooOoooO+oOOOXoOoO+OooOOOoOooX.o+OoOoO+ooO+Oo",
" ooO+ooOoOoooooo o+OOoooooO+OoOO oOoO+oooooOoOoo .o+OOoo++oOo+OO",
" ooO++oOoOoOoOoo +++OooooOOoOoOo oo+OOoOooOOOooo .o++OOo+OOOoOOO",
" ooO++OooOoOoooo @@@@@@@@@@@@@@@ Oo+oOOOoOO+Oooo @@@@@@@++++++@@"
};
