/* XPM */
static char *dDI4[] = {
/* columns rows colors chars-per-pixel */
"64 64 18 1 ",
"  c #C8B77A",
". c #D7C185",
"X c #E4CD8E",
"o c #AE9F76",
"O c #B8A875",
"+ c #FBFBFB",
"@ c #F1F1F1",
"# c #CACACA",
"$ c #A59467",
"% c #9E8B61",
"& c LightGray",
"* c #DDC689",
"= c gray",
"- c gray59",
"; c white",
": c #D8D8D8",
"> c #493615",
", c #684E1E",
/* pixels */
"          ..........XXXXXXXXX..X....XXXXXXXXXXXXX............  o",
"        ..  ....XX....XXXXXXXXX...XXXXXXXXXXXX.....XX......O   o",
"       ......  ...     ...  OOO ....  . ..    ...OO.   .. OOOO O",
"   ..OO. .  ...   ...   O .....OOOOO....  .....    O ..   .. ..O",
" OOOO.......    OOoOO  ...  .. .....    OOO    OO  ...OO .  .  O",
"... ......  ..     ooOOO      ...  ....   OOO OO..  ... OOO... O",
"..   .. OO      .OO     ... OOO  ...   ..   ..   .....   OOOOO O",
".   OOOOOoOooooOOOOOOOOooooooooOOOOOOOooooooOOOOooooooooOO.  OOO",
"OOOOOOOXXXX..XXXXXXXXXX...XXXXXX..     .....     ...  ...O  ...o",
".  OOOOXX....  .XXXXX....XXXX.......     ..    ......  ..o.  . o",
" ...  oXX..  .......    ..   ..........    .      .......oOO.  o",
"..  O oXX...  O+......     ...........       ........  ..o    Oo",
".  ...oX..   O@@..  ....      ......  ....    .....   ...o. OOOo",
"......oX .. O##@#...     .....    ......    ....  ..    .O.....o",
"......o. .. O@##@.    ......    ....      ....  ......   OXXXXXo",
"$$$oooo.  .O@@### OOOOOOOOOOooooOOOOOOOOoooooooooo...   .O%%$%%%",
"...XXXo.   O#@@&@+XXXXXXXXXX***.XXXX***..XXXXX*..o.... ..O......",
"..XXX.o . O+@##&&#XXXXXXX****.....XXXX..XXXX.....o..... .O......",
"......o . O@@@#=&@o..****..................XX....o....  .O    ..",
"...OOOo .o+#@@=-&@+o...****......................o  .  ..O  ..  ",
"OOO   o. o@@##=-&@+o.**.........***..............o.   ...O O   O",
".. .  O. o@@@@-&@@@o...............********......O..   ..o   .  ",
"    ..O.o+#@@=-&@@#o...........********..........O....  .o   .. ",
". ... O.o@@##-&@##@o.........****................O.......o  ....",
".... .O o@@@&-&##@@+o.*...****..........****.....O.......o ...  ",
" .... O o#@@&=&@@++@o..**...****..*.*****........O ......O   .. ",
"..    Oo#@##=&@@##@@o.*****.....**....*****......O  .....O..OO  ",
".OOO..Oo+@@&=&##@@@#o*****..............*****....O.   ...O.O   .",
"  OOOOOo#@@&-@@@###+o..*******..............***..O...   .OO ..OO",
" O   Ooo@##&-###@@@#o........*******.......***...O.   ...O    ..",
"  OO  o. @@&-&@@@@#o........******...............O   ....O  ... ",
"%%%%%%O  #@&-&@@##@o.......****.........*........O  .....Ooo$%%%",
"..   OO .+#&-&##@@#o..*****....**........***....XO  .....O..  .o",
"...   O.. @@&-@@@#+o*****..**........*****.....*XO .....@@;    o",
"    ..O.. #@&-&##@@o....***............*****...*XO ...@@@@   ..o",
".  .. O.  +##-==@@o.......******.....**........XXO..@@@@@:  .  o",
"...   O. .o+@-@@==o.........******.............XXO@@@@@::oOOOO.o",
"....  o  . #@&-@@+o.......**................***XX@@@@@::OoO.   o",
" .....o ...o##-@@o..................**....****.X@@@@@::O.o.... o",
"......o.. . o@-#@o*****..........***...***.....@@@@@::O..o ....o",
"OO..  o.    .o@-@o..*******....***......***...@@@@@::O...o. ...o",
".OOOO o.  ...oo-o..******....*******..**.....@@@@@::O....O   ..o",
".. OOOo. ...  o-o.......**........****......@@@@@::O.  ..O.....o",
"..    o    .. oo-o..........******.........@@@@@::O....  O  .  o",
"O.    o        o-o........**XX**......XXXX@@@@@::O......XO..  Oo",
"XXXXX.o     .  oo-O....****XXXXXXXX.XXXO>@@@@@::O...XXXXXO..OOOo",
"X..XXXo   ..    o-OOOOOOOOOOOOOOooooooO>>>@@@::O..XXXX..XO....Oo",
"$$$%%%o  .....  oo-OO  ...XXXXXXXXXXXO>>>>>@::O.....XXX.XO%%%%%%",
"....  O.....     oo-O...  ..  XXXXXXO>>>>>>::O....XX.  .XO......",
"...   O ..        XX......     ...XXO>>>>>,,O...XX..  ..XO .....",
"    ..O  ..   XXXX...XX       ..XXXO>>>>>,,O..XXXXXXX.  XO.... .",
"  OO .O      ...XXXXX...  ...XXX..XO>>>>,,O....XXX...XX.XO . ...",
" OO   O    ..XXXXXX.......  ...XXXXO>>>,,O....XX..XX...XXO ...  ",
"O. .  O  ...XXXXXXXXXXXXX...XXXXXXXO>>,,O............XXXXO.. ...",
"... ..OOOOOOOOOOOOOOooooOOOOOOOOOOOO>,,oooooooooooooOOOOOO.O    ",
"......  . ....  ..... ..  OOOO oO  o,,oo    OOO     OO  OO .....",
".  ..  ..   ...   ....  ..  .. o  . oo... OO.OOOOOOOOOOOO....  .",
"..  OOOOO..     ..    ... ..   o..  ..O ...    OOOO  .. .. .... ",
"OOOOOO    .......OOO .   ....  o  OOOO     ..  ..  ..  ..OO ..OO",
"OO   . ...    ....OOOO ...  .. oOOOO    ...  .  ... OO    OOOOOO",
"  .     OOOO....    OOOO    OO O    ...OO ..   .      OOOOOOO   ",
"...................   OOO......OX....XXX..XXX........   ........",
".................  OOOO........oXXXXXXXXXX.....XX...............",
"%%%%%%%%$$%%%$%%$$%$$$$$$oo$oooooooo$$$$$$$$%%$$%%%%$$%%%%%%%%%%"
};
