/* XPM */
static char *dDM_[] = {
/* columns rows colors chars-per-pixel */
"64 64 165 2 ",
"   c #003F00",
".  c #1A2C1A",
"X  c #253925",
"o  c #2A392A",
"O  c #064506",
"+  c #004C00",
"@  c #084108",
"#  c #0C4B0C",
"$  c #025302",
"%  c #015C01",
"&  c #0C530C",
"*  c #0B5A0B",
"=  c #154215",
"-  c #1A431A",
";  c #1C4C1C",
":  c #125D12",
">  c #1C541C",
",  c #1E5B1E",
"<  c #016401",
"1  c #006C00",
"2  c #0C630C",
"3  c #0C6D0C",
"4  c #017401",
"5  c #007C00",
"6  c #0C750C",
"7  c #0C7D0C",
"8  c #126212",
"9  c #126F12",
"0  c #1C621C",
"q  c #1C6C1C",
"w  c #107110",
"e  c #147B14",
"r  c #1B7B1B",
"t  c #254425",
"y  c #224A22",
"u  c #2D4C2D",
"i  c #235423",
"p  c #245924",
"a  c #2F5A2F",
"s  c #334033",
"d  c #354C35",
"f  c #3D423D",
"g  c #3E4F3E",
"h  c #345334",
"j  c #325B32",
"k  c #3A533A",
"l  c #246224",
"z  c #246C24",
"x  c #2C632C",
"c  c #286E28",
"v  c #247524",
"b  c #237A23",
"n  c #2B732B",
"m  c #2A7E2A",
"M  c #336333",
"N  c #306D30",
"B  c #396039",
"V  c #396A39",
"C  c #357E35",
"Z  c #4B4F4B",
"A  c #435443",
"S  c #445D44",
"D  c #457F45",
"F  c #008300",
"G  c #018B01",
"H  c #0D830D",
"J  c #0A8C0A",
"K  c #009400",
"L  c #009C00",
"P  c #0B920B",
"I  c #0B9C0B",
"U  c #118411",
"Y  c #138A13",
"T  c #1B851B",
"R  c #1B8E1B",
"E  c #139213",
"W  c #109D10",
"Q  c #1B911B",
"!  c #1E9D1E",
"~  c #00A300",
"^  c #00AC00",
"/  c #0BA50B",
"(  c #0BAB0B",
")  c #00B300",
"_  c #00BC00",
"`  c #0AB30A",
"'  c #0BBC0B",
"]  c #14A614",
"[  c #12AD12",
"{  c #1BA41B",
"}  c #13B313",
"|  c #12B812",
" . c #1AB31A",
".. c #218221",
"X. c #238B23",
"o. c #229722",
"O. c #209A20",
"+. c #209F20",
"@. c #279C27",
"#. c #229B22",
"$. c #2A962A",
"%. c #2A962A",
"&. c #2B9A2B",
"*. c #299D29",
"=. c #2C9B2C",
"-. c #338733",
";. c #338733",
":. c #328932",
">. c #328932",
",. c #3F8B3F",
"<. c #359635",
"1. c #359635",
"2. c #25A425",
"3. c #25A425",
"4. c #23AA23",
"5. c #24AC24",
"6. c #25AC25",
"7. c #2BA62B",
"8. c #2BA62B",
"9. c #2EB32E",
"0. c #00C000",
"q. c #00C100",
"w. c #00C200",
"e. c #00C300",
"r. c #03C203",
"t. c #03C303",
"y. c #00C400",
"u. c #00C500",
"i. c #01C401",
"p. c #00C600",
"a. c #00C700",
"s. c #01C701",
"d. c #05C105",
"f. c #00C400",
"g. c #00C800",
"h. c #00C900",
"j. c #00CA00",
"k. c #00CB00",
"l. c #00CC00",
"z. c #00CD00",
"x. c #00CE00",
"c. c #02CE02",
"v. c #03CE03",
"b. c #04C804",
"n. c #00CA00",
"m. c #00D000",
"M. c #00D100",
"N. c #01D001",
"B. c #00D300",
"V. c #00D400",
"C. c #00D500",
"Z. c #00D600",
"A. c #00D300",
"S. c #00D800",
"D. c #01DC01",
"F. c #00D900",
"G. c #00E100",
"H. c #01E201",
"J. c #01E201",
"K. c #448044",
"L. c #448444",
"P. c #438843",
"I. c #438843",
"U. c None",
"Y. c black",
/* pixels */
"o.d.y.y._ F _ G ^ K 4 5 ^ ) ^ ^ 5 _ G ) G _ g.l._ & . | y.K y.D.V y.y.y.y.g.L y.l.K C.C.K L ~ ~ ~ ~ r U.U.' G K ^ _ _ y.g._ 4 p ",
"U.[ 0.0.) G g.K K G ^ 1 $ 5 ~ 9 4 ) G L 5 y.K L ~ L * % 5 K ) H.' ~ ^ y._ L L L l.) l.l.B.K G G w b U.U.;.J L 1 K L K ~ ^ P m Z ",
"U.D Q ) L G g.g.g.g.y.~ 1 4 K J F ~ _ 0.< G K ^ ^ _ F 1 % F ^ ~ H.~ ^ ) ) L _ ^ C.) K K K G ^ ~ x U.U.U.K ) l.L g.y.y.y.J z U.U.",
"U.f g T K y.g.g.g.g.y.g.~ + G ~ 0.K ~ ) < L ^ _ _ ^ L 5 5 L K 5 4 L F L ^ ~ g.0.) 1 F L ^ J < d.U.U.U.v _ C.S.0.G y.y.6.U.U.U.U.",
"U.k A X & J b.g.g.g.y.0._ 4 G K _ 0.K < F ) _ ) ^ 0.~ L G L ~ 1 $ < 4 ) ) g.g.y.^ G ^ y.l._ G ' U.U.U.{ l.C.C.C.H  .6.U.U.U.U.U.",
"Y E T O.R b ` y.g.g._ 0._ G F G ) F 4 + ) 0.0.0.~ ~ L ~ ^ ) ) ^ 4 1 L _ ) ) g._ ^ _ y.l.g.) ~ | U.U.U.v.B.K L L i x U.U.U.U.Z M ",
") _ ) 0._ c C ] _ _ ^ ~ L ) < 5 4 F 5 ) _ 0.0.~ ^ ^ ) K K F ~ K ) L _ L ) ) ~ ) 0.~ g.y._ _ ) +.U.u G K ~ ~ ) _ [  .I.U.U.t 0 K ",
"y.0.y.0.) U.U.a J L G K 0.K L ^ L ~ F ^ 0.0.y.~ ) ~ _ K K F L G 0.~ 0.4 K ^ L ~ ) L ) ~ g.y.J n U., ~ _ _ _ ) y.g.y.| ..;.7 ) _ ",
"0.G G _ ) j U.U.G F _ _ 0.K ) g.y.) G K 0.0.0._ L 5 L ^ ) L K g.g.~ ^ 1 < 1 K L K ) ^ ^ ^ _ ) ..U.t._ y.y.y.) y.g.g. .c  .L 0.y.",
"K K L K ^ j U.N ) _ 0.y.y.L K ^ ^ ~ 5 1 _ _ _ ~ F % L g.B.0.~ G g.K  .| 6 5 _ y.) ^ y._ ^ _ P @.=.J y.y.g.y.0.0.g.g.2.U.` ) 0.G ",
"^ _ _ ) K : x P ^ _ K L 5 F ~ l.g.y.) 5 e I ~ G % F ^ y.l.C.^ G _ i U.<.%.J _ 0.) ^ g.0.^ ) I 8.r K g.g.y.g._ _ _ 8.U.U.E 0.K L ",
"y.y.y.y.) L * 4 K ~ 5 L _ g.l.C.C.B.l._ J w ^ ~ F ) _ y.g.B._ G H j U.U.X.~ _ ) ) y.g.0.K L 0.{ Y _ y.y.g.K L G w k U.U.T L ) _ ",
"y.g.y.g.y.) G 5 < 5 G y.B.C.C.C.B.B.B.b. .7 J ~ F ) g.y.y.l.g.^ * : H % 5 L ^ ) 0.0.0.) G G ) W 6 ) ) _ K ~ ) ~ J c U.d O.G _ g.",
"y.y.g.y.K G _ 4 + F 0.g.l.l.B.B.C.l.' [ +.R [ ~ F 0.g.g.g.B.C.K < 5 K L 4 G ~ ^ ) _ ) ~ ^ l.^ ~ e K 5 G K ^ _ ^ _ ] Q n I.= L g.",
"y.g.g.y.K K K G 1 4 L ) _ 0.y.l.g.0.^ } U b Q ^ F y.C.C.C.C.B.G ~ _ 0.0.F G K ^ ^ 0.y.) ^ l.0.I e 6 G ~ ~ _ _ ^ _ ^ ) ` m o p ) ",
"~ y.G K L ^ ^ ) L K l.) _ ~ L ) ^ ) g.) _ 7 r ^ ) l.C.C.C.B.) 5 0.y.y.y.~ $ F F L 0.0.) ^ 0.) ~ L 5 G ~ ^ ^ ~ ~ ^ ) _ 0.) - t # ",
"< ^ G ^ ) _ ) _ ~ _ l.l.^ K L L G 0.` I L L 2 { J / b.C.C.y.K F y.y.y.g.^ 1 < + 5 L ) ~ l.) ^ G 4 F K ~ ) ) L ~ ) ) ) 0._ G 4 * ",
"1 1 K _ _ ) ) _ ) F l.g.) ) F 5 J 8 Y J ~ K P q =.v 6.B.B.~ G F y.y.y.g.L K 4 G 1 4 5 G ) J 6 5 J G G K / ^ L ~ ) ) ) ) K 5 < ~ ",
"5 G ) _ G F ~ ) ^ 5 g.g.^ L K I I 7 5 ( ( ^ ` Y n U.U.' ^ K G G y.y.y.y.L 0.F F ~ L F J J r 8 / _ _ L 5 J F J ~ ^ ~ K G G F K % ",
"0.K ) _ G G 5 5 L < L ^ K ~ L P [ ~ K G ' ) _ ^ v u U.M 3 1 0.y.y.y.0.0.^ y.K 4 K y._ / L.m e _ 0.y._ L 5 4 < F L 4 G _ g.l.^ % ",
"G ^ ) F G L K 5 1 F L _ L ) _ ) | ( ) K y.' _ ) ( 3 h o z ~ 0.y.y.0._ ) K l.F G L g.G 9 S u L y.y.y.y._ ~ 5 4 ~ L F L y.g.B.y.F ",
"5 _ ) F G L L 1 4 F ^ ) K _ _ 0.) L ( J ` ^ ^ ) ) ) : g c G _ 0.y._ ~ L F _ 5 ) F 0.4 2 X.6 ) y.y.y.y.y.) 5 F ^ ) K ) _ g.l.B.~ ",
"5 ) ) G ~ G F K K L ^ g.~ ^ 0.0.) L ) L _ 0.0._ _ 0.L I O 4 ) _ ) 7 < % F G 5 K % $ 5 L 5 L ) y.y.y.0._ ~ 5 K ) ) K ^ 0.g.l.l.l.",
"5 ^ 5 1 $ 1 G K L ~ ~ ) L _ 0._ ^ ^ ) L y.g.g.y.0._ L 1 G 1 4 J l ; < K C.S.1 4 * G ^ y.K ) ) 0.0._ ~ G G ^ ^ K G 5 ^ F y.l.l.C.",
"1 1 F < 1 L _ ) _ _ ) _ 4 ~ _ ) ) ) _ 5 4 ) ) _ 0.) K 4 ^ 1   < 8 - & K C.~ 4 F 5 ^ y.l.L ~ L ) ^ ~ L L ) ^ ~ K ~ 4 K F G 0.l.B.",
"4 G L F 5 ^ _ _ 0.0.0._ 4 ~ ) ^ ) 0._ 5 1 5 5 G L F K < y.) 4 ) 0./ I L 4 ^ 5 ~ ) F 0.g.l.g.0.K g.g.g.y.^ F K K K / ) ~ K G g.0.",
"O K ) ~ K ~ _ _ d._ 0.L G 5 G K ^ _ ^ + 4 L _ ) G F _ ~ G 0.5 0.0.y._ ) G 5 5 ) ) ) ~ 0.g.g.y.y.g.g.0.0.L G ^ ) _ _ _ ^ ~ _ B.K ",
"5 ^ ^ ) ) ~ 0.0._ _ ) & L ~ 5 5 K ~ G < G ) g.g.y.y.y._ L + 5 0.y.y.y.0.J 5 ~ ) ) ^ ) K ) _ g.0.0._ ~ L G ^ ) 0._ ^ ~ g.K 5 _ J ",
"J 5 L L F G ) ) ^ ~ 4 8 ^ ) ) ^ F F < % y.^ g.g.g.g.g.y._ 5 G 0.y.y.y.y.) 5 F ) ^ ) ^ F 5 1 L _ ^ K 4 ^ ) ^ _ ) ~ ~ l.0.F 1 ~ y ",
"/ K ^ ) ) ~ F F K G G F ~ ^ ) ) ) ) 6 = O K 0.g.g.g.g.g.y._ L y.y.0.y.y./ 5 5 ) ^ ) ^ ^ 3 y y $ 4 1 F ^ ~ L K ~ L l.B._ F G 0 l ",
"> L ^ _ _ 0.) L 1 < K K ~ ^ ) ^ ) ) Y U.U.; K y.g.g.g.g.y.y.5 y.y.y.0.y._ 8 * ) ) ^ ) L 5 ( ! 0 & K G G K 5 5 L L B.g.~ G 5 U p ",
"M y.y.y.y.y.^ 5 ) K 0.C.L ~ ) ) ) ) Q U.U.K.* ^ 0.g.g.g.g.g.3 ( d.y.t.t.) = + L ) ) ~ F ) ) ^ / J F G ) K ~ 0.) L J ..U y.g.^ 9.",
"V y.y.y.y.g.L y.l.K C.B.K L ~ ~ ^ / b Y.U.' G K ^ _ _ y.y._ 3 p o.d.y.y._ G _ G ^ K 4 5 ^ ) ^ ~ 5 _ G ) G _ y.l._ & . ' y.K 0.D.",
"' ~ ^ 0._ L L L l.) l.l.B.K G G 6 b U.Y.:.G ~ 1 K L L ~ ^ K m Z U.[ 0._ ) G g.G L G ~ 1 $ 5 ~ 9 4 ) G ~ 5 0.K L I L * % 5 K ) H.",
"H.~ ^ ) ) K _ ^ B.) K K K J ^ ~ x U.Y.Y.K ) l.L y.y.y.y.J z U.U.U.K.Q ) L G g.g.g.g.y.~ 1 4 L J G L _ 0.< G K ^ ^ _ F < % F ^ L ",
"4 L G L ) ~ g.y.) 4 F L ^ F < d.U.U.Y.v _ B.S.0.G y.0.4.U.U.U.U.U.f g T G g.g.g.g.g.g.g.~ + G ~ 0.K ~ ) < ~ ^ _ _ ) L 5 5 L K F ",
"$ 1 4 ) ) g.g.y.) G ~ y.l._ K ' U.U.U.] l.B.C.C.7  .6.U.U.U.U.U.U.k A X & F g.g.g.g.0.y._ 1 G K _ 0.K < F ) 0.) ) y.^ K K L ~ < ",
"4 1 L ) ) ) g._ ^ ) g.l.g.) L | U.U.U.v.B.K L L i x U.U.U.U.Z M R E T O.Q b } g.g.y._ 0._ G F K ) F 4 + ) _ 0.0.L ~ K ~ ^ ) ) ^ ",
") L _ L ) ) ~ ) 0.~ l.y.0._ ^ 3.U.u J K ~ ~ ) _ [  .I.U.U.t 0 P ) ) _ _ _ c C ] _ _ ^ L L ) % 5 4 F 5 ) _ 0.0.~ ^ ^ _ K K F ^ K ",
"0.~ _ 4 K ^ L ~ ) L ) ~ y.g.J n U., ^ ) _ _ ) y.y.g.| ..:.7 ) 0.y.y.0._ _ U.U.a P K K K y.K L ) ~ L F ^ 0.0.0.~ ) ~ ) K K F L G ",
"g.~ ^ 1 < 1 K K K ) ^ ^ ) _ ) ..U.b._ y.y.y._ 0.g.g. .N } L 0.y.y.G F 0.) B U.U.G F _ _ 0.L ) l.y.) G K 0.0.y._ L 5 L ^ ) L K g.",
"y.K  .| 7 5 _ y._ ~ y._ ^ _ P @.$.J y.g.y.y._ y.y.g.2.U.} ) 0.G K K L K ^ h U.N ) _ 0.y.y.K G ^ ^ L 5 1 _ ) _ ~ F % L g.B.0.~ G ",
"_ i U.<.$.J _ y.) ^ g.y.^ ) L 7.r K y.y.y.y._ _ _ 8.U.U.P 0.K L ) _ _ ) K * x P ^ _ K L 5 F ~ g.l.y.) 5 H I ~ G % F ^ g.l.B.^ G ",
"U j U.U...~ _ ) ) y.y.0.G L d.{ Y _ y.g.g.K L G w k U.U.T L ) 0.0.y.y.y.) ~ * 4 K ^ 4 ~ _ g.l.C.C.C.B._ U w ^ ~ F ) _ 0.g.B._ G ",
"* * H $ F K ^ ) y.0.0.) G G ) W 6 ) ) _ K ~ ^ ~ P c U.d o.G _ y.y.y.g.y.g._ G 5 % 5 G 0.C.C.C.B.B.C.B.b. .U J ~ F ) g.y.y.l.g.^ ",
"1 F K L 4 K ~ ^ ) _ ) ~ ^ l.^ ~ e K 5 F L ^ _ ) ) / R c I.- ~ g.g.y.g.y.K G ) 4 $ 5 y.y.l.B.C.C.B.l.' [ { X.[ L F y.y.g.l.B.B.K ",
"~ _ 0.0.F G K ~ ^ 0.0._ ^ l.y.I 7 6 K ~ ~ _ _ ^ _ ^ ) ` ..o , ^ y.y.g.g.G K L G 1 4 ~ ) _ 0.y.l.g.d.) ( U b Q ^ F 0.S.C.C.C.B.G ",
"_ 0.y.0.~ $ G F L 0._ ^ ^ y.^ ~ I 4 G ~ ^ ^ ~ ~ ( _ _ _ ) y t O ~ 0.G K L ^ ^ ^ L K g.) _ ~ L ) ^ ) t.) _ 7 r ) ) l.C.C.C.C.) 5 ",
"y.y.g.g.^ 1 < + 5 L ) ~ l.) / G 4 F K ~ ) ) L ~ ) ) ) 0._ G 4 * < ^ G ^ ) _ ) _ ~ _ l.l.^ K L L G 0.( I L L 2 { J / b.C.C.y.K F ",
"y.y.y.y.~ K 4 G 1 1 5 G ) K 6 5 G G G K / ) L ~ ) ) ) ) K 5 % ^ 1 4 K _ _ ) ) _ ) F l.g.^ ) F F J 2 Y J ~ L J q =.v 6.C.B.~ G F ",
"y.y.y.g.L _ F F ~ K J J J r 8 / _ _ L 5 F H J ^ ^ ~ K G G F K % 5 F ) _ G F ^ ) ) 5 g.l.) L G I W 7 F ( ( ^ ` Y n U.U.` ^ K G F ",
"y.0.y.0.^ y.K 5 L y.) ( L.m e _ y.y._ L 5 4 < F K 4 G _ g.l.^ % 0.K ) _ G F 5 5 K < L ^ K ~ L P [ ~ L G ' ) ) ` v d U.x 3 1 y.y.",
"y.y._ ) K g.5 G L g.G 9 S u L y.y.y.y._ ~ 5 5 ~ ~ F L y.g.l.g.G G ^ _ 5 G ~ K 5 1 F L _ K ) ) ) ` ( ) K 0.' ) ) ~ 9 k o z ~ 0.y.",
"0._ ^ K F _ 5 ) F _ 4 2 T 6 ) y.y.y.y.y.) 5 F ^ ) K ) _ g.l.l.~ F ) ) G F L L 1 4 G ^ ^ L _ 0.0._ I ^ J ) ^ ) ) ) ) : A z G _ y.",
"` 7 % < F K 4 K % * 5 L 4 ~ ) y.y.g.0._ ~ 4 G ) ) K ^ y.g.l.B.l.4 ) ) G ~ F 5 K K L ^ l.~ ^ 0.0.) L ) L _ 0.0._ _ _ L I   4 ) 0.",
"0 ; < K C.S.1 4 % G ^ y.K ) ) 0.0._ L G K ^ ^ L G 5 ~ F g.g.l.C.5 ^ 5 1 % 1 G K L ~ ~ ) L _ _ _ ~ ^ ) L y.g.g.y.y.0.K 4 J 1 4 J ",
": = & K C.~ 4 5 5 ^ y.l.L ^ L ) ^ ~ L L _ ~ ~ K ~ 4 K F G y.g.B.4 1 F < 1 L ) ) _ _ ) _ 4 ^ _ _ _ ) _ 5 4 ) ) _ 0.) K 4 ~ 1   < ",
"0./ I L 4 ^ F ^ ) F y.g.g.g._ K g.g.g.y.^ F K K K ~ ^ ~ K G l.y.4 G L F F ^ _ _ 0.0.0._ 1 ~ ) ~ ) 0.) 5 4 5 5 G L F K < 0._ 4 ) ",
"y.y.0.) G 4 5 ^ ) ) L y.g.l.0.y.y.g.y._ L G ^ ) _ _ ) ) ~ _ B.K O K ) ~ K ~ 0.0.d.0.0.K G 5 G K ) _ ^ + 1 L _ ) F F _ ^ K 0.4 0.",
"y.y.0._ J 5 ^ ^ ^ ) ) K ) _ g.0.0._ ~ L G ^ ) _ _ ) ^ g.G 5 0.F 4 ^ ~ _ ) ~ 0.0._ _ ) & L ~ 5 5 K L G 1 G ) g.g.g.g.y._ L + 5 0.",
"y.y.y.y.) F F ) ^ ^ ^ F 5 < L ) / K 4 ) ) ^ _ ) ~ ~ l.0.F 4 ~ y J 5 L ~ F G ) ^ ^ ~ 1 : ) ) ) ^ F F < % t.) g.g.g.g.y.g._ 5 G y.",
"y.0.0.y./ 5 5 ) ) ) ^ ^ 3 > y * 4 1 F ^ ^ L K ~ I l.B._ F G 0 l I K ^ ) ) ~ F F K G K F ~ ^ ) ) ) ) 6 = O K _ g.g.g.g.g.y.) L y.",
"y.0.y.y.' 2 * ) ) ) ) L 5 ( ! 0 & K G G K 5 5 L L l.y.~ G 5 e p > ~ ^ _ _ _ ) L < < K K ~ ^ ) ) ) ) E U.U.; K g.g.g.g.g.y.y.5 0.",
"d.y.y.y.) = $ K ) ) ~ F ) ) ^ / G F G ^ K ~ _ ) ~ J ..U y.g.) 9.M y.y.y.g.y.^ 5 _ K 0.C.K ^ ^ ^ ) ) R U.U.L.$ ^ 0.g.g.g.g.y.3 ( "
};
