/* XPM */
static char *dDMw[] = {
/* columns rows colors chars-per-pixel */
"64 64 11 1 ",
"  c #3E3836",
". c #3C2F23",
"X c #443522",
"o c #4E3F27",
"O c #3A383D",
"+ c #494A4C",
"@ c #5A482C",
"# c #434445",
"$ c #46403E",
"% c #33323A",
"& c #322D36",
/* pixels */
"   .........     XXooooooXXXXXXXoo  OOOOOOOOoooooo+++++@ooooooX ",
"   o.......@  OOOXXXoooooXXXXXXo@oo   OOOOOOoooooo++++#@@ooooo. ",
"   oo.....@@OOOOOXXXooooooXXXXXo@@oOO   OOOO@ooooo##OO@@@ooooX. ",
"   oooo..@@@OOOOXX.XXoooo$XXXXX@@oo      OO@@@oooo####@@ooooo.. ",
" $$oooooo@@@@OOOX..XXooX$$XXXXo@@ooo  %%% O@o@oooOOOOO@@ooooX.% ",
"$$$#oooo@@@@@OOO....XoXX$OXXXXo@oooo%%%%   @oooooOOOO@@@@ooo..%%",
"$###oooo@@@@@@O.....XXXX$$OXXX@@ooo@%%%    @@oo@o%%OO@@@@oo@..%$",
"$$$$ooo@@@@@@@@...X..XX$OOOXXo@@@o@@%%%%  #@@o@@@%OOO@@@@@o@..$$",
"$$$#ooo@o@@@@@@@..XX.XXOOOOXX@@@@@@@&%%%O#@@@@@@O%%%%o@@@@@@.$$$",
"$$##ooooo@@@@@@@...XXXXOOO%@o@@@@@@@&&%O##@@@@@@OOO%oo@@@@@@.$$$",
"#####ooo@@@@@@@@@...XX  %%%@@@@@@@@@&%O###@@@@@@OOOOooo@@o@@@$##",
"#####@oo@@@@o@@@@...XX %%%.@@@@@@@@@%OO###@@@@@@OOOOXoo@oo@@@+##",
"####$@@o@@@@oo@@@@..XO%%%%.@@o@@@@@@OO### @@@o@@OO%%XXooooo@@+++",
"+#$$$@@@@@@ooo@@ooo..%%%%%X@oo@@@@@OOO###@@@@oo@O%%.XXXXooo@##++",
" $$$$$@@@@ooo@@ooooX.%%OO%ooooo@@@@OO### @@@ooo%%%%..XXXXXoo####",
" $$$$$@@@@ooo@oooXXX%OOO%%ooo@o@@@oO$### @@@o@o%%OO..XXXXXXo##O ",
" $$$ $@@@@ooooooXXXXOO%%%.ooo@@@@@o$### O@@@@@oOOOO...XXXXXXOO  ",
" $$$ $@@@ooooooXXXXX%%%%%.ooo@@@@o.$###OO@@@@ooOOO$...XXXXXO%   ",
"  $   $@@oXoooXXXXX%%%%%%Xoooo@@oo.###OO@@@@oooO$$$.X..XXXX%%   ",
"  $   $@oXXXooXXoXX%%%%%%ooooo@ooX$##OOO@@oooXo$$$$XXX.XX.X%    ",
"      $@XXXXoXXXooX%%%%%.ooooooooX##OOOO@@o@oXX$$$$XXXXX..X% O  ",
"     $$XXXXXXXXoooo%%%%%.oooooooo.#$OOOOo@@@XXX$$OOXXXX....OOO  ",
"     $$XXXoXXXXoooo%%%%%Xoooooooo.$$$OOOo@@oXXoOOOOOXX.....XO   ",
"    $$OOXooXXXXoXo%%%OOOooooooooX$$$$$OOoo@oXXo OO  XX.X...XO$$ ",
"     OOOXoooXXXXXo%%OOO.ooooooooX$$$$$$OoooXXXo     XXXX....  $$",
"  OOOOOOooXoXXXXoo%%OOO.@ooooooo.O$$$$$$oooXXXX$   &.XX.....$$$$",
"OOOOOO  ooXXXXXooo%OOOO@@ooooooX.OOOO$$$ooXXX.Xo &&&..X......$$O",
"OOOO    @ooXXooooo%OOO$@@@oooooXOOOOOOO$ooXX..XX&&&&.........OOO",
"OO      @oooo@ooo% OO$@@@@@ooooXO   %%  XoX....X&&&OO.....X..OO ",
"O     $$@@oo@@ooo% O$$@@@@@o@oo.  %%%%%%XXX.....O&&&+....XX..OO ",
"     $$$@@o@@@@oo  $$$@@@o@@@oX.%%%%%%%%XX......OO+++....X..XO  ",
"      $@@@@@@@@oo  $$$@@ooo@ooX%%%%%%  %XX.....X++++#...XX.XoO  ",
"%$$    @@@@@@@@ooO$$##@@ooooooX%%%%   %%X......XX+####..XXXoo &%",
"%%$$$  @@@@@@o@oo $##@@@oooooo.%%%%%   OX.....XXX####O.XXXXooo&&",
"%%%%$$$.@@@@@ooo%$##$@@@@ooooX.%%%   OOOO.....XoX##OOOXXXXoooo&%",
"%%%%%O$..@@@oooX$##$#@@@@oo@oXOO   OOOOO#....XXoo$$$OOOXXXoooo%%",
"%%%%%%O..@@@oooX####+@@@@@o@oXOOO$OOOOO##X...Xooo$OOOO%XXoooo@&%",
"OOO%%OO..@@@@oo.##+++@@@@@@@o.OOO$$OOOO##X..XXooooOOOOOXoooo@@%O",
"OO%%OO..o@@@@oX.###+@@@@@@@@X.OO$+$$OO##$oX.Xoo@oo%OOO%%ooo@@@  ",
"OOOOOO..o@@@@oX#####@@@@@@@@XOOO$++$$O#$$oXXXo@@ooOO%%%%ooo@o@  ",
"O$$$OO.oo@@@@oX###++@@@o@@@@XOO$++++$#$$OOXXXo@@@o%%%%&&ooooo@$ ",
"$$$$$$.o@@@@ooX#++++@@ooo@@o.O$$++++##$OOOoXX@@@@o%%%OO o@oo@@$$",
"$$$$$#oo@@@@oo.+++++@oo@o@@o.$$++#+##$OOOOoX@@@@@@o     o@@o@@@$",
"$$###ooo@@@@oX.+++$ @oo@@@@o$$$+#####OOOOOoo@@@@@@o     @@@@@@@$",
"#####oo@@@@@oX++    oooo@@oo$$+#######OOOOoo@oo@@@@    OO@@@@o@#",
"###OOoo@o@@ooX    $$oooooooo$$######OOOO&&&ooooo@@@   OO$@@@oo@#",
"##OO%oooo@@oo.%OO   oooooooo$#####OOOO&&&&&ooooo@@@ OOO$$@@@oo@#",
"##O%%.ooo@@oX.OOOOO oooooooX####OOOO&&&&&%%ooo@o@@ooOO$$$X@ooooO",
"#O%%..@o@@@oXOOOOOOOoooooXXX## OOO&&&&&%%&&ooo@@@ooo###$$XXooooO",
"O%%%..@@@@@oXOO  OOoooooXXXX# OO&&&&&&&&&&&Xooo@ooooO####XXXoooO",
"%%%%.@@@@@@@.      XXoooXoXX OO&&&&&&&&&&&&%XoooooooOO###OXXooo%",
"%%%%.@@@@@@@.O  %%O.XXXoooXX O&&&%&&&&&%%%%%XXooooooOOOO##XXXoo%",
"&%%%.@@@@@@o  %%%OO..XXXoXXXX&&%%&&&%%%%%%##XXXoooooOOOOOOXXXooo",
"&&&&@@@@@ooo%%%%OOO..XXXXXXXX%%%&&%%%%%$####.XXXooooOO%%OOXXXXoo",
"&&&&@@@ooooo%%%%%%O...XX.XXXX%%&%%%%%$$####$.XXXoooX%OO%%O.XXXoo",
"&&&&@oooooooOOO%%O$X..XX...XX%%%%%%$$$####$$..XXooXX%%%%OO.XXXXo",
"%%&@ooo.oooo%OOO$$#X..X.....XX%%% $$######   .XXXoXX&&%%%O..XXXX",
"%&&@ooo..oooO$$$$##X......X.XX%% $$######   %..XXXXX&&&%%O..XX.X",
"%%%oo....ooOOO$$$##X......XXX.% $$$$$###  O%%..XXXX&&&%%%...XX.X",
"%%%o.....ooOO$$$##+XX.X....X...$$  $##  O%%%&..XXXX&%%%%%..XXX..",
"%%Oo......o$$$#####XXXXX....... $$  OOO%%%%&%..XXXXOO%%%%..XoX..",
"%%%.......o$#####  XXooXXX......   OO%%%%%%%%..oXXX#####%.XooXX.",
"%%%.......o####   XXXXoooXXXX....   OO%%%%%%%..ooXOO####..ooooX.",
"%%%........##    OXXooooooXXXXX...   OOO%%%OO.oooX######.Xooooo."
};
