/* XPM */
static char *dDMx[] = {
/* columns rows colors chars-per-pixel */
"64 64 137 2 ",
"   c #7B6D73",
".  c #776B71",
"X  c #6A656A",
"o  c #6A6368",
"O  c #77696F",
"+  c #6A5D62",
"@  c #6B5D62",
"#  c #766263",
"$  c #6E5F63",
"%  c #635C5F",
"&  c #6E5F5E",
"*  c #746365",
"=  c #7E6668",
"-  c #7F6768",
";  c #7E686A",
":  c #716163",
">  c #81696B",
",  c #605C58",
"<  c #5D5B56",
"1  c #5D5955",
"2  c #655C5D",
"3  c #665C5D",
"4  c #5E5A55",
"5  c #7C6C71",
"6  c #796A6F",
"7  c #74696C",
"8  c #7A6565",
"9  c #6D6065",
"0  c #6B6468",
"q  c #665D62",
"w  c #665E64",
"e  c #736162",
"r  c #716062",
"t  c #735F67",
"y  c #83696A",
"u  c #786169",
"i  c #6A5E63",
"p  c #655D5E",
"a  c #625B5A",
"s  c #6E656A",
"d  c #625C56",
"f  c #6D666B",
"g  c #666265",
"h  c #665C5E",
"j  c #685F60",
"k  c #2B1D13",
"l  c #3A291C",
"z  c #846A6B",
"x  c #483423",
"c  c #4D3825",
"v  c #776465",
"b  c #706065",
"n  c #59402C",
"m  c #6A5E5E",
"M  c #5A5952",
"N  c #685D62",
"B  c #6B5F64",
"V  c #6A6066",
"C  c #7C573B",
"Z  c #79553A",
"A  c #865E41",
"S  c #A97A53",
"D  c #B9855C",
"F  c #A37450",
"G  c #886142",
"H  c #B48259",
"J  c #AC7C55",
"K  c #B17F57",
"L  c #956A49",
"P  c #8F6646",
"I  c #855E41",
"U  c #9D704D",
"Y  c #825B3F",
"T  c #7E593C",
"R  c #8C6444",
"E  c #A57751",
"W  c #966C4A",
"Q  c #815B3F",
"!  c #8E6646",
"~  c #926948",
"^  c #805A3E",
"/  c #855F40",
"(  c #9A6E4C",
")  c #936948",
"_  c #815C3E",
"`  c #603F27",
"'  c #896142",
"]  c #887A70",
"[  c #7A563A",
"{  c #694931",
"}  c #996D4B",
"|  c #755238",
" . c #7E736B",
".. c #81766D",
"X. c #B07F56",
"o. c #956B48",
"O. c #714F36",
"+. c #8C6445",
"@. c #886143",
"#. c #85796F",
"$. c #897C71",
"%. c #664630",
"&. c #7B7169",
"*. c #7D6E63",
"=. c #70645B",
"-. c #62442E",
";. c #775339",
":. c #704D35",
">. c #A1734F",
",. c #786C60",
"<. c #7D6D62",
"1. c #73665D",
"2. c #735037",
"3. c #65462F",
"4. c #807064",
"5. c #6C6159",
"6. c #77695F",
"7. c #6E4C34",
"8. c #6A4932",
"9. c #6C4C33",
"0. c #A67752",
"q. c #9F714E",
"w. c #AA7A54",
"e. c #B17F58",
"r. c #60422C",
"t. c #5F412C",
"y. c #8D6445",
"u. c #A0734F",
"i. c #704F35",
"p. c #5C3F2B",
"a. c #928276",
"s. c #A47651",
"d. c #8F8074",
"f. c #7F736B",
"g. c #8B7D72",
"h. c #776E67",
"j. c #593D29",
/* pixels */
"    .   X o o O O o + @ @ + # $ @ % % + + % & * * # # = - = ; : > , : , < 1 + + + + 2 3 4 2 # 5 6 7 8 = = 8 % 9 * # # + 0 o X X ",
".     O o O O O q q w + @ # $ + $ + % o + % $ # e r + t + - - ; ; > * 2 2 1 + + + + < 2 4 # y O 5 + 8 = = & y $ e r + + + 0 0 X ",
"0 X . O . + O o + w w 9 + @ + @ @ % + + X @ % @ # e r - = - $ u - i i q i + 1 + + w p , 2 e = - e & + + : @ a @ # e q e o e s s ",
"0 6 . . O O i + i w 9 # + $ + @ + @ o + X X @ 6 + e $ - y > $ i - - i p 2 1 w + X < * # 2 d r - = e + + w w e @ + e # e # * s X ",
"a : e O o O i i 9 f $ 9 $ + + + @ 0 X + i . + O + + e y y + : ; & : 4 q + 2 i i f * # * d 2 r r - - : + i i + + + r e y # = ; ; ",
"& a X o o o o + 0 @ $ + + + + + @ 0 o X o X = = - e e + + @ i r & a p 2 q q + + 0 0 s r 2 r r r - - r : + i r + @ - e r = e ; = ",
": & & & o & g o + 0 + 0 + 0 + + 0 + o X . X . - @ @ = + @ i e r w a & & + % % + + 0 o 0 r 3 r r @ + r : : : ; e - - O O - ; e = ",
"* : & r g o g o % @ @ @ 0 o 0 q X + X X = . ; ; - + = + @ + + e * w a r h + % o g 0 0 e 0 r e + w + i : = ; : ; - t = r 6 = o 0 ",
", j X o r + % % 0 % @ + g g a o O X : . . > . . - i = + @ w @ * * * : r + o % % 0 g 0 o a a & + + w i i : k ; ; - ; + + 0 l 0 f ",
", < o o o o q @ % % + 0 o q % o 7 O & . > z     ; + + + + w 9 # * : r o o o + @ g g o 0 o + a + % + % i l k * 9 ; + + + l x k s ",
"< 2 1 2 o o @ @ + + % @ 3 % 0 + & & r e = ; z 9 9 : 9 i w 9 9 i w r r r + o @ 0 + + g 0 @ a @ + & & + c k : v 9 > i * X k l l k ",
"2 < 2 1 < o @ q i q + 3 2 p @ + + e r - @ - 9 b 9 9 i i 9 a + + r : r + i + 0 + i o + 0 o i @ + r e k k l e 9 v 9 9 i k l x l l ",
"1 o 2 2 1 < 4 p + q 3 w p + 1 @ $ $ e e + @ - i 9 i : + + + a r r r r + + i 0 X + + 0 X X + r l l k k l c @ @ w * i X x x n x x ",
"o o 2 2 p < < 4 + w q 2 2 4 @ $ 9 9 b # e * @ r w 9 + a a & + + + + + + i i X 0 o X o o o l l x l l l k @ 9 @ r : 9 + x n x x + ",
". O . o 2 p p 2 2 k w i 3 2 m @ 2 3 * e i + * * : : & r a & + + X + i + o X i + + o X X l l l l l n l l w + 9 9 : : % x n x + r ",
". X O O j w i 2 k l k k 2 3 d 2 3 d r r e : 9 + * < + l k : r w X X + o f X X o i x l l l x l l l l l + @ w 9 + * : x n n : O . ",
". .     p + X k l x l c k k 4 1 e 2 2 2 : i : i j < l k l k w w X i f f X o X X x l c x x s l c l l n o w w w w * : : x & r . . ",
"6   O . f + + k l c x l l l q 2 2 4 2 M r : i q p k k x k k l w @ 9 o X f o o o l x O - 6 c n l l n o & o w i + i f o g & & = . ",
"6 O o O @ + + k l x l + l l l l < r 4 4 % + i i k l k k k l l l 4 2 1 q N o 2 c x 6 - O l l l l n + @ N % + w i i + g o = O = = ",
"O 6 o o + @ $ k l l + x c x x n l 4 4 h % + i i k k n k x l x l 2 4 q 1 1 N s x 0 = O l l n n n o 0 6 g % + i i + X o O 6 s y o ",
"o o + g + $ 9 k 9 9 w x n l n n n l % M 2 1 : r p l l x x x l + 2 2 1 a q B * x 9 9 l l n ; = O 6 6 g g O O . + X o 0 0 O 6 O o ",
"o + % + w v v b X 9 x n x n n x c n l M q + & & r n x x n l l 2 2 2 & q i b v v : * * X = = - O = 6 O g o O g g O g 6 O O 6 6 o ",
"@ + % % i b # 9 9 x c x n c x n n x n q % + 2 & @ 3 l n x l + + @ 2 a & i b # * * * : X O ; = - 6 O 7 O g O o g 0 0 r k l k k k ",
"x l % o + i w w f x c c n n n x x n n @ @ + r + + 0 l n x n + = @ % % r + : i : 9 : r : : O 8 8 7 O o 6 6 o o + k l k k l l k l ",
"l l l + + @ + + @ n n x x n n n c x @ + i e o 0 0 $ l x n n + r + 8 = = = e r + e + r r r r = O 8 7 0 o X @ o k k k k l l l l l ",
"x x l x l $ @ @ + o x n n c x n n @ % i * : 0 o 0 e n l x + r = r = & y e # - @ + O e r r r k k k 6 7 X f X k l l k k l l x x l ",
"x x x x l $ $ @ 0 0 o n x c n x @ + f i i 9 i + @ q e n + & = 8 O O 6 6 y y y - @ e + e k k k k k k k . i , l k l l l l x x l x ",
"x x l l l l @ + o o X o 0 x x @ + i 9 9 i f i + + @ + e e r 8 & O O O - y - - r r o i x l l l x l k k k i 9 w l l x x x x l x x ",
"x x x x 0 l o + X + X X o 0 r + i f 9 i f X f i o + @ + = e r r r + e r - 6 O r X o x l l x x l l l k k k w V p c l l x c l x x ",
"x x x l x l w + + g o o o 0 @ + X + + 9 9 f X @ r + + + + = = & + + & O g @ : r o & l l l x x x x l l k k j i @ x l x x c x x x ",
"x x l l x l l w i O g g o g + @ 0 + 9 i f X @ 9 e + + + + 8 % i : ; + 8 % + + i i x n n x x l x x l l l k k 3 V 3 l l l x x l x ",
"x l l x l x l + . . + g g o @ $ $ @ o + X + f $ $ e r r 8 k x l k k k + + + + c n n c n x x x l l l x l x k k m d x x l l l l l ",
"l x x x l O O o o o + @ 0 o s s 0 % % + o g a 9 * $ y k k k x l l k i > w + c n n c n x c x x x x x x l l x k k j x c c l l l l ",
"l l l l o + k k k k i + 0 s s + $ + % o q g $ # e = c l l x n l l l 9 + + + n n n n n x l n x x n C l Z l l x k 3 2 x c l l x l ",
"x l X O k k x x c l l k + @ + @ @ % o k l e a e # l x n x n c n l l i + i 2 x n x n c l x x x l n n A x n S l l k 4 c x x l x x ",
"x e k k x c x l l x l l k # + @ + @ k k l k e e r x c x n n n n n n : i + c c x l c c x x x x l n A D F n G x n l k d c x l C x ",
"x l l x c x l l x x x x $ + + + e @ l k k l r + l l c c l l c n x i @ + + l c n x l x x x x n l H S J K L P I I l l 4 x x U Y Z ",
"T x x c x l x x x x R x + = + r @ k k k l x + + l x n x x l l n n g i + r x l x x x x n x n l n S E P W S P Q ! G l l x x ~ T ^ ",
"/ n x x l x l x x Q x ( r e r = e l l c l x i 6 6 x x x n x l l w a & & x x n n n n x x x l l J ( S ~ ~ R R ~ ( ) l l l ~ W R _ ",
"~ R l x l x x x x ` x ` Z = @ r : l x l c c k . 6 l l l l c x l f : & r x n l l l l l l l n ' _ R ~ ( ) P P ~ ] C [ l l T I P P ",
"_ R x x x l x n x x ` { Z Z & + O : l x c x l k 6 . l x l x x 9 9 * : x l l x n } l n ~ n n | Z _ ~ I G R P ]  ...C x l x R G R ",
"T W | x x l l n x x x X.X.o.8 O 7 O x c c c x l k + o x l x x # * x x 2 r x n ~ } I n n ^ ^ Z | O.| Q R R G  .....Z Z l +.+.} ' ",
"~ P I x x x l x x ^ o.o.X.@.o.= 7 & o c l x c x x k k i l l * x x x l l l x n W ! ) ( ! W | O.O.Z P R ( ) R +.#. .$./ | P U } T ",
"P R I W _ x l l x C o.o.X.o.o.= o 0 O 6 6 x c l c c c x c l l x %.Z x x x n ~ W ~ P W ~ Q | Z | C R R U P ) I G &.#.#.~ | _ Z ! ",
"R G G I C x l l x x Z @.o.o.= - n 5 6 6 O 0 c l l x c l c c c *.=.| | n n P ) ~ ~ ~ R R Z -.^ ;.:.Y P R U U >.} I Z T T Z Z / ( ",
"} P R O.A Z C x T x x x o.- 0 5 n n n 5 0 f 0 o x [ c c x ) ,.,.<.1.=.O.} R P W T G ^ | Z ^ 2.' { 2.-.Z ~ } W ' R ! ^ 3.{ ^ W W ",
"U R | ^ A Y Z | ^ / Z x 0 o 5 x n n n n n + f f ^ ^ T P ~ } P _ 4.=.5.6.A L R G ) / Z C A Z C _ _ { 7./ ~ ! ~ [ ^ ^ T C { A C W ",
"U } 8.9.C A A A _ _ Z r + @ x x x T n W n n n q f X Z Z P W T ! ' <.6.,.1.A } } W W Z T C C Z | _ T / _ _ Z T Z 0.U Z -.%._ T [ ",
"( ' C -.-.^ 9._ T i : o x x x +.+.x W F ~ ( n n n F | F O.^ Z ^ / ' C =.=.^ _ W ~ ~ ! T T ^ R Z Z _ _ Z T / C 0.~ F q.R O.8.-.^ ",
"T ' Y Z Z 9.-.+ + + + x x P 7.7.R x ! ~ ~ 0.S q.F w.H A ^ | 7.| T ' Y Z Z _ Z [ R ) W T / C 7.Q Z C [ T S 0.S q.F ) H e.8.r.} t.",
"^ T Z 7.Z T ~ e r x x x x Q x R ) R ~ G ) R R R >.e.e.S | [ / Z ^ T F 7.Z T T Z ^ ~ ~ T 7.7.^ R ^ R T q.w.F F R >.} } ~ t.E K F ",
"_ T / Z | Q # - x x x | x ^ P R P Z ) Z U L R ^ _ W S J R ^ _ S J S ( Z | 7.Z ^ C C O.| O.^ C Z P R ) F H L R ) W W ~ W F ) W ~ ",
"C T P ) G P x x x G Z Z A ' [ T C O.' y.Y _ R R C [ ~ S F C [ F P S P ^ t.C A A C | Z Z :.' [ T C O.' D L W R R P [ ~ ~ R P ! Z ",
"T [ W P R J x Y Y A R Y A T S Z O.7.' _ T _ ! G [ ~ ~ ! R F R / ~ ! _ C -._ [ Y Y A Z Y :.{ T Z O.7.' _ ~ W ! G [ ~ ~ ! R Z R ( ",
"( T Z R R F x x / } >.>.Z P S _ / T T T { { R +.) T ( ) ~ u.R C / ~ Z Z -.-.A / / A D y.-.C T _ / T T T T ~ R +.+.~ ( ) ~ | R P ",
"~ ~ ) ) P _ T x ' ! W ' A F U W T T ^ i.9.C Z Z G ) ) ) ) ) ) | T T ^ ^ C 9.{ { 2.[ J H A -.2._ T T ^ / _ C R R G Q W C Z I G G ",
"W R U _ T _ T | T _ _ S e.e.G R C Z -.%.T 9.Z | Z C C ) ) A 7.A _ Z O._ T _ { | T J J ~ e.e.t.-.C Z Z C T _ R G R P P } } } Q } ",
"Z P ! ~ A | | T T T Z ~ K >.} P Z %.t.Z Z | | Z T Z A A / / T _ Z C [ T } | | ~ S S R S ( >.} %.-.C | R Z | | R ~ Z } } / ( ~ W ",
"Z _ ~ ( ) Z ^ C | ^ w.E 0.W } R } %.p.8.^ Z Z C | ^ y.[ %._ T T Z _ ~ ( ) R ^ C | ) ) ! P W A -.:.C O.) ) Z Z C | ^ >.! C _ ~ ~ ",
"_ } ~ P W ) Z ' Z C P S ! 0.R G P R p.G C y.O.C Z C a.T [ 9.-.[ _ A T C W ) R ' Z C P T [ C Z | %.-.O.G P y.O.C -.C 2.T [ _ Z [ ",
"T ! P R P ' y.T Z Z U I R R +.) R G P R ' ' y.O.Z ....] ] T i.i.{ [ C Z P U >.T R F U I R Z Z ^ Z t.P R U ' y.O.Z -.-.T T T / / ",
"R W ~ R Z A _ _ T q.s.G R ) P G I P ~ R R Z C G O. .d. ...d.#._ Z 9.{ R R } W W ~ G +.G Z ^ C | O.C ~ R R R C | O.| i.t.Z / C _ ",
"W ~ | ^ A Y T [ ( w.~ P R R C P G I G ( } ! Z G Z / ] #...&.f.#._ ~ G ) } L ~ ! ( ) T C Z Z C C | I G ( } ! R G +./ T %.-.p.r.C ",
"W Z ^ C ' T T F J W S ~ P C Z | _ ~ ( W P R R R _ _ T T g.#.&.h.W R ^ P U ~ ~ R W _ T T C C Z G W ~ ( W P R R R W W ~ T 9.C p.j."
};
