/* XPM */
static char *dDM0[] = {
/* columns rows colors chars-per-pixel */
"64 64 12 1 ",
"  c #3E3836",
". c #3C2F23",
"X c #4E3F27",
"o c #3A383D",
"O c #443522",
"+ c #33323A",
"@ c #434445",
"# c #46403E",
"$ c #5A482C",
"% c #665234",
"& c #322D36",
"* c #494A4C",
/* pixels */
"    ..XXXXXX.    ooo  OO ++++oo..XXXXooooooo@X....XXXXXXXX.++   ",
"    ..XXXXX.  ooooo   OOO++o##..X$$XX oooooooXXX...XXXXXX..+++  ",
"    .X$$XXX.oooooo  +OO...##XXXXXX$$X.  ooooooXXXX...XXXX..+++  ",
"   .X$$$$$.oooooo +++......OOOOX$$$$$.   oooooXXXXX$$$XXXX..+++ ",
" ##XXX$$$X.ooooo+++++.......OOX$$$$$XX.++ oooooXXXXX$$$$XX..+++ ",
"##XXX$$$XXXoooooo+++........OOX$$$$XXXX.   oooo$XXX$$$$$$XX..+++",
"XXX$$$$$$$XX+oo+++++O......OOX$$$XXXXXXXXO @oo$$$$$$$$$$$XXX..+#",
"X$$$$$$XXXXXXo+++++OOOO...OOOX$$$$XXXXXXOO...XX$$$$$$$%$$$XXX..#",
"$$$$$XXXXXXXXX.+++OOOOOOOOOOX$$XXXXXXXXXXOO...XXX$$$$$$%%$$XXXX.",
"$$$$XXXXXXXXX...XXXOOOOOOOO+++&XXXXXOOOXXXOO...XXXX$$$$$%%%$XXXX",
"X$$$XXXXXXXX...XXOXXOOOO+++++&&++XOOOOOOXXXO....XXXX$$$$$%%%XXXX",
"X$$XXXXXXX...XXXXOOOOO ++++++++++&&OOOOXXOOO....XX$$$$$XXX$%%XXX",
"XX$XXXX....+XXXXXXOOOo++++++&&&+&&&+OOOOOOO...X.X$$$$XXXX$$$XX**",
".XXXX....oooX.XXXXXOo++++++++&&&&&+ooOOOOOO...XX$$XXXXXXXXXXX@**",
" ......#oooX..XXXXXX+++oo+&&&&&&++ooo@OOOO...XXXXXXXXXXXXXXX@@@@",
"  ...####oo..XXX$$$X.ooo+++&&&++oooo#@@OOO..XXXXXXXX.....XXXX@o ",
"   #######...X$$$XXO.o++++..++ooooo#@@@OO..XX.XXXXXo##**...XXXX ",
"X#######@...X$$$XXXXO.+++++...oooo##@@@oO....XXXXo###*@@@@...XXX",
"XXXX###...X$$$$$$$$$XO.+++oo....o##@@@oo....XXXX####@@@@ooo...XX",
"XXXXX$$$$$$$$$$$$$$$$XO.+oo+.......@@oo...XXXXXX#####@oooo+....X",
"XXXX$$XX$$$$$$$$$$$XXXO+o+++o.XX.....XXXXXXXXXXX###oooooo+++..XX",
"XXXXX$$XXXXX$$$$$XXXXO+++++oo..XXXXXXXXXXX$$XXXX.ooooo  +++o.OXX",
"XXXXXXOOOXX$$$$XXXXO++++oooooo..XXXXXXXXX$$XXXXX.ooo   ++o+.OXXO",
"XXXXXXXOOOOOOOXXXO+++ooooooooo#..XXXXOOX$$$$$XXX.o    +++oo.OXOO",
"  XXXXXXOOO.OOOO++++ooooooo#####XXXXOOOO$$$$$$$XX.   &&++o.OOOOO",
" XXXXXOOOO...OO+++++ooooo######oXXXOOOOO$$$$$$$$X. &&&+++.OOOO##",
"XXX.OOOOO.....+++++oooo######ooooXXXXOOOX$$$$$$$XX.&&++..OOOO##o",
"XX.OOOOO.. ....++++ooo#####ooooooXXXXXOOOXX$$$$XXXXXXXXOOOOO#ooX",
"X..OOOO.    ...+++ oXX.##oooooooo XXOOOOOO$$$$XXXXXXXOOOOOO#oooX",
"..OOOO###  XX...++ XXX$%%.oooo    XXXOOO###...XXXXXOOOOOOOXoooXX",
".X$XX### XXXXX... XX$$$$%%%.    +%XXXXO++    o..XOOOOOOOOOOXooX.",
"X$$$  #XX$$XXX...X$$XX$$$%%%%. +%%$XX. +++ ooooo..OOOOXXOOXXX$..",
"$$$$$XXXXX$$XXX...X$$XXX$$%%%%%%%$$X..++ ooooo***...OXXXXXXX$$.X",
"$$$XXXXX$$$XXXX...X.XXXXX$$%%%%%$$$X.  ooooo****@@...OXXXXXX$..X",
"$$$$XX$$$$XXXX.......XX$$$$$$%%%%$X..ooooo@@@@***@...XXXXXX$$..X",
"$$$$$$$$XXXXX.........XX$$$$%%%$$$X..ooo@@@@#######..XXXX$X$$.XX",
"$$$$$$$$$XXX.+.....OX..XX$$$$$$$$$$.ooo@@@########o.XXXXX$$$&.XX",
"$$$$$$$$$$X.+++....O*XXXXXXXX$$$$$$.ooo@@#######ooooXXX$X$$$&++X",
"oXXX$$$$$$.+++o...OO***XXXXXXXX$$$$$oo@@#####oooo++o.XX$X$$$$o  ",
"ooX$$$$$$X.++oo@..OOO**@@XXX$$$$$$$$Xo@###oooooX++oo+XXX$X$$$   ",
"o#XX$$$XX.+ooo@@.OXOO*@@## X$$$$$$$XX@##ooooooo$+++++XXX$$$$$$# ",
"###XXXXXX.oooo@.OXXOO@####  X$$$$$XXXX#ooooooo+$X++++.XXX$$$$$##",
"###XXXXXX.oooXXXXXOOOO ##   oXX$$XXXXXXoooooo+$$$+    XXXXXX$$$#",
"##@@XXXXXooX$$$$XXOOOO##   o##XXXXXXXXXooooo&&$$$     XXXXXXXX$#",
"XX@@XXXXXX$$$$$XXOOOOOO   o###*XXXXXXX.ooo&&&&$$$X    .XXXXXXXXX",
"XXXXX$$$$$$$XXXXOOOOOOOO o####@@XXXXX.oo&&&&&$$$$$    oXXXXXXXXX",
"$$$$$$$$$$XXXXXOOOXXXOOOO####@@XXXXX..&&&&&oo$$$$$X oooXXOOOXXXX",
"X$$$$$$$$XXXXXXXXOOXXXXXOO#@@XXX$XX..&&&&+++o$$$$$$ooo#XXXOOOOXX",
"OOXX$$$$$$$$XXXXXXXXXXXXX$$$XXXX$$X..&&++&&+$$$$$$$X@@@..OOOOXXO",
"OOOOOX$$$$XoooXXXXXXXXX$$$$$$$X$$$..&&&&&&&&$$$$X$$$o@.....OOOOO",
"OOOOOOOO  ooo   XXXXXXXXXX$$$$$$$$..&&&&&&&+$$$XXX$$$o.......OOO",
"OO...&&+   ooo  +XXXXXXXX$$$$$$$$X...&&++++$$$XXX$$$X..........O",
"...+&&+       ++O$XXXX$$$$$$$$$$$XX..+++++@$$$XXXXXXXXX.........",
".&&&&++     ++OX$$$$XXX$$$%%%$$$$XX...+#@@X$$XXXXXXXXXXXX.......",
"&&&&++    ++OOXX$$$$$$$$$$$%%%$$$$X....@@@$$XXXXX++XXXXXXXX....&",
"&&&&&++ ++.OOXX$$$$$$$$$$%%%%%%$$$XX.O..@$XXXXXX+&&&XXXXXXXX..+&",
"++&&&&+++.OOXX$$$$$$$$$%%%%%%$$$$$XX..OOOXXXXXX+++&&&XXXXXX..++&",
"+&&&++++.OOXX$$$$XXXX$$$%%%$$$$$$$XXX..OOOXXXXX&&&&&&XXXXXXXo+++",
"++++++o.OOXXXXX$$$XXXX$$$%%%$$$$$XXXXXOOXXXXXX&&&&&&&&XXXXXooo++",
"++++oo..OXXXXXXXXXXX$$$$$$$$$$XXXXXXXXXXXXXXX.++&&&&++XXXXXoooo+",
"++oooo.OXXXXXXXXXXXXXXX$$$$$XXXXXXXXXXXXXXXXX.&&&&oooXXXXX+ooo+o",
"+++++..XXXXXXX..@  XXXXXXXX..XXXXXXX..+++XXXXX.+ooo@@XXXXX+ oo++",
"++++o.XXXXXXX.@    ooXXXXX+++..XXXX.oo+++++XXX.oooooXXXXXX++ oo+",
"+++ooXXXXXXX.    oooo XXX++++o..XXX  ooo+++oXXX.@@@XXXXXXX@+    "
};
