/* XPM */
static char *dDQ_[] = {
/* columns rows colors chars-per-pixel */
"64 64 157 2 ",
"   c #083F08",
".  c #064406",
"X  c #054E05",
"o  c #0C440C",
"O  c #0B4B0B",
"+  c #035403",
"@  c #035B03",
"#  c #0C530C",
"$  c #0A5C0A",
"%  c #164C16",
"&  c #194A19",
"*  c #135413",
"=  c #145C14",
"-  c #1C541C",
";  c #1C5D1C",
":  c #046404",
">  c #036C03",
",  c #0B640B",
"<  c #0B6C0B",
"1  c #047404",
"2  c #057B05",
"3  c #0C740C",
"4  c #0C7C0C",
"5  c #136413",
"6  c #136B13",
"7  c #1B641B",
"8  c #1B6C1B",
"9  c #137413",
"0  c #137B13",
"q  c #1B741B",
"w  c #1B7C1B",
"e  c #254425",
"r  c #234823",
"t  c #215321",
"y  c #235C23",
"u  c #2E522E",
"i  c #2B5D2B",
"p  c #315D31",
"a  c #236423",
"s  c #236B23",
"d  c #296529",
"f  c #2B6C2B",
"g  c #247424",
"h  c #237B23",
"j  c #2A732A",
"k  c #2B7B2B",
"l  c #326C32",
"z  c #3B643B",
"x  c #327632",
"c  c #327C32",
"v  c #3D743D",
"b  c #387B38",
"n  c #048304",
"m  c #048C04",
"M  c #0B840B",
"N  c #0B8C0B",
"B  c #049404",
"V  c #059B05",
"C  c #0C940C",
"Z  c #0B9C0B",
"A  c #148414",
"S  c #138B13",
"D  c #1B831B",
"F  c #1C8B1C",
"G  c #149414",
"H  c #159A15",
"J  c #1A951A",
"K  c #1A971A",
"L  c #189418",
"P  c #1B931B",
"I  c #1E9A1E",
"U  c #1C9B1C",
"Y  c #00A300",
"T  c #01A401",
"R  c #04A404",
"E  c #00AA00",
"W  c #04AC04",
"Q  c #0AA50A",
"!  c #0BA30B",
"~  c #0AA80A",
"^  c #08AF08",
"/  c #0AAC0A",
"(  c #00B000",
")  c #04B204",
"_  c #02B102",
"`  c #00BB00",
"'  c #03B903",
"]  c #0BB30B",
"[  c #09BC09",
"{  c #13A413",
"}  c #16A116",
"|  c #17A717",
" . c #13A413",
".. c #10A810",
"X. c #13A813",
"o. c #11AD11",
"O. c #13A913",
"+. c #1CA21C",
"@. c #1AAC1A",
"#. c #12B412",
"$. c #1FB11F",
"%. c #1CB21C",
"&. c #208220",
"*. c #238123",
"=. c #238223",
"-. c #248124",
";. c #258625",
":. c #248424",
">. c #208B20",
",. c #208E20",
"<. c #258925",
"1. c #278827",
"2. c #238B23",
"3. c #2A812A",
"4. c #298729",
"5. c #2E822E",
"6. c #2C872C",
"7. c #2B832B",
"8. c #2A8E2A",
"9. c #2C8E2C",
"0. c #2B8B2B",
"q. c #269726",
"w. c #229322",
"e. c #279D27",
"r. c #249B24",
"t. c #2B942B",
"y. c #2D9F2D",
"u. c #2C9C2C",
"i. c #338333",
"p. c #358C35",
"a. c #338B33",
"s. c #3A843A",
"d. c #388B38",
"f. c #3B8B3B",
"g. c #329332",
"h. c #319D31",
"j. c #369936",
"k. c #319B31",
"l. c #3A943A",
"z. c #3A943A",
"x. c #23A523",
"c. c #21AB21",
"v. c #22AD22",
"b. c #2AA02A",
"n. c #2AA52A",
"m. c #31A031",
"M. c #3CA23C",
"N. c #3CA23C",
"B. c #3BB63B",
"V. c #38BE38",
"C. c #03C103",
"Z. c #06C906",
"A. c #09CA09",
"S. c #05D405",
"D. c #409640",
"F. c None",
"G. c black",
/* pixels */
"F.F.F.k k H f n B V F.F.F.8.F.F.k - N 5 4 1 n , N S F.F.j n B ) / F.F.F.F.F.F.9 4 A c.F.e.g F.-.F.F.b.$.z ; $ * 2 9 F.F.F.F.h F.",
"F.F.F.F.A N n B B 6 F.F.j.! } h C i 7 + n n B A A F k F.F.n n ` C  .F.F.F.F.F.8 5 t F.j ;.0 a w F.M.G 2.h V n 5 > S F.8 3 ;.F.F.",
"F.F.F.F.8 9 6 < B F F.F.F.l.F h 4 f - < & S 8 <.S ! g F.q S B ) Z E F.F.F.F.F.s 9 , 0 F.s 4 < 8 F.F.F.a D C n ; N 4 q 9 D 7.g F.",
"F.F.F.F.6 1 > n n q F.F.b.q.F.=.D F., 6 F.5.F.F.p.N w 9 4 N B D B Z N P F.F.F.f 6 9 a F.=.1 M 8 F.F.d F.S / ~ D V p.F.6 9 k ; F.",
"Z 6.F.0 , 4 > > > 5 F.F.F.F.F.s a k 0 F.F.<.F.F.I D y A N n T > n < N 0 G h M < N C F.5 j M Z q F.F.A g 9 T Q < 9 j F.F.S M 2 x ",
"K X.8 0 i.g   X # 9 j F.9.J w 6 2 M F.F.;.D F.F N w 6 N 6 N 3 2 > : 4 4 4 7 - - 3 A D 9 M A h. .J q h d 7 n m 1 ; 6 9 6 - N N f ",
"f w < 1 $ n + + + M M t.F.F.F.8 M S s k D =.F A M , < 1 > m > 1 : 2 4 A F.F.9 3 7 D 3 9 n B H G 2 8 5 j 7 > m 1 1 9 < M C M , D ",
"s.+.> > 1 Y : > > M g F.F.F.F.< 4 A S S -.g S w A N 2 j 2 $ F.5 2 6 | ;.F.F.F.A 8 5 > 0 2 C w.F C d 3 M 8 3 m 4 V D < 6 - 6 3 0 ",
"M c B B m B 4 3 2 5 F.F.F.F.F 1 2 x q < g q 8 5 N C A 8 0 3 F.F.n F.V F.F.F.F.2.M q > < 2 Z D D k f q w h H #.F.n n f i q l , 1 ",
"H ^ W I S ) G x.F.8 F.F.F.D 4 A l 6.N A 3 q 8 6 b Z 4 < 1 1 ~ V 1 m m x F.F.+.q.9 3 8 0 A G 9 D 3.2.F.F.6 M d.F.L V 3 4 4 N s.#.",
"F.8.] F w g l F.w M ; = 4 q.M D F.i.C N > 3 A 4 M 4 : < : B S.Z.> 1 > < g F.| N 3 < 9 D 0 Q C w h U X.A :.D F.F.x./ ~ X.F.K h.p.",
"F.F.v.x.A h F.F.G i e < 2 C C G D F S N 2 3 9 N C 2 1 @ + m 2 2 B 2 5 > 9 F.+.Z 4 < M D S ^ B H w A N M x F.F.F.c P ! ! 2.F.F.F.",
"F.F.F.f k j F.F.F.6 # . > B F P C Z B V M 3 P q 1 2 8 7 3 3 N V 6 n m 1 - 8 N ' 2 9 0 S G P J S C N D h F.F.F.F.k C N j F.F.V.z.",
"F.F.F.F.<.;.F.F.F.3 5 X 3 0 w P 9 M N A <.4 P F.! ! h d F.F.F.2.F.u M 5 2 R W [ Z M 1 4 5 m G I D 8 A F.F.s F.F.F.7 1 f F.F.F.F.",
"F.F.F.x F.P u.F.J , 5 $ 8 8 <.:.H G q 4 0 2 g g :.G 0 m h ;.! F.F.< 5 7 M R N B V B 9 @ 6 w a.g.F.r.G a F.q k F.F.; n $ i.m.F.F.",
"F.x g A F.F.w F b C B < 3 9 F.w S 2.G M M A A 2 m 2 8 4 <.G m M A n : 3 m C w f ! Z 6 O ; F.x 2.F.F =.8 p 0 0 f G.7 < 2 g F.F.F.",
"F.S ; 5 2.N D F l 4 1 0 6 d f x F I G h h S q , > 4 F.x F.S n 4 M m m m > $ 6 Q N L 6 6 g h j h F.F.F.F.g ! M * F.3 n 2 S +.k F.",
"0 w g F.F.F.h q F.H N A w F.F.A F.F <.@.D V y 0 $ < 5 k F.h k w < - 3 : : 5 L C.! { m m 3 S g 8 k F.w j 9  .M $ 5 2 m < M i.<.+.",
"9 w s F.F.-.C M w m N N F ;.A F f k F.8.8 N 3.F.y @ 7 F.F.5 F.i.d N n @ F.* B ) ^ B n Z M M 4 0 h 6.9 w w S q $ 1 n > + n m Q i.",
"S G j =.N A N 3 q g G F -.k F.F.F.b 0 7 =.F.F.F.8 @ < = < $ 8 C H i i.F.@ $ 8 i.^ N k B M M B 4 H F.w 0 6 a D =.9 M 1 > m B S 4 ",
"8 < 3 f w D A q a F.w F x x i.F.2.9 > 9 F.F.F.8 6.F.F.F.< r F.4 F.F.U Z > $ 7 1 m 4 f n 1 = M S A C 2.s ; a 3.w D 3 2 1 2 B ) B ",
"6 8 l f F.F.S 9 5 9 9 C 9 4 7.w.v.a.j 4 F.g / 4 F.F.m < M 8 $ % * F.r.C y w a.F.M 2 f s = q 3 3 V Q d y + ; F.D B 1 4 : 2 1 m : ",
"7 x F.h 8 F.K n < : 2 0 =.F.l.u.d.F.F.F.F.F.<.F.8 6 F.F.- X + = $ F.; 2 6 F.s F.F.0 j F.4 0 Z w B n < M 3 7 f A C n 3 , 1 5 < $ ",
"F.s.h M 0 F ! 0 < 2 A A F.F.k S w b F.F.q Z q n > > S A 2 $ O 1 4 m 8 F.1 , F.f F.F.J H Z C B < 1 3 6 D 0 M 0 S 0 F.8 0 : $ < z ",
"F.F.F.F.F.F S q q 9 2.G q.y 0 h P 0.6.h D S Z w y 2 m n > > < P S M N F.4 ; O F.w F.+.P [ Z I q : $ 3 M M N D w 8 F.F.F.; 0 $ F.",
"F.F.F.F.F.x.r.G 6 6 9 a w n 0 g.F.F.F.D 2.F.F.F.F.o > 3 B E N #.+.F.I T m d * * , 9 D x A 0 < 3 + > 2 : 7 8 P j F.F.F.F.F.F.a F.",
"F.F.h r.8.x.D m : 3 < 9 n S Q q.F.F.F.F.F.F.Z.4 7 . @ : E 8.R H v n./ Z A S d 1 $ < d F.< m 3 > n < 2 6 F.F.F.D h F.F.q F 0 - < ",
"< s J r.b.D w M 3 > @ , 3 9 S e.F.F.F.F.3.k.i.F.% X > B G U D G %.F.D b F.n k F.F.< - F.@ n , < : , < F F.F.F.:.5.F.F.9 S n 3 : ",
"1 > i F.F.F.8 N m N d s = 5 8 A x F.F.S K s.F.F.1 + 9 3 b D F.F.F.F.F.I F.F.h a.F.V 5 * 9 4 M M w s q h F.F.F.F.F.F.F.F.7 $ > 1 ",
"n 6 j F.F.F.F.C P 8 F.5 - 7 5 M F.F.F.F.F.F.F.N B 7 > 8 F.t.F.F.F.F.F.M F.F.F.k 6.A < 4 g.a.w 6 F.A 7 P Z 4 F.j g f h F.g 6 < : ",
"n F.F.F.F.F.F.q P N w D f 0 d D F.F.F.S i.F.P H h 9 M 1 8 S F.F.F.F.F.0 L F.F.F.F.M 3 A i.a.A 2.F.r.G n m M ;.h d 8 h F.D q N m ",
"6 F.F.F.F.F.F.0 m 2 F.F.5.F.F.<.F.F.B.| 2.F.y 1 V N F.a.j 5.k p.F.F.p.g p A F.F.F n k F.;.z.F.k.F.F.G < 2 n L 7 3 x 0.f.+.F n 4 ",
"o.F.F.F.F.F.F.9 4 A v.F.e.g F.-.F.F.e.%.z = $ * 2 q F.F.F.F.h F.F.F.F.k k K f n B V F.F.F.8.F.F.3.- N 7 4 2 n < N A F.F.j m B E ",
"C { F.F.F.F.F.8 5 t F.k 0.9 s q F.M.G 2.h V n 5 > S F.8 3 <.F.F.F.F.F.F.S N m B B 6 F.F.j.Z } h C y 7 + 2 m m M S F k F.F.n n ` ",
"Z E F.F.F.F.F.s q , 0 F.s 4 < 8 F.F.F.a h B n ; N 4 q 3 D i.g F.F.F.F.F.8 9 6 < B F F.F.F.z.2.=.4 f - > & S 8 <.S Q g F.q S B ) ",
"m Z S J F.F.F.f 5 9 a F.D 1 M 8 F.F.d F.G / X.D V p.F.8 3 g ; F.F.F.F.F.5 1 > n n q F.F.b.q.F.=.D F., 8 F.5.F.F.f.N 9 w 4 N B D ",
"n < N 4 G h M > N N F.6 g 4 Z q F.F.A q 0 Y Q < w f F.F.D M 4 x Z 6.F.0 , 2 > > , 5 F.F.F.F.F.s y k 0 F.F.<.F.F.I D y A N n T > ",
"> > 9 4 4 7 t - 1 A D 9 M A h.@.P q h d 7 n m 1 ; 6 9 6 = N N f I  .8 0 b h   X $ 9 j F.9.J w 6 4 M F.F.-.D F.2.N w 9 M 6 M 3 M ",
": 1 4 M F.F.9 3 y S 3 6 m B L G 4 8 6 l 7 > n > 1 9 < n C n , D f D > 1 $ n + + + M A t.F.F.F.6 M N s 7.D :.F A M < < 1 > m > 1 ",
"2 q | 6.F.F.F.A 8 5 1 9 2 C P w.N s 3 M 8 3 B 4 V A 9 6 - 6 3 0 s.U > > 1 T : > > M q F.F.F.F.9 4 A S A -.g S w A M 2 g 2 $ F.5 ",
"n F.Z F.F.F.F.2.M q > < M Z A w k f q w h H #.F.n n f a 8 l 5 1 M i.B B m B 4 3 2 5 F.F.F.F.F 1 2 k q < j 9 8 6 C N A 8 9 3 F.F.",
"1 m n k F.F.H q.0 3 7 0 A L 9 A ;.2.F.F.6 M f.F.L B 3 0 4 N s.#.H ] E I G E G x.F.8 F.F.F.D 4 0 l 6.S M 3 q 6 6 b Z 4 < 1 2 ~ V ",
"< 1 1 < j F.X.N 1 6 4 w 0 ! C w h U X.A =.D F.F.x./ ~ / F.K b.p.F.6.] D q j l F.q M ; = 4 q.M D F.i.H N > 3 A 3 M 4 : < > B S.A.",
"B 2 , > 9 F.x.! 4 < M D S ^ B H w A N M x F.F.F.i.F { ! 2.F.F.F.F.F.$.x.S h F.F.L d e < 2 C C G D 2.N m 4 3 9 N C 2 1 @ + n 2 2 ",
"< n m 1 - 8 N ' 4 3 0 D C J L S S N S h F.F.F.F.i.C S j F.F.V.z.F.F.F.f k j F.F.F.< # O 1 B F F G V B Z M 3 P q 3 2 q ; 3 3 m V ",
"F.u M , 2 ! ^ [ ! 4 1 4 5 m L r.D 8 A F.F.s F.F.F.7 1 s F.F.F.F.F.F.F.F.2.;.F.F.F.9 , X 1 0 w P 9 M N A <.4 P F.! R h d F.F.F.2.",
"F.6 5 7 M R m m V Z 6 : 8 w a.t.F.e.C a F.q h F.F.; n $ i.h.F.F.F.F.F.x F.G u.F.J , 7 @ q 8 <.:.H G q M q 2 g h :.S 0 N g ;.{ F.",
"A m : 3 M B w j Z Z < O ; F.l w.F.F :.s i 0 w s F.7 < 2 g F.F.F.F.x h A F.F.w 2.b C m 3 3 6 F.w S <.S M M M A 2 M n 9 4 2.G m M ",
"M N m m > = 5 / N L < 6 g k g h F.F.F.F.q { M # F.3 2 n S +.k F.F.S = 7 2.N D F l 4 1 0 6 d f x P I G h h A q , > 4 F.x F.S n n ",
"< t < : > = G C.Z ~ N m 3 S g q k F.D j 9 { M $ 5 4 m > M i.<.+.w 0 j F.F.F.h q F.H N A w F.F.A F.F 2.@.F V y 9 $ 6 6 j F.h k w ",
"d N n @ F.# B ) / B n Z M M 3 0 k ;.q 0 w A q $ 1 n < $ n m Q c 6 D s F.F.-.C M w m M N F ;.A F f 7.F.8.q M 3.F.y @ 8 F.F.5 F.i.",
"H i a.F.$ $ 8 i.) C k N M M B 4 L F.w w 9 a w ;.3 n 1 : m B A M S G j =.m A S < q g G F 3.k F.F.F.x 9 7 =.F.F.F.7 @ < = < 5 8 N ",
"F.F.K C > $ 7 1 m 3 f n 1 5 4 S S C 2.s ; a 6.w D 3 2 1 2 B ) B 8 3 3 f w F 0 w a F.w F x k i.F.<.9 > 9 F.F.F.8 6.F.F.F.< r F.0 ",
"* F.r.Z y D a.F.N 2 j s = 9 3 3 B R d ; + ; F.A B 3 4 : 2 1 m : 9 7 l f F.F.S 9 < 9 9 C q 4 7.P v.a.j 4 F.g / 0 F.F.m < M 8 $ # ",
"$ F.; 1 6 F.s F.F.9 j F.4 0 H A B n < A 3 7 f A C n 9 : 1 = < $ ; x F.h 8 F.J n > : 2 0 =.F.l.k.p.F.F.F.F.F.2.F.q 6 F.F.- X + = ",
"2 N q F.1 , F.d F.F.P H Z C B < 1 3 8 D 0 n 9 S 0 F.7 A : : < z F.s.h M w S ! w < 4 A A F.F.j S D b F.F.w Z 8 n > : N w 2 $ O 1 ",
"S M M F.M ; O F.w F.+.F [ Z U q : , > M M N D w 8 F.F.F.; 0 $ F.F.F.F.F.F.F S q q 9 2.G w.a 0 -.w.0.6.h D S C w y 2 m n > > < J ",
"+.F.I W M d * * $ 0 :.k A 0 < 3 + < 2 , 7 8 P j F.F.F.F.F.F.a F.F.F.F.F.F.x.r.P 8 < q 7 w n 0 g.F.F.F.D 2.F.F.F.F.. > 1 m ^ N ] ",
"v n./ C A S a 1 $ < d F.< m 3 > n < 2 6 F.F.F.F h F.F.q F 0 ; , F.F.k +.<.x.w m , 3 < 9 M A R q.F.F.F.F.F.F.Z.4 7 . @ : E 0.! H ",
"%.F.D i.F.n k F.F.< - F.@ 4 , 3 : , < A F.F.F.:.5.F.F.q M n 3 : < s J I b.:.D M 1 > @ , 1 9 F e.F.F.F.F.7.u.i.F.& + > B G +.D N ",
"F.F.F.K F.F.h a.F.Z 5 * 9 4 M M q s q h F.F.F.F.F.F.F.F.5 $ > 2 1 < y F.F.F.q N N N a s = 5 8 S x F.F.S H s.F.F.> $ 9 9 c D F.F.",
"F.F.F.A F.F.F.k 6.0 < 4 g.a.0 6 F.A 8 P Z 0 F.j g j h F.s 8 < : 2 6 f F.F.F.F.N P 8 F.5 - 7 5 M F.F.F.F.F.F.F.N B = > 6 F.t.F.F.",
"F.F.F.0 J F.F.F.F.N 3 0 i.a.A w.F.U G n m M <.w a s h F.D q m m n F.F.F.F.F.F.w P N w D l 0 i D F.F.F.S b F.P H k 4 M 3 8 S F.F.",
"F.F.p.g p A F.F.S n k F.-.D.F.k.F.F.G < 1 n L 7 6 k 0.f.x.F n 4 9 F.F.F.F.F.F.0 B 1 F.F.7.F.F.2.F.F.B.@.2.F.y 1 V N F.a.k 5.k a."
};
