/* XPM */
static char *dDU_[] = {
/* columns rows colors chars-per-pixel */
"64 64 6 1 ",
"  c #0D1217",
". c #111B21",
"X c #052A32",
"o c #194648",
"O c #05625D",
"+ c #034150",
/* pixels */
"             ......X........X..........        X..X.........X.. ",
"             ..X.......................         ..............  ",
"            ............................       ...............  ",
"      X     ..........................X.       ...............  ",
"     XoX   .............X............XoX.     ...........X..... ",
"      X    ........ ...XOX............X...    ..........XOX.... ",
"          .........X  ..X.................   ............X......",
"          ..........    ......X...........   ......X............",
".         ...........      ..............   .................X..",
".        ........X...        ......X.....  .....................",
"..       .......X.....         ...........  ......... ..........",
"....     ......XoX....          ........... ........  ..........",
"....X.   .......X......         ............X......    .X.......",
"...X+X..  .............   o      ..........X+X...      XoX......",
"....X..... .............         ...........X..         X.......",
"............X............         ...o.......            .......",
".........................         .........              .......",
"..........................        .......                 ......",
"..X........................ X      ........              ..X....",
"  ...................+.....XOX     ..........     X     ..XOX.. ",
"    ........................X      ...........         ....X.   ",
"     .........................     ............        ......   ",
"      .......X..................  ..........X...      .......   ",
"   +  ......XOX...................+........XOX..      ........  ",
"       ......X..............................X..      .........  ",
"       ............+X........ .................    +X.......... ",
"       ....................... ...............      .........X..",
"      .......................X  .............       ............",
"      ......................... ............        ............",
"     ..........X..     ........  ......X...     X   ............",
"     .........  o       ........ ..........    XOX   .......X.. ",
"    ........            ........  ........      X    ......X+X. ",
"    .........           ......... ........            ......X.. ",
"   .....X......        ....X..... .X......         .   .......  ",
"   ....X+X.......      ...XoX.............        ...   ......  ",
"  ......X.........    .....X...............       ..... .....   ",
"  .................X  ................X....        ......X..    ",
"  ..................  ...............XoX....       .....XOX     ",
" ....X..............   .....X.........X.....        .....X      ",
"   .................    ...XOX....... .......     X  ...      X ",
"    ...............     ....X......X.. ......     ..            ",
"    ...............      .............  .....   ......          ",
"     .........X...        ............  ....   ........         ",
"    +........XOX..        .............  .X   ..........        ",
"      ........X..        ..............       ..........        ",
".      .........     +X .....o.........      ............    +  ",
".        ......         ..............X.    .............      .",
"..         ..          ..............XoX    ..............     .",
"..X                    ...............X.     .............     .",
"...  ....X     X        ...............      .............  X ..",
"........XOX              ..............       ....X........   ..",
".........X..              .....X......         ..XoX.......   ..",
"............                .........    X      ..X........  ...",
"...........                    ....     XOX       .......... ...",
"..........         X                     X          ....X.......",
"........                  X..                  X      .X+X......",
".....X        X       +  XOX...                         X.......",
"....X+X      XOX         .X......                      .........",
" ....X..      X    ...   ..........             X    ...........",
"  .....          ......    ......+X.     X          ............",
"   ..           .........   .........              ...........  ",
"                ...........  ........             ..........    ",
"              .....X........X.........           .X........ X . ",
"          +  .....XOX......X+X........    +     .XOX.......X+X.."
};
