/* XPM */
static char *dDY_[] = {
/* columns rows colors chars-per-pixel */
"64 64 8 1 ",
"  c #0D1217",
". c #111B21",
"X c #052A32",
"o c #034150",
"O c #05625D",
"+ c #40576C",
"@ c #009295",
"# c #29DFEB",
/* pixels */
"             ......X........X..........        X..X.........X.. ",
"             ..X.......................         ..............  ",
"            ............................       ...............  ",
"      X     ..........................X.       ...............  ",
"     X@X   .............X............X#X.     ...........X..... ",
"      X    ........ ...X@X............X...    ..........X@X.... ",
"          .........X  ..X.................   ............X......",
"          ..........    ......X...........   ......X............",
".         ...........      ..............   .................X..",
".        ........X...        ......X.....  .....................",
"..       .......X.....         ...........  ......... ..........",
"....     ......X#X....          ........... ........  ..........",
"....X.   .......X......         ............X......    .X.......",
"...X+X..  .............   @      ..........X+X...      X#X......",
"....X..... .............         ...........X..         X.......",
"............X............         ...#.......            .......",
".........................         .........              .......",
"..........................        .......                 ......",
"..X........................ +      ........              . X....",
"  ...................+.....+#+     ..........     X     ..X@X.. ",
"    ........................+X     ...........         ....X.   ",
"     .........................     ............        ......   ",
"      .......X..................  ..........X...      .......   ",
"   +  ......X@X...................+........XOX..      ........  ",
"       ......X..............................X..      .........  ",
"       ............+X........ .................    +X.......... ",
"       ....................... ...............      .........X..",
"      .......................X  .............       ............",
"      ......................... ............        ............",
"     ..........X..     ........  ......X...     X   ............",
"     .........  @       ........ ..........    X#X   .......+.. ",
"    ........            ........  ........      X    ......+#+. ",
"    .........           ......... ........            ......+.. ",
"   .....X......        ....X..... .X......         .   .......  ",
"   ....X+X.......      ...X#X.............        ...   ......  ",
"  ......X.........    .....X...............       ..... .....   ",
"  .................X  ................X....        ......X..    ",
"  ..................  ...............X#X....       .....X@X     ",
" ....X..............   .....X.........X.....        .....X      ",
"   .................    ...X@X....... .......     X  ...      X ",
"    ...............     ....X......X.. ......     ..            ",
"    ...............      .............  .....   ......          ",
"     .........+...        ............  ....   ........         ",
"    +........+#+..        .............  .X   ..........        ",
"      ........+..        ..............       ..........        ",
".      .........     +X .....#.........      ............    +  ",
".        ......         ..............X.    .............      .",
"..         ..          ..............X@X    ..............     .",
"..X                    ...............X.     .............     .",
"...  ....X     X        ...............      .............  X ..",
"........X#X              ..............       ....X........   ..",
".........X..              .....X......         ..X#X.......   ..",
"............                .........    +X     ..X........  ...",
"...........                    ....     +#+       .......... ...",
"..........         X                     +          ....X.......",
"........                  X..                  X      .X+X......",
".....X        X       o  X@X...                         X.......",
"....X+X      X+X         .X......                      .........",
" ....X..      X    ...   ..........             X    ...........",
"  .....          ......    ......+X.     X          ............",
"   ..           .........   .........              ...........  ",
"                ...........  ........             ..........    ",
"              .....X........X.........           .X........ X . ",
"          +  .....X@X......X+X........    +     .X@X.......X+X.."
};
