/* XPM */
static char *dDk_[] = {
/* columns rows colors chars-per-pixel */
"64 64 254 2 ",
"   c #000003",
".  c #090503",
"X  c #01010B",
"o  c #170F0B",
"O  c #020815",
"+  c #030C1B",
"@  c #02131C",
"#  c #06181A",
"$  c #241007",
"%  c #261309",
"&  c #2B1609",
"*  c #2A1A09",
"=  c #33170C",
"-  c #341C0B",
";  c #3C1D0D",
":  c #351813",
">  c #123115",
",  c #34230B",
"<  c #3C240C",
"1  c #3A2714",
"2  c #2E3513",
"3  c #080D24",
"4  c #091628",
"5  c #121F2E",
"6  c #0A1A33",
"7  c #121F31",
"8  c #0C212D",
"9  c #12222E",
"0  c #0B2333",
"q  c #142334",
"w  c #182835",
"e  c #15253A",
"r  c #19263C",
"t  c #16293A",
"y  c #1A2B3C",
"u  c #183434",
"i  c #25312B",
"p  c #421E0E",
"a  c #421E15",
"s  c #44240D",
"d  c #4A250D",
"f  c #442B0E",
"g  c #4B2C0E",
"h  c #43300F",
"j  c #4A360C",
"k  c #54390D",
"l  c #442312",
"z  c #492412",
"x  c #4A2A11",
"c  c #48281C",
"v  c #4A3411",
"b  c #473B16",
"n  c #4D2C23",
"m  c #274A1B",
"M  c #304F19",
"N  c #396E1F",
"B  c #1C4B28",
"V  c #1F4830",
"C  c #254C28",
"Z  c #285629",
"A  c #32502A",
"S  c #355929",
"D  c #295834",
"F  c #386829",
"G  c #376A31",
"H  c #4E4510",
"J  c #6C500E",
"K  c #79560A",
"L  c #4C4B2D",
"P  c #47782B",
"I  c #4F7C34",
"U  c #6B6422",
"Y  c #162740",
"T  c #1B2C42",
"R  c #1D3346",
"E  c #212D43",
"W  c #223344",
"Q  c #25384A",
"!  c #283A54",
"~  c #2C414F",
"^  c #2D4557",
"/  c #34445B",
"(  c #334C5C",
")  c #37515E",
"_  c #316342",
"`  c #364A64",
"'  c #3B5464",
"]  c #3A5565",
"[  c #36506B",
"{  c #3C556A",
"}  c #444B57",
"|  c #455B68",
" . c #435C6B",
".. c #455D72",
"X. c #485D73",
"o. c #4A626D",
"O. c #58636A",
"+. c #4B6374",
"@. c #4C6678",
"#. c #556979",
"$. c #546B7C",
"%. c #68737C",
"&. c #83660D",
"*. c #8B6E15",
"=. c #98741F",
"-. c #87742F",
";. c #5B8024",
":. c #598938",
">. c #6D9237",
",. c #5C8A42",
"<. c #689545",
"1. c #6D9A52",
"2. c #7AA44D",
"3. c #78A458",
"4. c #709669",
"5. c #6EA361",
"6. c #7AA769",
"7. c #7BAB7A",
"8. c #978C12",
"9. c #998719",
"0. c #AD8D10",
"q. c #A78818",
"w. c #A99718",
"e. c #B5961A",
"r. c #B2A619",
"t. c #8E932D",
"y. c #AA9726",
"u. c #AE912D",
"i. c #B69927",
"p. c #91B326",
"a. c #ABA429",
"s. c #B8A829",
"d. c #B2AC33",
"f. c #B9AC38",
"g. c #B9B53A",
"h. c #C3A82A",
"j. c #C4B031",
"k. c #C6B738",
"l. c #9AC412",
"z. c #A9D11A",
"x. c #ADD523",
"c. c #B8DB2A",
"v. c #B2D032",
"b. c #BBE02B",
"n. c #CAC238",
"m. c #C9D335",
"M. c #C9E537",
"N. c #CBE832",
"B. c #8AAC52",
"V. c #86AA58",
"C. c #9EA05C",
"Z. c #BAB646",
"A. c #ABAD50",
"S. c #BABA55",
"D. c #85AC69",
"F. c #8AB36B",
"G. c #94B968",
"H. c #88AE73",
"J. c #8BB473",
"K. c #8AB37C",
"L. c #94BA79",
"P. c #C7BB46",
"I. c #C5B751",
"U. c #B8CA4F",
"Y. c #9EC07D",
"T. c #BAC770",
"R. c #CCC549",
"E. c #CFCF4C",
"W. c #CBC857",
"Q. c #D4CC55",
"!. c #D9D458",
"~. c #D3E94E",
"^. c #E2F659",
"/. c #C8C866",
"(. c #D8D466",
"). c #CED072",
"_. c #D7D878",
"`. c #E2DD6F",
"'. c #D9E270",
"]. c #E6E775",
"[. c #566C82",
"{. c #5C7283",
"}. c #5B7588",
"|. c #657889",
" X c #637A8C",
".X c #6C7C8F",
"XX c #6F8493",
"oX c #748A99",
"OX c #7B95A0",
"+X c #878E93",
"@X c #949B9A",
"#X c #88B585",
"$X c #8AB48F",
"%X c #97B983",
"&X c #ACB39B",
"*X c #8D9DA7",
"=X c #8FA4B0",
"-X c #95AAB5",
";X c #95ACBA",
":X c #99ADBC",
">X c #9CB2B7",
",X c #9CB2BC",
"<X c #A6A9AA",
"1X c #ADAFAE",
"2X c #A1B6BD",
"3X c #A5B9BD",
"4X c #A9BBBC",
"5X c #B5B8B6",
"6X c #99C28E",
"7X c #ACC8AA",
"8X c #C8D388",
"9X c #DADD86",
"0X c #C4CD93",
"qX c #E2DF8B",
"wX c #E6E786",
"eX c #E9E894",
"rX c #EDF099",
"tX c #CBD1AD",
"yX c #D3D6B9",
"uX c #EDEFAD",
"iX c #96AEC1",
"pX c #97B0C1",
"aX c #9CB3C1",
"sX c #A1B6C2",
"dX c #A5BBC2",
"fX c #AABEC3",
"gX c #BEBEC0",
"hX c #ACC2C6",
"jX c #B5C5C8",
"kX c #BCCFD0",
"lX c #C5C8CB",
"zX c #CBD7CA",
"xX c #D7DBCA",
"cX c #C8CCD2",
"vX c #C9D7D7",
"bX c #D7DCD5",
"nX c #D7E1CF",
"mX c #DBE3D7",
"MX c #E2E1C7",
"NX c #E6E8DA",
"BX c #DCE0E0",
"VX c #E4E8E3",
"CX c #ECEDE3",
"ZX c #ECEDEC",
"AX c #EDF1E9",
"SX c #F4F5E8",
"DX c #F3F3EC",
"FX c #EEEFF2",
"GX c #EEF2F1",
"HX c #F4F5F3",
"JX c #F5F9F5",
"KX c #F9FAF6",
"LX c #F6F9F8",
"PX c #FBFCFB",
/* pixels */
"g g v g d d x z z z z p z z z z s g g f d d d j g j j v b v v v v v v v g g d g g g g g g g x l x x z z x z z l p s s g g g j g ",
"v g g g d d s p p p p p p p p p s s s s s f s f f f f f h h h h h f f 1 f s f d f s s s s s f l l l l z l l 1 p ; ; < s g g g g ",
"x g < - = - = ; = = = = = = = = - - - , - - , - , , , , , , , , , , , , - - , - = - - = - - - : - : : - = = = & = = - < g g < , ",
"g f , *X2X:X2X2X,X2X2X>X2X2X2XsX3X,X,X3X3X3X2X3X3XdXdXfXfXhXhXhXhXjXjXjX2X X` | [. XoXoX|..XXX}. XXX}. X|.[.#.#.#.+.X.| | f , * ",
"g s - } #.| X..X*X>X>X>X2X2X2X2X,X,X3X3X3X3X3XdXdXdXdXfXhXhXhXhXsXiX*XoX..` / X.}.oX X.X}.XX}.[.}.}.$.}.@.o.O.+.o.X.) ' | s - % ",
"s < - W W W Q Q / .X:X2X>X>X2X2X3X3X3X3X3X3X3X4X4XfXhXaX4XhXhX=XX.` [ [ ` ..` [..X}.}.}.}.[.}.{.}.}.{.$.@.$.+.X. .) | |  .s - % ",
"s ; & W W W y i W Q O. XoX2X4X4X4X3X3XdX3X3X4X4X4XOX[.` ] [ ` ^ ` ` [ ` / / X.}. X X}.}.XX$.}.$.{.$.$.#.#.$.#.o.| | | X.| ; * % ",
"p ; & y y y y y r y E W W ) XX:XdX3X4XdX4X4X4X4X*X! ! Q Q Q ^ / ! ! ! / / | @.}.XX$.|.}.@.$.XX$.}.$.[.@.#.#.o.o.+.X.@...| ; & % ",
"p ; = r w y y w y y y y y T W  .oXXX}.*XdX3XhXoXQ Q R ! ! ! ! ! ` ! ! ` { X.[.|.{.|.{.#.o.@.@.$.$.@.@.@.o.o.| o.| o.] ) ' ; & % ",
"p p & r y y r r r r y w y T y T y y R Q o.XXoXQ T T T Q R ! Q ! ! ! ! } +.@.$.$.$.$.$.+.@.+.+.$.@...#.o.| ) | o.+.o.| o.' ; & % ",
"p = & w r r w r w q e e e e y Y t t y T y R R T Y T t r T Q W Q ! ! ..[.[.@.#.+.+.@.o. . . .@.+.....+. .' ] | | o.o.+.' / ; & $ ",
"p ; = r w r w q w w e q w e w t t T y y y t Y y t t y e T T T R ! [ [.X.@.{.o.+.+.o.' o. .+. .o. .@. .| ' '  .| { o.{ o.<X; & % ",
"p p & w w w w w q 7 7 r y y r w e r Y Y r r e t e e e e r R E Q ` { ..X.@. .+.@.+.+. . . .{ o.] @.@. .o.) ' |  .%.<XBXPXJX; = % ",
"p p = i w w q 9 7 q q q q w e e t r y T t t t e q t y Y T R ^ [ ] { +.@. . .o.o.] o. . .o.{ ] ] o...{ ] ( XX5XNXGXJXJXPXKXp - % ",
"x p = e w 9 9 q q q q q q q q q q q t t e e q q e y y T ^ { ..@.....] `  . .{ ] ] ] ] ( ] ] ] ] ' | XXlXVXPXKXAXKXJXPXPXPXl - % ",
"z l - q w w e q q 5 9 7 7 9 5 5 9 e t q q e 0 w e Y T ` { @.@.{ [ ' ' '  .{  .] { ' ( ( ` )  .@X5XSXJXSXJXKXJXPXKXLXPXLXLXl = & ",
"z l - q w w q 7 q 5 q q 7 5 5 7 7 7 7 q 7 7 Y r t R / { { +.] ( { { ] ' ) ] ] | | ( / | @XgXHXKXPXKXKXJXKXKXPXPXPXPXLXLXJXl , & ",
"x f - q q 5 q 7 9 q 9 7 5 5 7 q r e #.O.} E 7 T Q / [ [ { ( ] { { { ) ( ) ) ) ( | @XlXFXPXPXPXPXPXPXKXKXPXPXKXPXPXPXLXPXLXf - * ",
"g f - q 7 7 5 9 q 8 5 5 q 9 q q q q :XsX-X:X:X*X+XoXoX.X X#.) ) ] ) ( ^ ^ O.<XcXDXKXKXPXLXHXPXPXPXPXPXPXPXPXPXPXPXPXLXPXPXf , * ",
"g g , 9 5 7 8 q 8 7 9 5 7 8 9 q 7 q =X,X:XaX:XsX>X:X2X2X,X3XhX>X=X*X*X@XlXVXFXZXDXHXHXHXHXLXKXPXKXKXKXPXPXPXPXPXPXLXPXPXPXf - * ",
"g d , 9 0 q 9 9 5 9 8 8 q q q q 7 7 =X;X-X2XaX:XdX,XsX3X3X3X,X,X4XfX3XvXVXFXFXHXHXHXKXHXHXDXKXPXKXPXJXKXKXPXPXPXPXLXPXLXPXs - & ",
"d s - 9 9 q 9 9 5 9 q 8 8 7 0 0 Y Y iX;XiXsXiXsXsXaX:X,X>X,X2XhXdXhXhXvXFXFXFXZXKXLXKXFXJXHXKXKXKXPXJXHXKXPXPXPXJXPXJXPXJXs - * ",
"d s - q 9 q 9 9 q 7 9 5 q 7 0 t W ! ;X;X:XaXiXpXaXaX;X-X-X>XdXhXaXdXhXkXZXZXZXHXHXFXHXHXKXKXKXJXDXHXKXKXZXKXHXGXJXPXLXLXJXd - * ",
"d s , 9 9 q 9 9 9 q q e w W R ~ Q Q ;X:XaXpXpXpXaXaX>X:XdXaX,XdXaXhXhXvXFXFXHXKXHXKXKXLXKXJXKXJXJXPXHXHXLXFXHXPXPXPXPXJXHXd - & ",
"g s - q q q q e q w W ^ ` ^ Q R R T ;X;X:XaXsXsXaXsXsX:X>XaX,X,XdX,XhXvXGXZXJXJXKXKXKXHXHXDXPXKXHXPXLXHXPXLXFXLXPXJXLXPXGXs - * ",
"g d - w e w e y ~ ^ ( ^ ^ Q R t t u ;X=X,X:X:X,XaXiX2X2X,X,X,X,XaX,XdXkXGXGXGXGXKXHXZXZXHXDXKXKXHXHXFXFXPXPXLXLXPXPXHXPXGX1 - * ",
"g s , y 7 w ~ ~ ~ R ~ u R W i y R w =X;X-X;XdXaX3XaX,XaXpX,X>X-X>XaXaXkXZXHXGXHXHXJXHXFXFXZXHXLXPXHXLXHXPXPXHXPXPXPXPXPXLXf - * ",
"v f , O.4.+XoX@X@X<X<X1X1X5X5X1X1X1XaXiX;X:X;XpX:X,X>X;X>XaX>X-X;X;XdXkXZXHXGXGXZXZXKXHXKXKXHXHXHXHXKXFXPXFXPXPXPXPXPXPXPXx , * ",
"v f , DXAXNXNXCXCXAXSXSXSXSXSXSXCXSXjX;X=X;X;X,X,X;X;X;X=X;X-X-X=X=X-XhXZXGXHXZXDXZXHXHXHXCXHXDXFXKXPXKXHXLXHXFXZXBXBXBXBXf , * ",
"v h , CXAXNXNXNXCXAXKXSXSXSXSXCXCXHX-X|.#.%.$.#.%.}.%.XX}.oXXXXXoXoXoX=XcXlXlXcXcXcXgX<X@X+X+X+X+X%.} E 7 3 3 3 3 6 3 6 4 f 1 * ",
"v h , NXCXCXNXAXNXDXJXSXSXSXNXmX<X) 4 @ + @ + O @ @ @ @ 4 4 # @ 4 4 4 8 4 0 0 0 7 O X O . X X O X O 3 + 3 3 3 7 3 3 4 4 4 h , * ",
"v h , CXCXNXCXSXSXSXCXKXKXSXNX&X8 4 O @ + + + 4 # # 4 8 8 8 8 8 8 0 0 0 0 0 0 t 5 X X X O O X X O O O 3 3 3 3 3 3 3 3 3 4 f 2 * ",
"j h 2 NXmXNXVXAXAXVXDXSXZXCXMX1X4 @ O O # C Z D D A D S D D D G D D D V V D S D D S A M L A i i o # O + + + + 3 3 3 3 3 3 f , * ",
"j h , NXAXAXVXCXVXCXAXCXSXCXMX5X# O O > Z G D C C A 2 &XL A D C B D D B V Z F F P I :.>.<.:.<.<.<.>.B.G.V.B.V.F.G.G.C.D.6.l , * ",
"v f , mXmXVXmXnXmXmXnXnXxXxXNX5X@ O # D D D B C - ; . xXb M > C D D V D Z D Z F G :.:.,.<.<.2.2.B.V.D.D.F.G.G.V.F.G.2.3.G.f , * ",
"j d , jXjXzXzXzXzXzXzXzXxXmXCX5X@ @ > B B Z m 2 c a $ nXc b b # D D V B C Z F P P G :.,.,.2.3.F.F.D.6.D.L.L.6XJ.D.J.L.%XL.h , * ",
"g f , jXzXzXzXnXnXnXnXzXNXCXmX-X@ # C D Z C 2 l n a % mX1 H 2 2 B _ D B C Z F G G G :.<.1.3.2.3.D.D.6X7.6X6XL.7.J.J.6.F.G.f , * ",
"g d , zXzXzXzXvXzXnXnXCXZXVXbX<X@ O C F C m 1 f c : $ uXf b M > B D B B m m F :.:.<.>.<.1.3.F.3.6.6.K.K.#XL.L.L.L.L.6.D.J.f - * ",
"g f - zXbXbXvXbXvXbXNXmXMXxXxX4X# @ M D B m 1 c l ; L MXs b j > > _ _ D F M F N N :.,.<.<.B.5.7.6.4.OXK.$X#X7.6XK.F.7.D.L.f , * ",
"g s , zXxXxXmXMXxXxXxXzXzXtXtXyX&X# Z M C 2 = a 1 ; 4.@XH j H 2 > D _ B N N Z F P I :.1.1.5.4.4.$X7.7.7.$X#XK.7.K.D.D.G.F.s , % ",
"g f , xXyXyXyXuXMXyXyXyXyX0X0X7X7X@XB m Z M * < a p %.+XU n j 2 B G D D Z Z N G N P :.,.1.1.5.4.7.7.7.6X6X6X#XK.K.D.F.J.F.f - * ",
"g s < yXyXtXtXyXyXtX0X0X0X0XT.T.T.T.:.Z m > % - : a D.%XU k j H m Z M M S P F F P ;.:.,.<.5.5.5.5.6.7.6X6X$X%XK.K.K.J.J.G.s - * ",
"g f - 8X8X8X8X8X8X8X8XT.T.T.T.U.v.U.;.m m M ; d k J T.T.=.K *.J J j H H H H H P N ;.:.:.<.1.5.1.5.7.6.OX$X7.J.L.L.J.%XK.J.f - * ",
"d f - T.T.U.U.E.U.U.U.v.v.v.v.v.v.m.t.H k H k J U *.u.d.a.u.s.w.8.0.8.K *.K *.*.K U U :.>.2.D.3.2.6.5.6.K.#XF.J.K.D.#X$XL.d - * ",
"g s , x.x.x.l.p.l.l.l.z.z.x.l.z.b.^.(.t.J K K J K &.i.f.j.h.n.h.s.h.h.h.k.j.q.9.8.w.=.*.8.>.B.2.3.2.3.6.6.6.F.L.L.6X%X%XY.s - * ",
"g s - l.z.l.z.x.z.z.z.z.z.b.m.N.N.~.^.^.U.&.K K &.&.u.j.n.j.R.j.R.m.j.j.s.R.P.Z.v.s.f.a.w.0.9.9.t.>.>.2.D.3.J.J.F.J.L.L.L.d - & ",
"d s , l.x.v.c.b.c.c.c.M.N.M.M.~.~.N.~.^.^._.u.&.&.&.i.h.n.E.Q.n.E.`.Q.Q.!.(.(.`.R.k.W.W.s.w.a.w.9.8.8.t.t.t.B.F.V.F.J.H.G.d - & ",
"d s , x.z.x.c.x.x.c.c.M.M.c.b.M.N.M.M.~.'.W.A.U &.*.0.h.j.Q.n.Q.(.P.k.wX`.R.R.'.E.]._.W.P.W.f.a.y.y.a.a.w.8.w.a.p.t.p.B.G.d - & ",
"d d ; c.b.N.c.b.~.M.M.~.~.m.^.!.U.C.1.L . X   . J *.=.q.u.e.k.Q.Q.!.R.Q.R.wXrX(.`.wX`.wX_.(.R.P.s.d.d.f.a.y.y.8.r.8.8.8.a.s - & ",
"p p = c.N.N.N.N.~.~.).A.<.L .   . X X X         X j u.=.i.e.k.P.P.!.E.!.R.k.!.(.rXwX!.].eXeX(.qX).Z.S.S.S.Z.d.a.r.r.r.8.w.s = & ",
"d p = N.v.W.A.U ,     .     . X   . X   X           . *.i.e.0.e.h.P.R.E.(.(.`.`.`.`.].!.`.].!.k.I.).).T.E./.U.s.s.r.a.s.s.p = & ",
"d p - $               X   . X X X X . X                 J =.0.0.h.h.k.j.j.!.n.(.I.uXuXrX(.(.`.wXeX9X/.9X_.R.R./.E.n.m.v.E.p = & ",
"d p = X                     X     X                       * *.i.e.i.k.Q.n.!.Q.eXwXR.`.(.(.eXuXqX`.qX9XW.R.9X9X(.Q.E.!.Q.n.a - & ",
"d p -                                 X                   .   -.h.e.i.0.j.k.k.I.`.eX/.qXwX/.`.qX).qXuX8XR.!.wX].!.E.n.Q.!.a = & ",
"d p =                         X   X   X                         L u.h.i.e.s.r.h.P.R.k.k.9XuXuX9X!./._.uXeXn._.].]._.!.(.W.p = & ",
"z p =                     X X       X                           . . =.i.h.h.k.s.P.P.j.Z.S.Z./.I.f.I.Z.k.).j.n.R.U.(.(./.).s = & ",
"l s -                 X X   X     X   X                         . .   U u.i.i.h.j.j.I.I./.).f.P.S.S.).).U.n.W._._._.!.W._.l = & ",
"x s -                         X X                                       o C.k.h.e.u.u.q.u.j.Z.I.).).).Q.I./.R./.W./.T.A.t.g - * ",
"x s -                   X X X X X X X X                                     -.I.P.i.e.i.i.I.W.I.f./.)./.v.T.S.).9X).a.d.C.l - * ",
"f x < X X X X X   X X X   X X X X X X X X                                   . a u.h.q.=.u.u.P.I.I.s.f.w.s.g.W.s.a.f.g.Z.d.f - * ",
"v x g X X X X X X X X X X X O X X X X X X         X       X               X   X . -.u.u.i.y.u.y.i.s.I.f.W.W.S.d.Z.d.a.Z.S.l - * ",
"f f f x s s s l p p a p p p p a p s s s f d s s f h f h h < h h h h d f d f f s s f x s s s p l l l l l l l < < : ; ; < 1 1 - * ",
", < , , - - - = = = = = = = = = - - - - - - , , , , , , 2 , , , , , , , , - - - - - - - - - - - : : - = - : = = & & - - - , & * ",
"* * & & & & & % & & & % % & & & * % * % * * * * * * * * * * , * * * * * * & * * & * * * & & * & * & & * & & % & % % & * & * * * "
};
